<svg enable-background="new 0 0 29.71 29.71" viewBox="0 0 29.71 29.71" xmlns="http://www.w3.org/2000/svg"><path clip-rule="evenodd" d="m14.85 0c8.2 0 14.85 6.65 14.85 14.85s-6.65 14.85-14.85 14.85-14.85-6.64-14.85-14.85 6.65-14.85 14.85-14.85zm0 2.97c-6.56 0-11.88 5.32-11.88 11.88s5.32 11.88 11.88 11.88 11.88-5.32 11.88-11.88-5.31-11.88-11.88-11.88zm0 2.97c.76 0 1.39.57 1.48 1.31l.01.17v6.81l2.54 2.54c.58.58.58 1.52 0 2.1-.54.54-1.38.58-1.96.12l-.14-.12-2.97-2.97c-.23-.23-.38-.53-.42-.86l-.01-.2v-7.41c-.01-.82.65-1.49 1.47-1.49z" fill="#fff" fill-rule="evenodd"/></svg>