<svg enable-background="new 0 0 34.82 34.81" viewBox="0 0 34.82 34.81" xmlns="http://www.w3.org/2000/svg"><g fill="#fff"><path d="m33.32 5.82c-.2-.34-.4-.68-.64-.99-.7-.99-1.56-1.86-2.54-2.58-1.92-1.42-4.27-2.25-6.82-2.25h-11.83c-2.55 0-4.92.84-6.82 2.27-.96.7-1.81 1.56-2.5 2.54-.26.32-.48.67-.68 1.04-.95 1.66-1.49 3.59-1.49 5.64v11.83c0 2.05.54 3.99 1.49 5.66.16.29.34.56.53.83.85 1.25 1.95 2.33 3.23 3.14.03.03.04.04.06.05 1.79 1.15 3.9 1.81 6.18 1.81h11.83c2.29 0 4.41-.66 6.2-1.81.01 0 .01-.01.03-.03.01 0 .01 0 .02-.01 1.31-.84 2.44-1.95 3.29-3.24.16-.24.31-.48.45-.71.96-1.68 1.51-3.62 1.51-5.68v-11.84c0-2.07-.55-3.99-1.5-5.67zm-1.24 17.5c0 4.83-3.92 8.75-8.75 8.76h-11.84c-4.82 0-8.75-3.93-8.75-8.76v-11.83c0-4.83 3.93-8.76 8.75-8.76h11.83c4.83 0 8.76 3.93 8.76 8.76z"/><path d="m27.58 14.05c-.65-1.62-1.44-2.94-2.18-3.99-.63-.32-1.41-.66-2.33-.94-.86-.27-1.66-.43-2.33-.52-.22.41-.44.83-.65 1.24-.8-.1-1.7-.17-2.68-.18-.98.01-1.89.08-2.68.18-.22-.41-.43-.83-.65-1.24-.69.09-1.47.25-2.33.52-.91.28-1.69.62-2.33.94-.74 1.05-1.53 2.38-2.18 3.99-1.51 3.71-1.55 7.1-1.39 9.15.72.52 1.59 1.09 2.6 1.63 1.18.63 2.3 1.07 3.26 1.38.42-.66.85-1.32 1.28-1.98-.3-.12-.63-.25-.96-.41-.36-.17-.69-.34-.99-.52.18-.15.36-.3.52-.46.38.19.79.36 1.22.53 1.65.61 3.24.8 4.63.8 1.4 0 2.99-.19 4.63-.8.43-.17.84-.34 1.21-.53.18.15.36.3.53.46-.3.18-.63.35-.99.52-.34.15-.66.29-.96.41.42.66.85 1.32 1.28 1.98.96-.31 2.07-.75 3.26-1.38 1.01-.54 1.89-1.11 2.6-1.63.16-2.05.12-5.44-1.39-9.15zm-14.03 6.65c-1.21 0-2.18-1.04-2.18-2.33s.97-2.34 2.18-2.34c1.2 0 2.17 1.05 2.17 2.34s-.97 2.33-2.17 2.33zm7.72 0c-1.2 0-2.17-1.04-2.17-2.33s.97-2.34 2.17-2.34c1.21 0 2.18 1.05 2.18 2.34.01 1.29-.97 2.33-2.18 2.33zm6.31-6.65c-.65-1.62-1.44-2.94-2.18-3.99-.63-.32-1.41-.66-2.33-.94-.86-.27-1.66-.43-2.33-.52-.22.41-.44.83-.65 1.24-.8-.1-1.7-.17-2.68-.18-.98.01-1.89.08-2.68.18-.22-.41-.43-.83-.65-1.24-.69.09-1.47.25-2.33.52-.91.28-1.69.62-2.33.94-.74 1.05-1.53 2.38-2.18 3.99-1.51 3.71-1.55 7.1-1.39 9.15.72.52 1.59 1.09 2.6 1.63 1.18.63 2.3 1.07 3.26 1.38.42-.66.85-1.32 1.28-1.98-.3-.12-.63-.25-.96-.41-.36-.17-.69-.34-.99-.52.18-.15.36-.3.52-.46.38.19.79.36 1.22.53 1.65.61 3.24.8 4.63.8 1.4 0 2.99-.19 4.63-.8.43-.17.84-.34 1.21-.53.18.15.36.3.53.46-.3.18-.63.35-.99.52-.34.15-.66.29-.96.41.42.66.85 1.32 1.28 1.98.96-.31 2.07-.75 3.26-1.38 1.01-.54 1.89-1.11 2.6-1.63.16-2.05.12-5.44-1.39-9.15zm-14.03 6.65c-1.21 0-2.18-1.04-2.18-2.33s.97-2.34 2.18-2.34c1.2 0 2.17 1.05 2.17 2.34s-.97 2.33-2.17 2.33zm7.72 0c-1.2 0-2.17-1.04-2.17-2.33s.97-2.34 2.17-2.34c1.21 0 2.18 1.05 2.18 2.34.01 1.29-.97 2.33-2.18 2.33z"/></g></svg>