<svg enable-background="new 0 0 34.83 34.82" viewBox="0 0 34.83 34.82" xmlns="http://www.w3.org/2000/svg"><path d="m33.33 5.82c-1.98-3.48-5.73-5.82-10.01-5.82h-11.83c-4.28 0-8.02 2.35-10 5.85-.95 1.66-1.49 3.59-1.49 5.64v11.83c0 2.05.54 3.99 1.49 5.66.93 1.63 2.24 3.02 3.82 4.02 1.79 1.15 3.91 1.82 6.18 1.82h11.83c2.29 0 4.41-.66 6.2-1.82 1.56-1 2.88-2.38 3.79-3.99.96-1.68 1.51-3.62 1.51-5.68v-11.84c.01-2.06-.54-3.99-1.49-5.67zm-1.24 17.5c0 4.83-3.92 8.75-8.75 8.76h-.81v-9.97h3.82s0 0 0-4.75c0 0 0 0-3.82 0 0 0 0 0 0-2.47 0-.62.17-1.06.93-1.06h2.89s0 0 0-5.36c0 0 0 0-3.22 0-3.31 0-5.94 2.81-5.94 6.5v2.37s0 0-3.47 0v4.75h3.47v9.97h-5.69c-4.82 0-8.75-3.93-8.75-8.76v-11.81c0-4.83 3.93-8.76 8.75-8.76h11.83c4.83 0 8.76 3.93 8.76 8.76z" fill="#fff"/></svg>