<svg enable-background="new 0 0 34.82 34.82" viewBox="0 0 34.82 34.82" xmlns="http://www.w3.org/2000/svg"><g fill="#fff"><path d="m17.41 26.25c-4.87 0-8.84-3.96-8.84-8.84 0-4.87 3.96-8.84 8.84-8.84 4.87 0 8.84 3.96 8.84 8.84 0 4.87-3.97 8.84-8.84 8.84zm0-14.94c-3.36 0-6.1 2.74-6.1 6.1s2.74 6.1 6.1 6.1 6.1-2.74 6.1-6.1c0-3.37-2.74-6.1-6.1-6.1z"/><circle cx="26.45" cy="8.49" r="1.58"/><path d="m23.32 34.82h-11.82c-6.34 0-11.5-5.16-11.5-11.5v-11.82c0-6.34 5.16-11.5 11.5-11.5h11.82c6.34 0 11.5 5.16 11.5 11.5v11.82c0 6.34-5.16 11.5-11.5 11.5zm-11.82-32.08c-4.83 0-8.76 3.93-8.76 8.76v11.82c0 4.83 3.93 8.76 8.76 8.76h11.82c4.83 0 8.76-3.93 8.76-8.76v-11.82c0-4.83-3.93-8.76-8.76-8.76z"/></g></svg>