<svg enable-background="new 0 0 29.22 21.16" viewBox="0 0 29.22 21.16" xmlns="http://www.w3.org/2000/svg"><path d="m18.66 21.16c-.14-.11-.26-.19-.37-.25v-.12h-.46c-.14-.22-.28-.45-.44-.69-.15-.23-.27-.46-.35-.69h-.5c-.06-.22-.1-.4-.15-.54-.04-.14-.16-.29-.35-.46-.55 0-1-.11-1.33-.33s-.61-.46-.83-.71-.42-.48-.6-.71c-.18-.22-.37-.33-.56-.33-.22 0-.48.16-.77.48s-.67.88-1.14 1.68c-.55.55-1.19.92-1.91 1.1s-1.46.28-2.2.31c-.03.04-.05.07-.05.1s-.01.06-.04.08h-.29v-.5c-.44.11-.85.17-1.21.17-.44 0-.67-.12-.67-.37 0-.3.14-.69.42-1.16s.6-.98.98-1.52.73-1.09 1.08-1.66.6-1.13.77-1.68c-.31-.05-.87-.17-1.7-.35s-1.69-.4-2.58-.67c-.89-.26-1.68-.55-2.37-.85s-1.04-.63-1.04-.93c.25-.14.47-.28.67-.44.19-.15.43-.27.71-.35v-.21c.14-.08.3-.16.5-.23.18-.07.34-.13.45-.18v-.3h.58c.03-.17.17-.31.44-.44.26-.12.56-.21.89-.26.33-.06.67-.1 1-.12.33-.03.58-.05.75-.05.55 0 1.16.02 1.81.06s1.38.06 2.18.06c.75-1.86 1.29-3.73 1.62-5.61.22-.08.34-.18.35-.29s.03-.26.06-.46c.19-.05.39-.12.58-.19s.32-.2.37-.4h.46c.19-.28.45-.48.77-.62.32-.13.59-.31.82-.53.39.08.89.13 1.5.15.61.01 1.12.05 1.54.1.39 1.03.73 2.06 1.04 3.1s.57 2.14.79 3.3c1.19 0 2.44-.08 3.74-.23s2.41-.3 3.33-.44c.14 0 .25-.01.33-.04s.17-.04.25-.04.21.07.37.21c.17.14.35.33.54.58s.36.56.5.93c.14.38.24.78.29 1.23 0 .17-.01.27-.04.31s-.14.06-.33.06c-.5.14-1.14.26-1.91.35-.78.1-1.56.19-2.35.27s-1.53.15-2.22.21-1.19.1-1.5.12v.46c0 .91.19 1.77.56 2.58s.79 1.54 1.25 2.22.88 1.3 1.27 1.87.58 1.08.58 1.52c0 .47-.24.85-.71 1.12-.47.28-1.34.54-2.62.79-.31-.11-.54-.26-.71-.46-.17-.19-.37-.36-.62-.5v.42c-.06.06-.12.08-.19.08s-.1.06-.1.17h-.42v.37c-.06.06-.1.08-.12.08-.03 0-.06.01-.08.04-.03.03-.06.04-.08.04v.17h-.23z" fill="#22ff93"/></svg>