<svg enable-background="new 0 0 34.82 34.81" viewBox="0 0 34.82 34.81" xmlns="http://www.w3.org/2000/svg"><g fill="#fff"><path d="m24.37 10.31c-5.65 2.11-11.3 4.22-16.95 6.33-.56.28-.83.75-.72 1.08.02.06.08.2.31.32 1.52.49 3.04.98 4.57 1.46 3.59-2.21 7.18-4.42 10.77-6.63.2-.09.37-.09.42-.02.03.04.02.1 0 .17-.04.16-.14.27-.21.33-2.72 2.47-5.45 4.93-8.17 7.4 2.36 1.75 4.73 3.5 7.09 5.25.04.02.51.31 1.04.08.54-.23.64-.79.65-.83 1.02-4.8 2.04-9.59 3.05-14.39.02-.23-.04-.36-.09-.44-.25-.35-.97-.44-1.76-.11z"/><path d="m33.32 5.82c-.2-.34-.4-.68-.64-.99-.7-.99-1.56-1.86-2.54-2.58-1.92-1.42-4.27-2.25-6.82-2.25h-11.83c-2.55 0-4.92.84-6.82 2.27-.96.7-1.81 1.56-2.5 2.54-.26.32-.48.67-.68 1.04-.95 1.66-1.49 3.59-1.49 5.64v11.83c0 2.05.54 3.99 1.49 5.66.16.29.34.56.53.83.85 1.25 1.95 2.33 3.23 3.14.03.03.04.04.06.05 1.79 1.15 3.9 1.81 6.18 1.81h11.83c2.29 0 4.41-.66 6.2-1.81.01 0 .01-.01.03-.03.01 0 .01 0 .02-.01 1.31-.84 2.44-1.95 3.29-3.24.16-.24.31-.48.45-.71.96-1.68 1.51-3.62 1.51-5.68v-11.84c0-2.07-.55-3.99-1.5-5.67zm-1.24 17.5c0 4.83-3.92 8.75-8.75 8.76h-11.84c-4.82 0-8.75-3.93-8.75-8.76v-11.83c0-4.83 3.93-8.76 8.75-8.76h11.83c4.83 0 8.76 3.93 8.76 8.76z"/></g></svg>