<svg enable-background="new 0 0 34.82 34.81" viewBox="0 0 34.82 34.81" xmlns="http://www.w3.org/2000/svg"><g fill="#fff"><path d="m33.32 5.82c-.2-.34-.4-.68-.64-.99-.7-.99-1.56-1.86-2.54-2.58-1.92-1.42-4.27-2.25-6.82-2.25h-11.83c-2.55 0-4.92.84-6.82 2.27-.96.7-1.81 1.56-2.5 2.54-.26.32-.48.67-.68 1.04-.95 1.66-1.49 3.59-1.49 5.64v11.83c0 2.05.54 3.99 1.49 5.66.16.29.34.56.53.83.85 1.25 1.95 2.33 3.23 3.14.03.03.04.04.06.05 1.79 1.15 3.9 1.81 6.18 1.81h11.83c2.29 0 4.41-.66 6.2-1.81.01 0 .01-.01.03-.03.01 0 .01 0 .02-.01 1.31-.84 2.44-1.95 3.29-3.24.16-.24.31-.48.45-.71.96-1.68 1.51-3.62 1.51-5.68v-11.84c0-2.07-.55-3.99-1.5-5.67zm-1.24 17.5c0 4.83-3.92 8.75-8.75 8.76h-11.84c-4.82 0-8.75-3.93-8.75-8.76v-11.83c0-4.83 3.93-8.76 8.75-8.76h11.83c4.83 0 8.76 3.93 8.76 8.76z"/><path d="m27.15 9.83c-.28.16-.6.33-.96.48-.61.26-1.17.43-1.66.53-.3-.32-.89-.86-1.79-1.15-1.4-.44-3.11-.13-4.27 1.04-1.58 1.58-1.18 3.73-1.15 3.9-.94-.02-2.22-.16-3.63-.67-2.78-1-4.45-2.85-5.18-3.79-.21.39-.66 1.36-.51 2.62.22 1.88 1.59 2.94 1.84 3.12-.22.01-.51.01-.85-.07-.46-.1-.81-.29-1.02-.43 0 .42.05.98.3 1.58.74 1.83 2.59 2.47 2.95 2.59-.24.07-.56.15-.96.16-.32.01-.6-.02-.82-.07.12.39.39 1.1 1.04 1.75 1.08 1.07 2.43 1.18 2.79 1.2-.49.4-1.21.89-2.15 1.25-1.7.66-3.22.56-4.02.45.74.49 1.84 1.09 3.26 1.49 3.03.85 7.35.71 10.87-2.12 4.67-3.75 4.46-9.43 4.43-9.99.25-.17.52-.37.78-.62.6-.55 1.02-1.12 1.3-1.58-.26.13-.57.27-.94.38-.52.16-.98.22-1.35.25.26-.17.6-.43.92-.82.46-.56.68-1.13.78-1.48z"/></g></svg>