<svg enable-background="new 0 0 175.45 25.46" viewBox="0 0 175.45 25.46" xmlns="http://www.w3.org/2000/svg"><g fill="#fff"><path d="m10.86.19c-1.33.13-2.33 4.09-4.33 12-.17.69-.34 1.36-.49 2.01-4.01.02-6.02.15-6.04.41-.01.25 1.89.61 5.67 1.09-.73 3.18-1.26 5.86-1.62 7.86.28.55.77 1.38 1.36 1.36 1.32-.03 2.37-4.26 3.25-8.87 1.9.21 4.11.45 6.64.7.66 2.64 1.24 5.03 1.61 6.32.12.44.42 1.43 1.11 1.61.61.15 1.26-.39 1.61-.74-4.68-19.97-7.27-23.9-8.77-23.75zm-1.85 14.01c.91-5 1.64-9.85 2.34-9.81s2.08 4.97 3.33 9.88c-2.12-.03-4.01-.06-5.67-.07z"/><path d="m34.85 13.37c-.08-.39-1.63-.38-2.2-.36-.47-3.8-.94-7.59-1.41-11.39-.82-1.02-1.44-1.46-1.88-1.32-1.15.37-1 4.74.42 13.07-4.44.94-8.83 3.54-8.63 5.98.21 2.51 5.21 4.06 6.67 4.52 2.52.78 4.75.81 6.26.7-.42-3.35-.83-6.7-1.25-10.05 1.23-.46 2.08-.85 2.02-1.15zm-3.68 7.37c-4.82-.76-6.14-1.59-6.19-2.29-.06-1.03 2.6-2.07 5.17-2.98.3 1.62.63 3.37 1.02 5.27z"/><path d="m49.08 13.48c-.08-.39-1.63-.38-2.2-.36-.47-3.8-.94-7.59-1.41-11.39-.81-1.02-1.44-1.46-1.88-1.32-1.15.37-1 4.74.42 13.07-4.44.94-8.83 3.54-8.63 5.98.21 2.51 5.21 4.06 6.67 4.52 2.52.78 4.75.81 6.26.7-.42-3.35-.83-6.7-1.25-10.05 1.23-.46 2.08-.85 2.02-1.15zm-3.68 7.37c-4.82-.76-6.14-1.59-6.19-2.29-.06-1.03 2.6-2.07 5.17-2.98.3 1.62.63 3.37 1.02 5.27z"/><path d="m83.02 4.73c.44 1.06-.76 2.57-1.84 3.69-.32-.5-1.27-1.83-2.89-2.16-2.38-.5-4.48 1.52-5.37 2.89-2.33 3.61-.68 9.6 2.97 11.38 1.13.55 2.25.6 2.97.56.43.82.84 1.88.4 2.49-.87 1.2-4.94.48-7.21-1.52-4.21-3.71-4.1-13.43.93-17.07 3.47-2.53 9.27-2.11 10.04-.26z"/><path d="m82.06 13.39c-1.01-.35-1.63-.29-2 0-1.79 1.39.18 9.4 4.33 10.34.27.06 1.01.22 1.85-.08 3.83-1.35 4.41-10.34 2.48-11.23-.44-.2-1.02.02-1.6.4.09 3.87-.39 6.78-1.27 7.5-.65.53-1.21.48-1.21.48s-.48-.04-.95-.52c-1.18-1.17-1.61-6.64-1.63-6.89z"/><path d="m99.2 15.63c.69-.37 3.6-2.03 4.53-5.47.21-.77.67-2.48-.01-3.83-1.23-2.44-6.03-3.32-11.71-1.51.02 5.87.04 11.73.07 17.6.24.53.73.89 1.28.94.68.06 1.36-.38 1.61-1.07.16-1.86.31-3.72.47-5.57 5.52 5.68 8.53 8.32 9 7.93.44-.38-1.3-3.38-5.24-9.02zm-1.14-4.43c-1.11.82-2.31.93-2.89.94.06-1.61.12-3.22.18-4.83 1.99-1.11 3.94-.99 4.52-.14.69.99-.45 3.02-1.81 4.03z"/><path d="m113.78 15.97c.92-.4 3.48-1.67 4.1-4.1.99-3.91-3.73-8.29-7.93-8.8-2.33-.28-5.17.55-5.31 1.61-.08.66.89 1.35 1.88 1.88 1.84 11.71 3.3 17.53 4.37 17.46.52-.03.94-1.44 1.28-4.23 4.91 3.6 7.57 5.17 7.99 4.7.45-.49-1.67-3.33-6.38-8.52zm-2.62-2.42c-.74-2.6-1.48-5.19-2.22-7.79 3.55.35 5.6 3.02 5.24 4.97-.35 1.88-2.87 2.77-3.02 2.82z"/><path d="m134.17 22.4c-.47-1.38-4.6-1.23-7.81-.91-.29-1.47-.59-2.93-.88-4.4 1.86.06 3.72.12 5.58.18 1.32-1.18 1.39-1.75 1.28-2.04-.21-.55-1.29-.6-4.87-.74-.12 0-1.51-.06-2.53-.1-.27-1.32-.53-2.64-.8-3.96 1.91.3 4.69.65 8.37 1.03.08-.23.2-.75.08-1.37-.14-.69-.51-1.13-.68-1.31-3.55.05-6.23.14-8.04.27-.11-.55-.22-1.09-.33-1.64-.45-.08-.89-.16-1.34-.24.09.53.19 1.21.29 2.01-.96.11-1.45.25-1.46.41-.01.17.52.36 1.58.58.08.68.15 1.43.21 2.23.52 6.77-.35 10.27 1.53 11.4.49.29.77.19 3.4.05 2.56-.14 4.66-.18 6.08-.19.39-.56.44-.96.34-1.26z"/><path d="m136.74 23.9c-.33-6.78-.67-13.56-1-20.34.06-.05.94-.84 2-.54.54.16.87.52 1 .69 2.35 4.58 4.71 9.16 7.06 13.74.83-3.5 1.36-6.36 1.69-8.29.83-4.9 1.1-8.21 3.12-8.99.52-.2 1.01-.18 1.33-.14-1.1 7.85-2.2 15.71-3.3 23.56-.24.24-.84.76-1.78.96-.74.16-1.35.04-1.67-.04-2.05-4.61-4.09-9.21-6.14-13.81-.08 4.76-.15 9.52-.23 14.28-.1.05-.55.29-1.08.13-.52-.17-.91-.64-1-1.21z"/><path d="m160 9.9c-.1-.45-2.7-.76-4.94.4-2.01 1.04-3.74 3.29-3.85 5.86-.17 4.1 3.83 8.28 7.81 7.69 3.37-.49 5.03-4.15 5.17-4.48-3.39 1.32-6.8.29-8.09-1.95-.71-1.23-.91-3.04-.17-4.48 1.17-2.29 4.19-2.54 4.07-3.04z"/><path d="m168.5 16.33c-.59.1-1.19.19-1.78.29-5.07-9.73-7.27-14.8-6.6-15.21.61-.38 3.62 3.12 9.01 10.51.62-2.76 1-5.04 1.25-6.68.42-2.78.5-4.21 1.51-4.74 1.12-.58 2.69.29 3.56.86-3.81 16.23-6.15 24.27-7 24.11-.52-.11-.5-3.15.05-9.14z"/></g></svg>