<?xml version="1.0" encoding="utf-8"?>
<!-- Generator: Adobe Illustrator 26.0.3, SVG Export Plug-In . SVG Version: 6.00 Build 0)  -->
<svg version="1.1" id="Слой_1" xmlns="http://www.w3.org/2000/svg" xmlns:xlink="http://www.w3.org/1999/xlink" x="0px" y="0px"
	 viewBox="0 0 348.13 312.4" style="enable-background:new 0 0 348.13 312.4;" xml:space="preserve">
<style type="text/css">
	.st0{opacity:0.5;}
	.st1{fill:#FFFFFF;}
</style>
<g class="st0">
	<g>
		<g>
			<path class="st1" d="M59.34,70.81c-2.87-9.63-5.73-19.26-8.6-28.89c-2.87-9.63-5.74-19.27-8.6-28.9
				c-0.14-0.48-0.23-0.96-0.58-1.33c-0.42-0.45-0.96-0.5-1.54-0.61c-1.23-0.23-2.46-0.45-3.69-0.68c-2.43-0.45-4.86-0.89-7.29-1.34
				c-0.97-0.18-2.26-0.72-3.07,0.11c-0.34,0.34-0.45,0.83-0.61,1.27c-0.21,0.59-0.42,1.19-0.63,1.78c-0.84,2.38-1.68,4.75-2.52,7.13
				c-3.37,9.5-6.73,19-10.09,28.51C8.78,57.28,5.43,66.73,2.09,76.17c-0.42,1.18-0.84,2.37-1.26,3.56c-0.11,0.3,0.12,0.6,0.4,0.7
				c1.31,0.46,2.57,0.34,3.92,0.2c1.56-0.16,3.12-0.33,4.68-0.49c1.56-0.16,3.12-0.32,4.68-0.48c0.69-0.07,1.37-0.14,2.06-0.22
				c0.7-0.07,1.51-0.05,2.18-0.26c1.37-0.45,1.64-1.76,2.01-2.98c0.45-1.5,0.91-2.99,1.37-4.49c0.44-1.43,0.88-2.87,1.31-4.3
				c0.22-0.71,0.4-1.45,0.66-2.15c0.08-0.2,0.14-0.36,0.34-0.48c0.05-0.03,0.09-0.05,0.14-0.07c0.06-0.03,0.19-0.05,0.25-0.06
				c0.02,0,0.03,0,0.03,0c1.22-0.15,2.45-0.18,3.66-0.25c2.54-0.16,5.09-0.3,7.63-0.43c1.48-0.08,2.96-0.22,4.44-0.26
				c0.71-0.02,1.42-0.04,2.12-0.03c0.33,0,0.32,0.02,0.4,0.31c0.11,0.42,0.24,0.84,0.36,1.26c0.87,2.99,1.74,5.98,2.61,8.97
				c0.12,0.42,0.23,0.84,0.36,1.25c0.14,0.42,0.34,0.61,0.79,0.67c0.41,0.05,0.86-0.05,1.28-0.09c0.37-0.04,0.75-0.07,1.12-0.11
				c1.75-0.17,3.5-0.34,5.25-0.51c0.87-0.09,1.75-0.16,2.62-0.25c0.59-0.06,1.15-0.23,1.57-0.67c0.89-0.91,0.54-2.49,0.27-3.59
				C59.36,70.87,59.35,70.84,59.34,70.81z M39.73,51.01h-2.17c-1.11,0-2.23,0.01-3.34,0.02c-1.1,0.01-2.2,0.02-3.3,0.02
				c-0.54,0-1.07,0.01-1.61,0.01c-0.25,0-0.5,0-0.75,0c-0.17,0-0.67,0.09-0.81,0.03c-0.22-0.11,0.02-0.69,0.08-0.89
				c0.16-0.54,0.31-1.07,0.47-1.61c0.29-1.01,0.59-2.03,0.88-3.04c1.2-4.15,2.39-8.29,3.59-12.44c0.31-1.05,0.61-2.1,0.91-3.15
				c0.02-0.08,0.04-0.16,0.07-0.24c0.02,0.07,0.05,0.13,0.05,0.16c0.16,0.55,0.31,1.09,0.47,1.64c0.59,2.06,1.19,4.11,1.78,6.17
				c0.68,2.36,1.36,4.72,2.04,7.09c0.33,1.15,0.66,2.3,0.99,3.45c0.17,0.61,0.35,1.21,0.52,1.82c0.08,0.28,0.25,0.66,0.22,0.97
				C39.78,51,39.74,51.01,39.73,51.01z M39.84,51C39.84,51,39.84,51,39.84,51c0.01-0.04,0.03-0.06,0.04-0.08
				C39.87,50.95,39.85,50.97,39.84,51z"/>
			<path class="st1" d="M74.15,51.2c-0.02-12.15-0.05-24.29-0.07-36.44c-0.01-3.02-0.01-6.04-0.02-9.06c0-1.57,0.04-3.15-0.01-4.72
				C74-0.51,71.71,0.11,70.81,0.23c-1.47,0.19-2.94,0.38-4.41,0.58c-0.67,0.09-1.38,0.13-2.04,0.27c-0.73,0.15-0.88,0.77-1.07,1.41
				c-0.68,2.28-1.91,4.36-3.52,6.1c-1.3,1.41-2.83,2.6-4.48,3.58c-0.66,0.39-1.35,0.76-2.04,1.09c-0.63,0.3-1.56,0.49-1.72,1.27
				c-0.05,0.25-0.02,0.57-0.02,0.83c0,0.52,0,1.04,0,1.56c0,1.45,0,2.89,0,4.34c0,1.03-0.02,2.06,0,3.09
				c0.01,0.53,0.25,1.06,0.83,1.17c0.43,0.08,1-0.25,1.39-0.41c0.58-0.23,1.14-0.48,1.7-0.76c2.06-1.03,3.87-2.41,5.74-3.75
				c0.12-0.08,0.23-0.17,0.35-0.24c0,0.05,0,0.1,0,0.14c-0.01,1.49-0.03,2.99-0.03,4.48c0.02,6.04,0.03,12.07,0.05,18.11
				c0,1.51,0.01,3.02,0.01,4.53c0,0.75,0.01,1.51,0.01,2.26c0,0.41-0.02,0.87,0.29,1.19c0.36,0.37,1.08,0.29,1.55,0.32
				c0.74,0.06,1.48,0.12,2.22,0.17c1.48,0.12,2.96,0.23,4.45,0.35c0.74,0.06,1.48,0.12,2.22,0.17c0.63,0.05,1.05-0.03,1.58-0.4
				c0.01-0.01,0.02-0.02,0.03-0.03C74.04,51.57,74.15,51.42,74.15,51.2z M61.98,20.08C62.01,20.07,62,20.08,61.98,20.08L61.98,20.08
				z"/>
		</g>
		<g>
			<g>
				<rect x="213.93" y="7.58" class="st1" width="6.71" height="65.66"/>
				<polygon class="st1" points="200.5,37.06 161.71,37.06 161.71,7.58 155,7.58 155,73.24 161.71,73.24 161.71,43.77 200.5,43.77 
					200.5,73.24 207.22,73.24 207.22,7.58 200.5,7.58 				"/>
				<path class="st1" d="M263.7,31.63c0.97-0.76,1.64-1.83,1.99-3.21l-2.28-0.29c-0.33,0.96-0.79,1.67-1.36,2.11
					c-0.57,0.44-1.26,0.66-2.07,0.66c-1.08,0-1.99-0.39-2.72-1.18c-0.73-0.79-1.13-1.92-1.21-3.4h9.69
					c0.01-0.27,0.01-0.47,0.01-0.61c0-2.22-0.55-3.95-1.65-5.17c-1.1-1.23-2.52-1.84-4.26-1.84c-1.79,0-3.25,0.63-4.38,1.88
					c-1.13,1.25-1.69,3.01-1.69,5.28c0,2.19,0.56,3.89,1.67,5.1c1.11,1.21,2.62,1.82,4.52,1.82
					C261.49,32.77,262.73,32.39,263.7,31.63z M257.33,21.62c0.69-0.7,1.54-1.05,2.55-1.05c1.12,0,2.03,0.44,2.73,1.32
					c0.46,0.57,0.73,1.42,0.83,2.55h-7.26C256.26,23.26,256.64,22.33,257.33,21.62z"/>
				<path class="st1" d="M279.11,27.82l-2.17-0.29c-0.15,1.14-0.52,1.99-1.1,2.54c-0.58,0.55-1.3,0.82-2.17,0.82
					c-1.08,0-1.95-0.41-2.62-1.23c-0.67-0.82-1-2.13-1-3.94c0-1.78,0.35-3.09,1.04-3.91c0.69-0.82,1.6-1.24,2.7-1.24
					c0.73,0,1.36,0.23,1.88,0.68c0.52,0.46,0.88,1.14,1.08,2.04l2.14-0.34c-0.25-1.36-0.83-2.41-1.72-3.15
					c-0.9-0.74-2.05-1.11-3.46-1.11c-1.12,0-2.15,0.27-3.1,0.82c-0.95,0.55-1.66,1.36-2.12,2.45c-0.46,1.09-0.7,2.36-0.7,3.82
					c0,2.25,0.54,3.98,1.62,5.18c1.08,1.2,2.51,1.81,4.29,1.81c1.42,0,2.62-0.44,3.59-1.31C278.26,30.58,278.87,29.37,279.11,27.82z
					"/>
				<path class="st1" d="M291.58,32.75v-8.53c0-1.32-0.15-2.33-0.46-3.02s-0.81-1.24-1.52-1.63c-0.71-0.39-1.55-0.59-2.51-0.59
					c-1.57,0-2.86,0.62-3.89,1.85v-5.58v-1.09V9.8h-2.2v4.36v1.09v17.5h2.2v-7.37c0-1.06,0.12-1.88,0.37-2.49
					c0.24-0.6,0.65-1.08,1.23-1.43c0.58-0.35,1.19-0.53,1.84-0.53c0.87,0,1.55,0.26,2.03,0.78c0.48,0.52,0.72,1.35,0.72,2.49v8.53
					H291.58z"/>
				<path class="st1" d="M326.11,26.8v-3.04c0-1.01-0.03-1.72-0.1-2.11c-0.12-0.63-0.33-1.14-0.64-1.55
					c-0.3-0.41-0.78-0.75-1.42-1.02c-0.65-0.27-1.48-0.41-2.52-0.41c-1.04,0-1.96,0.16-2.75,0.48c-0.79,0.32-1.39,0.77-1.81,1.36
					c-0.42,0.59-0.72,1.36-0.9,2.31l2,0.3c0.22-0.96,0.56-1.62,1.02-2c0.46-0.38,1.17-0.56,2.14-0.56c1.03,0,1.81,0.26,2.34,0.77
					c0.39,0.38,0.58,1.04,0.58,1.97c0,0.08,0,0.28-0.01,0.6c-0.78,0.3-2,0.57-3.66,0.79c-0.81,0.11-1.42,0.22-1.82,0.34
					c-0.55,0.17-1.04,0.42-1.48,0.75c-0.44,0.33-0.79,0.77-1.06,1.31c-0.27,0.55-0.4,1.15-0.4,1.81c0,1.12,0.36,2.05,1.07,2.77
					c0.71,0.72,1.73,1.08,3.06,1.08c0.81,0,1.56-0.15,2.26-0.44c0.7-0.3,1.43-0.8,2.19-1.52c0.06,0.63,0.2,1.19,0.41,1.66h2.14
					c-0.26-0.52-0.43-1.05-0.52-1.62S326.11,28.92,326.11,26.8z M324.03,26.52c0,1.01-0.11,1.77-0.33,2.28
					c-0.29,0.67-0.74,1.19-1.36,1.58c-0.61,0.38-1.32,0.58-2.11,0.58c-0.8,0-1.4-0.2-1.82-0.61c-0.41-0.41-0.62-0.91-0.62-1.52
					c0-0.4,0.09-0.76,0.28-1.08c0.19-0.33,0.46-0.57,0.81-0.74c0.35-0.17,0.95-0.32,1.79-0.46c1.49-0.24,2.6-0.52,3.35-0.86V26.52z"
					/>
				<path class="st1" d="M332.9,19.17c-0.43,0.31-0.89,0.96-1.4,1.95v-2.11h-1.98v13.91h2.2v-7.28c0-0.99,0.12-1.91,0.37-2.75
					c0.16-0.55,0.43-0.98,0.82-1.29c0.38-0.31,0.81-0.47,1.29-0.47c0.54,0,1.07,0.17,1.61,0.51l0.76-2.19
					c-0.76-0.51-1.52-0.76-2.26-0.76C333.8,18.69,333.33,18.85,332.9,19.17z"/>
				<polygon class="st1" points="343.01,24.3 347.64,19.3 344.98,19.3 340.13,24.78 340.13,15.11 340.13,14.18 340.13,9.8 
					338.08,9.8 338.08,14.18 338.08,15.11 338.08,32.77 340.13,32.77 340.13,27.43 341.58,25.88 345.58,32.77 348.11,32.77 				"/>
				<path class="st1" d="M250.06,58.23c0.83-0.54,1.45-1.25,1.86-2.13c0.41-0.87,0.62-1.81,0.62-2.8c0-1.07-0.24-2.09-0.69-3.07
					c-0.46-0.98-1.1-1.7-1.92-2.17c-0.82-0.47-1.9-0.7-3.25-0.7h-6.17v23.21h6.27c1.13,0,2.08-0.13,2.86-0.39
					c0.78-0.26,1.42-0.64,1.93-1.15c0.51-0.51,0.95-1.22,1.3-2.16c0.35-0.94,0.52-1.95,0.52-3.04c0-1.35-0.28-2.52-0.86-3.51
					C251.95,59.35,251.12,58.64,250.06,58.23z M242.66,50.11h3.25c1.27,0,2.16,0.11,2.69,0.33c0.52,0.22,0.92,0.61,1.2,1.2
					c0.28,0.58,0.43,1.26,0.43,2.04c0,0.81-0.15,1.48-0.46,2.02c-0.3,0.54-0.75,0.93-1.34,1.16c-0.45,0.18-1.19,0.27-2.23,0.27
					h-3.54V50.11z M250.61,65.81c-0.23,0.57-0.53,1-0.89,1.29c-0.37,0.3-0.81,0.51-1.35,0.63c-0.31,0.07-0.84,0.11-1.6,0.11h-4.12
					v-7.98h3.81c1.13,0,1.99,0.13,2.59,0.39c0.6,0.26,1.07,0.71,1.41,1.35c0.34,0.63,0.5,1.39,0.5,2.25
					C250.96,64.59,250.85,65.25,250.61,65.81z"/>
				<path class="st1" d="M262.02,56.5c-1.76,0-3.19,0.63-4.29,1.88c-1.1,1.25-1.65,3.01-1.65,5.28c0,2.19,0.55,3.89,1.64,5.1
					c1.09,1.21,2.57,1.82,4.43,1.82c1.48,0,2.69-0.38,3.64-1.14c0.95-0.76,1.6-1.83,1.95-3.21l-2.23-0.29
					c-0.33,0.96-0.77,1.67-1.33,2.11c-0.56,0.44-1.24,0.66-2.03,0.66c-1.06,0-1.95-0.39-2.66-1.18c-0.71-0.79-1.11-1.92-1.19-3.4
					h9.49c0.01-0.27,0.01-0.47,0.01-0.61c0-2.22-0.54-3.95-1.62-5.17C265.12,57.11,263.73,56.5,262.02,56.5z M258.43,62.24
					c0.07-1.17,0.45-2.11,1.12-2.81c0.68-0.7,1.51-1.05,2.5-1.05c1.09,0,1.99,0.44,2.67,1.32c0.45,0.57,0.72,1.42,0.81,2.55H258.43z
					"/>
				<rect x="270.51" y="47.37" class="st1" width="2.16" height="23.21"/>
				<path class="st1" d="M286.31,64.64v-3.2c0-1.07-0.04-1.81-0.11-2.21c-0.13-0.66-0.35-1.2-0.67-1.63
					c-0.32-0.43-0.82-0.79-1.5-1.07c-0.68-0.28-1.56-0.43-2.65-0.43c-1.09,0-2.06,0.17-2.89,0.5c-0.83,0.33-1.47,0.81-1.91,1.43
					c-0.44,0.62-0.76,1.43-0.95,2.43l2.11,0.32c0.23-1.01,0.59-1.71,1.07-2.1c0.48-0.4,1.23-0.59,2.25-0.59
					c1.09,0,1.91,0.27,2.46,0.81c0.41,0.4,0.61,1.09,0.61,2.07c0,0.09,0,0.3-0.01,0.63c-0.82,0.32-2.11,0.6-3.85,0.83
					c-0.85,0.12-1.49,0.24-1.92,0.36c-0.58,0.18-1.09,0.44-1.55,0.79c-0.46,0.35-0.83,0.81-1.11,1.38c-0.28,0.57-0.43,1.21-0.43,1.9
					c0,1.18,0.38,2.16,1.13,2.92c0.75,0.76,1.82,1.14,3.22,1.14c0.85,0,1.64-0.16,2.38-0.47c0.74-0.31,1.51-0.85,2.31-1.6
					c0.06,0.67,0.21,1.25,0.43,1.75H287c-0.27-0.54-0.45-1.11-0.55-1.7C286.36,68.28,286.31,66.87,286.31,64.64z M284.13,64.34
					c0,1.06-0.12,1.86-0.35,2.4c-0.3,0.7-0.78,1.26-1.43,1.66c-0.65,0.4-1.39,0.61-2.22,0.61c-0.84,0-1.48-0.21-1.91-0.64
					c-0.44-0.43-0.65-0.96-0.65-1.6c0-0.42,0.1-0.8,0.3-1.14c0.2-0.34,0.48-0.6,0.85-0.78c0.37-0.18,0.99-0.34,1.88-0.48
					c1.57-0.25,2.74-0.55,3.52-0.91V64.34z"/>
				<path class="st1" d="M292.95,56.56c-0.42,0.32-0.88,0.98-1.37,1.99V56.4h-1.94v14.17h2.16v-7.42c0-1.01,0.12-1.95,0.36-2.8
					c0.16-0.56,0.43-1,0.8-1.32s0.8-0.47,1.27-0.47c0.53,0,1.05,0.17,1.58,0.52l0.74-2.23c-0.75-0.52-1.49-0.77-2.22-0.77
					C293.83,56.08,293.37,56.24,292.95,56.56z"/>
				<path class="st1" d="M306.25,63.57c0,1.23-0.12,2.17-0.35,2.81c-0.24,0.65-0.64,1.16-1.2,1.53c-0.57,0.37-1.17,0.56-1.82,0.56
					c-0.65,0-1.19-0.18-1.63-0.55c-0.44-0.37-0.73-0.87-0.86-1.51c-0.09-0.44-0.13-1.3-0.13-2.58v-7.99h-2.16v8.93
					c0,1.04,0.04,1.8,0.13,2.28c0.13,0.71,0.35,1.32,0.67,1.81c0.32,0.49,0.8,0.9,1.45,1.23c0.65,0.33,1.35,0.49,2.1,0.49
					c1.7,0,3.05-0.81,4.04-2.44v2.12h1.93V55.85h-2.16V63.57z"/>
				<path class="st1" d="M320.7,62.5c-0.64-0.3-1.78-0.68-3.4-1.15c-1.12-0.33-1.8-0.54-2.03-0.64c-0.4-0.17-0.69-0.4-0.88-0.66
					c-0.19-0.26-0.28-0.55-0.28-0.87c0-0.51,0.23-0.95,0.68-1.33c0.45-0.38,1.2-0.57,2.26-0.57c0.89,0,1.59,0.21,2.07,0.64
					c0.49,0.42,0.79,1.01,0.89,1.77l2.25-0.33c-0.14-0.95-0.41-1.71-0.79-2.27c-0.38-0.57-0.98-1.02-1.78-1.35
					c-0.8-0.33-1.74-0.5-2.8-0.5c-0.71,0-1.37,0.1-1.98,0.3c-0.62,0.2-1.1,0.44-1.46,0.73c-0.48,0.37-0.85,0.83-1.13,1.39
					c-0.28,0.56-0.41,1.16-0.41,1.82c0,0.72,0.17,1.38,0.5,1.97c0.34,0.59,0.83,1.06,1.48,1.4c0.65,0.34,1.82,0.73,3.5,1.2
					c1.25,0.34,2.03,0.62,2.35,0.84c0.45,0.32,0.68,0.76,0.68,1.33c0,0.63-0.25,1.17-0.77,1.64c-0.51,0.47-1.29,0.7-2.35,0.7
					c-1.05,0-1.86-0.26-2.44-0.79c-0.58-0.52-0.94-1.28-1.06-2.27l-2.27,0.39c0.26,1.56,0.84,2.73,1.77,3.52
					c0.92,0.79,2.27,1.19,4.03,1.19c1.06,0,2.02-0.2,2.86-0.6c0.84-0.4,1.49-0.97,1.93-1.7c0.45-0.73,0.67-1.51,0.67-2.34
					c0-0.85-0.18-1.56-0.55-2.13C321.84,63.23,321.34,62.8,320.7,62.5z"/>
				<path class="st1" d="M303.38,23.42h4.13c2.69,0,4.55-0.67,5.58-2.02c1.03-1.36,1.54-3.01,1.54-4.96c0-1.13-0.19-2.18-0.57-3.13
					c-0.39-0.95-0.9-1.69-1.52-2.22c-0.63-0.52-1.42-0.88-2.35-1.07c-0.67-0.15-1.63-0.22-2.89-0.22h-5.96v22.97h2.05V23.42z
					 M303.38,12.5h4.11c1.15,0,1.93,0.07,2.35,0.21c0.66,0.22,1.19,0.67,1.6,1.35c0.4,0.69,0.6,1.51,0.6,2.47
					c0,1.33-0.34,2.35-1.02,3.08c-0.69,0.73-1.84,1.1-3.47,1.1h-4.16V12.5z"/>
				<polygon class="st1" points="245.24,28.39 245.24,32.77 247.45,32.77 247.45,28.39 247.45,12.03 254,12.03 254,9.8 252.97,9.8 
					239.73,9.8 238.7,9.8 238.7,12.03 245.24,12.03 				"/>
			</g>
		</g>
		<g>
			<polygon class="st1" points="142.75,142.52 142.71,142.52 142.73,142.46 			"/>
			<polygon class="st1" points="148.47,142.52 148.42,142.52 148.44,142.46 			"/>
			<polygon class="st1" points="142.75,142.52 142.71,142.52 142.73,142.46 			"/>
			<polygon class="st1" points="148.47,142.52 148.42,142.52 148.44,142.46 			"/>
			<g>
				<polygon class="st1" points="231.72,146.96 233.29,142.52 223.17,142.52 217.86,142.52 217.86,146.96 217.86,168.28 
					222.54,168.28 223.17,168.28 232.75,168.28 232.75,163.62 223.17,163.62 223.17,157.25 231.55,157.25 231.55,152.81 
					223.17,152.81 223.17,146.96 				"/>
				<path class="st1" d="M270.41,154.28c1.73-1.18,2.59-2.89,2.59-5.14c0-2.41-0.79-4.21-2.36-5.42c-1.39-1.1-3.39-1.65-6.01-1.65
					h-4.71v26.19h6.52c2.72,0,4.82-0.58,6.28-1.73c0.76-0.6,1.39-1.4,1.9-2.4c0.51-0.99,0.77-2.08,0.77-3.26
					c0-1.44-0.41-2.79-1.24-4.06C273.34,155.54,272.08,154.7,270.41,154.28z M262.83,144.81h2.28c0.29,0,0.58,0.01,0.86,0.04
					c0.29,0.03,0.71,0.12,1.26,0.28c0.55,0.16,1.02,0.38,1.41,0.67c0.39,0.29,0.75,0.73,1.06,1.32c0.31,0.59,0.47,1.29,0.47,2.1
					c0,0.76-0.13,1.43-0.39,2c-0.26,0.58-0.58,1.01-0.96,1.3c-0.38,0.29-0.82,0.52-1.33,0.69c-0.51,0.17-0.95,0.27-1.32,0.31
					c-0.37,0.04-0.75,0.06-1.14,0.06h-2.2V144.81z M270.76,164.41c-0.94,0.73-2.47,1.1-4.59,1.1h-3.34v-9.35h2.98
					c2.02,0,3.5,0.26,4.44,0.79c1.49,0.81,2.24,2.09,2.24,3.85C272.49,162.37,271.91,163.57,270.76,164.41z"/>
				<path class="st1" d="M287.93,142.52l-11.3,25.74h3.22l3.14-7.39h11.15l3.06,7.39h3.22l-11.01-25.74H287.93z M284.12,158.12
					l4.48-10.48l4.4,10.48H284.12z"/>
				<polygon class="st1" points="320.85,162.6 304.9,142.52 303.21,142.52 303.21,168.28 305.72,168.28 305.72,147.73 
					322.04,168.28 323.35,168.28 323.35,142.52 320.85,142.52 				"/>
				<polygon class="st1" points="336,154.52 347.76,142.52 343.99,142.52 333.29,153.55 333.29,142.52 330.5,142.52 330.5,168.26 
					333.29,168.26 333.29,157.18 334.01,156.45 344.29,168.26 348.13,168.26 				"/>
				<rect x="184.97" y="142.52" class="st1" width="5.31" height="25.76"/>
				<path class="st1" d="M201.42,142.52h-7.57c0,1.48,0,2.96,0,4.44c2.52,0,5.04,0,7.57,0v21.32h5.32v-21.32c2.2,0,4.41,0,6.61,0
					c0.52-1.48,1.04-2.96,1.57-4.44h-8.18H201.42z"/>
				<path class="st1" d="M242.8,142.52h-7.57c0,1.48,0,2.96,0,4.44c2.52,0,5.04,0,7.57,0v21.32h5.32v-21.32c2.2,0,4.41,0,6.61,0
					c0.52-1.48,1.04-2.96,1.57-4.44h-8.18H242.8z"/>
				<path class="st1" d="M142.71,142.52l-10.17,25.76h5.72l2.6-6.57h9.48l2.59,6.57h5.72l-10.17-25.76H142.71z M142.52,157.47
					l3.07-7.77l3.07,7.77H142.52z"/>
				<path class="st1" d="M173.69,156.62c0.61-0.24,1.58-0.7,2.52-1.61c0.46-0.44,1.76-1.81,2.17-4.03c0.11-0.59,0.52-2.99-0.95-5.25
					c-2-3.09-5.73-3.2-6.06-3.21c-1.57,0-3.14,0-4.71,0h-0.79h-4.53v25.76h5.31v-9.96c0.7,0,1.41,0,2.11,0
					c0.91,1.15,1.85,2.45,2.78,3.9c1.37,2.15,2.43,4.21,3.26,6.06c2.04,0,4.09,0,6.13,0c-0.96-2.14-2.22-4.53-3.85-7.04
					C175.95,159.5,174.8,157.96,173.69,156.62z M172.41,152.55c-0.06,0.09-0.15,0.22-0.29,0.37c-0.86,0.91-2.16,1.01-2.78,1.06
					c-0.23,0.02-0.42,0.02-0.53,0.02c-0.72,0.01-1.44,0.01-2.15,0.02v-7.36c0.77,0,1.55,0.01,2.32,0.01
					c0.59,0.02,2.07,0.15,3.16,1.29c0.29,0.3,0.44,0.56,0.5,0.67C173.34,149.83,173.17,151.43,172.41,152.55z"/>
				<path class="st1" d="M129.23,145.36c-2.29-2.83-5.88-2.85-6.42-2.85c-1.08,0-2.16,0-3.25,0h-5.31v25.76h5.31v-8.66
					c1.11,0.01,2.22,0.02,3.32,0.03c0.28-0.03,0.67-0.07,1.13-0.18c0.67-0.15,2.97-0.69,4.76-2.68c2.11-2.35,2.14-5.19,2.13-6.09
					C130.9,149.72,130.89,147.41,129.23,145.36z M124.31,154.08c-0.17,0.15-0.32,0.25-0.42,0.31c-0.99,0.64-2.03,0.71-2.63,0.69
					c-0.56,0-1.13,0-1.69,0v-8.4c0.67,0.01,1.34,0.01,2.01,0.02c0.34-0.01,1.7-0.02,2.73,0.98c0.6,0.58,0.81,1.24,0.96,1.73
					C125.74,150.99,125.5,153.02,124.31,154.08z"/>
			</g>
			<path class="st1" d="M72.75,160.1c-10.25,10.26-20.5,20.53-30.76,30.79L1.51,150.41l19.61-19.62l10.51,10.51l-9.75,9.77
				l20.09,20.09c6.94-7.01,13.88-14.01,20.82-21.02L72.75,160.1z"/>
			<polygon class="st1" points="61.61,171.28 41.99,190.89 61.6,171.27 			"/>
			<path class="st1" d="M102.87,150.99L83.26,170.6l-10.5-10.5l9.76-9.76l-20.09-20.09c-6.98,6.97-13.95,13.94-20.93,20.91
				l-9.86-9.86c10.25-10.27,20.5-20.54,30.75-30.8L102.87,150.99z"/>
		</g>
		<g>
			<g>
				<polygon class="st1" points="28.85,306.27 24.94,299.45 23.96,299.45 28.43,307.25 28.43,312.14 29.28,312.14 29.28,307.25 
					33.74,299.45 32.77,299.45 				"/>
				<polygon class="st1" points="73.31,300.3 77.52,300.3 77.52,312.14 78.37,312.14 78.37,300.3 82.6,300.3 82.6,299.45 
					73.31,299.45 				"/>
				<path class="st1" d="M129.3,310.79l-4.74-11.34c-0.34,0-0.67,0-1.01,0v12.69h0.85v-10.86l4.55,10.86h0.72l4.51-10.79v10.79h0.85
					v-12.69c-0.32,0-0.65,0-0.97,0L129.3,310.79z"/>
				<path class="st1" d="M4.17,305.12c-1.82-0.37-3.39-0.69-3.39-2.58c0-1.42,1.47-2.5,3.42-2.5c1.17,0,2.19,0.48,2.83,1.26
					c0.16-0.22,0.33-0.45,0.49-0.68c-0.78-0.89-1.96-1.43-3.31-1.43c-2.39,0-4.2,1.44-4.2,3.35c0,2.59,2.12,3.03,4,3.41
					c1.91,0.39,3.72,0.77,3.72,3.06c0,1.44-1.46,2.53-3.41,2.53c-1.42,0-2.57-0.57-3.2-1.53c-0.18,0.21-0.37,0.43-0.55,0.65
					c0.79,1.08,2.13,1.73,3.75,1.73c2.43,0,4.19-1.42,4.19-3.38C8.5,306.01,6.2,305.54,4.17,305.12z"/>
				<path class="st1" d="M53.03,305.12c-1.82-0.37-3.39-0.69-3.39-2.58c0-1.42,1.47-2.5,3.42-2.5c1.17,0,2.19,0.48,2.83,1.26
					c0.16-0.22,0.33-0.45,0.49-0.68c-0.78-0.89-1.96-1.43-3.31-1.43c-2.39,0-4.2,1.44-4.2,3.35c0,2.59,2.12,3.03,4,3.41
					c1.91,0.39,3.72,0.77,3.72,3.06c0,1.44-1.46,2.53-3.41,2.53c-1.42,0-2.57-0.57-3.2-1.53c-0.18,0.21-0.37,0.43-0.55,0.65
					c0.79,1.08,2.13,1.73,3.75,1.73c2.43,0,4.19-1.42,4.19-3.38C57.36,306.01,55.06,305.54,53.03,305.12z"/>
				<path class="st1" d="M155.51,305.12c-1.82-0.37-3.39-0.69-3.39-2.58c0-1.42,1.47-2.5,3.42-2.5c1.17,0,2.19,0.48,2.83,1.26
					c0.16-0.22,0.33-0.45,0.49-0.68c-0.78-0.89-1.96-1.43-3.31-1.43c-2.39,0-4.2,1.44-4.2,3.35c0,2.59,2.12,3.03,4,3.41
					c1.91,0.39,3.72,0.77,3.72,3.06c0,1.44-1.46,2.53-3.41,2.53c-1.42,0-2.57-0.57-3.2-1.53c-0.18,0.21-0.37,0.43-0.55,0.65
					c0.79,1.08,2.13,1.73,3.75,1.73c2.43,0,4.19-1.42,4.19-3.38C159.84,306.01,157.54,305.54,155.51,305.12z"/>
				<polygon class="st1" points="99.33,299.45 98.99,299.45 98.99,312.14 99.6,312.14 106.11,312.14 106.9,312.14 106.9,311.3 
					106.11,311.3 106.11,311.29 99.84,311.29 99.84,306.22 105.83,306.22 105.83,306.22 106.47,306.22 106.47,305.37 105.83,305.37 
					105.83,305.37 99.84,305.37 99.84,300.3 106.11,300.3 106.11,300.29 106.9,300.29 106.9,299.45 106.11,299.45 				"/>
			</g>
			<g>
				<rect x="0.84" y="258.81" class="st1" width="6.56" height="32.79"/>
				<path class="st1" d="M69.63,274.78c3.13-1.5,5.17-4.17,5.17-7.4c0-5.2-4.65-8.57-11.53-8.57h-16.8v32.79h16.8
					c7.5,0,13.05-3.65,13.05-9.14C76.32,278.86,73.76,276.14,69.63,274.78z M53.11,264.43h10.16c2.99,0,5.17,1.59,5.17,3.98
					c0,2.25-2.37,3.89-5.17,3.89H53.11V264.43z M63.27,285.93H53.11v-8.2h10.16c3.99,0,6.36,1.45,6.36,4.12
					C69.63,284.39,67.11,285.93,63.27,285.93z"/>
				<polygon class="st1" points="12.08,258.81 11.46,258.81 11.46,264.99 23.7,264.99 23.7,291.6 30.26,291.6 30.26,264.99 
					42.11,264.99 42.11,258.81 41.79,258.81 				"/>
				<path class="st1" d="M161,274.55c-0.3-1.2-1.58-5.91-6.2-8.51c-2.69-1.51-5.29-1.62-6.58-1.59c-0.23-0.02-0.45-0.02-0.67-0.02
					h-13v27.17h13c0.23,0,0.45-0.01,0.67-0.03c0.4-0.03,0.8-0.07,1.2-0.14c0.71-0.1,7.53-1.16,10.66-7.29
					C162.27,279.82,161.28,275.66,161,274.55z M147.53,286.4h-6.72v-16.77h6.72c4.5,0,7.81,3.41,7.81,8.34
					C155.35,282.9,152,286.4,147.53,286.4z"/>
				<path class="st1" d="M126.29,283.27c-4.63-6.27-9.26-12.55-13.9-18.83h-7.63v27.13h6.29v-19.23c4.67,6.36,9.33,12.73,14,19.09
					h7.53v-27.01h-6.29V283.27z"/>
				<path class="st1" d="M92.34,263.94h-5.49L74.5,291.58h6.36c0.9-1.99,1.81-3.99,2.71-5.99H95.7c0.91,1.99,1.81,3.99,2.71,5.99
					h6.35c-0.01-0.02-0.02-0.03-0.03-0.04L92.34,263.94z M86.1,280.02c1.17-2.6,2.35-5.2,3.53-7.8l3.54,7.8H86.1z"/>
			</g>
			<path class="st1" d="M104.76,291.58v0.02l-0.01-0.02C104.76,291.58,104.76,291.58,104.76,291.58z"/>
			<path class="st1" d="M148.21,291.58c-0.23,0.02-0.45,0.03-0.67,0.03h-13v-0.03H148.21z"/>
			<path class="st1" d="M48.26,251.97c0.49,0.53,0.98,1.05,1.46,1.58c0.15,0.24,0.28,0.34,0.38,0.32c0.43-0.09,0.37-2.59-0.21-7.5
				c-0.02-0.21-0.1-0.75-0.53-1.17c-0.11-0.1-0.44-0.4-1.23-0.53c-0.94-0.15-1.67,0.09-2.02,0.18c-0.8,0.19-2.01,0.15-3.78-0.88
				c-0.08-0.6-0.12-1.6,0.35-2.67c0.82-1.86,2.82-3.02,4.6-2.93c0.33,0.02,1.46,0.07,2.08,0.85c0.29,0.36,0.27,0.61,0.47,1.26
				c0.12,0.38,0.58,1.83,1.46,2.58c1.01,0.85,2.47,0.68,3.13,0.56c0.56-0.3,1.16-0.6,1.82-0.88c2.37-1.01,4.6-1.45,6.42-1.62
				c-0.54-0.45-1.29-1.13-2.09-2.04c-0.71-0.81-1.52-1.72-1.9-2.58c-0.99-2.21,0.21-5.42,2.11-7.32c2.5-2.49,6.45-2.97,9.34-1.58
				c0.68,0.33,2.71,1.3,3.46,3.57c1.04,3.17-1.38,5.96-1.52,6.12c-1.1,1.16-2.21,2.32-3.31,3.49c1.41,0.09,3.21,0.36,5.21,1.05
				c3.48,1.22,5.86,3.16,7.21,4.45c0.38-0.46,0.76-0.92,1.14-1.38c-0.58-0.83-1.36-1.78-2.37-2.72c-1.89-1.75-3.83-2.75-5.21-3.31
				c0.38-0.93,0.83-2.34,0.88-4.1c0.01-0.45,0.09-6.81-4.95-10.01c-0.76-0.48-3.44-2.13-6.85-1.47c-3.72,0.71-6.26,3.77-7.21,6.77
				c-1.33,4.2,0.64,7.75,1,8.38c-0.54,0.13-1.12,0.29-1.73,0.5c-1.09,0.38-2.03,0.82-2.81,1.26c-0.47-0.02-0.94-0.04-1.41-0.06
				c-0.05-0.04-0.16-0.13-0.23-0.29c-0.07-0.15-0.06-0.29-0.06-0.35c-0.1-0.44-0.29-1.11-0.7-1.82c-0.36-0.61-1.74-2.72-4.13-2.96
				c-2.68-0.26-4.52,2.03-4.83,2.43c-2.36,2.96-1.08,6.74-0.94,7.15c0.31,0.88,1.09,3.06,3.34,3.95c1.89,0.76,3.65,0.14,4.16-0.06
				C48.26,249.45,48.26,250.71,48.26,251.97z"/>
			<path class="st1" d="M61.24,233.18c-0.14,0.04-0.15,0.44-0.15,0.58c-0.04,2.3,1.59,4.1,1.59,4.1c0.59,0.65,1.5,1.65,3.06,1.91
				c0.39,0.06,2.04,0.28,3.47-0.84c1.86-1.44,1.69-3.82,1.67-4c-0.33-0.26-0.72-0.61-1.1-1.07c-0.23-0.28-0.42-0.56-0.57-0.81
				c-0.07,0.39-0.31,1.36-1.15,2.14c-1.1,1.02-2.86,1.37-4,0.76c-0.71-0.38-1.86-1.5-2.39-2.35
				C61.61,233.49,61.39,233.14,61.24,233.18z"/>
			<path class="st1" d="M81.73,257.97c0.13,0.13,0.3,0.31,0.5,0.52c1.05,1.14,1.12,1.4,1.27,1.38c0.55-0.11,0.29-4.19-0.99-6.58
				c-0.62-1.15-1.16-1.34-1.46-1.38c-0.32-0.04-0.61,0.06-0.74,0.11c-0.64,0.23-0.91,0.71-1.29,1.13c-0.66,0.72-1.46,1.08-1.84,1.21
				c-0.16,0.06-1.89,0.62-3.17-0.41c-0.82-0.67-0.99-1.62-1.02-1.76c-0.34-2.05,1.66-4.43,3.72-4.6c1.02-0.09,1.89,0.39,1.98,0.44
				c1.16,0.65,1.82,1.97,2.75,2.13c0.11,0.02,0.37,0.07,0.66-0.04c0.26-0.09,0.44-0.27,0.61-0.44c0.26-0.26,0.4-0.5,0.41-0.52
				c0.29-0.48,2.74-3.49,5.34-5.31c1.16-0.81,3.64-2.28,7.57-2.78c-1.35-1.16-2.29-2.21-2.91-2.98c-0.5-0.61-0.76-1.01-0.98-1.52
				c-0.49-1.18-0.41-2.24-0.37-2.69c0.15-1.88,1.44-4.58,4.05-6.04c2.6-1.46,6.12-1.46,8.55,0.37c0.38,0.29,2.06,1.55,2.47,3.72
				c0.42,2.24-0.76,4.08-1.66,5.49c-1.05,1.65-2.29,2.71-3.13,3.32c1.13,0.07,2.02,0.22,2.54,0.33c7.18,1.48,11.18,6.98,11.54,7.63
				c0.02,0.03,0.18,0.32,0.44,0.66c0.38,0.48,0.6,0.76,0.91,0.86c0.58,0.18,1.22-0.32,1.94-0.88c0.7-0.55,0.67-0.71,1.1-1.03
				c0.79-0.59,2.26-1.1,3.5-0.47c1.22,0.63,1.51,2.01,1.54,2.16c0.35,1.8-0.97,3.7-2.57,4.26c-1.63,0.57-3.31-0.33-3.6-0.49
				c-1.36-0.76-1.8-1.9-2.78-1.76c-0.38,0.05-0.8,0.29-1.1,0.65c-0.35,0.42-0.41,0.87-0.43,1.06c-0.05,1.18-0.09,2.36-0.14,3.54
				c0.08,0.22,0.21,0.53,0.4,0.89c0.53,0.99,1.45,2.13,1.79,1.97c0.08-0.04,0.1-0.14,0.05-1.51c-0.03-0.73-0.07-1.37,0.06-2.16
				c0.12-0.75,0.26-0.83,0.32-0.85c0.3-0.11,0.7,0.43,1.38,1.08c0.57,0.55,1.35,1.16,1.9,1.44c1.66,0.83,3.76-0.24,3.91-0.32
				c2.19-1.16,2.72-3.65,2.92-4.62c0.05-0.26,0.88-4.48-1.96-7.42c-0.55-0.57-1.59-1.65-3.24-1.87c-3.13-0.42-5.39,2.63-5.49,2.78
				c-0.72-1.25-1.97-3.08-4-4.79c-1.79-1.52-3.56-2.4-4.82-2.92c0.35-0.77,0.77-1.94,0.93-3.42c0.07-0.64,0.26-2.91-0.79-5.52
				c-0.45-1.12-1.6-3.87-4.62-5.58c-0.74-0.42-3.16-1.74-6.34-1.2c-3.41,0.58-5.32,2.89-5.78,3.48c-2.31,2.96-2.01,6.28-1.9,7.33
				c0.22,2.05,0.98,3.59,1.49,4.44c-0.73,0.11-1.51,0.3-2.31,0.58c-4.67,1.67-7.11,5.72-8.06,7.57c-0.33-0.35-0.81-0.82-1.46-1.31
				c-0.56-0.43-1.34-1.02-2.1-1.26c-1.61-0.5-3.5,0.47-4.56,1.46c-2.67,2.51-1.62,6.76-1.46,7.36c0.26,0.97,0.97,3.66,3.48,4.79
				c2.04,0.92,3.99,0.23,4.21,0.15c1.56-0.58,2.4-1.7,2.69-2.13C81.61,256.45,81.67,257.21,81.73,257.97z"/>
			<path class="st1" d="M95.16,233.74c-0.4-0.5-0.59-0.76-0.73-0.71c-0.28,0.09-0.19,1.2-0.05,1.92c0.13,0.65,0.6,3.09,2.89,4.33
				c0.4,0.22,2.13,1.16,4.01,0.47c1.83-0.67,3.09-2.6,3.15-4.85c-1.27-1.72-1.84-2.01-2.13-1.89c-0.29,0.12-0.14,0.62-0.47,1.34
				c-0.42,0.89-1.33,1.58-2.31,1.81c-0.18,0.04-1.54,0.35-2.6-0.39C96.58,235.52,96.1,234.93,95.16,233.74z"/>
			<path class="st1" d="M121.4,243.87c0.74-0.42,1.59-0.84,2.54-1.22c2.07-0.83,3.97-1.2,5.49-1.37c-0.69-0.67-1.28-1.27-1.75-1.75
				c-0.89-0.91-1.21-1.28-1.56-1.77c-0.26-0.36-0.54-0.77-0.76-1.28c-0.54-1.27-0.38-2.47-0.31-2.98c0.31-2.25,2.18-4.8,4.92-5.94
				c0.69-0.28,3.22-1.23,6.01-0.12c0.74,0.29,2.82,1.12,3.76,3.33c1.04,2.45-0.09,4.8-0.35,5.32c-0.38,0.73-0.84,1.24-1.63,2.13
				c-0.9,1.01-1.75,1.75-2.36,2.25c-0.11,0.06-0.17,0.19-0.14,0.31c0.03,0.13,0.15,0.22,0.28,0.21c1,0.06,1.81,0.19,2.36,0.28
				c3.07,0.54,6.03,1.76,7.12,2.41c0.05,0.03,0.19,0.12,0.4,0.19c0.72,0.24,1.57,0.06,2.18-0.33c0.9-0.58,1.18-1.54,1.3-1.96
				c0.07-0.26,0.04-0.25,0.12-0.5c0.03-0.08,0.33-1.02,1.09-1.7c1.34-1.2,3.24-0.82,3.33-0.8c0.31,0.07,2.21,0.48,2.72,2.15
				c0.52,1.69-0.85,3.09-0.97,3.22c-0.05,0.05-1.07,1.05-2.46,1.04c-0.34,0-0.98-0.07-1.66-0.31c-0.44-0.16-0.52-0.25-0.87-0.31
				c-0.09-0.01-1.11-0.16-1.54,0.4c-0.19,0.25-0.19,0.56-0.19,0.66c0.01,0.88-0.1,3.37-0.26,6.79c0.73,0.94,1.68,2.07,2.01,1.89
				c0.12-0.07,0.12-0.3,0.12-0.4c-0.02-0.92,0.05-2.86,0.14-5.51c0.13-0.02,0.34-0.04,0.59,0c0.26,0.05,0.45,0.14,0.57,0.21
				c0.33,0.13,0.8,0.28,1.37,0.33c1.82,0.16,3.71-0.79,4.73-2.27c0.95-1.38,0.9-2.87,0.85-3.78c-0.17-3.27-2.32-7.45-5.77-8.02
				c-0.24-0.04-2.32-0.35-3.95,0.87c-1.43,1.07-1.95,2.59-1.95,2.59c-0.3,0.88-0.39,2-0.96,2.13c-0.11,0.02-0.21,0.01-0.28-0.01
				c-0.74-0.31-1.54-0.62-2.39-0.91c-0.6-0.21-1.19-0.39-1.75-0.55c0.15-0.3,0.36-0.75,0.55-1.33c1.29-3.99-0.27-8.88-3.43-11.78
				c-1.52-1.4-3-1.95-3.32-2.07c-0.64-0.23-3.51-1.19-6.67,0.08c-4.37,1.75-5.56,6.26-5.71,6.88c-0.97,3.95,0.78,7.13,1.2,7.84
				c-0.98,0.29-2.12,0.72-3.31,1.37c-2.75,1.5-4.51,3.46-5.52,4.81c0.36,0.83,0.71,1.66,1.07,2.49c0.49,0.01,1.12-0.04,1.82-0.28
				C120.21,246.12,121.15,244.37,121.4,243.87z"/>
			<path class="st1" d="M127.88,232.98c0.21-0.09,0.68,0.29,1.82,2.09c0.16,0.17,0.43,0.4,0.81,0.6c1.52,0.79,3.12,0.04,3.24-0.02
				c0.86-0.42,1.34-1.09,1.56-1.45c0.04-0.55,0.13-1.2,0.37-1.24c0.15-0.03,0.31,0.21,0.41,0.37c0.29,0.42,0.76,0.99,1.56,1.63
				c0.01,0.4-0.01,0.98-0.21,1.63c-0.08,0.27-0.68,2.15-2.37,2.97c-1.95,0.94-4.25-0.06-5.52-1.27
				C127.51,236.37,127.38,233.19,127.88,232.98z"/>
		</g>
		<g>
			<g>
				<path class="st1" d="M234.46,292.4c-0.11-0.49-0.3-0.97-0.92-0.97c-0.51,0-0.69,0.42-0.69,0.8c0,0.51,0.29,0.77,0.84,1.08
					c0.79,0.46,1.13,0.8,1.13,1.5c0,0.78-0.6,1.37-1.45,1.37c-0.4,0-0.74-0.13-1.01-0.24c-0.05-0.21-0.13-0.71-0.18-1.11l0.2-0.06
					c0.13,0.49,0.42,1.14,1.11,1.14c0.47,0,0.76-0.37,0.76-0.85c0-0.57-0.27-0.8-0.85-1.15c-0.69-0.42-1.08-0.78-1.08-1.46
					c0-0.66,0.49-1.28,1.36-1.28c0.37,0,0.73,0.11,0.87,0.14c0.03,0.27,0.05,0.56,0.11,1.04L234.46,292.4z"/>
				<path class="st1" d="M238.24,293.09c-0.05-0.19-0.12-0.4-0.19-0.5c-0.09-0.16-0.15-0.21-0.48-0.21h-0.59v2.96
					c0,0.47,0.05,0.54,0.6,0.58v0.17h-1.71v-0.17c0.55-0.04,0.59-0.1,0.59-0.58v-2.96h-0.53c-0.32,0-0.42,0.04-0.52,0.22
					c-0.07,0.12-0.12,0.27-0.19,0.49h-0.18c0.04-0.37,0.07-0.75,0.09-1.09h0.13c0.09,0.15,0.15,0.14,0.32,0.14h2.32
					c0.16,0,0.21-0.02,0.3-0.14h0.14c0,0.29,0.02,0.72,0.05,1.08L238.24,293.09z"/>
				<path class="st1" d="M241.76,295.12c-0.04,0.16-0.19,0.78-0.25,0.97h-2.85v-0.17c0.55-0.04,0.59-0.1,0.59-0.6v-2.4
					c0-0.54-0.06-0.57-0.5-0.61v-0.17h1.8c0.55,0,0.78-0.01,0.85-0.01c0.01,0.15,0.03,0.61,0.05,0.93l-0.18,0.03
					c-0.05-0.21-0.11-0.33-0.18-0.46c-0.09-0.2-0.23-0.24-0.58-0.24h-0.56c-0.18,0-0.19,0.02-0.19,0.19v1.34h0.65
					c0.44,0,0.47-0.09,0.54-0.5h0.18v1.25h-0.18c-0.08-0.44-0.12-0.5-0.55-0.5h-0.65v1.21c0,0.43,0.13,0.46,0.42,0.47h0.55
					c0.36,0,0.42-0.05,0.55-0.21c0.11-0.13,0.23-0.38,0.32-0.56L241.76,295.12z"/>
				<path class="st1" d="M243.38,292.13c0.42,0,0.75,0.08,0.99,0.26c0.23,0.18,0.39,0.46,0.39,0.86c0,0.89-0.73,1.25-1.29,1.25
					c-0.06,0-0.12-0.01-0.16-0.01l-0.41-0.11v0.95c0,0.51,0.04,0.52,0.58,0.58v0.17h-1.62v-0.17c0.5-0.05,0.53-0.09,0.53-0.6v-2.41
					c0-0.54-0.06-0.55-0.53-0.6v-0.17H243.38z M242.9,294.16c0.07,0.04,0.23,0.08,0.43,0.08c0.39,0,0.88-0.21,0.88-0.97
					c0-0.67-0.42-0.94-0.92-0.94c-0.17,0-0.29,0.03-0.33,0.07c-0.05,0.04-0.06,0.12-0.06,0.28V294.16z"/>
				<path class="st1" d="M246.93,296.08v-0.17c0.38-0.05,0.43-0.11,0.35-0.34c-0.08-0.24-0.19-0.54-0.32-0.92h-1.27
					c-0.09,0.27-0.18,0.51-0.26,0.76c-0.13,0.4-0.05,0.44,0.43,0.5v0.17h-1.36v-0.17c0.37-0.05,0.46-0.09,0.67-0.64l1.21-3.19
					l0.19-0.04c0.37,1.04,0.77,2.19,1.14,3.24c0.19,0.53,0.24,0.58,0.66,0.63v0.17H246.93z M246.34,292.84
					c-0.19,0.52-0.39,1.08-0.56,1.56h1.1L246.34,292.84z"/>
				<path class="st1" d="M252.81,292.3c-0.4,0.04-0.53,0.1-0.55,0.38c-0.01,0.19-0.02,0.45-0.02,1.02v2.44H252l-2.67-3.18v1.52
					c0,0.55,0.02,0.82,0.03,1c0.01,0.31,0.17,0.4,0.62,0.44v0.17h-1.52v-0.17c0.39-0.03,0.54-0.12,0.56-0.42
					c0.02-0.19,0.03-0.47,0.03-1.02v-1.55c0-0.17-0.01-0.27-0.12-0.4c-0.12-0.15-0.25-0.19-0.56-0.22v-0.17h0.94l2.65,3.06v-1.49
					c0-0.57-0.01-0.83-0.03-1.01c-0.02-0.27-0.16-0.36-0.66-0.39v-0.17h1.54V292.3z"/>
				<path class="st1" d="M255.27,292c1.1,0,2.09,0.8,2.09,2.01c0,1.31-0.94,2.12-2.13,2.12c-1.24,0-2.14-0.89-2.14-2.03
					C253.09,293.01,253.91,292,255.27,292z M255.14,292.22c-0.72,0-1.38,0.57-1.38,1.71c0,1.13,0.66,1.96,1.57,1.96
					c0.78,0,1.37-0.55,1.37-1.72C256.7,292.9,255.99,292.22,255.14,292.22z"/>
				<path class="st1" d="M261.49,292.3c-0.39,0.05-0.49,0.11-0.7,0.66c-0.16,0.4-0.97,2.44-1.26,3.19h-0.19
					c-0.35-0.98-0.85-2.4-1.19-3.3c-0.16-0.45-0.26-0.51-0.62-0.55v-0.17h1.49v0.17c-0.43,0.05-0.46,0.12-0.38,0.35
					c0.15,0.44,0.58,1.65,0.94,2.66c0.31-0.78,0.7-1.78,0.97-2.54c0.13-0.35,0.06-0.41-0.42-0.47v-0.17h1.35V292.3z"/>
				<path class="st1" d="M263.6,293.05c-0.1-0.4-0.26-0.8-0.82-0.8c-0.46,0-0.62,0.35-0.62,0.66c0,0.42,0.26,0.63,0.74,0.89
					c0.7,0.38,1.01,0.66,1.01,1.23c0,0.64-0.53,1.13-1.29,1.13c-0.35,0-0.66-0.1-0.9-0.2c-0.05-0.17-0.12-0.58-0.16-0.91l0.18-0.05
					c0.12,0.41,0.38,0.94,0.99,0.94c0.42,0,0.68-0.3,0.68-0.7c0-0.47-0.24-0.66-0.76-0.95c-0.62-0.35-0.96-0.64-0.96-1.2
					c0-0.54,0.43-1.05,1.21-1.05c0.33,0,0.65,0.09,0.77,0.12c0.02,0.22,0.05,0.46,0.09,0.86L263.6,293.05z"/>
				<path class="st1" d="M264.36,292.16h1.57v0.17c-0.46,0.04-0.54,0.09-0.54,0.63V294c0.12-0.01,0.25-0.11,0.42-0.28
					c0.33-0.32,0.72-0.74,0.99-1.05c0.18-0.21,0.16-0.29-0.09-0.32l-0.16-0.02v-0.17h1.43v0.17c-0.44,0.05-0.59,0.09-0.99,0.5
					c-0.18,0.18-0.63,0.64-1.01,1.02c0.45,0.55,1.1,1.33,1.4,1.66c0.3,0.33,0.38,0.38,0.74,0.43v0.17h-0.94
					c-0.45-0.53-0.93-1.12-1.46-1.76c-0.14-0.17-0.24-0.18-0.33-0.18v1.16c0,0.53,0.05,0.57,0.54,0.61v0.17h-1.57v-0.17
					c0.48-0.04,0.53-0.09,0.53-0.61v-2.37c0-0.55-0.04-0.59-0.53-0.63V292.16z"/>
				<path class="st1" d="M268.24,296.11v-0.17c0.48-0.05,0.53-0.08,0.53-0.6v-2.41c0-0.52-0.05-0.55-0.53-0.6v-0.17h1.57v0.17
					c-0.49,0.05-0.53,0.08-0.53,0.6v2.41c0,0.52,0.05,0.54,0.53,0.6v0.17H268.24z"/>
				<path class="st1" d="M233.87,299.05c0.47,0,0.84,0.09,1.11,0.31c0.26,0.21,0.44,0.55,0.44,1.03c0,1.06-0.82,1.49-1.45,1.49
					c-0.07,0-0.14-0.01-0.18-0.01l-0.45-0.13v1.13c0,0.61,0.05,0.62,0.65,0.7v0.2h-1.82v-0.2c0.57-0.07,0.59-0.11,0.59-0.71v-2.88
					c0-0.65-0.07-0.66-0.59-0.72v-0.2H233.87z M233.34,301.48c0.08,0.04,0.26,0.09,0.48,0.09c0.44,0,0.99-0.25,0.99-1.16
					c0-0.8-0.47-1.12-1.03-1.12c-0.19,0-0.33,0.04-0.37,0.09c-0.05,0.05-0.07,0.14-0.07,0.33V301.48z"/>
				<path class="st1" d="M237.31,303.77v-0.17c0.38-0.05,0.43-0.11,0.35-0.34c-0.08-0.24-0.19-0.54-0.32-0.92h-1.27
					c-0.09,0.27-0.18,0.51-0.26,0.76c-0.13,0.4-0.05,0.44,0.43,0.5v0.17h-1.36v-0.17c0.37-0.05,0.46-0.09,0.67-0.64l1.21-3.19
					l0.19-0.04c0.37,1.04,0.77,2.19,1.14,3.24c0.19,0.53,0.24,0.58,0.66,0.63v0.17H237.31z M236.73,300.53
					c-0.19,0.52-0.39,1.08-0.56,1.56h1.1L236.73,300.53z"/>
				<path class="st1" d="M240.52,299.81c0.42,0,0.75,0.08,0.99,0.26c0.23,0.18,0.39,0.46,0.39,0.86c0,0.89-0.73,1.25-1.29,1.25
					c-0.06,0-0.12-0.01-0.16-0.01l-0.41-0.11v0.95c0,0.51,0.04,0.52,0.58,0.58v0.17h-1.62v-0.17c0.5-0.05,0.53-0.09,0.53-0.6v-2.41
					c0-0.54-0.06-0.55-0.53-0.6v-0.17H240.52z M240.04,301.85c0.07,0.04,0.23,0.08,0.43,0.08c0.39,0,0.88-0.21,0.88-0.97
					c0-0.67-0.42-0.94-0.92-0.94c-0.17,0-0.29,0.03-0.33,0.07c-0.05,0.04-0.06,0.12-0.06,0.28V301.85z"/>
				<path class="st1" d="M244.1,303.77v-0.17c0.38-0.05,0.43-0.11,0.35-0.34c-0.08-0.24-0.19-0.54-0.32-0.92h-1.27
					c-0.09,0.27-0.18,0.51-0.26,0.76c-0.13,0.4-0.05,0.44,0.43,0.5v0.17h-1.36v-0.17c0.37-0.05,0.46-0.09,0.67-0.64l1.21-3.19
					l0.19-0.04c0.37,1.04,0.77,2.19,1.14,3.24c0.19,0.53,0.24,0.58,0.66,0.63v0.17H244.1z M243.51,300.53
					c-0.19,0.52-0.39,1.08-0.56,1.56h1.1L243.51,300.53z"/>
				<path class="st1" d="M245.59,299.81h1.57v0.17c-0.46,0.04-0.54,0.09-0.54,0.63v1.05c0.12-0.01,0.25-0.11,0.42-0.28
					c0.33-0.32,0.72-0.74,0.99-1.05c0.18-0.21,0.16-0.29-0.09-0.32l-0.16-0.02v-0.17h1.43v0.17c-0.44,0.05-0.59,0.09-0.99,0.5
					c-0.18,0.18-0.63,0.64-1.01,1.02c0.45,0.55,1.1,1.33,1.4,1.66c0.3,0.33,0.38,0.38,0.74,0.43v0.17h-0.94
					c-0.45-0.53-0.93-1.12-1.46-1.76c-0.14-0.17-0.24-0.18-0.33-0.18v1.16c0,0.53,0.05,0.57,0.54,0.61v0.17h-1.57v-0.17
					c0.48-0.04,0.53-0.09,0.53-0.61v-2.37c0-0.55-0.04-0.59-0.53-0.63V299.81z"/>
				<path class="st1" d="M253.28,299.99c-0.37,0.02-0.5,0.12-0.52,0.4c-0.01,0.14-0.02,0.4-0.02,0.95V302
					c0,0.62-0.07,1.09-0.41,1.47c-0.28,0.3-0.67,0.39-1.08,0.39c-0.34,0-0.7-0.07-0.96-0.28c-0.35-0.28-0.52-0.7-0.52-1.41v-1.55
					c0-0.55-0.05-0.58-0.52-0.63v-0.17h1.54v0.17c-0.47,0.03-0.52,0.08-0.52,0.63v1.52c0,0.89,0.4,1.37,1.11,1.37
					c0.83,0,1.1-0.54,1.1-1.54v-0.62c0-0.56-0.02-0.79-0.03-0.95c-0.02-0.27-0.15-0.38-0.59-0.4v-0.17h1.41V299.99z"/>
				<path class="st1" d="M256.53,302.76c-0.04,0.19-0.21,0.82-0.27,1.01h-2.73v-0.17c0.53-0.05,0.58-0.09,0.58-0.6v-2.41
					c0-0.52-0.06-0.55-0.53-0.6v-0.17h1.57v0.17c-0.47,0.05-0.53,0.07-0.53,0.6v2.48c0,0.37,0.05,0.46,0.38,0.46
					c0.01,0,0.43,0.01,0.46,0.01c0.3,0,0.39-0.04,0.52-0.19c0.15-0.16,0.27-0.4,0.36-0.63L256.53,302.76z"/>
				<path class="st1" d="M236.55,308.62v-0.2h-1.61v0.2c0.51,0.06,0.57,0.15,0.44,0.47c-0.13,0.32-0.27,0.55-0.44,0.81
					c-0.45-0.45-1.02-0.93-1.25-1.13c-0.06-0.05-0.12-0.09-0.18-0.14c-0.03-0.03-0.06-0.05-0.09-0.07c-0.36-0.3-0.52-0.52-0.52-0.85
					c0-0.42,0.22-0.7,0.57-0.7c0.38,0,0.59,0.33,0.6,0.74c0,0.13-0.02,0.24-0.07,0.34c0.06-0.01,0.21-0.05,0.34-0.18
					c0.22-0.23,0.18-0.54,0.17-0.58c-0.16-0.35-0.53-0.58-0.96-0.58c-0.63,0-1.16,0.48-1.17,1.12c0,0.39,0.21,0.72,0.55,1.01
					c-0.67,0.43-1.05,0.69-1.05,1.35c0,0.61,0.5,1.28,1.4,1.28c0.51,0,0.97-0.23,1.48-0.92c0.23,0.24,0.56,0.56,0.65,0.67
					c0.09,0.09,0.48,0.25,0.86,0.29l0.04-0.08c-0.2-0.35-0.89-1.11-1.19-1.4c0.26-0.38,0.44-0.67,0.63-0.93
					C235.97,308.81,236.06,308.68,236.55,308.62z M233.45,311.04c-0.46,0-0.97-0.31-0.97-0.98c0-0.36,0.14-0.67,0.64-1
					c0.61,0.52,1.1,0.93,1.46,1.34C234.2,310.88,233.93,311.04,233.45,311.04z"/>
				<path class="st1" d="M239.71,307.5c0.42,0,0.75,0.08,0.99,0.26c0.23,0.18,0.39,0.46,0.39,0.86c0,0.89-0.73,1.25-1.29,1.25
					c-0.06,0-0.12-0.01-0.16-0.01l-0.41-0.11v0.95c0,0.51,0.04,0.52,0.58,0.58v0.17h-1.62v-0.17c0.5-0.05,0.53-0.09,0.53-0.6v-2.41
					c0-0.54-0.06-0.55-0.53-0.6v-0.17H239.71z M239.24,309.53c0.07,0.04,0.23,0.08,0.43,0.08c0.39,0,0.88-0.21,0.88-0.97
					c0-0.67-0.42-0.94-0.92-0.94c-0.17,0-0.29,0.03-0.33,0.07c-0.05,0.04-0.06,0.12-0.06,0.28V309.53z"/>
				<path class="st1" d="M243.21,311.45v-0.17c0.38-0.05,0.43-0.11,0.35-0.34c-0.08-0.24-0.19-0.54-0.32-0.92h-1.27
					c-0.09,0.27-0.18,0.51-0.26,0.76c-0.13,0.4-0.05,0.44,0.43,0.5v0.17h-1.36v-0.17c0.37-0.05,0.46-0.09,0.67-0.64l1.21-3.19
					l0.19-0.04c0.37,1.04,0.77,2.19,1.14,3.24c0.19,0.53,0.24,0.58,0.66,0.63v0.17H243.21z M242.63,308.21
					c-0.19,0.52-0.39,1.08-0.56,1.56h1.1L242.63,308.21z"/>
				<path class="st1" d="M248.35,311.5c-0.08,0-0.14-0.01-0.22-0.01c-0.43-0.03-0.66-0.15-0.92-0.52c-0.22-0.31-0.43-0.69-0.62-1
					c-0.12-0.19-0.19-0.23-0.49-0.23h-0.21v0.95c0,0.52,0.06,0.55,0.53,0.6v0.17h-1.57v-0.17c0.49-0.05,0.53-0.08,0.53-0.6v-2.43
					c0-0.52-0.06-0.54-0.53-0.59v-0.17h1.5c0.43,0,0.72,0.05,0.94,0.21c0.24,0.16,0.4,0.43,0.4,0.8c0,0.52-0.32,0.85-0.76,1.05
					c0.11,0.19,0.36,0.6,0.53,0.87c0.22,0.32,0.33,0.47,0.46,0.63c0.16,0.18,0.29,0.24,0.43,0.28L248.35,311.5z M246.18,309.52
					c0.31,0,0.5-0.05,0.65-0.18c0.23-0.18,0.32-0.42,0.32-0.75c0-0.65-0.42-0.89-0.87-0.89c-0.17,0-0.27,0.02-0.31,0.06
					c-0.05,0.04-0.07,0.1-0.07,0.26v1.49H246.18z"/>
				<path class="st1" d="M251.26,308.45c-0.05-0.19-0.12-0.4-0.19-0.5c-0.09-0.16-0.15-0.21-0.48-0.21h-0.59v2.96
					c0,0.47,0.05,0.54,0.6,0.58v0.17h-1.71v-0.17c0.55-0.04,0.59-0.1,0.59-0.58v-2.96h-0.53c-0.32,0-0.42,0.04-0.52,0.22
					c-0.07,0.12-0.12,0.27-0.19,0.49h-0.18c0.04-0.37,0.07-0.75,0.09-1.09h0.13c0.09,0.15,0.15,0.14,0.32,0.14h2.32
					c0.16,0,0.21-0.02,0.3-0.14h0.14c0,0.29,0.02,0.72,0.05,1.08L251.26,308.45z"/>
				<path class="st1" d="M256.32,307.67c-0.41,0.04-0.54,0.1-0.56,0.38c-0.01,0.19-0.02,0.45-0.02,1.02v2.44h-0.24l-2.72-3.18v1.52
					c0,0.55,0.02,0.82,0.03,1c0.01,0.31,0.17,0.4,0.63,0.44v0.17h-1.54v-0.17c0.39-0.03,0.55-0.12,0.57-0.42
					c0.02-0.19,0.03-0.47,0.03-1.02v-1.55c0-0.17-0.01-0.27-0.13-0.4c-0.12-0.15-0.25-0.19-0.57-0.22v-0.17h0.95l2.7,3.06v-1.49
					c0-0.57-0.01-0.83-0.03-1.01c-0.02-0.27-0.17-0.36-0.67-0.39v-0.17h1.57V307.67z"/>
				<path class="st1" d="M259.49,310.48c-0.04,0.16-0.19,0.78-0.25,0.97h-2.85v-0.17c0.55-0.04,0.59-0.1,0.59-0.6v-2.4
					c0-0.54-0.06-0.57-0.5-0.61v-0.17h1.8c0.55,0,0.78-0.01,0.85-0.01c0.01,0.15,0.03,0.61,0.05,0.93l-0.18,0.03
					c-0.05-0.21-0.11-0.33-0.18-0.46c-0.09-0.2-0.23-0.24-0.58-0.24h-0.56c-0.18,0-0.19,0.02-0.19,0.19v1.34h0.65
					c0.44,0,0.47-0.09,0.54-0.5h0.18v1.25h-0.18c-0.08-0.44-0.12-0.5-0.55-0.5h-0.65v1.21c0,0.43,0.13,0.46,0.42,0.47h0.55
					c0.36,0,0.42-0.05,0.55-0.21c0.11-0.13,0.23-0.38,0.32-0.56L259.49,310.48z"/>
				<path class="st1" d="M263.28,311.52c-0.08,0-0.14-0.01-0.22-0.01c-0.43-0.03-0.66-0.15-0.92-0.52c-0.22-0.31-0.43-0.69-0.62-1
					c-0.12-0.19-0.19-0.23-0.49-0.23h-0.21v0.95c0,0.52,0.06,0.55,0.53,0.6v0.17h-1.57v-0.17c0.49-0.05,0.53-0.08,0.53-0.6v-2.43
					c0-0.52-0.06-0.54-0.53-0.59v-0.17h1.5c0.43,0,0.72,0.05,0.94,0.21c0.24,0.16,0.4,0.43,0.4,0.8c0,0.52-0.32,0.85-0.76,1.05
					c0.11,0.19,0.36,0.6,0.53,0.87c0.22,0.32,0.33,0.47,0.46,0.63c0.16,0.18,0.29,0.24,0.43,0.28L263.28,311.52z M261.12,309.54
					c0.31,0,0.5-0.05,0.65-0.18c0.23-0.18,0.32-0.42,0.32-0.75c0-0.65-0.42-0.89-0.87-0.89c-0.17,0-0.27,0.02-0.31,0.06
					c-0.05,0.04-0.07,0.1-0.07,0.26v1.49H261.12z"/>
				<path class="st1" d="M265.46,308.42c-0.1-0.4-0.26-0.8-0.82-0.8c-0.46,0-0.62,0.35-0.62,0.66c0,0.42,0.26,0.63,0.74,0.89
					c0.7,0.38,1.01,0.66,1.01,1.23c0,0.64-0.53,1.13-1.29,1.13c-0.35,0-0.66-0.1-0.9-0.2c-0.05-0.17-0.12-0.58-0.16-0.91l0.18-0.05
					c0.12,0.41,0.38,0.94,0.99,0.94c0.42,0,0.68-0.3,0.68-0.7c0-0.47-0.24-0.66-0.76-0.95c-0.62-0.35-0.96-0.64-0.96-1.2
					c0-0.54,0.43-1.05,1.21-1.05c0.33,0,0.65,0.09,0.77,0.12c0.02,0.22,0.05,0.46,0.09,0.86L265.46,308.42z"/>
			</g>
			<g>
				<path class="st1" d="M249.89,250.4c-6.35-4.03-9.71-7.31-9.71-13.79c0-4.88,2.06-10.22,8.03-10.22c7.19,0,9.33,6.1,10.63,12.28
					l2.37-0.56c0.27-2.37,0.48-4.85,0.64-7.44c0.1-1.73,0.17-3.43,0.21-5.07c-2.16-1.07-6.54-2.87-12.16-2.5
					c-2.35,0.16-5.71,0.38-9,2.64c-4.39,3-6.75,8.2-6.75,13.59c0,8.72,4.51,13.22,12.54,18.57c6.73,4.5,9.86,7.41,9.86,14.63
					c0,6.1-3.36,10.78-8.87,10.78c-7.95,0-11.32-8.16-12.84-14.44l-2.37,0.75c-0.22,2.56-0.38,5.25-0.45,8.06
					c-0.04,1.67-0.05,3.29-0.03,4.87c1.89,1.32,7.13,4.6,14.24,4.24c2.23-0.11,6.38-0.39,10.24-3.31c4.1-3.11,6.58-8.15,6.58-14.04
					C263.04,260.52,259.06,256.21,249.89,250.4z"/>
				<path class="st1" d="M341.6,228.5c-3.13-2.81-7.49-4.03-12.92-4.03h-19.73v2.63c6.04,0.75,6.88,0.93,6.88,9.28v37.23
					c0,7.78-0.31,8.35-6.88,9.19v2.63h0.52c1.19,0.03,2.54,0.31,3.49,1.24c2.88,2.84,0.14,9.76-2.06,13.3
					c-0.12,0.2-0.27,0.43-0.43,0.69c-10.44-9.25-13.14-12.3-15.06-14.62c-3.62-4.39-5.2-7.07-5.17-10.38
					c0.01-0.93,0.04-3.83,2.22-5.87c2.11-1.98,5.33-2.31,7.76-1.36c0.5,0.19,2.02,0.79,3.06,2.29c1.66,2.38,1.15,5.68,2.16,5.81
					c0.09,0.01,0.16-0.01,0.24-0.03c1.52-0.42,1.1-4.88,0.83-7.74c0-0.03-0.05-0.51-0.28-0.85c-0.14-0.21-0.32-0.37-0.32-0.37
					s-0.08-0.07-0.18-0.13c-0.15-0.1-6.48-3.55-12.99-0.14c-1.05,0.55-4.68,2.63-6.06,6.57c-0.41,1.18-0.51,2.2-0.53,2.53
					c-0.21,2.86,0.89,5.07,1.48,6.07c-4.95-0.77-5.37-1.73-5.37-8.69v-40.7c0-2.53,0.23-3.66,0.84-4.31
					c0.46-0.66,2.07-1.12,4.28-1.12c6.42,0,11.93,4.12,11.93,14.44c0,11.82-6.35,15.01-11.47,15.01c-0.17,0-0.34,0-0.51-0.01h0
					c-0.09,0-0.18-0.01-0.29-0.01c-0.79-0.03-2.02,0.01-2.22,0.55c-0.25,0.69,1.31,1.9,2.47,2.49c1.76,0.9,3.59,0.89,4.94,0.68h0
					c6.74-1.18,14.19-6.91,14.19-18.99c0-6.19-2.07-10.6-5.05-13.32c-3.13-2.81-7.49-4.03-12.92-4.03h-19.73v2.63
					c6.04,0.75,6.88,0.93,6.88,9.28v37.23c0,7.78-0.31,8.35-6.88,9.19v2.63h19.11c-0.81,0.45-5.92,3.41-7.29,9.71
					c-0.26,1.21-1.25,6.52,2.15,11.13c3.81,5.17,10.14,5.4,11.67,5.45c6.84,0.24,11.66-3.92,14.06-6.02
					c2.86,2.22,5.86,3.98,9.17,4.78c1.79,0.44,4.56,0.45,10.11,0.47c0.63,0,2.02-0.01,2.14-0.46c0.04-0.15-0.08-0.32-0.19-0.44
					c-2.33-0.1-5.82-0.54-9.59-2.26c-3.11-1.41-5.03-3.07-7.61-5.33c-0.2-0.18-0.4-0.35-0.6-0.53c1.02-1.41,2.02-3.07,3.36-5.3
					c0,0,2.75-4.57,3.23-9.7c0.02-0.27-0.03-0.53-0.03-0.53s-0.1-0.49-0.49-0.95h12.1v-2.63c-7.03-0.93-7.57-1.12-7.57-9v-40.7
					c0-2.53,0.23-3.66,0.84-4.31c0.46-0.66,2.07-1.12,4.28-1.12c6.42,0,11.93,4.12,11.93,14.44c0,11.82-6.35,15.01-11.47,15.01
					c-0.17,0-0.34,0-0.51-0.01h0c-0.09,0-0.18-0.01-0.29-0.01c-0.79-0.03-2.02,0.01-2.22,0.55c-0.25,0.69,1.31,1.9,2.47,2.49
					c1.76,0.9,3.59,0.89,4.94,0.68h0c6.74-1.18,14.19-6.91,14.19-18.99C346.65,235.62,344.58,231.22,341.6,228.5z M302.2,307.47
					c-1.45,0.51-7.1,2.5-12.11-0.83c-4.47-2.97-5.18-8.01-5.29-8.82c-0.06-0.44-0.59-5.33,2.67-9.52c0.82-1.05,1.67-1.79,2.31-2.28
					c4.06,5.47,7.94,9.64,10.9,12.56c2.12,2.09,4.24,4.16,6.44,6C305.85,305.69,304.24,306.75,302.2,307.47z"/>
			</g>
		</g>
	</g>
</g>
</svg>
