<svg xmlns="http://www.w3.org/2000/svg" xmlns:xlink="http://www.w3.org/1999/xlink" viewBox="0 0 388.84 484.56"><defs><style>.cls-1{isolation:isolate;}.cls-2{fill:url(#Безымянный_градиент_1191);}.cls-3,.cls-31{fill:#fff;}.cls-12,.cls-14,.cls-24,.cls-25,.cls-26,.cls-3,.cls-35,.cls-42,.cls-52,.cls-56,.cls-57,.cls-59{mix-blend-mode:overlay;}.cls-4{fill:url(#Безымянный_градиент_2168);}.cls-5{fill:url(#Безымянный_градиент_878);}.cls-6{fill:#87ade3;opacity:0.4;}.cls-7{fill:url(#Безымянный_градиент_769);}.cls-8{fill:url(#Безымянный_градиент_769-2);}.cls-9{fill:url(#Безымянный_градиент_769-3);}.cls-10{fill:url(#Безымянный_градиент_769-4);}.cls-11{fill:url(#Безымянный_градиент_2168-2);}.cls-12{opacity:0.7;}.cls-13{fill:#d5ff9d;}.cls-14{fill:url(#Безымянный_градиент_10);}.cls-15{fill:url(#Безымянный_градиент_1191-2);}.cls-16{fill:url(#Безымянный_градиент_769-5);}.cls-17{fill:url(#Безымянный_градиент_1191-3);}.cls-18{fill:url(#Безымянный_градиент_1191-4);}.cls-19{fill:url(#Безымянный_градиент_1191-5);}.cls-20{fill:url(#Безымянный_градиент_1191-6);}.cls-21{fill:url(#Безымянный_градиент_1191-7);}.cls-22{fill:url(#Безымянный_градиент_769-6);}.cls-23{fill:url(#Безымянный_градиент_2168-3);}.cls-24{fill:url(#Безымянный_градиент_10-2);}.cls-25{fill:url(#Безымянный_градиент_10-3);}.cls-26{fill:url(#Безымянный_градиент_10-4);}.cls-27{fill:url(#Безымянный_градиент_769-7);}.cls-28{fill:url(#Безымянный_градиент_769-8);}.cls-29{fill:url(#Безымянный_градиент_7);}.cls-30{fill:url(#Безымянный_градиент_12);}.cls-32{fill:url(#Безымянный_градиент_14);}.cls-33{fill:url(#Безымянный_градиент_9);}.cls-34{fill:url(#Безымянный_градиент_769-9);}.cls-35{fill:url(#Безымянный_градиент_10-5);}.cls-36{fill:url(#Безымянный_градиент_7-2);}.cls-37{fill:url(#Безымянный_градиент_25);}.cls-38{fill:url(#Безымянный_градиент_7-3);}.cls-39{fill:url(#Безымянный_градиент_4);}.cls-40{fill:url(#Безымянный_градиент_4-2);}.cls-41{fill:url(#Безымянный_градиент_878-2);}.cls-43{fill:url(#Безымянный_градиент_4-3);}.cls-44{fill:#5a83ff;}.cls-45{fill:url(#Безымянный_градиент_39);}.cls-46{fill:url(#Безымянный_градиент_39-2);}.cls-47{fill:url(#Безымянный_градиент_39-3);}.cls-48{fill:url(#Безымянный_градиент_39-4);}.cls-49{fill:url(#Безымянный_градиент_4-4);}.cls-50{fill:url(#Безымянный_градиент_4-5);}.cls-51{fill:url(#Безымянный_градиент_7-4);}.cls-52{fill:url(#Безымянный_градиент_10-6);}.cls-53{fill:url(#Безымянный_градиент_25-2);}.cls-54{fill:url(#Безымянный_градиент_25-3);}.cls-55{fill:url(#Безымянный_градиент_7-5);}.cls-56{fill:url(#Безымянный_градиент_10-7);}.cls-57{fill:url(#Безымянный_градиент_10-8);}.cls-58{fill:url(#Безымянный_градиент_7-6);}.cls-59{fill:url(#Безымянный_градиент_10-9);}</style><radialGradient id="Безымянный_градиент_1191" cx="124.86" cy="24.07" r="40.21" gradientUnits="userSpaceOnUse"><stop offset="0.16" stop-color="#fff27f"/><stop offset="0.98" stop-color="#ffc557"/></radialGradient><radialGradient id="Безымянный_градиент_2168" cx="101.68" cy="123.54" r="82.98" gradientUnits="userSpaceOnUse"><stop offset="0" stop-color="#ffca91"/><stop offset="0.54" stop-color="#ffb074"/><stop offset="0.75" stop-color="#ffad72"/><stop offset="0.9" stop-color="#fda36d"/><stop offset="1" stop-color="#fc9968"/></radialGradient><radialGradient id="Безымянный_градиент_878" cx="101.68" cy="151.77" r="72.34" gradientUnits="userSpaceOnUse"><stop offset="0" stop-color="#fff"/><stop offset="0.34" stop-color="#fcfeff"/><stop offset="0.59" stop-color="#f3f9ff"/><stop offset="0.81" stop-color="#e3f1ff"/><stop offset="1" stop-color="#cee7ff"/></radialGradient><radialGradient id="Безымянный_градиент_769" cx="153.66" cy="135.18" r="16.47" gradientUnits="userSpaceOnUse"><stop offset="0" stop-color="#fbacb5"/><stop offset="0.15" stop-color="#f6a1ae"/><stop offset="0.42" stop-color="#e8839a"/><stop offset="0.77" stop-color="#d2557c"/></radialGradient><radialGradient id="Безымянный_градиент_769-2" cx="52.61" cy="123.72" r="28.89" xlink:href="#Безымянный_градиент_769"/><radialGradient id="Безымянный_градиент_769-3" cx="104.78" cy="124.98" r="20.89" xlink:href="#Безымянный_градиент_769"/><radialGradient id="Безымянный_градиент_769-4" cx="92.96" cy="133.47" r="35.74" xlink:href="#Безымянный_градиент_769"/><radialGradient id="Безымянный_градиент_2168-2" cx="99.45" cy="270.88" r="149.9" xlink:href="#Безымянный_градиент_2168"/><radialGradient id="Безымянный_градиент_10" cx="45.27" cy="277.76" r="28.5" gradientUnits="userSpaceOnUse"><stop offset="0" stop-color="#4e397e"/><stop offset="1" stop-color="#4a1263"/></radialGradient><radialGradient id="Безымянный_градиент_1191-2" cx="99.47" cy="251.63" r="36.2" xlink:href="#Безымянный_градиент_1191"/><radialGradient id="Безымянный_градиент_769-5" cx="96.68" cy="249.1" r="10.03" xlink:href="#Безымянный_градиент_769"/><radialGradient id="Безымянный_градиент_1191-3" cx="103.22" cy="256.98" r="2.01" xlink:href="#Безымянный_градиент_1191"/><radialGradient id="Безымянный_градиент_1191-4" cx="93.65" cy="266.34" r="10.86" xlink:href="#Безымянный_градиент_1191"/><radialGradient id="Безымянный_градиент_1191-5" cx="103.86" cy="337.84" r="47.82" xlink:href="#Безымянный_градиент_1191"/><radialGradient id="Безымянный_градиент_1191-6" cx="106.55" cy="310.48" r="25.57" xlink:href="#Безымянный_градиент_1191"/><radialGradient id="Безымянный_градиент_1191-7" cx="118.26" cy="286.79" r="3.63" xlink:href="#Безымянный_градиент_1191"/><radialGradient id="Безымянный_градиент_769-6" cx="110.74" cy="299.47" r="11.56" xlink:href="#Безымянный_градиент_769"/><radialGradient id="Безымянный_градиент_2168-3" cx="99.61" cy="270.88" r="149.85" xlink:href="#Безымянный_градиент_2168"/><radialGradient id="Безымянный_градиент_10-2" cx="53.15" cy="423.87" r="19.39" xlink:href="#Безымянный_градиент_10"/><radialGradient id="Безымянный_градиент_10-3" cx="94.53" cy="401.92" r="38.9" xlink:href="#Безымянный_градиент_10"/><radialGradient id="Безымянный_градиент_10-4" cx="143.42" cy="435.19" r="22.2" xlink:href="#Безымянный_градиент_10"/><radialGradient id="Безымянный_градиент_769-7" cx="155.91" cy="467.89" r="9.07" xlink:href="#Безымянный_градиент_769"/><radialGradient id="Безымянный_градиент_769-8" cx="44.35" cy="471.82" r="12.65" xlink:href="#Безымянный_градиент_769"/><radialGradient id="Безымянный_градиент_7" cx="286.36" cy="161.94" r="95.48" gradientUnits="userSpaceOnUse"><stop offset="0" stop-color="#ffb074"/><stop offset="0.13" stop-color="#ffa972"/><stop offset="0.68" stop-color="#fd8e6b"/><stop offset="1" stop-color="#fc8468"/></radialGradient><radialGradient id="Безымянный_градиент_12" cx="239.37" cy="88.99" r="5.22" gradientUnits="userSpaceOnUse"><stop offset="0.16" stop-color="#fff"/><stop offset="0.98" stop-color="#ffc557"/></radialGradient><radialGradient id="Безымянный_градиент_14" cx="356.42" cy="69" r="56.52" gradientUnits="userSpaceOnUse"><stop offset="0" stop-color="#ffca9b"/><stop offset="0.39" stop-color="#fea983"/><stop offset="0.77" stop-color="#fc8e6f"/><stop offset="1" stop-color="#fc8468"/></radialGradient><radialGradient id="Безымянный_градиент_9" cx="297.23" cy="132.95" r="67.03" gradientUnits="userSpaceOnUse"><stop offset="0" stop-color="#fff"/><stop offset="0.32" stop-color="#fdfcff"/><stop offset="0.55" stop-color="#f5f3ff"/><stop offset="0.75" stop-color="#e8e3ff"/><stop offset="0.94" stop-color="#d5cdff"/><stop offset="1" stop-color="#cec4ff"/></radialGradient><radialGradient id="Безымянный_градиент_769-9" cx="310.43" cy="123.51" r="4.43" xlink:href="#Безымянный_градиент_769"/><radialGradient id="Безымянный_градиент_10-5" cx="290.32" cy="239.96" r="41.34" xlink:href="#Безымянный_градиент_10"/><radialGradient id="Безымянный_градиент_7-2" cx="326.26" cy="241.4" r="26.81" xlink:href="#Безымянный_градиент_7"/><radialGradient id="Безымянный_градиент_25" cx="341.24" cy="159.49" r="46.18" gradientUnits="userSpaceOnUse"><stop offset="0" stop-color="#ffb074"/><stop offset="0.03" stop-color="#fbac72"/><stop offset="0.47" stop-color="#d08460"/><stop offset="0.8" stop-color="#b56b54"/><stop offset="1" stop-color="#ab6250"/></radialGradient><radialGradient id="Безымянный_градиент_7-3" cx="290.77" cy="281.1" r="6.32" xlink:href="#Безымянный_градиент_7"/><radialGradient id="Безымянный_градиент_4" cx="338.05" cy="273.87" r="30.53" gradientUnits="userSpaceOnUse"><stop offset="0" stop-color="#6afff6"/><stop offset="0.89" stop-color="#4abde2"/></radialGradient><radialGradient id="Безымянный_градиент_4-2" cx="339.43" cy="315.22" r="23.55" xlink:href="#Безымянный_градиент_4"/><radialGradient id="Безымянный_градиент_878-2" cx="241.31" cy="208.09" r="29.94" xlink:href="#Безымянный_градиент_878"/><radialGradient id="Безымянный_градиент_4-3" cx="260.64" cy="278.12" r="85.84" xlink:href="#Безымянный_градиент_4"/><radialGradient id="Безымянный_градиент_39" cx="212.19" cy="308.67" r="8.89" gradientUnits="userSpaceOnUse"><stop offset="0" stop-color="#6aff70"/><stop offset="1" stop-color="#4abb68"/></radialGradient><radialGradient id="Безымянный_градиент_39-2" cx="223.13" cy="303.08" r="13.44" xlink:href="#Безымянный_градиент_39"/><radialGradient id="Безымянный_градиент_39-3" cx="240.44" cy="299.09" r="8.59" xlink:href="#Безымянный_градиент_39"/><radialGradient id="Безымянный_градиент_39-4" cx="256.34" cy="290.31" r="13.77" xlink:href="#Безымянный_градиент_39"/><radialGradient id="Безымянный_градиент_4-4" cx="247.61" cy="330.82" r="29.87" xlink:href="#Безымянный_градиент_4"/><radialGradient id="Безымянный_градиент_4-5" cx="254.18" cy="363.26" r="48.86" xlink:href="#Безымянный_градиент_4"/><radialGradient id="Безымянный_градиент_7-4" cx="371.97" cy="356.91" r="122.73" xlink:href="#Безымянный_градиент_7"/><radialGradient id="Безымянный_градиент_10-6" cx="254.82" cy="403.56" r="60.44" xlink:href="#Безымянный_градиент_10"/><radialGradient id="Безымянный_градиент_25-2" cx="313.36" cy="470.6" r="14.88" xlink:href="#Безымянный_градиент_25"/><radialGradient id="Безымянный_градиент_25-3" cx="201.82" cy="465.24" r="13.46" xlink:href="#Безымянный_градиент_25"/><radialGradient id="Безымянный_градиент_7-5" cx="243.64" cy="472.1" r="57.09" xlink:href="#Безымянный_градиент_7"/><radialGradient id="Безымянный_градиент_10-7" cx="226.3" cy="428.58" r="29.88" xlink:href="#Безымянный_градиент_10"/><radialGradient id="Безымянный_градиент_10-8" cx="326.26" cy="241.4" r="26.81" xlink:href="#Безымянный_градиент_10"/><radialGradient id="Безымянный_градиент_7-6" cx="191.23" cy="405.63" r="11.93" xlink:href="#Безымянный_градиент_7"/><radialGradient id="Безымянный_градиент_10-9" cx="191.23" cy="405.63" r="11.93" xlink:href="#Безымянный_градиент_10"/></defs><g class="cls-1"><g id="Слой_1" data-name="Слой 1"><path d="M168.3,192.26A165.92,165.92,0,0,1,185,217.12l1.46,2.69c.35.65.7,1.29,1,1.92s.56,1,.82,1.55.43.81.64,1.21q.6,1.14,1.17,2.28h0c.15.3.29.6.45.89.25.53.52,1.06.77,1.59a88.13,88.13,0,0,1,4,9.56c.12.32.22.63.33.95s.28.88.42,1.32.19.64.28,1,.23.81.35,1.23.2.77.29,1.15l.3,1.36.18.84c.17.93.33,1.88.45,2.83l.12.84.07.73c0,.4.07.81.1,1.22,0,.22,0,.44,0,.66s0,.67.05,1a46.19,46.19,0,0,1-.23,6.29,49,49,0,0,1-4.69,16.22A304.71,304.71,0,0,1,192,355.18q-.14.88-.27,1.8c-.28,1.84-.57,3.76-.89,5.75-.13.83-.27,1.66-.41,2.51s-.27,1.56-.4,2.35l-.24,1.35c-.13.75-.27,1.51-.41,2.28,0,.15-.05.3-.08.46-.23,1.21-.46,2.43-.7,3.67q-.59,2.91-1.26,6v0c0,.19-.09.38-.13.57-.13.58-.26,1.19-.41,1.78-.18.79-.37,1.59-.57,2.39s-.33,1.34-.5,2h0c0,.2-.1.4-.15.6-.48,1.9-1,3.82-1.55,5.78-.1.39-.21.77-.33,1.16,0,.1-.05.21-.08.32a.88.88,0,0,0,0,.15c-.24.84-.49,1.68-.75,2.54l-.75,2.43A198.39,198.39,0,0,1,158.46,451c-2.41,3.64-4.53,6.61-6,8.63a8.56,8.56,0,0,1,6.23-.91c1.75.51,2.88,1.64,5.27,4.67,1.67,2.12,3.83,5,6.18,8.59,5.36,2.3,6.31,3.45,6.18,4.06-.22,1-3.3,1.15-26.37-.14-9.46-.54-14.84-.89-14.92-2-.06-.65,1.85-1.33,3.47-1.81,1.74-6.45,5-22.43-2.42-39A52.59,52.59,0,0,0,128.52,421c-12.79,3.24-31.3,5.67-51.67.12A93.73,93.73,0,0,1,67,417.85a98.73,98.73,0,0,0-1.39,34.95,97.26,97.26,0,0,0,3.57,15.64c.89,1.82,1.93,4.65.78,6.88-1.81,3.52-7.87,3.21-25.09,2.85-18.82-.41-22.27-.29-23.1-2.45-1.34-3.48,4.81-10.77,10.08-10.64,3.2.07,4.76,2.85,10.07,3.53a17.49,17.49,0,0,0,5.53-.2c-20.92-38.23-42.28-92.5-42.28-158,0-9.77.47-19.17,1.32-28.2A50.68,50.68,0,0,1,.65,266.5a61,61,0,0,1,.73-21.9c3.24-14.89,16.55-35.79,38.91-55.51-13.53-8-20.49-17.51-23.92-23.24C9.07,153.71,4.53,136.72,8,134.75c1.12-.62,2.91.39,4.28,1.37-3.23-10.06-1.35-20.54,5.18-26.64,6.23-5.81,14.89-6,17.54-6a31.14,31.14,0,0,1,13.16,2.74,36.43,36.43,0,0,0,17.78-7.35,35.43,35.43,0,0,0,6.32-6.49C66,93.44,53.81,94.49,41.17,88.53c-6-2.81-17-8-19.44-19-.26-1.17-1.67-7.59,1.62-13.28C30.08,44.7,52.55,42.77,67.73,51c12.21,6.58,17.21,18.34,18.89,23,4.86-6.39,13.68-15.56,26-17.15,4.53-.58,11.86-.45,12.84,2.34.71,2-2.46,3.75-6.37,9.69-4.28,6.52-6.92,14.24-5.39,15.32.55.38,1.18-.43,5-2,7.12-3.06,9.23-2,9.92-1.56a4.46,4.46,0,0,1,.84.75c15-24.06,39.6-32,53.94-24,10.18,5.67,17.46,20.62,13.25,31.88-5.81,15.56-30.68,16.53-34.49,16.68a50.94,50.94,0,0,1-13.41-1.27,23.48,23.48,0,0,0,5.36,14,21.78,21.78,0,0,0,4.85,4.23,36.27,36.27,0,0,1,11.47-1.61,35.62,35.62,0,0,1,8.74,1.25c3.37-1.11,8.63-2.24,13,.18,4.18,2.31,6.64,7.39,7.6,13.68a49.79,49.79,0,0,1-.06,14A58.42,58.42,0,0,1,194,168.86C187,182.54,174.83,189.32,168.3,192.26Z" transform="translate(0 0)"/><path class="cls-2" d="M177.44,18.13a10.56,10.56,0,0,0-3.39-6.21,23.19,23.19,0,0,0-6.29-4.18A54,54,0,0,0,153,3.56a98.42,98.42,0,0,0-14.74-1h-.75a132.27,132.27,0,0,0-30.79,3.91A98.35,98.35,0,0,0,92,11.36,54.27,54.27,0,0,0,78.88,19,22.38,22.38,0,0,0,74,24.38a9.7,9.7,0,0,0-1.68,6.33,9.7,9.7,0,0,0,3.17,5.66,22.36,22.36,0,0,0,6.07,4,54.59,54.59,0,0,0,14.55,4.14,99.11,99.11,0,0,0,15.35,1.15,129.06,129.06,0,0,0,15.45-.85,138.91,138.91,0,0,0,15.27-2.57A100.94,100.94,0,0,0,157,37.71a54.33,54.33,0,0,0,13.45-7.35,23,23,0,0,0,5.15-5.42A10.49,10.49,0,0,0,177.44,18.13ZM89.37,34a23.07,23.07,0,0,1-5.79-2.27,10.76,10.76,0,0,1-2.59-2,5.86,5.86,0,0,1-1.11-6.63,10.28,10.28,0,0,1,1.81-2.7,21.9,21.9,0,0,1,4.79-3.91,57.68,57.68,0,0,1,10.9-5.19,119.63,119.63,0,0,1,23.37-5.75A120.42,120.42,0,0,1,144.9,4.17a64.9,64.9,0,0,1,10.26,1.34c.66.15,1.3.31,1.93.49A24.52,24.52,0,0,1,163,8.44a12.21,12.21,0,0,1,2.71,2.2,6.83,6.83,0,0,1,1.68,3.47,6.58,6.58,0,0,1-.6,3.76,11.11,11.11,0,0,1-1.94,2.81,22,22,0,0,1-5,3.85,56.1,56.1,0,0,1-11.13,4.82,106,106,0,0,1-11.64,3c-3.75.8-7.73,1.48-11.79,2l-3.4.42c-2.92.33-5.78.57-8.53.72-2.46.15-4.8.22-7,.22-1.71,0-3.36,0-5-.12A59.26,59.26,0,0,1,89.37,34Z" transform="translate(0 0)"/><path d="M179.27,17.92h0a12.3,12.3,0,0,0-3.94-7.32,25.12,25.12,0,0,0-6.76-4.51,57.79,57.79,0,0,0-15.26-4.6A111.59,111.59,0,0,0,121.62.8,127.35,127.35,0,0,0,106,3.55,100.92,100.92,0,0,0,90.79,8.43a57.24,57.24,0,0,0-14,8,25.49,25.49,0,0,0-5.7,6.11,13.19,13.19,0,0,0-2.28,8.6A13.19,13.19,0,0,0,72.93,39a26.28,26.28,0,0,0,7,4.73,58.11,58.11,0,0,0,15.53,4.67,98.33,98.33,0,0,0,16.46,1.33,127.06,127.06,0,0,0,15.45-1,108.71,108.71,0,0,0,30.73-8.37,58.12,58.12,0,0,0,13.7-8.3A25.59,25.59,0,0,0,177.22,26,12.35,12.35,0,0,0,179.27,17.92Zm-3.72,7a23,23,0,0,1-5.15,5.42A54.33,54.33,0,0,1,157,37.71a100.94,100.94,0,0,1-14.8,4.48,138.91,138.91,0,0,1-15.27,2.57,129.06,129.06,0,0,1-15.45.85,99.11,99.11,0,0,1-15.35-1.15,54.59,54.59,0,0,1-14.55-4.14,22.36,22.36,0,0,1-6.07-4,9.7,9.7,0,0,1-3.17-5.66A9.7,9.7,0,0,1,74,24.38,22.38,22.38,0,0,1,78.88,19,54.27,54.27,0,0,1,92,11.36a98.35,98.35,0,0,1,14.66-4.92,132.27,132.27,0,0,1,30.79-3.91h.75a98.42,98.42,0,0,1,14.74,1,54,54,0,0,1,14.8,4.18,23.19,23.19,0,0,1,6.29,4.18,10.56,10.56,0,0,1,3.39,6.21A10.49,10.49,0,0,1,175.55,24.94Z" transform="translate(0 0)"/><path d="M167.43,14.11a6.83,6.83,0,0,0-1.68-3.47A12.21,12.21,0,0,0,163,8.44,24.52,24.52,0,0,0,157.09,6c-.63-.18-1.27-.34-1.93-.49A64.9,64.9,0,0,0,144.9,4.17a120.42,120.42,0,0,0-24.15,1.34,119.63,119.63,0,0,0-23.37,5.75,57.68,57.68,0,0,0-10.9,5.19,21.9,21.9,0,0,0-4.79,3.91,10.28,10.28,0,0,0-1.81,2.7A5.86,5.86,0,0,0,81,29.69a10.76,10.76,0,0,0,2.59,2A23.07,23.07,0,0,0,89.37,34a59.26,59.26,0,0,0,12,1.67c1.62.08,3.27.12,5,.12,2.24,0,4.58-.07,7-.22,2.75-.15,5.61-.39,8.53-.72l3.4-.42c4.06-.55,8-1.23,11.79-2a106,106,0,0,0,11.64-3,56.1,56.1,0,0,0,11.13-4.82,22,22,0,0,0,5-3.85,11.11,11.11,0,0,0,1.94-2.81A6.58,6.58,0,0,0,167.43,14.11Zm-5.52,4.11a19.63,19.63,0,0,1-4,3.36,55.72,55.72,0,0,1-10.16,5.1,101.53,101.53,0,0,1-21.64,5.75l-1,.17a107.8,107.8,0,0,1-23.54,1,56.86,56.86,0,0,1-11.45-1.95A21.06,21.06,0,0,1,85,29.49c-1.65-1-2.64-2.21-2.79-3.38-.23-1.43.79-2.9,1.69-3.88a19.77,19.77,0,0,1,4.23-3.32,55.45,55.45,0,0,1,10.38-4.73,116,116,0,0,1,22.75-5.25,127.91,127.91,0,0,1,16.29-1.11c2.41,0,4.76.08,7.08.24.13,0,.26,0,.38,0A55.45,55.45,0,0,1,155.9,9.85a20.13,20.13,0,0,1,4.92,2c1.51.89,2.42,1.91,2.57,2.92S163,16.94,161.91,18.22Z" transform="translate(0 0)"/><path class="cls-3" d="M171.73,20.23C167.11,38,118.07,43.56,105.66,40.37c-.69-.18-2.35-.61-2.36-1.24,0-1.49,8.77-3,18.62-4.29l3.4-.42c4.06-.55,8-1.23,11.79-2a106,106,0,0,0,11.64-3,56.1,56.1,0,0,0,11.13-4.82,22,22,0,0,0,5-3.85,11.11,11.11,0,0,0,1.94-2.81,6.58,6.58,0,0,0,.6-3.76,6.83,6.83,0,0,0-1.68-3.47A12.21,12.21,0,0,0,163,8.44,24.52,24.52,0,0,0,157.09,6c-.63-.18-1.27-.34-1.93-.49,4.88.27,14.66,3.1,16.6,9.63A9.44,9.44,0,0,1,171.73,20.23Z" transform="translate(0 0)"/><path class="cls-3" d="M101.37,37.81c0-1.19-11.84-2.91-12.16-1.77-.17.59,2.68,2.1,5.3,2.6C97.78,39.27,101.36,38.46,101.37,37.81Z" transform="translate(0 0)"/><path class="cls-4" d="M190.09,161.91c-12.22,31.27-81,44.23-129.91,25.89-29.52-11.07-43.63-30.5-47.13-38.52-1.13-2.56-4.69-10.7-3.11-11.72.64-.42,2,.48,3,1.28a39.39,39.39,0,0,0,2.92,4.52c4.41,5.91,10.22,10.1,10.84,9.49s-4.05-4.19-7.32-11.12c-3.88-8.2-6.24-21.8.8-29.25a17.33,17.33,0,0,1,9.33-4.83c18.77-3.64,37.07,23,37.86,24.23a28.29,28.29,0,0,0-3.65-11.1,31.48,31.48,0,0,0-8.18-9.23,30.87,30.87,0,0,0,9.67-4.16,31.68,31.68,0,0,0,11.65-14.2,33.35,33.35,0,0,1,4.63.33c2.12.28,3.09.61,3.83,0a2.2,2.2,0,0,0,.49-2.59c-.45-.74-1.5-.81-3.43-.9a20.64,20.64,0,0,0-3.8.18,11.42,11.42,0,0,0,.54-3.62,11.74,11.74,0,0,0-.39-2.78c-7.39-5.33-13.16-9.94-17.11-13.2-4.71-3.9-7.73-6.63-8.21-6.19s2.71,5.37,6.25,9.22A49.46,49.46,0,0,0,72.83,83.81c0,.32,0,.63,0,1a24.58,24.58,0,0,0-6.65-2c-.39-.06-4.73-.7-4.9-.08-.11.43,1.69,1.56,10.64,4.75a42.13,42.13,0,0,1-15.53.92c-14.48-1.91-30.67-12-31.15-23.11a11.7,11.7,0,0,1,1.12-5.64c4-8.21,17.43-8.66,19.85-8.74C63.82,50.28,83,63.09,83.53,75.81a13.3,13.3,0,0,1-.1,2.33,3.78,3.78,0,0,0-1,3.3c.59,2,3.56,2.86,4.34,2.12.19-.18.57-.76-.29-2.8.55-1,1.21-2,2-3.17.51-.73,1.07-1.49,1.69-2.26A38.7,38.7,0,0,1,97,68.69c9.1-6.9,21.19-9.61,22.41-7.4.57,1-1.66,2.35-4.46,6.72-5.27,8.28-6.91,18.65-4.53,20,.87.49,1.62-.6,5.5-2.15l2.12-.83,0,0c3.26-1.24,6.5-2.2,8-1,2.9,2.47-2.72,12.16.22,14.23a1.9,1.9,0,0,0,1.73.32c1-.5.79-2.7.77-3.08-.21-3.68,5.75-19.62,18.18-28.27,7.8-5.42,24.16-12.17,34.84-4.15A21.8,21.8,0,0,1,190,82.68a21.18,21.18,0,0,1-5.58,11.38c-11.66,13-34.13,8.5-36.36,8a13.49,13.49,0,0,1-.23-4c1.34-14.31,26.27-21.31,25.84-22.3s-26.86,3.75-30.13,18.94a15.29,15.29,0,0,0-.18,5.31,9.64,9.64,0,0,0-2.34-.74c-.59-.11-3.84-.68-4.76.84a1.75,1.75,0,0,0-.09,1.59c.41.86,1.64,1,2.52,1.21a12.8,12.8,0,0,1,5,2.42c.53,2.46,1.19,5.08,2.06,7.84A84.6,84.6,0,0,0,151,126a14.7,14.7,0,0,0-5.22,3.07c-1.82,1.66-4,4.53-3.45,5.22.71.88,5.06-2.57,11.1-4.84a39.22,39.22,0,0,1,16.23-2.34A29.59,29.59,0,0,0,162,144.2,29.6,29.6,0,0,1,168.76,134c1.9-1.87,9.39-9.24,17.37-7.33a11.14,11.14,0,0,1,3.33,1.38C196.81,133.08,193.35,153.56,190.09,161.91Z" transform="translate(0 0)"/><path class="cls-3" d="M123.53,87.4c-1.81,1.71-4,1.13-7.16,1.65-5.32.85-6.4,3.57-7.91,2.73-2.71-1.51-1.44-11.43,2.11-19.1,1.34-2.91,2.53-4.45,2-5-1.07-1.06-8.32,2.65-13.41,8.85-4.35,5.31-4.9,9.75-7.33,9.67-1.91-.08-3.85-2.89-4-5.64a6.44,6.44,0,0,1,.62-3,7.05,7.05,0,0,1,1.69-2.26A38.7,38.7,0,0,1,97,68.69c9.1-6.9,21.19-9.61,22.41-7.4.57,1-1.66,2.35-4.46,6.72-5.27,8.28-6.91,18.65-4.53,20,.87.49,1.62-.6,5.5-2.15l2.12-.83,0,0c3-.82,6.08-1.35,6.65-.31C125.14,85.39,124.3,86.67,123.53,87.4Z" transform="translate(0 0)"/><path class="cls-3" d="M63,57.74c-.89-.69-3.51-2.56-9.89-3.56C44.94,52.9,36.89,54,36.87,55s7.78.11,17.85,4.39c8.55,3.64,12.69,8.42,13.73,7.42S67,60.86,63,57.74Z" transform="translate(0 0)"/><path class="cls-3" d="M70.1,62.41c-.38.37.57,1.45,1.37,4.12s.35,3.39,1,4.81c1.38,3.19,6,5.19,7.28,4.12s-.89-6.55-4.2-9.89C73.42,63.45,70.64,61.88,70.1,62.41Z" transform="translate(0 0)"/><path class="cls-3" d="M174.43,62.86c-1.83-.54-7-1.76-15.09,1.19C147.14,68.48,138.57,78.5,139.63,80c1.21,1.69,13.16-10.72,32.08-11.07,4.67-.09,10,.55,10.39-.9S178.33,64,174.43,62.86Z" transform="translate(0 0)"/><path class="cls-5" d="M190.09,161.91c-12.22,31.27-81,44.23-129.91,25.89-29.52-11.07-43.63-30.5-47.13-38.52-1.13-2.56-4.69-10.7-3.11-11.72.64-.42,2,.48,3,1.28a39.39,39.39,0,0,0,2.92,4.52c4.41,5.91,10.22,10.1,10.84,9.49s-4.05-4.19-7.32-11.12c-2.59-5.49-4.51-13.4-3.38-20.26a16.71,16.71,0,0,1,4.18-9,17.33,17.33,0,0,1,9.33-4.83c18.77-3.64,37.07,23,37.86,24.23a28.29,28.29,0,0,0-3.65-11.1A27,27,0,0,0,89.32,127a6.1,6.1,0,0,1,.22-3.18c2-5.56,13-7.06,21.07-5.16,2.6.61,10,2.35,11.06,7.31a7.59,7.59,0,0,1-1.14,5.32,26.55,26.55,0,0,0,25.28-2.21c-1.82,1.66-4,4.53-3.45,5.22.71.88,5.06-2.57,11.1-4.84a39.22,39.22,0,0,1,16.23-2.34A29.59,29.59,0,0,0,162,144.2,29.6,29.6,0,0,1,168.76,134a31.58,31.58,0,0,1,7.87-5.87,13.92,13.92,0,0,1,9.5-1.46,11.14,11.14,0,0,1,3.33,1.38C196.81,133.08,193.35,153.56,190.09,161.91Z" transform="translate(0 0)"/><path class="cls-6" d="M190.09,161.91c-12.22,31.27-81,44.23-129.91,25.89-29.52-11.07-43.63-30.5-47.13-38.52-1.13-2.56-4.69-10.7-3.11-11.72.64-.42,2,.48,3,1.28a39.39,39.39,0,0,0,2.92,4.52c4.41,5.91,10.22,10.1,10.84,9.49s-4.05-4.19-7.32-11.12c-2.59-5.49-4.51-13.4-3.38-20.26,3.23-6.86,6.28-9,8.88-9.17,8.23-.45,16.19,19.35,22,38.55.54-3.15,1.38-6.95,2.39-6.94,1.71,0,1.56,11,4.9,18.81,3.23,7.6,11.63,16.83,35.09,22.61.64-3.68,1.53-4.68,2.28-4.8,1.27-.21,2,2,4.66,3.6a11.38,11.38,0,0,0,6.3,1.37c6.62-.17,10.82-5.83,11.34-6.57a5.75,5.75,0,0,1,1.92,2.88c.67,2.42-.47,5.23-2.87,7.11a55.56,55.56,0,0,0,17.15.82c16.91-1.85,35.61-12,43-28.89a39.72,39.72,0,0,0,2.37-7.19c-3.13,2.35-6.66,3.08-8.82,1.67-2.85-1.85-2.22-6.7-1.89-9.23,1.19-9.13,8.28-15.26,11.91-17.94a13.92,13.92,0,0,1,9.5-1.46,11.14,11.14,0,0,1,3.33,1.38C196.81,133.08,193.35,153.56,190.09,161.91Z" transform="translate(0 0)"/><path class="cls-7" d="M153.26,131.63c-3.7,1.57-8.13,5-7.47,6.93.58,1.72,5,2.23,8.25,1.15,5-1.63,8.46-7.2,7.33-8.93C160.35,129.22,155.57,130.65,153.26,131.63Z" transform="translate(0 0)"/><path class="cls-8" d="M59.35,126.46c-2.29-6.39-9.55-11.54-12.83-9.82a2.81,2.81,0,0,0-1.27,1.43c-.94,2.63,3.21,6.2,5.39,8.07.65.56,7.24,6.23,9,4.76C60.64,130.08,59.71,127.49,59.35,126.46Z" transform="translate(0 0)"/><path d="M67.76,113.22a11.39,11.39,0,0,0,2.51,4.5c6.11,6.55,20.55,4.59,22.38-.32a4.62,4.62,0,0,0-.41-3.66A9.16,9.16,0,0,1,90,115.83c-.74.49-2.39,1.4-6,1.51a24.38,24.38,0,0,1-9.58-1.71,18.65,18.65,0,0,0,1.46-3.25,17.67,17.67,0,0,0,.89-4.52,32.35,32.35,0,0,1-3.09,4.73c-.59.77-1.19,1.46-1.77,2.1Z" transform="translate(0 0)"/><path d="M123.05,122.45c.51,4,8.54,5.85,13.65,5.81,4.1,0,5.93-1.3,6.6-1.83a8.72,8.72,0,0,0,2.63-3.52l-1.86.93a21,21,0,0,1-1.86-2.79c-1.4-2.46-1.8-4.25-2.1-4.19s-.09,2.59.08,3.8a29.17,29.17,0,0,0,.77,3.8c-1.68.29-9.14,1.38-14.19-3.33a12.61,12.61,0,0,1-2.1-2.56C123,120.44,123,121.76,123.05,122.45Z" transform="translate(0 0)"/><path d="M94.09,130.53c-1.15-1.62-1.94-4.3-1-6.19,3-6.23,24-3.16,25.49,1.55a6.88,6.88,0,0,1-1.1,6.38c-2.77,3.72-11.71,2.95-17.21,1.54C96.11,132.75,94.82,131.55,94.09,130.53Z" transform="translate(0 0)"/><path class="cls-9" d="M97.33,124.23c.11-1.13,3.93-1.54,4.35-1.59,5.15-.53,10.69,1.69,10.55,3.08-.11,1.21-4.63,2-8.3,1.53C100.78,126.84,97.21,125.34,97.33,124.23Z" transform="translate(0 0)"/><path d="M102.15,132.89a8.12,8.12,0,0,1-12.71,10c-.47-.13-1-.19-1.18.06-.91,1.06,3.13,8.16,9.71,11.14,4.49,2,11,2.53,15.81-.83,4.31-3,6.45-8.4,5.72-9-.33-.28-1,.57-2.94,1.16-.35.1-5.11,1.47-8.09-1.16a5.38,5.38,0,0,1-.88-1c-2.24-3.08-1.15-7.51-.72-9Z" transform="translate(0 0)"/><path class="cls-10" d="M96.49,148.67a10.5,10.5,0,0,0,2.41,2.21,10.91,10.91,0,0,0,5.94,1.71c1.28,0,3.09,0,3.38-.81.38-1.07-2.13-3.36-4.81-4.12A9.38,9.38,0,0,0,96.49,148.67Z" transform="translate(0 0)"/><path d="M123,141.52c.11.61.47.73.86,1.38,1.13,1.88-.06,3.85.61,4.25s2.46-.77,3-2.43c.9-2.63-1.61-6.05-3-5.89C123.6,138.93,122.79,140.41,123,141.52Z" transform="translate(0 0)"/><path d="M84.81,139.53c-.14.73-.83.69-1.39,1.73s-.25,2-.78,2.25c-.35.15-.83-.13-1.08-.4s-.54-.64-.22-2.28c.11-.56.71-3.53,1.91-3.56C84.05,137.26,85,138.56,84.81,139.53Z" transform="translate(0 0)"/><path class="cls-11" d="M186,265.42a41.55,41.55,0,0,1-6.58,12c-.54-1.33-1.07-2.66-1.6-4-.42,3.58-1.75,10.25-7,15.36-3.33,3.25-7.35,5-17.55,7a177.64,177.64,0,0,1-29.91,3.19,10,10,0,0,0-1.83-5.56l2.39-.31a189.59,189.59,0,0,0,19.38-35.32c.95-2.26,9.15-22.15,6.63-23.49-.76-.4-2.33,1-3.63,2.4a66.93,66.93,0,0,0-14.89-9.72,72.61,72.61,0,0,0-64.66,1.76,68,68,0,0,0-15.64,11.74c-3.79.08-7.6.14-11.4.2a112.87,112.87,0,0,0,42.77,9.74,1.92,1.92,0,0,1,.59.88,2.24,2.24,0,0,1-.29,1.8c-.43,1-1.19,2.79-2.28,5.07-5.61,11.67-20,36.48-42.91,39.08a36.28,36.28,0,0,1-7.87,0l3.72-1.87a24.32,24.32,0,0,1-11.18-4.14c-7-4.89-9.3-12.42-10.78-17.21a51.26,51.26,0,0,1-1.37-5.54c-1.17-6.29-.88-10.83-1.32-10.83S8,259.69,7.51,268.17a45.94,45.94,0,0,1-1.07-19c1.82-11.37,7.68-18.8,15.29-28.24A142.8,142.8,0,0,1,49,195.21C58.3,202.86,75.44,214.38,98.7,217c10.31,1.18,30.33,3.45,41.36-8.73a26,26,0,0,0,4.27-6.5c2.06-.68,4.12-1.36,6.18-2.06l5.72-1.92c1.54,1,3.49,2.33,5.66,4.05h0A68,68,0,0,1,182,227.52a72,72,0,0,1,5.37,16.23A42.3,42.3,0,0,1,186,265.42Z" transform="translate(0 0)"/><g class="cls-12"><path class="cls-13" d="M187.33,243.75c-.53,11.07-1.78,13.5-2.85,13.63-3.3.41-2.64-21.55-18.35-38.94-5.44-6-12.58-11.2-11.13-14.4.84-1.85,4.15-2.2,6.89-2.18h0A68,68,0,0,1,182,227.52,72,72,0,0,1,187.33,243.75Z" transform="translate(0 0)"/></g><g class="cls-12"><path class="cls-13" d="M41.34,209.45c-5,1.39-8.78,4.47-13.08,9.42C23,225,16.13,234.77,17.55,236c1,.89,5.71-3.07,14.79-10.72,8.83-7.44,16.63-14,15.43-16.07C47,207.88,42.64,209.08,41.34,209.45Z" transform="translate(0 0)"/></g><g class="cls-12"><path class="cls-13" d="M83,251.24a206,206,0,0,1-34.4,1.86c-8.62-.26-21.16-.63-21.75-3.91-.44-2.44,5.93-5.73,12.79-8.57a112.87,112.87,0,0,0,42.77,9.74A1.92,1.92,0,0,1,83,251.24Z" transform="translate(0 0)"/></g><g class="cls-12"><path class="cls-13" d="M161.13,268.4c-4.82,7.79-8.45,11.43-7.44,12.62s5.78-.88,8.88-3.36a17.76,17.76,0,0,0,4.21-4.91c-.32,2.08-.5,4.4.23,4.67,1.07.41,3.91-3.63,5.38-7.24,3.4-8.38,1.21-18.84-1.4-19.18C169,250.73,168.37,256.71,161.13,268.4Z" transform="translate(0 0)"/></g><path class="cls-14" d="M80.47,258.11c-5.61,11.67-20,36.48-42.91,39.08a36.28,36.28,0,0,1-7.87,0l3.72-1.87a24.32,24.32,0,0,1-11.18-4.14c-7-4.89-9.3-12.42-10.78-17.21a51.26,51.26,0,0,1-1.37-5.54.08.08,0,0,0,0,0,26,26,0,0,0,9.53,8.29c9.36,4.64,19.11,1.68,29.36-1.6A99,99,0,0,0,80.47,258.11Z" transform="translate(0 0)"/><path class="cls-15" d="M55.67,241.12A68.26,68.26,0,0,1,73.14,230.5c7.29-3,24.51-8.7,44.53-2.75a65.31,65.31,0,0,1,25.6,14.66,159.53,159.53,0,0,1-12,28c-1.49,2.71-3,5.3-4.56,7.75a23.43,23.43,0,0,0-5.29-3.81,24,24,0,0,0-11.57-2.71,18.34,18.34,0,0,0,3.81-4.8,19.32,19.32,0,0,0,2.18-11.36,3.87,3.87,0,0,0,.16-2.5c-.36-1.14-1.33-1.89-3.86-3.14-4-1.94-5.8-2.21-5.8-2.81s1-1.12,6-1.94a2.62,2.62,0,0,0-1.77-4.66,56,56,0,0,0-9.18,2.09c-2.65.85-4.36,1.62-5.07.88-1-1.08,1.62-3.88.51-7.49-.1-.3-.71-2.29-1.8-2.4s-2.23,2.24-3.46,4.26a25.69,25.69,0,0,1-7.4,7.73Z" transform="translate(0 0)"/><path class="cls-3" d="M135.72,243.87c-2.18-5.42-7.66-8.54-10.54-10-10.35-5.16-23-6.4-23.37-4.9s10.74,2.55,20,11.76A41.31,41.31,0,0,1,132,257.82c1.51-1.68,5.42-6.48,4.34-12A11.2,11.2,0,0,0,135.72,243.87Z" transform="translate(0 0)"/><path class="cls-16" d="M86,247.66c.08.43.35.62.62,1.67a8.76,8.76,0,0,1,.26,1.68q11.14,8.22,11.92,7.34.54-.62-4-5.67,12.28,1.35,12.52.18t-9.41-4.16c6.87-2.65,8.19-3.59,8.09-3.95s-3.21-.18-5.6.08c-4.37.47-7,1.22-7.36.45-.27-.56,1-1.23,1.32-3.27,0-.17.31-1.93-.26-2.2s-1.29.91-3,2.56C88.06,245.33,85.77,246.26,86,247.66Z" transform="translate(0 0)"/><path class="cls-17" d="M100.94,255.28l4.29,3.4a6.42,6.42,0,0,0,.27-1.7,5.83,5.83,0,0,0-.14-1.5Z" transform="translate(0 0)"/><path class="cls-18" d="M87.32,256q-.3,1.11-.75,2.31A29.23,29.23,0,0,1,84,263.65q-.31,7.05-.62,14.09a37.09,37.09,0,0,0,7.36-3,38.43,38.43,0,0,0,13.2-11.85,6.3,6.3,0,0,1-1.62,0,6.67,6.67,0,0,1-2.46-.79c-1.42-.74-5.86-3.4-11.78-7.21Z" transform="translate(0 0)"/><path class="cls-19" d="M43.59,334.6a19.37,19.37,0,0,0,5.85.12c16.32-2.2,24.08-25.19,24.85-27.55l11,35.08a16.74,16.74,0,0,1-2.14,4.27,17.05,17.05,0,0,1-4.27,4.28l9.71-.39q1.1,3.34,2.21,6.68a27.7,27.7,0,0,0,4.72.12A29.26,29.26,0,0,0,107,354.06l-2.25-6c1.15-.38,2.36-.83,3.62-1.37.63-.27,1.23-.54,1.81-.82l3,6.19a30.89,30.89,0,0,0,3.38-1.16,31.79,31.79,0,0,0,9.08-5.69l-2.31-5.69a50.43,50.43,0,0,0,6.43-4.58c3.95-3.3,10.08-8.44,11.25-16.11a17.24,17.24,0,0,0,.19-1.9,36.64,36.64,0,0,0,22.95-1.36c-.7,5.61-3.64,23.44-18.73,37.41-20.88,19.33-47.81,15.39-52.6,14.69C61.74,363.17,45.88,338.33,43.59,334.6Z" transform="translate(0 0)"/><path class="cls-3" d="M145.27,340.43a74.46,74.46,0,0,1-12.21,9.6c-17.12,10.76-33.79,11.29-33.6,13,.14,1.19,8.25,2.29,16.73.82,21.26-3.67,36.61-22,35-24.41C150.85,339,149.69,338.75,145.27,340.43Z" transform="translate(0 0)"/><path class="cls-20" d="M83,291.45l17,46.5a55.37,55.37,0,0,0,11.29-4.56c4.84-2.62,14.42-7.81,18-17.89a22,22,0,0,0,.72-2.44A35.39,35.39,0,0,1,126,310.3a35.8,35.8,0,0,1-4.81-4.54l-10.14,14.08a2.41,2.41,0,0,1-4-2.54c2.89-6,2.69-7.5,2.19-7.87s-1.44.28-5.18,1.89c-1.51.65-2.79,1.16-3.74,1.52a3.47,3.47,0,0,1-2.63-6.38c7.33-3.86,8.94-5.63,8.66-6.48-.16-.49-1.64-.84-4.59-1.52-1.62-.38-3-.65-4.07-.84-.11-.05-2.2-1-2.44-2.8s1.47-4,4.19-4.28c10,2.27,12.73,2.22,13,1.57s-2.52-1.79-3.94-5.07a10,10,0,0,1-.78-4q-2.48.33-5.11.9A68.54,68.54,0,0,0,83,291.45Z" transform="translate(0 0)"/><path class="cls-21" d="M114.65,283.14a4.87,4.87,0,0,0,.31,1.48c.59,1.52,1.78,2.1,3.73,3.8.52.46,1.26,1.13,2.1,2l.89,0a5.6,5.6,0,0,0-.18-3.41C120.57,284.64,117.84,283.09,114.65,283.14Z" transform="translate(0 0)"/><path class="cls-22" d="M119.58,294a7.92,7.92,0,0,1,.91,2.37,7.66,7.66,0,0,1,0,3.09q-6.42,13.51-7.78,13c-.64-.24-.44-2.78.6-7.65-3.43,1.83-9,4.6-9.65,3.64s4.42-5.83,7.26-8.37L110.5,299q-9.85-3-9.66-4c.15-.79,4.83-.7,14,.28l-1.54-1.05a2.45,2.45,0,0,0,.84-1.39c.27-1.66-1.84-2.58-1.84-4.84,0-.23,0-1.31.46-1.48.66-.25,1.42,1.57,4,4.24A14.42,14.42,0,0,1,119.58,294Z" transform="translate(0 0)"/><path class="cls-23" d="M187.78,316.37c-.19,16.95-2.29,68.43-30,125.65-2.86,5.93-5.39,10.64-6.95,13.49,1.89-1.88,3-2.73,3.22-2.52s-1.11,3-4.49,8.14l-1.86,1.2-3.33,2.17c1.3-9,2.15-25.61-7.44-40.15a49.27,49.27,0,0,0-3.78-5,54,54,0,0,0,20.48-13.88,3.93,3.93,0,0,0,.33-4.16c-1.05-1.57-3.94-2-6.11-.18a63,63,0,0,1-9.38,6.1c-30.73,16.26-74.19,5.94-92.06-13.16-1.61-1.72-3.91-4.48-5.26-5.61-.47-.38-.83-.58-1-.46-.59.4,1,4.6,4.34,9.8a64.94,64.94,0,0,0,8.28,10.52,56.34,56.34,0,0,0,9,7.45,99.53,99.53,0,0,0-.23,34.09c.08.41.15.84.23,1.26.45,2.47,1,4.81,1.56,7,0,0,0,0,0,.06a94.48,94.48,0,0,0,3.23,10.08,15.7,15.7,0,0,1-10.87.12,13.48,13.48,0,0,1-1.94-1A397.4,397.4,0,0,1,22,386.7C12.8,352.83,11.77,330.54,11.56,324A242.16,242.16,0,0,1,12.79,290a28.53,28.53,0,0,0,6.08,6.78,27.62,27.62,0,0,0,4.46,2.94c-1.8-.08-2.76.06-2.86.45q-.33,1.17,9.72,5.26c0,3.17.7,49.32,33.53,68.93a69.67,69.67,0,0,0,28,8.94s21.54,1.94,41.25-9.5c23.49-13.61,37.19-42.49,36.62-74.33a50.28,50.28,0,0,0,13-9.27,49,49,0,0,0,4-4.49A287,287,0,0,1,187.78,316.37Z" transform="translate(0 0)"/><path class="cls-24" d="M61.78,415.81a99.53,99.53,0,0,0-.23,34.09,301.21,301.21,0,0,0-10.21-34.82c-2.18-6.06-4.47-11.8-6.81-17.24a64.94,64.94,0,0,0,8.28,10.52A56.34,56.34,0,0,0,61.78,415.81Z" transform="translate(0 0)"/><path class="cls-25" d="M138.5,407.27c-30.73,16.26-74.19,5.94-92.06-13.16-1.61-1.72-3.91-4.48-5.26-5.61a170.54,170.54,0,0,0,28,10.23,176.09,176.09,0,0,0,78.68,2.44A63,63,0,0,1,138.5,407.27Z" transform="translate(0 0)"/><path class="cls-26" d="M148.47,444.37a87.81,87.81,0,0,1-.74,18c-.12.84-.25,1.68-.4,2.55l-2.93-.38c1.3-9,2.15-25.61-7.44-40.15a49.27,49.27,0,0,0-3.78-5,54,54,0,0,0,20.48-13.88,33.36,33.36,0,0,0-6.49,12.79C145,427.08,147.73,432.76,148.47,444.37Z" transform="translate(0 0)"/><path d="M173.31,359.29c.46.25-1.3,4.35-2,5.93a77.63,77.63,0,0,1-8.34,14.7c.51-2.63,1-5.27,1.54-7.9C170.81,361.75,172.9,359.07,173.31,359.29Z" transform="translate(0 0)"/><path d="M39.61,368.18c-1.63-1.49-3.52-3.06-4-2.67-.8.63,2.32,6.21,5.07,10,8.12,11.08,20.11,15.77,20.47,15.22S54,386.47,45.92,376.92A72.2,72.2,0,0,1,39.61,368.18Z" transform="translate(0 0)"/><path d="M51,376.2c-.32.29.34,1.68,2,4.17A42.75,42.75,0,0,0,69.29,392Q52.12,375.17,51,376.2Z" transform="translate(0 0)"/><path class="cls-27" d="M156.39,462.19c-.56.08-1.46.32-4.85,3.24a73.19,73.19,0,0,0-7.11,7c1.92.23,4.85.56,8.57.93,2.93.3,4.86.47,6.36-.77a4.77,4.77,0,0,0,1.42-2.13l.46-1,6.14,4.2C166.75,472.27,161.63,461.52,156.39,462.19Z" transform="translate(0 0)"/><path class="cls-28" d="M48.39,471.56c-5.58,1.1-9,.06-11.08-1.25-1.67-1-2.51-2.17-4.06-2.19-2.63-.05-4.85,3.17-6.4,6.15,1.92.27,4.62.61,7.88.86,14.93,1.16,27.13-.62,27.11-1.1,0-.25-3.18,0-8.42-1.09A45.78,45.78,0,0,1,48.39,471.56Z" transform="translate(0 0)"/><path d="M71.3,335.65c-1,0-2.19,1.87-2,3.58.3,2.62,3.69,3.86,4.57,3.18C75.08,341.47,73.06,335.69,71.3,335.65Z" transform="translate(0 0)"/><path d="M64.88,341.37c-2.73-1.93-7.15-4.26-8.14-3.18s2.22,6,4.76,8.94c4.66,5.34,11.91,10.1,13.31,8.74S71.68,346.19,64.88,341.37Z" transform="translate(0 0)"/><path d="M334.9,112l-3.65,1.72c.05.39.11.77.16,1.16a31.07,31.07,0,0,1,3.65.33,31.42,31.42,0,0,1,7.21,2l-5.55,5.13a13.67,13.67,0,0,1,.12,4.51l2,2.09a24.09,24.09,0,0,1,8.23-1.25c2.28,0,11.43.27,16.09,7.19a15.63,15.63,0,0,1,2.54,8.89,22.8,22.8,0,0,1,4.39,4.76c1.33,1.93,3,4.34,2.14,5.61-.74,1.11-3.05.8-3.88.65,0,.33,0,.79,0,1.36-.08,10.62-6.66,19.08-13.45,25.86h0c-1,1-2,1.93-2.93,2.85h0l-2.5,2.31a98.63,98.63,0,0,1-11.41,9h0l-1.88,1.25a106.18,106.18,0,0,1-19.07,9.7l3.15,8.77a53.49,53.49,0,0,0,6.1-3,55.13,55.13,0,0,0,12-9.27c.11-.73.2-1.46.3-2.2a21.33,21.33,0,0,1,6.87,2.3,22,22,0,0,1,8.51,8.35,98.68,98.68,0,0,1-1.92,14.83,88,88,0,0,1-14.65,33.85,85.66,85.66,0,0,1-11.64,13.09,35,35,0,0,0,14.29,9.73,2.67,2.67,0,0,1,.15-2.27c.69-.91,2.26-.81,8.73.68,6.26,1.44,7.56,2,8.33,3.33a4.51,4.51,0,0,1,.54,3.8,3.41,3.41,0,0,1-.76,1.06,81.46,81.46,0,0,1-.82,8.67c-.24,1.62-.5,3.05-.74,4.24-1.15,5.69-6.11,30.15-26,43.39-1.63,1.08-3,1.86-3.88,2.33a168.79,168.79,0,0,1,2.68,21.24A175,175,0,0,1,321,431.62a195.08,195.08,0,0,1-8.29,22.44,11.38,11.38,0,0,0-1.1,3.21,14.2,14.2,0,0,0,.37,5.85c1,3.69,5.06,8.37,11.46,11.84a7.37,7.37,0,0,1,3.12-.25c4.26.59,6.56,4.89,6.9,7a2.14,2.14,0,0,1-.18,1.45,3.16,3.16,0,0,1-2.52,1.19c-3.62.44-12.72,0-13.42-.07a6.11,6.11,0,0,1-5.43-2.68,22.1,22.1,0,0,0-4.07-6.06c-6.61-6.91-14.82-5.95-16.05-9.88-.54-1.73.13-4.82,7.24-10.6A100.07,100.07,0,0,0,285.82,437a99.06,99.06,0,0,0-16-14c-3.84,5.3-28,37.77-62,36.16a53.56,53.56,0,0,1-15.12-3,19.29,19.29,0,0,0,6.74,10.09,104.81,104.81,0,0,0,10.65.62c1.79,0,4.23,0,5.38,1.56a3.58,3.58,0,0,1,.63,2.07,6.65,6.65,0,0,1,3,2.58c.73,1.21,1.49,3.42.72,4.76-1.23,2.13-5.73,1-19.14-.72-7.77-1-8.86-.93-10.65-2.18-3-2.08-4.41-5.33-6.32-14.27-2-9.21-5.18-24.32-2.37-25.25.85-.29,2.55.69,6.2,6.73a61.73,61.73,0,0,0,5.19-11.52,62.36,62.36,0,0,0,3-23.07A14.76,14.76,0,0,1,182,401.08c.26-.82.51-1.63.76-2.44s.5-1.69.74-2.53a.56.56,0,0,0,0-.12c0-.12.06-.24.1-.36l.33-1.15q.83-2.94,1.55-5.78c0-.1,0-.2.07-.3s.05-.2.08-.3h0c.17-.68.34-1.36.5-2s.38-1.6.57-2.39c.14-.6.28-1.2.41-1.79,0-.19.08-.37.12-.57h0q.67-3,1.26-6c.24-1.25.48-2.47.7-3.67.13-.71.26-1.42.38-2.11l.12-.63.09-.54c0-.27.1-.54.14-.81.14-.8.27-1.58.4-2.35s.28-1.69.41-2.52a76.78,76.78,0,0,0,30.41,13c19.35,3.58,34.65-1.54,44.27-4.89.61-.21,1.22-.43,1.82-.66s1.2-.44,1.79-.68,1.17-.46,1.75-.7,1-.44,1.57-.66,1.29-.56,1.92-.85l1.55-.73q2.12-1,4.11-2.08l1.19-.64a103,103,0,0,0,9.35-5.8l1.51-1.06q2.22-1.6,4.22-3.2l1.27-1a107.61,107.61,0,0,0,8.52-7.8,18.68,18.68,0,0,0,.29-6.86c-.73-4.89-3.22-7.53-8.05-15-.4-.62-.87-1.34-1.38-2.17h0l-.5-.8-.53-.86q-.7-1.14-1.47-2.46c-.12-.19-.23-.38-.34-.58s-.25-.43-.39-.65l-.83-1.47c-.38-1.52-.75-3-1.12-4.55l.29.25.31.27.15.12c.4.34.81.71,1.24,1.11l.58.55.35.33c.59.56,1.19,1.18,1.81,1.84s1,1.08,1.51,1.67c.25.29.51.59.76.9a2,2,0,0,1,.19.22l.28.35c.18.23.37.46.55.7.35.45.7.91,1,1.39q.31.44.63.9c.38.53.74,1.07,1.1,1.64.24.39.49.78.73,1.18h0a49.9,49.9,0,0,1,3,5.89A51.25,51.25,0,0,1,310,341.69l6.88-6.55c-.21-.85-.45-1.74-.72-2.68,0-.11-.06-.22-.1-.33-.07-.27-.15-.53-.24-.8s-.16-.55-.25-.83-.18-.56-.28-.84l-.09-.29c-.35-1.05-.74-2.14-1.17-3.26q-.35-.92-.75-1.86c-.06-.16-.13-.32-.2-.48s-.13-.32-.21-.48-.12-.29-.19-.44c-.22-.5-.44-1-.68-1.51a76.18,76.18,0,0,0-15.83-22.17L317,318.6l2.69,6.77L321.5,330l9.68-10.45-51.59-42.79a75.87,75.87,0,0,1-20.76-8,77.33,77.33,0,0,1-25.32-23.28l-2.9-.32c7.29,16,13.35,30,12.46,30.42-.4.2-2.32-2.44-4.83-6.44-.14-.21-.27-.43-.41-.65l-.42-.68c-1-1.63-2.1-3.44-3.21-5.35l-.45-.78c-.78-1.36-1.58-2.77-2.37-4.2l-.8-1.45,0-.08c-.29-.52-.57-1-.85-1.56l-1.4-2.64c-.28-.55-.57-1.1-.84-1.64-.14-.27-.28-.54-.41-.81l-.64-1.27-.15-.31c-.12-.26-.25-.52-.37-.77l-.55-1.14-.33-.71a57.78,57.78,0,0,1-2.28-5.58l-.12-.39c0-.16-.09-.31-.14-.46s-.11-.43-.15-.62a1.62,1.62,0,0,1,0-.19c-.19-1-.15-1.59.17-1.82a.77.77,0,0,1,.67,0l.12,0,.05,0a2.41,2.41,0,0,1,.42.18,7.23,7.23,0,0,1,.79.49l.43.31.49.38a188.94,188.94,0,0,1-2.69-40.07c.23-5.6.69-10.91,1.31-15.9a7.14,7.14,0,0,0-3.82-2.05,6.94,6.94,0,0,0-3.42.27c-.87.8-1.75,1.63-2.64,2.51l-.89.89a93,93,0,0,0-8.76,10.15l-.85,1.16a81.33,81.33,0,0,0-6.59,10.86c-.21.42-.42.85-.62,1.28q-1,2.18-2,4.5c-.41,1-.79,2-1.16,3.07-.19.54-.37,1.09-.55,1.64s-.36,1.1-.52,1.66-.33,1.13-.49,1.7a78.26,78.26,0,0,0-1.66,7.65c-.37-.75-.77-1.51-1.17-2.28-.2-.4-.42-.8-.63-1.2l-.82-1.55c-.34-.63-.68-1.28-1-1.93L185,217.12a87.93,87.93,0,0,1,14.58-28h0a73.87,73.87,0,0,1,10.62-10.88c1.76-1.47,3.55-2.81,5.32-4a63.28,63.28,0,0,1-8.23-15.27c-1.6-4.32-7.11-19.15-1.44-24a5.77,5.77,0,0,1,1.56-1c-.51-1.31-6-15.65-.72-19.57a5.11,5.11,0,0,1,1.78-.81c7-1.89,15.19,4.55,17.45,6.41a143.15,143.15,0,0,1,17.22-3.08c1.56-.18,3.1-.34,4.61-.46L265,98.25q-4.41-1.83-9.22-3.54c-3.67-1.3-7.29-2.44-10.83-3.45-.59-.18-1.18-.34-1.77-.51h0c-1.13-.31-2.25-.61-3.36-.89h0c-1.27-.32-2.51-.63-3.76-.92l-3.29-.74c-2.9-.63-5.73-1.16-8.49-1.63a3.11,3.11,0,0,1-1.77-.75,3.33,3.33,0,0,1-1.08-2.64c0-1.3,1.24-24.86,18.69-33.14a27.5,27.5,0,0,1,13.77-2.55c14.24,1.24,27.08,15,32.85,34.22a71,71,0,0,1,10.33-7.8s11.52-7.14,21.76-7c2.24,0,4.25.43,5.43,1.88a5.1,5.1,0,0,1,1,3.11c.25,7.36-11.6,16.65-10.92,17.46.12.15.54-.09,1.5-.5,2.48-1.07,6.06-2.57,9.6-2.12a7.26,7.26,0,0,1,2.19.56c3.24,1.43,4.37,5,4.69,6.19a47.19,47.19,0,0,1,21.75-14.21c8.72-2.58,26.1-4.73,32.48,4.42a13,13,0,0,1,2.26,6.66c.54,12.73-18.63,26.7-36.55,26.46A37,37,0,0,1,334.9,112Z" transform="translate(0 0)"/><path class="cls-29" d="M363.48,155c.31.5.6,1,.88,1.48-.16.77-.41,1.91-.8,3.26-4.42,15.63-16.36,24.78-24.94,31.18-16.79,12.51-34.48,17.56-41.46,15.77-.5-.14-3.44-.95-3.62-.5s3,2.23,5.61,3.58q1.22,6,2.44,12a12.53,12.53,0,0,1-2.77.73,13.19,13.19,0,0,1-4.39-.08c-.93-1.92-2.11-3.46-3.58-3.58-6.1-.5-16.33,23.5-9.84,29.84a5.55,5.55,0,0,0,1.62,1.09,36.86,36.86,0,0,1,2.27-14.44,32.32,32.32,0,0,1,2.21-4.68,31.72,31.72,0,0,1,3.42-4.89,40.85,40.85,0,0,0,8.54.16A49.94,49.94,0,0,0,308.6,224a76.26,76.26,0,0,0,8.42-3.33,206,206,0,0,0,22.42-12.13c.06.27.11.54.17.82-.64,2-1.81,5.48-3.51,9.71-5.53,13.85-13.28,33.24-31.46,45.37a61.82,61.82,0,0,1-12,6.21q-12.13,1.28-12.29.4c-.07-.37,1.51-1.05,4.73-2a68.75,68.75,0,0,1-11.88-2.57,69.78,69.78,0,0,1-24.87-13.94,97.13,97.13,0,0,1-7.3-17.9c-.62-2.14-1.1-4.07-1.48-5.75-1.77-7.91-7.71-34.42,5-44.61a16.91,16.91,0,0,1,4.11-2.43c.74.17,2,.46,3.41.89,15.81,4.71,26,16.24,32.86,24.27a116.37,116.37,0,0,1,7.88,10.29,2.25,2.25,0,0,0,1.94.5,2.14,2.14,0,0,0,1.55-1.84,71.31,71.31,0,0,0-19.2-25.82A68.28,68.28,0,0,0,266,182.53c-1.27-2.08-9.88-16-18.8-19.24a13.22,13.22,0,0,0-4.86-.89c-5.33.1-9.14,3.65-10.55,5.12a23.17,23.17,0,0,0-4.58.6,25.47,25.47,0,0,0-10,4.79,65.33,65.33,0,0,1-7.68-17.51c-1.74-6.46-3.49-17.1-1.28-17.92a1.18,1.18,0,0,1,.93.12,43.29,43.29,0,0,0,13.18,13.62c3.38,2.2,7.7,4.33,8.1,3.76.79-1.16-16.89-10.2-21-26.68-.44-1.72-1.84-7.29.66-9.27,3-2.38,10.09,1.63,10.84,2.06,5,2.9,7.87,7.3,9.67,6.39a1.77,1.77,0,0,0,.81-1c.52-1.6-1.63-3.41-1.79-3.54,4.19-.93,8.75-1.75,13.64-2.36a144.69,144.69,0,0,1,25.4-.92A29.43,29.43,0,0,0,252,116c5.88-5.56,10.6-10.23,13.93-13.56,6.62-6.66,9.94-10.29,9.18-11.39-.38-.54-1.66-.33-2.64-.06a7.93,7.93,0,0,0,0-1.2c-.38-8.48-15.3-14.83-16.08-13.74-.37.52,2.71,2.31,6.74,8a50.44,50.44,0,0,1,5.72,10.67c-.48.57-.95,1.15-1.42,1.73a109.54,109.54,0,0,0-33-13.51q-3.74-.84-7.27-1.38c2.66-1.68,4.44-3.28,4.15-3.9s-2.67-.29-5.7.69c.15-1.42,2.17-17.54,15.26-23.69a24.43,24.43,0,0,1,11.86-2.18c13.57.93,21.27,13.1,22.82,15.55a37,37,0,0,1,5.56,18.45c0,.3.37,2.71,1.66,3.12s3.51-1.23,4.65-4.56A52.37,52.37,0,0,1,305.86,73c5.71-2.18,14.71-4.42,16.07-2,1.95,3.53-13.51,14-10.59,19.5a3.14,3.14,0,0,0,.68.87c3.27,2.87,10.72-3.43,14.91-.29a4.22,4.22,0,0,1,.61.56c2.39,2.64,1,7.24.44,8.95a5.73,5.73,0,0,0-2.75-.09,4.07,4.07,0,0,0-2.44,1.34c-.35.46-1,1.58-.62,2.15s2-.16,4.48.28a9.49,9.49,0,0,1,1.92.57,41.69,41.69,0,0,0,.07,7c.12,1.28.29,2.47.5,3.59-.26,0-6.49.63-7,3a8,8,0,0,0,.26,2.55,9.62,9.62,0,0,0,.63,2.45c.7,1.38,2.32,1.81,4.9,2.47,3.26.83,5.8,1.44,7.42,1.82a12.38,12.38,0,0,0,1.55,2.22,12.64,12.64,0,0,0,4.33,3.14c8.33-1.59,15.79.28,18.8,5.11a9.93,9.93,0,0,1,1.38,3.9c-1.81-.69-3.75-1.37-5.81-2a85.88,85.88,0,0,0-10-2.37A44.21,44.21,0,0,1,365.42,153c-1.38-.41-2.76-.83-4.14-1.23C362,152.75,362.75,153.81,363.48,155Z" transform="translate(0 0)"/><path d="M246.05,86.33A14.46,14.46,0,0,1,245,91.26c-1.21,2.95-3.28,5.3-5.47,5.59a6.2,6.2,0,0,1-2.66-.45C235.51,96,233,95.19,232.17,93a5.8,5.8,0,0,1,.6-4.76l3.29.74c.9-.88,1.87-1.88,2.85-3,.41-.5.81-1,1.18-1.47s.87-1.13,1.26-1.68c-1.28-.1-1.63-.55-1.74-.76-.59-1.12,1.3-3.11,2.39-4,1.58-1.31,3.57-2,3.87-1.62s-.79,1.14-1.19,3.06a6.76,6.76,0,0,0-.14,1.38,8.08,8.08,0,0,1,.71,1.19A9.42,9.42,0,0,1,246.05,86.33Z" transform="translate(0 0)"/><path class="cls-30" d="M234.61,92.71a5.72,5.72,0,0,0,2.31,1.57,5.27,5.27,0,0,0,2.38.31c2.62-.39,4.17-3.94,4.63-6.13a10.12,10.12,0,0,0-.27-5.1c-.6,1.82-2.5,6.8-7.2,8.77A9.59,9.59,0,0,1,234.61,92.71Z" transform="translate(0 0)"/><g class="cls-12"><path class="cls-13" d="M268.12,63.26a24.87,24.87,0,0,0-8.29-5.52,22.27,22.27,0,0,0-14-1.32c-3.53.9-8.92,3.32-8.65,5.28.33,2.36,8.39,1,18.73,4.92,12,4.58,16.93,12.48,18.73,11S273.2,68.44,268.12,63.26Z" transform="translate(0 0)"/></g><path class="cls-31" d="M324.88,119.17a7.5,7.5,0,0,1,4.43-1c-.35,2.48-1.85,3.86-2.82,3.7C325.72,121.72,325.08,120.56,324.88,119.17Z" transform="translate(0 0)"/><path class="cls-32" d="M371.87,90.79c-.13.7-3.7.07-9,.26-10.75.4-26.9,4.14-28.48,11.93a5.92,5.92,0,0,0,.24,3.33c2.23,5.54,13.8,6.17,20.75,5.31,14.78-1.82,29.27-12.91,29.11-22.31a5.45,5.45,0,0,0-.44-2.35c-2.85-6.36-19.33-6.49-31.37-1.57-1.34.54-2.38,1-2.88,1.3a38.78,38.78,0,0,1,9-.08C365.5,87.33,372.05,89.83,371.87,90.79Z" transform="translate(0 0)"/><g class="cls-12"><path class="cls-13" d="M364.3,85c0,.41,3.75-.09,9.48,2.2,4.36,1.75,6.94,4,8,3,.63-.54.49-2,0-3C379.22,82.16,364.34,84.21,364.3,85Z" transform="translate(0 0)"/></g><path d="M269.29,113.52c.25-.6,1-2.1,3.85-3.63a19.07,19.07,0,0,1,10.32-2c5.05.59,10.42,3.44,10.54,6a6.39,6.39,0,0,1-.07,1,8.13,8.13,0,0,1-1.57,3.78c-2.25,0-4.54,0-6.85-.08q-9.52-.23-18.35-1l1.65-1.1A6.35,6.35,0,0,1,269.29,113.52Z" transform="translate(0 0)"/><path d="M275.17,109l3.35-1.43a48.68,48.68,0,0,1,6.83-1.12,48,48,0,0,1,13.28.64l-8.15,3A36.95,36.95,0,0,0,275.17,109Z" transform="translate(0 0)"/><path class="cls-31" d="M274.1,111.23a9.41,9.41,0,0,1,6.08-1.33c.59,1.66.1,2.32,0,2.45C279.38,113.32,276.88,113.07,274.1,111.23Z" transform="translate(0 0)"/><path d="M283,92.11c-2.18.59-4.74,2.06-4.53,3,.16.72,2,1.32,9.06.94.45.13,1.08.3,1.83.49,2.09.52,2.46.52,2.76.34a2.17,2.17,0,0,0,.67-2.23C292.12,92.33,287.06,91,283,92.11Z" transform="translate(0 0)"/><path class="cls-33" d="M363.48,155c.31.5.6,1,.88,1.48-.16.77-.41,1.91-.8,3.26-4.42,15.63-16.36,24.78-24.94,31.18-16.79,12.51-34.48,17.56-41.46,15.77-.5-.14-3.44-.95-3.62-.5s3,2.23,5.61,3.58q1.22,6,2.44,12a12.53,12.53,0,0,1-2.77.73,13.19,13.19,0,0,1-4.39-.08,6.36,6.36,0,0,0-1.62-5.17,2.25,2.25,0,0,0,1.94.5,2.14,2.14,0,0,0,1.55-1.84,71.31,71.31,0,0,0-19.2-25.82A68.28,68.28,0,0,0,266,182.53c-1.27-2.08-9.88-16-18.8-19.24a13.22,13.22,0,0,0-4.86-.89c-5.33.1-9.14,3.65-10.55,5.12a23.17,23.17,0,0,0-4.58.6,25.47,25.47,0,0,0-10,4.79,65.33,65.33,0,0,1-7.68-17.51c-1.74-6.46-3.49-17.1-1.28-17.92a1.18,1.18,0,0,1,.93.12,43.29,43.29,0,0,0,13.18,13.62c3.38,2.2,7.7,4.33,8.1,3.76.75-1.1-15-9.24-20.26-24.08-.29-.84-.56-1.71-.78-2.6-.44-1.72-1.84-7.29.66-9.27,3-2.38,10.09,1.63,10.84,2.06,5,2.9,7.87,7.3,9.67,6.39a1.77,1.77,0,0,0,.81-1c.52-1.6-1.63-3.41-1.79-3.54,4.19-.93,8.75-1.75,13.64-2.36a144.69,144.69,0,0,1,25.4-.92c5.1.16,10.55.52,16.3,1.15,4.18.47,8.17,1,11.94,1.69-.66-.85-1.28-1.94-.94-2.83.78-2,6.08-1.67,10-1.41,0,0,8.56.59,13.08,4.52a2.72,2.72,0,0,1,.92,1.36,2.83,2.83,0,0,1-.11,1.66c2.56.47,5.24,1,8,1.71,3.18.77,6.18,1.63,9,2.51a12.64,12.64,0,0,0,4.33,3.14c8.33-1.59,15.79.28,18.8,5.11a9.93,9.93,0,0,1,1.38,3.9c-1.81-.69-3.75-1.37-5.81-2a85.88,85.88,0,0,0-10-2.37A44.21,44.21,0,0,1,365.42,153c-1.38-.41-2.76-.83-4.14-1.23C362,152.75,362.75,153.81,363.48,155Z" transform="translate(0 0)"/><path class="cls-6" d="M363.48,155c.31.5.6,1,.88,1.48-.16.77-.41,1.91-.8,3.26-4.42,15.63-16.36,24.78-24.94,31.18-16.79,12.51-34.48,17.56-41.46,15.77-.5-.14-3.44-.95-3.62-.5s3,2.23,5.61,3.58q1.22,6,2.44,12a12.53,12.53,0,0,1-2.77.73,13.19,13.19,0,0,1-4.39-.08,6.36,6.36,0,0,0-1.62-5.17,2.25,2.25,0,0,0,1.94.5,2.14,2.14,0,0,0,1.55-1.84,71.31,71.31,0,0,0-19.2-25.82A68.28,68.28,0,0,0,266,182.53c-1.27-2.08-9.88-16-18.8-19.24a13.22,13.22,0,0,0-4.86-.89c-5.33.1-9.14,3.65-10.55,5.12a23.17,23.17,0,0,0-4.58.6,25.47,25.47,0,0,0-10,4.79,65.33,65.33,0,0,1-7.68-17.51c-1.74-6.46-3.49-17.1-1.28-17.92a1.18,1.18,0,0,1,.93.12,43.29,43.29,0,0,0,13.18,13.62c3.38,2.2,7.7,4.33,8.1,3.76.75-1.1-15-9.24-20.26-24.08q-1.14-5.24.77-6.84,5.64-4.73,37.9,22.29a63.33,63.33,0,0,0,9,12.91c9.27,10.32,30.23,26.68,47.28,19.37,2.79-1.2,9.38-4.71,14.37-15.42,8.9-.12,21.41-1.62,31.13-8.31,3.22-2.22,5-4.21,5.14-6.56.25-3.82-3.79-7.88-10.21-10.53A44.21,44.21,0,0,1,365.42,153c-1.38-.41-2.76-.83-4.14-1.23C362,152.75,362.75,153.81,363.48,155Z" transform="translate(0 0)"/><path d="M315.38,159.18a1.88,1.88,0,0,1,.7-1.43,3.79,3.79,0,0,1,4.34-.23,4.52,4.52,0,0,1,1.83,2.75c1.68,6.13-6.66,18.14-13.39,18-.18,0-2.54-.05-2.72-.82s1.64-1.66,2.52-2.17C315,171.54,319,163.13,317.35,161,316.78,160.21,315.5,160.12,315.38,159.18Z" transform="translate(0 0)"/><path d="M255.15,125.15c.47-1.71,5.15-1.7,6.77-1.7,1,0,8.05,0,8.55,2.35a2,2,0,0,1-.47,1.51c-.85,1.11-2.34,1-7.09.81s-6.38-.24-7.29-1.47A1.92,1.92,0,0,1,255.15,125.15Z" transform="translate(0 0)"/><path d="M269.67,131.82c-.36-.51-1.06-1.14-3.07-1.42-3.16-.43-7.4.32-7.45,1.41-.07,1.68,9.63,4.29,10.89,2.23A2.31,2.31,0,0,0,269.67,131.82Z" transform="translate(0 0)"/><path d="M310.47,128.36c-7.42-1.66-9.44-1.24-10.18-3a4.19,4.19,0,0,1,.93-4c2-2.38,6.12-1.52,9.19-.87,2.61.55,7.61,1.6,8.16,4.57a3.93,3.93,0,0,1-1.56,3.7C315.64,129.74,314.14,129.19,310.47,128.36Z" transform="translate(0 0)"/><path d="M309.63,128.18a14.86,14.86,0,0,1,.84,2.29c1,3.49,1.5,10.23-2.39,12.79-.55.36-2.59,1.57-6.29.65a12.86,12.86,0,0,0,2.89,2.31,15.3,15.3,0,0,0,6.75,1.77c4.64.1,10.81-3.62,15.24-10.38a7.58,7.58,0,0,1,1.5,1.28c.92,1,1.17,1.84,1.35,1.79s.19-2-.67-3.86c-1-2.13-3.14-4.32-4.64-3.91a1.5,1.5,0,0,0-.9.73c-.31.68.08,1.68,1,2.51a10,10,0,0,1-5.58,5.09,3.76,3.76,0,0,1-2.69.16c-2.38-1.08-2.25-6.05-2.2-8a21,21,0,0,1,.54-4.16,3.33,3.33,0,0,0-1.69-1.5A3.47,3.47,0,0,0,309.63,128.18Z" transform="translate(0 0)"/><path class="cls-34" d="M311.33,122.7c-3.26-.92-6.89-1-6.95-.61-.12.72,11.87,3.63,12.09,3C316.59,124.7,313.75,123.38,311.33,122.7Z" transform="translate(0 0)"/><path class="cls-35" d="M339.61,209.35c-.64,2-1.81,5.48-3.51,9.71-5.53,13.85-13.28,33.24-31.46,45.37a61.82,61.82,0,0,1-12,6.21q-12.13,1.28-12.29.4c-.07-.37,1.51-1.05,4.73-2a68.75,68.75,0,0,1-11.88-2.57,69.78,69.78,0,0,1-24.87-13.94,97.13,97.13,0,0,1-7.3-17.9,46.28,46.28,0,0,0,40,14.09,12.87,12.87,0,0,1,3.89-13.35h0a23.8,23.8,0,0,0,.21,11.16,23.48,23.48,0,0,0,2,5.13,52.27,52.27,0,0,0,21.95-8.41c10.55-7.19,19.72-19.45,17.27-22.83-.72-1-2.79-1.74-9.36.27a206,206,0,0,0,22.42-12.13C339.5,208.8,339.55,209.07,339.61,209.35Z" transform="translate(0 0)"/><g class="cls-12"><path class="cls-13" d="M280,209.38c1.75-3.39-10-12.79-12.72-15a62.92,62.92,0,0,0-15.79-9.22,10.33,10.33,0,0,0-4.31,2.66,11.51,11.51,0,0,0-2.87,8.41C245.29,206.52,277.4,214.38,280,209.38Z" transform="translate(0 0)"/></g><path class="cls-36" d="M344.05,209.26a10.64,10.64,0,0,1,1.46,1.85,10.17,10.17,0,0,1,.86,1.72,69.33,69.33,0,0,1-5.16,24.23c-9.06,21.84-29.87,39-34.19,36.16a2.15,2.15,0,0,1-.86-1.48A107,107,0,0,0,316.49,262C333.37,243.91,340.67,223.49,344.05,209.26Z" transform="translate(0 0)"/><path d="M364.31,202.84,354,212.09c-1.94-1.48-4-3-6.08-4.49-3.18-2.24-6.3-4.3-9.3-6.16-.74-1.28-1.56-2.62-2.47-4-.7-1.06-1.46-2.16-2.28-3.25s-1.45-1.91-2.24-2.86q-1.77-2.15-3.51-4c.19-1.86.89-2.53,1.3-2.8,1.93-1.29,6.15.57,10.26,5.1l1.33-.61c2-5.09,3.8-9.6,5.39-13.42,4.36-10.47,6.43-14.64,9.86-15.05a3.18,3.18,0,0,1,2.3.38c1.8,1.24,1.5,5,.44,9.25a88.14,88.14,0,0,1-4.1,11.78h0c-.26.64-.5,1.19-.7,1.66a18.78,18.78,0,0,1,7.15,4.11c2.32,2.15,2.55,3.53,2.6,3.9a6.1,6.1,0,0,1-1.62,4.55,4.28,4.28,0,0,1,2.16,1.73A4.66,4.66,0,0,1,364.31,202.84Z" transform="translate(0 0)"/><path class="cls-37" d="M341.2,200.23l-8.86-11.45c-.68-1.09-.92-1.74-.71-2q.78-.8,9.65,6.28l1.39-1.2c1.45-3.52,6.56-15.71,11.14-22.93.41-.65,1-1.48,1.29-1.37,1.16.38-1.74,12.23-4.63,23.11l2.58-3.79a3.43,3.43,0,0,1,4.36,2.26,6.5,6.5,0,0,1,3.19,4.19c.41,2.56-1.5,4.66-3.2,6.52a16.82,16.82,0,0,1-5.49,4,9.6,9.6,0,0,0-1.12-1.22C347.51,199.67,342.86,200,341.2,200.23Z" transform="translate(0 0)"/><path class="cls-38" d="M284.19,276.86a21.93,21.93,0,0,0,11.67-1.81q.75,6.06,1.49,12.1Z" transform="translate(0 0)"/><path class="cls-39" d="M308.08,294.87c-.38-1.27-.75-2.55-1.13-3.84q-1.14-3.9-2.26-7.78,2.34-.53,4.86-1.24a85.58,85.58,0,0,0,9-3.16c2,1.25,4.23,2.51,6.66,3.72A79.67,79.67,0,0,0,339.34,288a62.6,62.6,0,0,1-1.36,7.67,64.37,64.37,0,0,1-6.66,16.82Z" transform="translate(0 0)"/><path d="M320.11,288c.4-.89,4.9.41,7.32,1.39,1.72.7,4.88,2,4.88,3.75a1.71,1.71,0,0,1-.61,1.3C329.22,296.36,319.47,289.39,320.11,288Z" transform="translate(0 0)"/><path class="cls-40" d="M333.47,314.05l1.35-.57a58.71,58.71,0,0,0,8.89-25c-.09-.3-.68-2.38.31-3.25.76-.68,2.06-.27,3.94.34a23.22,23.22,0,0,1,5.3,2.5c-.18,2.11-.5,5.2-1.15,8.89-1.48,8.36-5.08,27.32-19.81,42.53a63,63,0,0,1-6.69,6,106.35,106.35,0,0,0,6.81-11.87c1.51-3.06,7.71-15.69,5.29-17.41a2,2,0,0,0-1.8.05Z" transform="translate(0 0)"/><path class="cls-41" d="M256.9,178.69a20.3,20.3,0,0,0-8.67-8.49,11.31,11.31,0,0,0-5.23-1.46c-4.9,0-8.48,4.31-9.86,6-8.41,10.05-12.19,39,2.42,63.39a68.2,68.2,0,0,0,6.74,9.36,105.63,105.63,0,0,1-8.65-25.67c-4.2-21.22.48-32.5,1.62-35s3.67-7.32,8.35-9.43c1.17-.52,4.88-2.18,7.42-.5a4.07,4.07,0,0,1,1,1,8.42,8.42,0,0,0,2.14.79A8.57,8.57,0,0,0,256.9,178.69Z" transform="translate(0 0)"/><g class="cls-42"><path class="cls-31" d="M243,170.8a9.26,9.26,0,0,0-2.24.11c-6.12,1.1-10.9,10.33-9.55,11.62.49.47,2.12.19,7.47-3.67a11.69,11.69,0,0,1,4.21-3.32,11.84,11.84,0,0,1,7-.88A10.59,10.59,0,0,0,243,170.8Z" transform="translate(0 0)"/></g><path class="cls-43" d="M331.19,319.58,321.5,330l-1.85-4.66L317,318.6q-10.41-9.71-20.82-19.42A75.66,75.66,0,0,1,308,313.94a74.8,74.8,0,0,1,4,7.41,75.8,75.8,0,0,1,4.89,13.79L310,341.7a51,51,0,0,0-3.66-12.88,51.6,51.6,0,0,0-3-5.9h0a53.1,53.1,0,0,0-11.51-13.41c.37,1.51.73,3,1.11,4.55,1.53,2.69,2.91,5,4.06,6.82h0c.52.83,1,1.55,1.38,2.17,4.83,7.49,7.33,10.12,8.05,15a18.7,18.7,0,0,1-.28,6.86,106.13,106.13,0,0,1-40.58,25.91c-9.62,3.34-24.91,8.46-44.26,4.88a76.72,76.72,0,0,1-30.41-13q.63-4,1.16-7.55a304.71,304.71,0,0,0,1.41-78.77,49,49,0,0,0,4.69-16.22c1.28-12.13-2.42-22.39-8-33.42h0c.64-3.91,1.51-7.11,1.66-7.66,4.93-18,15.78-30.91,25-39.41a6.86,6.86,0,0,1,7.25,1.78c-.62,5-1.09,10.29-1.31,15.89a189.75,189.75,0,0,0,2.68,40.08c-1.77-1.43-2.59-1.64-3-1.38-3.06,2.14,19.14,40.28,20.63,39.53.88-.44-5.18-14.41-12.46-30.42l2.89.32a77.28,77.28,0,0,0,25.33,23.28,76.14,76.14,0,0,0,20.76,8Z" transform="translate(0 0)"/><g class="cls-42"><path class="cls-31" d="M224,181.48q-6.66,29.34-12.4,29.17c-1.27,0-2.5-1.16-3.7-3.34q1.26-9.62-.52-10.2-3.33-1.12-17.33,29.66c.64-3.91,1.51-7.11,1.66-7.66,4.93-18,15.78-30.91,25-39.41a6.86,6.86,0,0,1,7.25,1.78Z" transform="translate(0 0)"/></g><path class="cls-44" d="M306.35,338.05a18.7,18.7,0,0,1-.28,6.86,106.13,106.13,0,0,1-40.58,25.91c-9.62,3.34-24.91,8.46-44.26,4.88a76.72,76.72,0,0,1-30.41-13q.63-4,1.16-7.55a304.71,304.71,0,0,0,1.41-78.77l12.9,20.41q11.94,14.15,23.86,28.31l35.1-23.87c2.44,2.33,6.21,6,10.76,10.53,12.62,12.65,17.45,18.53,19.89,17.32,1-.48,1.86-2.19,1-8.24.52.83,1,1.55,1.38,2.17C303.13,330.53,305.63,333.16,306.35,338.05Z" transform="translate(0 0)"/><path class="cls-44" d="M312,321.35a75.8,75.8,0,0,1,4.89,13.79L310,341.7a51,51,0,0,0-3.66-12.88,51.6,51.6,0,0,0-3-5.9c4,3.68,7.6,5.27,8.92,4.2S312.26,322.23,312,321.35Z" transform="translate(0 0)"/><path class="cls-44" d="M331.19,319.58,321.5,330l-1.85-4.66Q325.41,322.47,331.19,319.58Z" transform="translate(0 0)"/><path d="M213.25,322.58c1.13,2.42,2.84,6,5,10.3,5.89,11.72,14.34,28.54,17,27.59.42-.15.88-.82.85-3.28a69.68,69.68,0,0,0,17.86,5.2c7.32,1.09,11.12,1.65,15.18-.34,6.15-3,8.73-9.88,11.26-16.6A54.27,54.27,0,0,0,283.36,334c1.27,1.35,2.83,2.86,3.25,2.57.58-.4-1.23-4.13-4.66-10.28-3.2-5.75-8-14-14.72-24a13,13,0,0,1,5.69-4.37c4-1.49,7.4-.07,8-1.3.4-.75-.25-2.42-5-6.51,1.16-1.18,2.46-2.87,2.08-4.46-.55-2.31-4.3-3.09-7-4-3.79-1.24-9-3.87-14.55-10a21.44,21.44,0,0,0-5.13,1.23c-7.8,2.93-11.68,9.68-13,12.33a19.57,19.57,0,0,1-.46,3.37c-.11.51-.24,1-.38,1.45a23.18,23.18,0,0,0-2.53,1.07,23.52,23.52,0,0,0-4,2.53,33.57,33.57,0,0,1-3.14-4.06c-.48-.73-.92-1.45-1.3-2.14a30.2,30.2,0,0,0-5.36.69c-12.89,2.82-22.9,13.74-21.22,17.61.27.61.6.54,4.22,3.6,1.33,1.13,2.39,2.08,3.06,2.68a16.26,16.26,0,0,0-3.06,4.83s-1.53,3.72-.69,7a1.44,1.44,0,0,0,.53.91c.88.6,2.33-.42,3.94-1.1A13.58,13.58,0,0,1,213.25,322.58Z" transform="translate(0 0)"/><path class="cls-45" d="M221.33,316.5l-1.62.8a77.58,77.58,0,0,0-11.55-9.83c-1.74-1.21-3.45-2.29-5.1-3.25a12.46,12.46,0,0,1,1.8-2.77,13.34,13.34,0,0,1,1.4-1.41Z" transform="translate(0 0)"/><path class="cls-46" d="M208.69,297.23c.51-.42,1-.82,1.6-1.22a31.55,31.55,0,0,1,13.6-5.29l2.13,3q5.78,8,11.56,15.88c-1.72.83-3.51,1.66-5.37,2.47-2.89,1.27-5.71,2.4-8.42,3.4q-3-3.75-6.12-7.57Q213.17,302.37,208.69,297.23Z" transform="translate(0 0)"/><path d="M227.28,315.36a11.86,11.86,0,0,1-5.09-6.63c-.34-1.23-1.08-4,.43-5.92a5.07,5.07,0,0,1,2.82-1.8,5.45,5.45,0,0,1,2,0c2.54.51,4.22,2.79,5.34,4.37a19.47,19.47,0,0,1,3,6.65l-2.23.49-.54.19c-.34-1-2.74-7.84-6.26-8.35a1.86,1.86,0,0,0-1.26.2c-1.43.93-.9,4.61.37,7a9.76,9.76,0,0,0,3.56,3.7Z" transform="translate(0 0)"/><path class="cls-47" d="M232.29,295.46l1.72,2.29,6.17,8.23.17,2.12,7.33-3.15c-.09-2.5-.06-5.2.11-8.06.1-1.59.23-3.12.4-4.58-2,1.39-3.06,2-3.2,1.83s1-1.55,3.6-4.06a30.23,30.23,0,0,0-16.3,5.38Z" transform="translate(0 0)"/><path class="cls-48" d="M242.18,288.25c1.61-.35,4-.84,7-1.31,3.52-.56,4.63-.59,4.92-.06.46.83-1.3,2.68-2.4,3.72-.18,1.09-.34,2.23-.46,3.43a53.07,53.07,0,0,0-.06,9.66l8.18-3.6a28,28,0,0,1,2.06-4.4,29.63,29.63,0,0,1,9.09-9.67,35.64,35.64,0,0,1-5.83-2.63,35.25,35.25,0,0,1-7.66-5.83,7.35,7.35,0,0,0-2.81-.63C249.53,276.83,244.92,281.43,242.18,288.25Z" transform="translate(0 0)"/><path class="cls-49" d="M218.13,322l-2.42.15a156.58,156.58,0,0,0,19.13,32c1.84.68,3.78,1.31,5.83,1.87a75.43,75.43,0,0,0,29.05,2c-12.7-2.75-15.68-3.63-15.63-3.85s4.72.69,11.54.35a59.84,59.84,0,0,0,6.54-.7,54.9,54.9,0,0,0,3.5-6.88,53.54,53.54,0,0,0,3.85-15.17q-2.2-5.07-4.79-10.38c-3.08-6.3-6.25-12.13-9.43-17.51l-2.8-.65A339.35,339.35,0,0,0,228.19,317Q223,319.45,218.13,322Z" transform="translate(0 0)"/><g class="cls-42"><path class="cls-31" d="M260.3,312a66.56,66.56,0,0,0-6.88,2c-8.27,2.93-20.67,9.21-19.84,13.58.13.69.65,1.63,2.5,2.55l10-3.69c5.79,8.46,6.44,11.63,5.45,12.68-1.53,1.61-6.93-1.78-7.7-.6s2.83,5.7,7.58,7.83c7,3.14,14.48-.06,17.06-1.31a13.51,13.51,0,0,0,4.15-6.16,13.8,13.8,0,0,0,.24-6.87C271.27,323.13,261.63,313.37,260.3,312Z" transform="translate(0 0)"/></g><path d="M265.53,323c-5-9.49-7.09-12.68-6.65-13,.59-.45,5.19,4.61,8.08,8.17,3.88,4.79,8.41,11.42,8.14,17.47a8.51,8.51,0,0,1-.17,1.44c-.84,4.28-4.45,6.87-6.46,8.07a6.56,6.56,0,0,1-.23-4.14,7.12,7.12,0,0,1,1.67-2.57C272.06,335.6,268.9,329.31,265.53,323Z" transform="translate(0 0)"/><path d="M259.16,320.59c.51-.33,3.38,2.62,5,6a15.63,15.63,0,0,1,1.43,7.36C259.72,323.61,258.73,320.87,259.16,320.59Z" transform="translate(0 0)"/><path class="cls-50" d="M319.08,343.7c-2.91,3.54-6.2,7.26-9.91,11-4.23,4.34-8.4,8.13-12.33,11.43q1.43-4.95.64-5.32-1.23-.6-8,10.29l-2.26,1.51a3.78,3.78,0,0,0-1.54-.81c-2.64-.69-6,1.69-8.58,5.81a102.06,102.06,0,0,1-16,5.59c-7.63,2-39.08,10.05-64.64-6.24a58.52,58.52,0,0,1-7.11-5.32c.41-2.21.78-4.36,1.13-6.44a74.4,74.4,0,0,0,23.41,11.64,76.43,76.43,0,0,0,30.68,2.23c36.45-3.74,69-34.38,74.34-39.56Z" transform="translate(0 0)"/><path class="cls-51" d="M322.37,400.84a2.45,2.45,0,0,0,0,.38,173.74,173.74,0,0,1-6.22,31,171.1,171.1,0,0,1-9,23.76A201.67,201.67,0,0,0,260,405.92c1.13-.05,1.42-.29,1.49-.5.36-1.14-5.35-4.14-10.59-5.86-.73-.24-7.92-2.57-8.47-1.37-.28.61,1.08,2.26,8.35,6.85-4.89.89-39.56,6.68-57.43-14.2a38.58,38.58,0,0,1-6-9.51v0q.68-3,1.26-6a62.55,62.55,0,0,0,9.71,7.2c29.66,17.83,69.06,7.63,93.27-6.48a110.23,110.23,0,0,0,29.26-24.94c.34,2.13.68,4.37,1,6.71A186,186,0,0,1,322.37,400.84Z" transform="translate(0 0)"/><path class="cls-52" d="M322.33,401.22a173.74,173.74,0,0,1-6.22,31,171.1,171.1,0,0,1-9,23.76A201.67,201.67,0,0,0,260,405.92c1.13-.05,1.42-.29,1.49-.5.36-1.14-5.35-4.14-10.59-5.86-.73-.24-7.92-2.57-8.47-1.37-.28.61,1.08,2.26,8.35,6.85-4.89.89-39.56,6.68-57.43-14.2a38.58,38.58,0,0,1-6-9.51v0q.68-3,1.26-6a62.55,62.55,0,0,0,9.71,7.2c29.66,17.83,69.06,7.63,93.27-6.48a110.23,110.23,0,0,0,29.26-24.94c.34,2.13.68,4.37,1,6.71a113.29,113.29,0,0,1-8.61,10.59,116.59,116.59,0,0,1-32.67,24.76,4.38,4.38,0,0,0-2.17,2.48,4.62,4.62,0,0,0,1.71,4.93c4,3.23,9.56,7.91,15.84,13.93,10.14,9.7,12.87,14,16.33,13.44C314.37,427.64,319.53,425.06,322.33,401.22Z" transform="translate(0 0)"/><path class="cls-53" d="M308.12,460.82a9.9,9.9,0,0,1-2.15-.65,10.49,10.49,0,0,1-2.44-1.5c-4.18.67-7.41,2.4-7.5,4.12-.11,1.94,3.67,4.51,9.66,5.16.84,1,2.25,2.69,3.94,4.88,4.36,5.67,5.26,7.82,8.15,8.91a27.29,27.29,0,0,0,5.35.56c4.74.3,7.11.45,7.5-.47.47-1.09-1.72-3.47-4.22-4.31a7.38,7.38,0,0,0-4.22-.1,27.39,27.39,0,0,1-14.07-16.6Z" transform="translate(0 0)"/><path class="cls-54" d="M194.37,465.58q-6.24-12-7.62-11.41t2.47,15a8.32,8.32,0,0,0,1.44,2.15,9.54,9.54,0,0,0,6.52,2.81l16.24,2.2c2.15.09,3.67-.49,3.84-1.31s-.78-1.52-1.14-1.83a6,6,0,0,0-4.45-1.17c.8-.54,1.16-1,1.1-1.4q-.32-1.8-12.79-1.5a5.51,5.51,0,0,1-1.58-.5,5.72,5.72,0,0,1-1.84-1.39q-.28,2.13-.72,2.16C195.44,469.41,195,468.14,194.37,465.58Z" transform="translate(0 0)"/><path class="cls-55" d="M263.34,418.3a68.45,68.45,0,0,1-12,17.07,63.53,63.53,0,0,1-9.41,8,62.56,62.56,0,0,1-9.49,5.4c1-2,1.93-3.91,2.89-5.87-2.71,2.59-14.09,12.87-30.26,12.1a37.64,37.64,0,0,1-14-3.44,12.88,12.88,0,0,1-1.21-2.61,12.67,12.67,0,0,1-.61-2.93,41.55,41.55,0,0,0,3.92-4.43c6.26-8.2,7.87-16.93,8.84-22.45a67.17,67.17,0,0,0,1-10.89c9.05,4.73,25.5,11.45,45.24,8.77a66.6,66.6,0,0,0,10.62-2.33c.71.5,1.47,1.06,2.24,1.68S262.67,417.67,263.34,418.3Z" transform="translate(0 0)"/><path class="cls-56" d="M263.34,418.3a68.45,68.45,0,0,1-12,17.07c-6.53,5.35-9,6.47-9.6,5.89-1.31-1.19,5.51-9.28,3.05-12.47-.72-.92-2-1.14-3.47-1.19-7.66-.26-16.17,4.14-20.2,6.46-4.7,3.94-9.84,3.77-11.41,1.68-1-1.37-.7-3.8.46-6.12a46.39,46.39,0,0,1-12.71,14.73,44.37,44.37,0,0,1-7.57,4.58,12.67,12.67,0,0,1-.61-2.93,41.55,41.55,0,0,0,3.92-4.43c6.26-8.2,7.87-16.93,8.84-22.45a67.17,67.17,0,0,0,1-10.89c9.05,4.73,25.5,11.45,45.24,8.77a66.6,66.6,0,0,0,10.62-2.33c.71.5,1.47,1.06,2.24,1.68S262.67,417.67,263.34,418.3Z" transform="translate(0 0)"/><path class="cls-57" d="M344.05,209.26a10.64,10.64,0,0,1,1.46,1.85,10.17,10.17,0,0,1,.86,1.72,69.33,69.33,0,0,1-5.16,24.23c-9.06,21.84-29.87,39-34.19,36.16a2.15,2.15,0,0,1-.86-1.48A107,107,0,0,0,316.49,262C333.37,243.91,340.67,223.49,344.05,209.26Z" transform="translate(0 0)"/><path class="cls-58" d="M185.71,388.09A28.37,28.37,0,0,0,194,400.72a9.55,9.55,0,0,1-4.09,0,10.37,10.37,0,0,1-6.33-4.73Z" transform="translate(0 0)"/><path class="cls-59" d="M185.71,388.09A28.37,28.37,0,0,0,194,400.72a9.55,9.55,0,0,1-4.09,0,10.37,10.37,0,0,1-6.33-4.73Z" transform="translate(0 0)"/></g></g></svg>