<?xml version="1.0" encoding="utf-8"?>
<!-- Generator: Adobe Illustrator 26.0.3, SVG Export Plug-In . SVG Version: 6.00 Build 0)  -->
<svg version="1.1" id="Слой_1" xmlns="http://www.w3.org/2000/svg" xmlns:xlink="http://www.w3.org/1999/xlink" x="0px" y="0px"
	 viewBox="0 0 38.59 36.29" style="enable-background:new 0 0 38.59 36.29;" xml:space="preserve">
<style type="text/css">
	.st0{fill:#22FF93;}
</style>
<g>
	<path class="st0" d="M19.94,1.3l0.02,0.02c0.02-0.02,0.06-0.05,0.11-0.09L19.94,1.3z"/>
	<path class="st0" d="M13.54,7.08c0.04,0.04,0.04,0.07,0.04,0.1C13.61,7.16,13.61,7.14,13.54,7.08z"/>
	<path class="st0" d="M22.59,2.28c0.06,0.05,0.14,0.1,0.18,0.08L22.59,2.28z"/>
	<path class="st0" d="M22.45,0.42c0,0.02,0.01,0.06,0.02,0.1C22.49,0.5,22.51,0.48,22.45,0.42z"/>
	<path class="st0" d="M1.49,35.83l-0.21-0.22C1.25,35.67,1.38,35.75,1.49,35.83z"/>
	<path class="st0" d="M22.45,3.49c0.1,0.17-0.14,0.11,0,0.23C22.47,3.65,22.63,3.68,22.45,3.49z"/>
	<path class="st0" d="M2.93,36.01c-0.04,0-0.06,0-0.09-0.01c0.02,0.02,0.04,0.03,0.04,0.04L2.93,36.01z"/>
	<path class="st0" d="M4.18,22.64L4.18,22.64c-0.01-0.01-0.01-0.02-0.03-0.03L4.18,22.64z"/>
	<path class="st0" d="M3.76,22.87c-0.01-0.03-0.02-0.06-0.03-0.1C3.7,22.81,3.72,22.84,3.76,22.87z"/>
	<path class="st0" d="M13.8,6.91c0.02,0,0.03,0,0.05,0C13.81,6.88,13.79,6.87,13.8,6.91z"/>
	<polygon class="st0" points="18.03,10.01 18.01,9.99 18.03,10.01 	"/>
	<path class="st0" d="M18.11,9.97l-0.08,0.03c0.05,0.04,0.11,0.08,0.15,0.15L18.11,9.97z"/>
	<path class="st0" d="M21.53,4.03l-0.07,0.04c0.01,0.01,0.02,0.02,0.04,0.04L21.53,4.03z"/>
	<path class="st0" d="M22.16,3.89c-0.03,0.02-0.05,0.05-0.09,0.05C22.15,3.96,22.17,3.94,22.16,3.89z"/>
	<path class="st0" d="M19.49,6.18l0,0.01C19.55,6.32,19.53,6.25,19.49,6.18z"/>
	<path class="st0" d="M21.71,4.6c0,0-0.01,0-0.01,0l0.05,0.07L21.71,4.6z"/>
	<path class="st0" d="M22.45,3.72c0,0.02,0,0.03,0.02,0.06c0.02,0,0.03-0.01,0.05-0.01C22.49,3.75,22.47,3.73,22.45,3.72z"/>
	<path class="st0" d="M20.53,5.59c-0.07-0.08-0.12-0.14-0.17-0.17C20.35,5.44,20.38,5.48,20.53,5.59z"/>
	<path class="st0" d="M37.06,30.31l-0.03,0.02c0.02,0.03,0.05,0.07,0.1,0.13L37.06,30.31z"/>
	<path class="st0" d="M30.79,22.55c-0.05,0.03-0.08,0.03-0.11,0.02C30.69,22.6,30.72,22.61,30.79,22.55z"/>
	<path class="st0" d="M36.08,33.03c-0.06,0.06-0.1,0.14-0.08,0.18L36.08,33.03z"/>
	<path class="st0" d="M38.11,33.13c-0.03,0-0.07,0.01-0.11,0.01C38.03,33.16,38.06,33.18,38.11,33.13z"/>
	<path class="st0" d="M1.14,1.98C1.09,1.94,0.97,2.04,0.85,2.11L1.14,1.98z"/>
	<path class="st0" d="M34.74,32.7c-0.18,0.09-0.13-0.17-0.25-0.04C34.56,32.69,34.54,32.86,34.74,32.7z"/>
	<path class="st0" d="M0.28,3.45C0.29,3.41,0.3,3.39,0.31,3.36C0.29,3.38,0.27,3.38,0.25,3.38L0.28,3.45z"/>
	<path class="st0" d="M30.96,22.85c0,0.02,0,0.04,0,0.06C30.99,22.87,31.01,22.85,30.96,22.85z"/>
	<polygon class="st0" points="25.35,24.59 25.35,24.59 25.34,24.59 	"/>
	<path class="st0" d="M25.62,24.52c-0.01-0.07-0.16-0.01-0.27,0.07C25.39,24.62,25.45,24.62,25.62,24.52z"/>
	<polygon class="st0" points="27.43,26.73 27.45,26.71 27.43,26.72 	"/>
	<polygon class="st0" points="23.53,23.65 23.54,23.64 23.53,23.64 	"/>
	<path class="st0" d="M38.57,33.69c0.16-0.5-0.43-0.08-0.7-0.07c0.04-0.01,0.09-0.06,0.13-0.07c-0.13,0.07-0.17,0.02-0.23,0
		c0-0.17,0.24-0.11,0.32-0.23l-0.15-0.13c0.01-0.02,0.02-0.02,0.02-0.03c-0.09,0.02-0.16,0.02-0.08-0.09
		c0.16-0.08,0.31-0.19,0.43-0.27l-0.41,0.12c0.14-0.11,0.09-0.34,0.29-0.33l-0.27-0.16l0.24-0.28c-0.1-0.01-0.15,0.04-0.12,0.14
		c-0.02-0.13-0.78,0.13-0.24-0.34c-0.38,0.05-0.36-0.1-0.7-0.17c0.4-0.08,0.11-0.49,0.39-0.43c0.01-0.21-0.28,0.05-0.41,0.02
		c0.03-0.18,0.32-0.41,0.49-0.43l-0.21,0.03l0.05-0.05l-0.22,0.07c0.05-0.22,0.24-0.28,0.18-0.4l-0.24,0.21l0.07-0.2
		c-0.08,0.13-0.18,0.12-0.26,0.08l0.05-0.05l-0.12-0.03c0.21-0.07-0.02-0.12,0.17-0.25c-0.06-0.08-0.06-0.08-0.22-0.15l-0.13,0.18
		c-0.29-0.02,0.22-0.24,0.1-0.38l-0.17,0.19c0.11-0.49-0.49-0.13-0.44-0.46c0.12,0.03,0.3-0.2,0.25-0.15
		c-0.18-0.05-0.33-0.28-0.67-0.18c0.21-0.31,0.27-0.4,0.26-0.64c-0.11-0.07-0.15-0.06-0.32,0.07c0.01-0.19-0.31-0.19-0.13-0.39
		c-0.17,0.14-0.05-0.11-0.22-0.02l0.06-0.09l-0.17,0.19c0.23-0.57-0.49-0.02-0.32-0.53l0.07-0.02l-0.14,0.01
		c0.06-0.09,0.14-0.12,0.24-0.22l-0.29-0.33l-0.07,0.2c-0.08-0.04-0.3,0.1-0.27-0.09c0.39-0.16-0.1-0.11,0.08-0.34l0.14-0.01
		c-0.11-0.07-0.11-0.07-0.27,0.13c-0.18-0.05,0.24-0.43-0.05-0.34l0.07,0.08c-0.08,0.13-0.28,0.23-0.32,0.18
		c0.01-0.04,0.05-0.16,0.11-0.14c-0.16-0.02-0.22-0.25-0.33-0.21c0-0.11,0.14-0.22,0.21-0.25c-0.35-0.02-0.06-0.12-0.41-0.15
		l0.1-0.1l-0.19,0.06l0.1-0.32l-0.09,0.17c-0.09-0.04-0.2,0-0.22-0.14l0.17-0.13c-0.27-0.09,0.02-0.47-0.36-0.41
		c0.01-0.04,0.09-0.07,0.12-0.08c-0.39,0.1,0.13-0.4-0.32-0.25c0.06-0.04,0.1-0.13,0.15-0.17l-0.17,0.03l0.2-0.21l-0.35,0.26
		l0.15-0.27l-0.12,0.08c0.29-0.49-0.11-0.28,0.05-0.69l-0.22,0.29c-0.79,0.31-0.37-0.91-0.96-0.95l0.2-0.21l-0.37,0.13
		c0.07-0.24,0.21-0.15,0.28-0.28c-0.26-0.02-0.35,0.26-0.58,0.17c0.04-0.23,0.17-0.13,0.28-0.17c-0.26-0.04-0.61-0.14-0.63-0.36
		c-0.03,0.03-0.07,0.06-0.07,0.08c-0.2,0-0.26-0.23-0.4-0.32c0.09-0.1,0.13-0.09,0.18-0.08c-0.03-0.05-0.03-0.18-0.16-0.11
		l0.21-0.15c-0.06-0.12-0.4-0.11-0.23-0.35c-0.06,0.09-0.21,0.25-0.28,0.17c0.24-0.37-0.35-0.05-0.33-0.35
		c0.08-0.07,0.2,0,0.17-0.03c0.01-0.15-0.19-0.04-0.33,0.01l0.13-0.12l-0.47-0.08c0.24-0.38-0.34-0.2-0.11-0.43
		c-0.1-0.11-0.03,0.23-0.21,0.15c0.08-0.17-0.18-0.04,0.01-0.25l0.04-0.01l-0.11-0.07l0.24-0.16c-0.12-0.03-0.37,0.14-0.51,0.3
		c0.02-0.19-0.18-0.19-0.05-0.42l0.07-0.03c-0.3-0.11,0.12-0.91-0.36-0.69c0.01-0.04,0.06-0.1,0.09-0.07l-0.13-0.13l0.17-0.14
		l-0.44,0.06l0.09-0.11c-0.12-0.17-0.41-0.31-0.63-0.44l0.07-0.03c-0.36-0.01-0.12-0.28-0.38-0.29c0.03-0.02,0.04-0.03,0.06-0.03
		l-0.15-0.11l0.12-0.08c-0.3,0.15-0.05-0.56-0.15-0.31c-0.15,0.06-0.36,0.1-0.49,0.23c-0.17-0.11,0.08-0.18,0.06-0.35
		c-0.1-0.1-0.28,0.07-0.35-0.15l0.09-0.11c-0.09-0.04-0.2,0.01-0.31-0.06l0.07-0.03c-0.35,0.11,0.06-0.5-0.46-0.11
		c0-0.15-0.18-0.18,0.01-0.4c-0.32-0.02-0.53-0.08-0.81-0.15c0.26-0.4-0.06-0.01-0.02-0.32l-0.15,0.21
		c-0.31-0.2-0.25-0.95-0.64-1.12l0.15-0.21l-0.24,0.17c-0.27-0.36-0.66-0.79-0.93-1.01c-0.17,0.03-0.5,0.17-0.58-0.01l0.04-0.02
		c-0.34-0.07-0.67-0.19-0.86-0.51c0.08-0.07,0.1-0.15,0.17-0.19c-0.23,0.18-0.17-0.11-0.22-0.16l-0.05,0.2
		c-0.22,0.13-0.2-0.14-0.12-0.32l-0.29,0.13c0.01-0.03,0.02-0.07,0.04-0.1l-0.1,0.09l0.14-0.32c-0.07,0.03-0.29-0.02-0.53,0.2
		c0.05-0.1-0.01-0.26,0.12-0.24l-0.39-0.42v0.15c-0.14,0.21-0.38,0.24-0.38,0.09c0.21-0.1,0.22-0.28,0.29-0.46
		c-0.14,0.06-0.08,0.22-0.2,0.31c-0.18,0.08-0.4,0.03-0.37-0.09l0.11-0.05c-0.16,0,0.05-0.39-0.06-0.45
		c-0.21,0.1-0.17-0.11-0.41,0.26c-0.19-0.03,0.12-0.28,0.11-0.34c-0.19,0.12-0.3-0.12-0.19-0.32c-0.45,0.46-0.23-0.45-0.57-0.04
		l0.07-0.33c-0.09,0.11-0.3,0.36-0.43,0.34c0.01-0.19,0.17-0.38,0.24-0.52l-0.37,0.39c-0.11-0.6-0.61-0.84-0.97-1.23
		c0-0.01,0.01-0.01,0.01-0.02c0.12,0.03,0.3,0.05,0.57,0.23c-0.06-0.15,0.28-0.14,0.04-0.37c-0.31-0.03,0.2,0.32-0.26,0.23
		l-0.23-0.22c0.09-0.09,0.04-0.32,0.19-0.33c-0.06-0.02-0.13-0.06-0.18-0.11c0-0.22-0.23-0.44-0.05-0.53
		c0.25,0.15,0.15,0.2,0.13,0.28c0.26,0.04,0.08-0.09,0.26-0.18c0.21,0.14-0.08,0.09,0.11,0.25l0.05-0.2
		c0.01,0.01,0.03,0.02,0.04,0.03c-0.33-0.27,0.12-0.1,0.08-0.27c0.17-0.23-0.28-0.59-0.47-0.92c0.12,0.03,0.21,0.09,0.29,0.16
		c-0.19-0.05-0.07,0.02,0.01,0.11c0.02-0.1,0.46,0.07,0.57,0.22c-0.01-0.19-0.21-0.09-0.27-0.24l0.14-0.15
		c-0.19-0.11-0.27-0.08-0.35-0.26c0.01-0.11,0.07-0.12,0.15-0.21c0.08,0.08,0.29,0.16,0.23,0.23c0.1,0,0.16-0.06,0.01-0.22
		c-0.24-0.01-0.03-0.28-0.36-0.4l0.24,0.01c-0.02,0.02,0.09,0.11,0.03,0.12c0.29,0.17-0.01-0.14-0.01-0.2
		c0.08,0,0.17-0.08,0.28-0.01c-0.05-0.09,0.07-0.13,0.22-0.04c-0.02-0.09-0.17-0.13-0.25-0.21l0.15-0.15
		c0.15,0.1,0.57,0.39,0.61,0.46c-0.09-0.16-0.42-0.35-0.33-0.43c0.24,0.27,0.31,0.04,0.59,0.37c0.25,0.1,0.36-0.05,0.35-0.2
		c-0.19-0.22-0.2-0.01-0.42-0.19c0.1-0.3-0.52-0.8-0.28-0.89l-0.1,0c-0.05-0.21-0.03-0.18-0.17-0.39c0.26,0.25,0.86,0.46,0.94,0.24
		c-0.13-0.13-0.35-0.11-0.55-0.32l0.05-0.15c0.03,0.01,0.07,0.06,0.09,0.1C19.47,6,20.01,6.27,19.7,5.98l0.5,0.22l-0.21-0.1
		c-0.13-0.12-0.08-0.28-0.11-0.34c-0.06-0.24,0.1-0.19,0.33-0.12c-0.13-0.07-0.44-0.23-0.41-0.36c0.45,0.36,0.33-0.06,0.56,0.13
		c0.03-0.04,0.22,0,0.04-0.15l0.28,0.23c-0.39-0.33-0.25-0.45-0.24-0.61c0.51,0.46,0.05-0.15,0.58,0.2
		c-0.34-0.31,0.01-0.3-0.28-0.57c0.05-0.1,0.38,0.19,0.51,0.26l-0.1-0.15c0.2,0.1,0.35-0.03,0.55-0.02l-0.25-0.35l0.17,0.09
		c-0.07-0.08-0.06-0.19-0.21-0.24l0.06-0.03c-0.34-0.29-0.04-0.14-0.11-0.36c0.07,0.03,0.15,0.1,0.18,0.16
		c0.04-0.04,0.2,0.13,0.34,0.2c-0.12-0.04-0.48-0.68-0.74-0.69c-0.15-0.11-0.19-0.27-0.09-0.26l0.33,0.23l-0.28-0.33
		c0.02-0.11,0.24,0.03,0.32,0c-0.03,0.07,0.48,0.63,0.6,0.48c-0.03,0.11,0.11,0.3,0.14,0.39c0.04-0.02,0.08-0.01,0.17,0.15
		c0-0.2-0.16-0.2-0.1-0.35c0.27,0.24,0.38,0.28,0.56,0.27l-0.26-0.1c-0.03-0.03-0.05-0.06-0.06-0.08c-0.05,0-0.1-0.03-0.21-0.11
		c0.02-0.02-0.23-0.42-0.04-0.3c-0.53-0.25-0.16-0.48-0.48-0.63c-0.07-0.08-0.01-0.18,0.13-0.07c0.12,0.27,0.37,0.2,0.55,0.38
		c-0.05-0.1-0.27-0.1-0.33-0.24c0.03-0.07,0.24,0.03,0.35,0.08l0.03,0.07l0.2,0.02c-0.12-0.13-0.3-0.12-0.3-0.26
		c0.08,0.03,0.08-0.11,0.18-0.02c0.15,0.2,0.42,0.39,0.41,0.5c0.03-0.07,0.16-0.28-0.16-0.43l0.07-0.06
		c-0.15-0.06-0.46-0.12-0.38-0.29l0.05,0.05L22.41,2.2l0.18,0.08c-0.07-0.06-0.12-0.13-0.08-0.16c0.09,0.06,0.15,0.06,0.26,0.16
		c0.08-0.11-0.07-0.23-0.13-0.31c0.03-0.07,0.11-0.04,0.24,0.12c0.11-0.04,0.19-0.21,0.38-0.14c-0.03-0.21-0.08-0.03-0.2-0.25
		c0.55,0.34,0.49-0.17,0.59-0.39c-0.45-0.33,0-0.09-0.35-0.46c0.09,0.15,0.46,0.13,0.44,0.38l0.04-0.13
		c0.28,0.15,0.03,0.3,0.42,0.49c0.08-0.11-0.3-0.59-0.05-0.56c0.25,0.31-0.01-0.18,0.28,0.14c0.08,0.12,0.02,0.12,0.01,0.18
		l0.07,0.03c0.28-0.14-0.28-0.38-0.37-0.67c0.09-0.17,0.32,0.11,0.46,0.23c0.07,0.03,0.09-0.08,0.05-0.18
		c0.1,0.24-0.32-0.02-0.46-0.23c0.38,0.25,0.21-0.17,0.12-0.33c-0.52-0.13-0.14,0.11-0.68-0.05c0.08,0.12,0.37,0.39,0.15,0.38
		c-0.08-0.2-0.17-0.15-0.23-0.17c0.19,0.14,0,0.14,0.04,0.24c-0.16-0.1-0.33-0.43-0.5-0.38l0.38,0.39c-0.1-0.01-0.27-0.29-0.26-0.11
		c-0.16-0.24-0.33-0.28-0.28-0.46c-0.48-0.17-0.03,0.4,0.01,0.64c-0.01-0.03-0.07-0.08-0.08-0.12c0.08,0.12,0.03,0.16,0.03,0.22
		c-0.16-0.01-0.12-0.23-0.25-0.31l-0.1,0.13c-0.02-0.01-0.02-0.02-0.03-0.02c0.02,0.08,0.03,0.15-0.08,0.07
		c-0.09-0.15-0.21-0.29-0.3-0.41l0.16,0.38c-0.12-0.13-0.33-0.1-0.34-0.28l-0.12,0.24l-0.29-0.23c0.01,0.09,0.06,0.14,0.14,0.11
		c-0.12,0.01,0.21,0.72-0.29,0.21C21.46,1.02,21.32,1,21.3,1.31c-0.12-0.37-0.47-0.12-0.45-0.37c-0.2-0.02,0.08,0.26,0.06,0.37
		c-0.18-0.04-0.42-0.3-0.45-0.46l0.05,0.19l-0.05-0.05l0.09,0.21c-0.21-0.05-0.29-0.22-0.4-0.18l0.23,0.23l-0.19-0.07
		c0.13,0.08,0.14,0.17,0.11,0.24l-0.05-0.05l-0.02,0.11c-0.09-0.2-0.11,0.02-0.26-0.16c-0.07,0.05-0.06,0.05-0.11,0.2l0.18,0.12
		c0.02,0.27-0.25-0.21-0.37-0.1l0.2,0.16C19.39,1.6,19.8,2.15,19.49,2.1c0.02-0.11-0.22-0.28-0.17-0.23
		c-0.02,0.17-0.22,0.3-0.08,0.61c-0.32-0.2-0.41-0.26-0.63-0.25c-0.05,0.1-0.04,0.13,0.1,0.3c-0.18-0.01-0.14,0.28-0.35,0.11
		c0.15,0.15-0.09,0.05,0.01,0.21l-0.09-0.06l0.2,0.15c-0.56-0.21,0.05,0.45-0.46,0.28l-0.03-0.07l0.03,0.12
		c-0.09-0.06-0.13-0.13-0.24-0.22L17.5,3.32l0.2,0.06c-0.03,0.08,0.13,0.27-0.05,0.24c-0.2-0.35-0.09,0.09-0.33-0.08l-0.03-0.13
		c-0.05,0.1-0.05,0.1,0.16,0.25C17.42,3.84,17,3.45,17.13,3.72l0.07-0.07c0.13,0.07,0.26,0.25,0.21,0.3
		c-0.04-0.01-0.16-0.05-0.15-0.1c0.01,0.15-0.2,0.2-0.15,0.3c-0.1,0-0.23-0.13-0.26-0.2c0.03,0.33-0.11,0.06-0.08,0.38l-0.11-0.09
		l0.09,0.17l-0.31-0.09L16.6,4.4c-0.03,0.08,0.02,0.18-0.1,0.2l-0.15-0.16c-0.04,0.25-0.44-0.01-0.33,0.34
		c-0.04-0.01-0.07-0.08-0.09-0.11c0.15,0.36-0.39-0.11-0.19,0.29c-0.05-0.05-0.13-0.09-0.18-0.13l0.06,0.15L15.39,4.8l0.3,0.31
		l-0.27-0.13l0.09,0.11c-0.5-0.26-0.25,0.1-0.66-0.04l0.31,0.2c0.41,0.72-0.79,0.36-0.75,0.89l-0.23-0.17l0.18,0.33
		c-0.24-0.06-0.17-0.19-0.31-0.25c0.03,0.24,0.3,0.31,0.25,0.52c-0.22-0.03-0.15-0.15-0.21-0.25c0,0.24-0.03,0.56-0.24,0.58
		c0.03,0.02,0.07,0.06,0.08,0.06c0.03,0.18-0.17,0.24-0.24,0.37c-0.11-0.08-0.1-0.12-0.11-0.16c-0.04,0.03-0.16,0.04-0.07,0.15
		l-0.17-0.19c-0.1,0.06-0.04,0.37-0.29,0.22c0.1,0.05,0.28,0.18,0.21,0.25c-0.39-0.21,0.01,0.32-0.27,0.31
		c-0.08-0.07-0.03-0.18-0.05-0.16c-0.08,0-0.07,0.06-0.03,0.13c-0.08-0.09-0.12-0.21-0.03-0.43c-0.59,0.07-1.12-0.42-1.54-0.81
		c-0.18,0.13-0.33,0.06-0.45,0.01l0.05-0.33c-0.16,0.01-0.49,0.25-0.48,0.02c0.02-0.03,0.04-0.05,0.05-0.06
		c-0.15-0.02-0.17-0.22-0.42-0.06c-0.11-0.09-0.15-0.31,0.04-0.52C9.84,6.14,9.91,5.5,9.91,5.5S9.56,5.17,8.97,4.73
		C8.38,4.29,7.55,3.72,6.64,3.19C4.81,2.14,2.6,1.26,1.14,1.98c-0.18,0.18-0.4,0.24-0.49,0.53c-0.16,0.01,0.01-0.4-0.14-0.2
		c0.07,0.24-0.37,0.53-0.37,0.89l-0.12,0c-0.11,0.14,0.23-0.1,0.05,0.17l0.26-0.39C0.37,3.09,0.36,3.2,0.31,3.36
		c0.16-0.12,0.52-0.64,0.56-0.29l-0.06,0c0.15,0.07-0.06,0.31-0.07,0.4L0.7,3.44l0,0.27C0.69,3.52,0.36,3.76,0.45,3.78
		C0.55,4,0.46,3.66,0.62,3.68c0.09,0.03-0.06,0.23-0.13,0.35l0.15,0.07C0.52,4.29,0.55,4.04,0.49,4.27l0.29-0.09
		c-0.24,0.5,0.32-0.11,0.15,0.38C0.74,4.59,0.85,4.72,0.74,4.86l0.32,0.16c-0.01,0.08-0.17,0.1-0.1,0.1
		C0.94,5.29,1.12,5.07,1.15,5.09C1.1,5.23,1.38,5.22,1.19,5.53C1.28,5.86,1.51,5.18,1.6,5.48c-0.09,0.21-0.18-0.05-0.21,0.2
		l0.24,0.05c-0.07,0.08-0.22,0.29-0.27,0.2c0.4,0.58,0.1,1.75,0.75,1.8C2.05,7.99,1.97,7.85,1.83,7.97c0.54-0.09,0.21,0.8,0.53,0.95
		l0.12-0.18c0.08,0.83,0.79,0.79,1.13,1.32l0.02-0.16C3.8,9.75,3.92,9.8,4.05,9.76c-0.05,0.1-0.3,0.36-0.11,0.37
		c0.01-0.08,0-0.19,0.07-0.27c0.11,0.73,1.06,1.11,1.58,1.77c0.98,0.44,1.73,1.4,2.66,1.88c-0.14-0.07,0.21-0.48,0.24-0.31
		c-0.03,0.11-0.04,0.19-0.04,0.26l-0.19-0.1l0.2,0.19c0,0,0,0.01,0,0.01c-0.29,0.27-0.61,0.66-0.76,0.92
		c0.07,0.15,0.27,0.43,0.11,0.52L7.8,14.98c0,0.31-0.04,0.62-0.3,0.82c-0.09-0.07-0.17-0.07-0.21-0.14
		c0.22,0.19-0.07,0.16-0.11,0.22l0.2,0.02c0.18,0.19-0.09,0.19-0.27,0.14l0.18,0.24c-0.03,0-0.07-0.01-0.11-0.03l0.11,0.08
		l-0.33-0.09C7,16.31,7,16.51,7.26,16.7c-0.1-0.04-0.24,0.03-0.25-0.08l-0.31,0.4L6.84,17c0.23,0.11,0.31,0.31,0.17,0.32
		c-0.14-0.18-0.32-0.17-0.51-0.21c0.09,0.12,0.23,0.05,0.34,0.14c0.12,0.15,0.12,0.35-0.01,0.34L6.77,17.5
		c0.03,0.14-0.39,0-0.42,0.11c0.14,0.18-0.06,0.16,0.34,0.34c0.02,0.17-0.29-0.08-0.35-0.05c0.16,0.15-0.05,0.28-0.26,0.21
		c0.55,0.35-0.38,0.26,0.1,0.51l-0.33-0.02c0.13,0.07,0.41,0.22,0.43,0.34c-0.18,0.02-0.4-0.11-0.55-0.15l0.46,0.28
		c-0.75,0.23-0.68,1.03-1.35,1.37c0,0.28,0.1,0.68-0.09,0.93L4.7,21.3l-0.25,0.22l0.31-0.1c0.03,0.08,0.11,0.17,0.08,0.23
		c-0.34,0.21-0.76,0.52-0.66,1c0.48,0.47-0.57-0.04-0.25,0.36c-0.04-0.04-0.12-0.08-0.17-0.12c0.09,0.33,0.13,0.5,0.37,0.89
		c-0.56-0.25-0.05,0.17-0.34,0.03l0.22,0.11c-0.16,0-0.26,0.11-0.42,0.03l0.25,0.22l-0.24-0.08c-0.08,0.14,0,0.53-0.51,0.43
		c0.22,0.5-0.1,1.04-0.36,1.47c0.17,0.14,0.14,0.28,0.12,0.39l-0.33,0.01c0.05,0.14,0.37,0.38,0.15,0.42
		c-0.03-0.01-0.06-0.02-0.07-0.04c0.02,0.13-0.17,0.18,0.06,0.38c-0.06,0.11-0.25,0.18-0.51,0.05C2.63,27.36,2,27.41,2,27.41
		s-0.82,1.46-1.29,3.25c-0.48,1.78-0.6,3.88,0.57,4.94c0.23,0.11,0.36,0.28,0.66,0.3c0.07,0.13-0.38,0.08-0.14,0.16
		c0.2-0.11,0.62,0.19,0.96,0.11l0.04,0.11c0.17,0.06-0.17-0.17,0.14-0.08l-0.45-0.13C2.57,36.01,2.67,36,2.83,36
		c-0.16-0.11-0.77-0.3-0.46-0.4l0.02,0.05c0.01-0.14,0.31-0.02,0.39-0.03l-0.01,0.03l0.26-0.06c-0.17,0.05,0.16,0.28,0.15,0.2
		c0.16-0.13-0.12,0.02-0.15-0.12c-0.01-0.08,0.23,0,0.37,0.03l0.01-0.14c0.21,0.05-0.03,0.09,0.2,0.08l-0.18-0.22
		c0.54,0.09-0.21-0.25,0.31-0.2c0.1,0.15,0.18,0.03,0.35,0.09l0.04-0.3c0.08-0.01,0.15,0.12,0.13,0.07c0.16-0.02-0.11-0.12-0.1-0.15
		c0.15,0.01,0.05-0.22,0.4-0.13c0.29-0.14-0.43-0.2-0.18-0.33c0.22,0.03,0.01,0.16,0.26,0.13l-0.03-0.21
		c0.1,0.04,0.34,0.13,0.27,0.19c0.42-0.45,1.61-0.43,1.45-0.97c0.27,0,0.16,0.09,0.31,0.18c-0.24-0.43,0.69-0.32,0.73-0.61
		l-0.21-0.06c0.76-0.21,0.51-0.8,0.91-1.16l-0.16,0.01c-0.18-0.12-0.17-0.23-0.24-0.33c0.11,0.02,0.43,0.19,0.38,0.03
		c-0.08,0-0.18,0.03-0.27-0.01c0.66-0.22,0.77-1.06,1.24-1.59c0.12-0.89,0.83-1.65,1.01-2.5c-0.03,0.13-0.51-0.11-0.36-0.16
		c0.94,0.06,0.03-0.49,0.7-0.53c-0.09-0.58,0.8-0.7,0.33-1.39l0.24,0.09c0.13-0.02-0.02-0.1-0.02-0.18l0.07,0.03
		c0.15-0.12-0.01-0.42,0.14-0.46l-0.26-0.12c0.02-0.1,0.23,0.04,0.12-0.12l0.13,0.06l-0.2-0.22c0.46,0.21,0.15-0.25,0.39-0.24
		c-0.03-0.16-0.13-0.48,0.04-0.62c0.25,0.07,0.35-0.16,0.53-0.25c0.07-0.31,0.17-0.74,0.41-1.06l-0.3-0.13l0.02-0.1
		c0.06,0.03,0.11,0.03,0.13,0.06c0.37,0.08,0-0.26,0.24-0.24c-0.29-0.08-0.07,0.05-0.1,0.09c-0.18,0.01-0.43-0.2-0.23-0.23
		l0.06,0.03l-0.12-0.14c0.24,0.1,0.37,0.09,0.61,0.19c0.09-0.33-0.21-0.72,0.05-0.99c0.24,0.16,0.05-0.26,0.46,0.02
		c-0.08-0.27-0.38-0.14-0.65-0.38c0.03-0.05-0.06-0.16,0.11-0.09c0.1,0.08,0.29,0.09,0.31,0.15l0.03-0.14
		c0.04,0,0.09,0.06,0.11,0.09c-0.13-0.38,0.51-0.31,0.37-0.66c-0.15-0.1-0.09,0.07-0.24-0.03c-0.21-0.39,0.39-0.06,0.27-0.39
		l0.2,0.16c-0.12-0.15-0.29-0.27-0.05-0.29c0.27,0.11,0.16,0.2,0.26,0.32c0.05-0.07,0.08-0.3-0.18-0.36
		c-0.04-0.14,0.21-0.05,0.31-0.06c-0.06-0.03-0.22,0-0.31-0.12c0.21-0.05,0.31-0.25,0.41-0.39c0.06,0.03,0.17,0.07,0.19,0.1
		c-0.27-0.3,0.3,0.02,0.31-0.19c0.05-0.19,0.08-0.41,0.12-0.63c0.29,0.03,0.59,0.01,0.78,0.26c-0.2,0.2,0.29,0.12-0.08,0.47
		c0.31,0,0.2-0.35,0.5-0.56c0.05,0.05,0.19-0.02,0.09,0.14c-0.1,0.08-0.13,0.28-0.21,0.28l0.16,0.07c-0.01,0.04-0.08,0.07-0.11,0.09
		c0.45-0.03,0.3,0.62,0.72,0.57c0.13-0.13-0.07-0.11,0.06-0.24c0.46-0.1,0.03,0.42,0.41,0.39l-0.2,0.16
		c0.18-0.08,0.34-0.23,0.34,0.03c-0.16,0.25-0.25,0.11-0.39,0.18c0.08,0.07,0.33,0.17,0.43-0.09c0.16,0,0.04,0.24,0.04,0.34
		c0.04-0.06,0.02-0.23,0.16-0.29c0.04,0.24,0.25,0.39,0.41,0.54c-0.05,0.06-0.1,0.15-0.14,0.17c0.36-0.2-0.04,0.31,0.19,0.38
		c0.56,0.28,1.42,0.48,1.84,0.94c0.34-0.22,0.5-0.11,0.71-0.06l-0.3,0.41l0.23-0.03c-0.04,0.16-0.16,0-0.19,0.22l0.25-0.21
		c-0.1,0.15,0.25,0.35-0.19,0.47l0.49,0.4c0.1,0.1,0.33-0.28,0.37-0.09c-0.07,0.14-0.11,0.05-0.21,0.2
		c0.13,0.59,1.04-0.44,1.23,0.02L22,23.2c0.14-0.06,0.24,0.04,0.29-0.01c0.28-0.44-0.24,0.17-0.15-0.15
		c0.28-0.33,0.28-0.08,0.48-0.34c-0.02,0.19,0.18,0.03,0.27,0.07c-0.05,0.31,0.24,0.29,0.11,0.63c0.14-0.06,0.48-0.34,0.61-0.25
		c-0.13,0.34-0.23,0.23-0.19,0.43l0.18-0.18c0.07,0.11,0.01,0.15-0.06,0.24c0.1,0.1,0.31-0.19,0.34,0.04l-0.23,0.13
		c0.16,0.01,0.17,0.07,0.29,0.2c-0.09,0.11-0.14,0.06-0.16-0.01c-0.16,0.35,0.23-0.02,0.24,0.04c0.06-0.09,0-0.21,0.2-0.36
		c0.04,0.09,0.36-0.14,0.22,0.13l-0.23,0.13c0.27-0.03,0.28-0.18,0.38,0.03c-0.02,0.01-0.06,0.06-0.09,0.1
		c0.31-0.16,0.26,0.17,0.39,0.32l-0.07,0.03c0.12-0.02,0.29-0.16,0.31-0.12c0.01-0.18,0.08-0.22,0.22-0.41
		c-0.15,0.41,0.48-0.23,0.51,0.12c-0.09,0.11-0.25,0.2-0.2,0.04c-0.34,0.27-0.58,0.54-0.82,0.6c0.13-0.02,0.25,0.01,0.12,0.13
		l0.28-0.29c0.05,0.03,0.07,0.07,0.1,0.1c0.18-0.18,0.18-0.39,0.38-0.43c0.19,0-0.2,0.36-0.07,0.24c0.25,0.01,0.34-0.27,0.4-0.05
		c-0.04,0.01-0.11,0.04-0.1,0c0,0.21,0.3,0.17,0.03,0.56c-0.08,0.07-0.18,0.18-0.19,0.11l0.05-0.05c-0.34,0.17,0.16,0.01-0.16,0.31
		c0.16-0.2,0.27-0.03,0.3,0.06l0.17-0.24c0.79-0.48-0.39,0.43-0.09,0.53c0.27-0.03,0-0.11,0.22-0.19c0.06,0.12-0.07,0.35,0.15,0.37
		c-0.04,0.12-0.06,0.31-0.27,0.56c0.17-0.03,0.16,0.33,0.41,0.12c0.04-0.33-0.36,0.14-0.25-0.33l0.25-0.2
		c0.1,0.11,0.36,0.11,0.36,0.27c0.02-0.06,0.07-0.13,0.13-0.17c0.24,0.05,0.5-0.15,0.59,0.06c-0.17,0.24-0.23,0.12-0.31,0.08
		c-0.05,0.27,0.09,0.11,0.19,0.32c-0.16,0.2-0.1-0.11-0.28,0.07l0.23,0.09l-0.03,0.04c0.31-0.3,0.11,0.15,0.3,0.14
		c0.25,0.22,0.67-0.17,1.03-0.31c-0.04,0.12-0.1,0.21-0.19,0.28c0.06-0.2-0.02-0.08-0.12-0.01c0.11,0.04-0.09,0.48-0.25,0.57
		c0.22,0.03,0.1-0.21,0.27-0.24l0.17,0.18c0.12-0.18,0.09-0.28,0.3-0.32c0.12,0.03,0.13,0.09,0.23,0.2
		c-0.09,0.07-0.19,0.28-0.26,0.2c0,0.11,0.07,0.19,0.24,0.05c0.02-0.25,0.32,0.03,0.45-0.3l-0.02,0.25
		c-0.02-0.03-0.12,0.08-0.13,0.01c-0.19,0.28,0.16,0.01,0.22,0.03c0,0.08,0.08,0.2,0.01,0.31c0.1-0.04,0.14,0.1,0.04,0.24
		c0.1,0,0.15-0.16,0.24-0.22l0.17,0.19c-0.11,0.15-0.44,0.54-0.51,0.57c0.18-0.06,0.39-0.38,0.48-0.27
		c-0.3,0.21-0.04,0.33-0.41,0.57c-0.11,0.25,0.06,0.4,0.22,0.41c0.25-0.16,0-0.21,0.2-0.42c0.33,0.16,0.89-0.42,0.99-0.14l0-0.11
		c0.23-0.01,0.19,0,0.43-0.11c-0.27,0.23-0.51,0.84-0.26,0.97c0.14-0.12,0.12-0.36,0.34-0.54l0.17,0.08
		c-0.01,0.03-0.06,0.06-0.11,0.08c0.2,0.02-0.09,0.55,0.22,0.27l-0.24,0.5l0.1-0.21c0.14-0.12,0.3-0.03,0.38-0.06
		c0.27-0.02,0.21,0.14,0.13,0.37c0.08-0.13,0.25-0.43,0.39-0.37c-0.4,0.43,0.08,0.37-0.13,0.58c0.05,0.03,0,0.24,0.17,0.07
		l-0.25,0.26c0.35-0.36,0.49-0.2,0.68-0.15c-0.49,0.48,0.17,0.08-0.21,0.59c0.34-0.32,0.34,0.06,0.63-0.2
		c0.11,0.07-0.2,0.38-0.28,0.51l0.16-0.09c-0.1,0.2,0.04,0.39,0.04,0.59l0.38-0.21l-0.09,0.17c0.09-0.06,0.21-0.03,0.26-0.19
		l0.03,0.07c0.31-0.32,0.16-0.02,0.39-0.06c-0.03,0.07-0.11,0.15-0.17,0.17c0.05,0.05-0.13,0.2-0.21,0.33
		c0.04-0.12,0.74-0.41,0.74-0.69c0.12-0.14,0.29-0.16,0.28-0.06l-0.25,0.32l0.35-0.25c0.12,0.03-0.02,0.25,0.01,0.34
		c-0.08-0.04-0.68,0.42-0.51,0.58c-0.12-0.05-0.32,0.08-0.43,0.09c0.02,0.04,0.01,0.09-0.16,0.16c0.22,0.03,0.21-0.14,0.38-0.05
		c-0.26,0.25-0.3,0.37-0.27,0.57l0.1-0.27c0.03-0.03,0.06-0.05,0.08-0.05c0-0.06,0.03-0.11,0.11-0.22c0.02,0.03,0.46-0.18,0.33,0
		c0.26-0.53,0.53-0.09,0.68-0.42c0.09-0.06,0.19,0.01,0.08,0.15c-0.3,0.09-0.2,0.38-0.4,0.54c0.11-0.04,0.1-0.28,0.25-0.32
		c0.08,0.04-0.03,0.25-0.07,0.37l-0.07,0.02L35.32,33c0.14-0.11,0.12-0.31,0.27-0.29c-0.03,0.08,0.13,0.1,0.02,0.2
		c-0.22,0.14-0.41,0.4-0.53,0.37c0.08,0.04,0.32,0.21,0.47-0.11l0.07,0.08c0.06-0.16,0.11-0.49,0.3-0.37l-0.05,0.05l0.3-0.09
		l-0.08,0.18c0.06-0.07,0.14-0.11,0.17-0.07c-0.07,0.09-0.06,0.16-0.16,0.26c0.13,0.1,0.25-0.04,0.34-0.1
		c0.08,0.04,0.05,0.12-0.12,0.25c0.05,0.12,0.24,0.24,0.17,0.43c0.23,0,0.03-0.08,0.27-0.19c-0.34,0.55,0.22,0.56,0.46,0.69
		c0.34-0.44,0.1,0.01,0.48-0.31c-0.16,0.08-0.12,0.48-0.4,0.43l0.14,0.06c-0.14,0.28-0.33-0.01-0.52,0.39
		c0.13,0.1,0.63-0.25,0.62,0.03c-0.32,0.23,0.19,0.01-0.14,0.28c-0.13,0.07-0.13,0-0.19-0.01l-0.03,0.08
		c0.17,0.33,0.4-0.25,0.72-0.31c0.19,0.12-0.1,0.34-0.22,0.48c-0.03,0.08,0.09,0.11,0.2,0.08c-0.26,0.08,0-0.34,0.22-0.48
		c-0.25,0.38,0.2,0.25,0.37,0.17c0.11-0.55-0.14-0.17,0.02-0.73c-0.13,0.07-0.41,0.36-0.41,0.12c0.22-0.06,0.15-0.16,0.18-0.23
		c-0.14,0.19-0.15-0.02-0.26,0.01c0.1-0.17,0.45-0.3,0.39-0.49l-0.4,0.36c0.01-0.11,0.3-0.26,0.1-0.27
		C38.33,33.8,38.36,33.61,38.57,33.69z"/>
	<path class="st0" d="M27.47,26.82l-0.03-0.09c-0.04,0.05-0.09,0.1-0.17,0.13L27.47,26.82z"/>
	<path class="st0" d="M23.53,23.65c-0.04,0.04-0.08,0.1-0.12,0.18C23.51,23.83,23.51,23.73,23.53,23.65z"/>
	<path class="st0" d="M28.47,26.81c-0.02-0.01-0.06-0.01-0.11,0.03C28.39,26.86,28.44,26.84,28.47,26.81z"/>
	<path class="st0" d="M34.11,31.61l-0.04-0.08c-0.01,0.01-0.02,0.02-0.04,0.04L34.11,31.61z"/>
	<path class="st0" d="M34.29,32.31c-0.02-0.03-0.05-0.06-0.06-0.1C34.21,32.3,34.24,32.32,34.29,32.31z"/>
	<path class="st0" d="M31.69,29.04c0,0-0.01,0-0.01,0C31.54,29.08,31.61,29.07,31.69,29.04z"/>
	<path class="st0" d="M33.49,31.71c0,0,0-0.01,0-0.02l-0.07,0.04L33.49,31.71z"/>
	<path class="st0" d="M34.49,32.66c-0.02-0.01-0.04-0.01-0.07,0.01c0,0.02,0.01,0.04,0.01,0.06C34.46,32.69,34.47,32.68,34.49,32.66
		z"/>
	<path class="st0" d="M32.36,30.27c0.09-0.06,0.15-0.11,0.19-0.15C32.52,30.1,32.48,30.13,32.36,30.27z"/>
</g>
</svg>
