<?xml version="1.0" encoding="utf-8"?>
<!-- Generator: Adobe Illustrator 26.0.3, SVG Export Plug-In . SVG Version: 6.00 Build 0)  -->
<svg version="1.1" id="Слой_1" xmlns="http://www.w3.org/2000/svg" xmlns:xlink="http://www.w3.org/1999/xlink" x="0px" y="0px"
	 viewBox="0 0 744.24 192.11" style="enable-background:new 0 0 744.24 192.11;" xml:space="preserve">
<style type="text/css">
	.st0{fill:#FFFFFF;}
	.st1{fill:none;stroke:#FFFFFF;stroke-width:2;stroke-miterlimit:10;}
</style>
<g>
	<g>
		<path class="st0" d="M19.43,41.86c-6.08,0-10.84,1.57-14.28,4.71C1.72,49.71,0,54.57,0,61.14v66.97c0,4.39,0.47,7.95,1.42,10.69
			c0.95,2.74,2.29,4.86,4.04,6.35c1.74,1.49,3.86,2.49,6.35,2.99c2.49,0.5,5.23,0.75,8.22,0.75c2.99,0,5.66-0.3,8-0.9
			c2.34-0.6,4.31-1.67,5.9-3.21c1.59-1.54,2.82-3.69,3.66-6.43c0.85-2.74,1.27-6.2,1.27-10.39v-10.02H24.52v6.58
			c0,3.19-0.25,5.83-0.75,7.92c-0.5,2.09-1.89,3.14-4.19,3.14c-2.29,0-3.74-1.05-4.33-3.14s-0.9-4.73-0.9-7.92V64.73
			c0-2.49,0.27-4.68,0.82-6.58c0.55-1.89,1.97-2.84,4.26-2.84c2.29,0,3.71,0.92,4.26,2.77c0.55,1.84,0.82,4.06,0.82,6.65v14.05
			h14.35V61.14c0-6.58-1.72-11.44-5.16-14.58S25.51,41.86,19.43,41.86z"/>
		<path class="st0" d="M84.31,112.19c1.1-1.74,1.69-4.11,1.79-7.1l-0.15-47.24c0-4.48-1.45-8.02-4.33-10.61
			c-2.89-2.59-7.33-3.89-13.3-3.89H47.09V148h14.95v-33.04v-4.04h0.9c0.05,0,0.1,0.02,0.16,0.03L69.51,148h16.44l-8.69-30.9
			c1.03-0.25,1.99-0.62,2.86-1.09C81.82,115.21,83.21,113.94,84.31,112.19z M62.04,108.08V57.26c3.59-1.2,6.05-1.14,7.4,0.15
			c1.35,1.3,2.02,3.64,2.02,7.03v38.72c0,0.7-0.1,1.47-0.3,2.32c-0.2,0.85-0.62,1.6-1.27,2.24c-0.65,0.65-1.59,1.05-2.84,1.2
			C65.8,109.06,64.13,108.78,62.04,108.08z"/>
		<path class="st0" d="M128.86,46.57c-3.39-3.24-8.12-4.86-14.2-4.86c-6.08,0-10.86,1.62-14.35,4.86
			c-3.49,3.24-5.23,8.15-5.23,14.72v66.67c0,4.48,0.45,8.1,1.35,10.84c0.9,2.74,2.22,4.86,3.96,6.35c1.74,1.49,3.84,2.49,6.28,2.99
			c2.44,0.5,5.16,0.75,8.15,0.75c2.89,0,5.51-0.25,7.85-0.75c2.34-0.5,4.36-1.5,6.05-2.99c1.69-1.5,3.01-3.61,3.96-6.35
			c0.95-2.74,1.42-6.35,1.42-10.84l-0.15-66.67C133.94,54.72,132.24,49.81,128.86,46.57z M119.59,124.53c0,3.19-0.25,5.83-0.75,7.92
			c-0.5,2.09-1.89,3.14-4.19,3.14c-2.29,0-3.71-1.05-4.26-3.14c-0.55-2.09-0.82-4.73-0.82-7.92V64.88c0-2.49,0.3-4.73,0.9-6.73
			c0.6-1.99,1.99-2.99,4.19-2.99c1.1,0,1.97,0.28,2.62,0.82c0.65,0.55,1.14,1.27,1.5,2.17c0.35,0.9,0.57,1.92,0.67,3.06
			c0.1,1.15,0.15,2.37,0.15,3.66V124.53z"/>
		<path class="st0" d="M175.87,46.19c-3.44-2.59-8.15-3.94-14.13-4.04c-5.98-0.2-10.71,1.07-14.2,3.81
			c-3.49,2.74-5.23,7.4-5.23,13.98v12.71c0,4.88,0.57,8.97,1.72,12.26c1.14,3.29,2.56,6.15,4.26,8.6c1.69,2.44,3.51,4.58,5.46,6.43
			c1.94,1.85,3.76,3.79,5.46,5.83c1.69,2.04,3.11,4.33,4.26,6.88c1.14,2.54,1.72,5.71,1.72,9.49v4.48c0,1.2-0.05,2.37-0.15,3.51
			c-0.1,1.15-0.32,2.17-0.67,3.06c-0.35,0.9-0.87,1.62-1.57,2.17c-0.7,0.55-1.59,0.82-2.69,0.82c-1.1,0-2-0.25-2.69-0.75
			c-0.7-0.5-1.22-1.2-1.57-2.09c-0.35-0.9-0.57-1.92-0.67-3.06c-0.1-1.14-0.15-2.37-0.15-3.66v-10.46h-14.2v15.55
			c0,6.58,1.69,11.16,5.08,13.75c3.39,2.59,8.07,3.94,14.05,4.04c2.99,0.1,5.75-0.18,8.3-0.82c2.54-0.65,4.76-1.67,6.65-3.06
			c1.89-1.39,3.39-3.24,4.49-5.53c1.09-2.29,1.64-5.08,1.64-8.37v-13.6c0-3.99-0.6-7.4-1.79-10.24c-1.2-2.84-2.72-5.38-4.56-7.62
			c-1.85-2.24-3.81-4.36-5.91-6.35c-2.09-1.99-4.06-4.09-5.9-6.28c-1.85-2.19-3.36-4.66-4.56-7.4c-1.2-2.74-1.79-5.95-1.79-9.64
			v-5.53c0-2.49,0.27-4.68,0.82-6.58c0.55-1.89,1.97-2.84,4.26-2.84c2.29,0,3.71,0.92,4.26,2.77c0.55,1.85,0.82,4.06,0.82,6.65
			v12.56h14.35V59.95C181.03,53.37,179.31,48.79,175.87,46.19z"/>
		<path class="st0" d="M217.43,46.19c-3.44-2.59-8.15-3.94-14.13-4.04c-5.98-0.2-10.71,1.07-14.2,3.81
			c-3.49,2.74-5.23,7.4-5.23,13.98v12.71c0,4.88,0.57,8.97,1.72,12.26c1.14,3.29,2.56,6.15,4.26,8.6c1.69,2.44,3.51,4.58,5.46,6.43
			c1.94,1.85,3.76,3.79,5.46,5.83c1.69,2.04,3.11,4.33,4.26,6.88c1.14,2.54,1.72,5.71,1.72,9.49v4.48c0,1.2-0.05,2.37-0.15,3.51
			c-0.1,1.15-0.32,2.17-0.67,3.06c-0.35,0.9-0.87,1.62-1.57,2.17c-0.7,0.55-1.59,0.82-2.69,0.82c-1.1,0-2-0.25-2.69-0.75
			c-0.7-0.5-1.22-1.2-1.57-2.09c-0.35-0.9-0.57-1.92-0.67-3.06c-0.1-1.14-0.15-2.37-0.15-3.66v-10.46h-14.2v15.55
			c0,6.58,1.69,11.16,5.08,13.75c3.39,2.59,8.07,3.94,14.05,4.04c2.99,0.1,5.75-0.18,8.3-0.82c2.54-0.65,4.76-1.67,6.65-3.06
			c1.89-1.39,3.39-3.24,4.49-5.53c1.09-2.29,1.64-5.08,1.64-8.37v-13.6c0-3.99-0.6-7.4-1.79-10.24c-1.2-2.84-2.72-5.38-4.56-7.62
			c-1.85-2.24-3.81-4.36-5.91-6.35c-2.09-1.99-4.06-4.09-5.9-6.28c-1.85-2.19-3.36-4.66-4.56-7.4c-1.2-2.74-1.79-5.95-1.79-9.64
			v-5.53c0-2.49,0.27-4.68,0.82-6.58c0.55-1.89,1.97-2.84,4.26-2.84c2.29,0,3.71,0.92,4.26,2.77c0.55,1.85,0.82,4.06,0.82,6.65
			v12.56h14.35V59.95C222.59,53.37,220.87,48.79,217.43,46.19z"/>
		<path class="st0" d="M282.3,46.19c-3.44-2.59-8.15-3.94-14.13-4.04c-5.98-0.2-10.71,1.07-14.2,3.81
			c-3.49,2.74-5.23,7.4-5.23,13.98v12.71c0,4.88,0.57,8.97,1.72,12.26c1.14,3.29,2.56,6.15,4.26,8.6c1.69,2.44,3.51,4.58,5.46,6.43
			c1.94,1.85,3.76,3.79,5.46,5.83c1.69,2.04,3.11,4.33,4.26,6.88c1.14,2.54,1.72,5.71,1.72,9.49v4.48c0,1.2-0.05,2.37-0.15,3.51
			c-0.1,1.15-0.32,2.17-0.67,3.06c-0.35,0.9-0.87,1.62-1.57,2.17c-0.7,0.55-1.59,0.82-2.69,0.82c-1.1,0-2-0.25-2.69-0.75
			c-0.7-0.5-1.22-1.2-1.57-2.09c-0.35-0.9-0.57-1.92-0.67-3.06c-0.1-1.14-0.15-2.37-0.15-3.66v-10.46h-14.2v15.55
			c0,6.58,1.69,11.16,5.08,13.75c3.39,2.59,8.07,3.94,14.05,4.04c2.99,0.1,5.75-0.18,8.3-0.82c2.54-0.65,4.76-1.67,6.65-3.06
			c1.89-1.39,3.39-3.24,4.49-5.53c1.09-2.29,1.64-5.08,1.64-8.37v-13.6c0-3.99-0.6-7.4-1.79-10.24c-1.2-2.84-2.72-5.38-4.56-7.62
			c-1.85-2.24-3.81-4.36-5.91-6.35c-2.09-1.99-4.06-4.09-5.9-6.28c-1.85-2.19-3.36-4.66-4.56-7.4c-1.2-2.74-1.79-5.95-1.79-9.64
			v-5.53c0-2.49,0.27-4.68,0.82-6.58c0.55-1.89,1.97-2.84,4.26-2.84c2.29,0,3.71,0.92,4.26,2.77c0.55,1.85,0.82,4.06,0.82,6.65
			v12.56h14.35V59.95C287.46,53.37,285.74,48.79,282.3,46.19z"/>
		<polygon class="st0" points="342.32,133.5 340.38,133.5 334.1,43.5 315.57,43.35 309.59,133.5 307.64,133.5 307.64,43.35 
			294.19,43.35 295.68,148 321.1,148 324.54,60.7 325.73,60.7 330.37,148 354.28,148 355.78,43.35 342.32,43.35 		"/>
		<path class="st0" d="M370.57,43.35L363.25,148h14.95l0.66-13.75h7.88l0.59,13.75h14.95l-6.58-104.64H370.57z M379.58,119
			l2.8-58.75h1.2l2.5,58.75H379.58z"/>
		<path class="st0" d="M448.61,57.85c0-4.48-1.45-8.02-4.33-10.61c-2.89-2.59-7.33-3.89-13.3-3.89h-21.23V148h14.95v-45
			c1.2,0.5,2.39,0.9,3.59,1.2c1.09,0.4,2.32,0.72,3.66,0.97c1.35,0.25,2.67,0.37,3.96,0.37c1.2,0,2.54-0.15,4.04-0.45
			c1.49-0.3,2.89-0.9,4.19-1.79c1.29-0.9,2.39-2.17,3.29-3.81c0.9-1.64,1.35-3.76,1.35-6.35L448.61,57.85z M434.11,86.71
			c0,0.7-0.1,1.47-0.3,2.32c-0.2,0.85-0.62,1.59-1.27,2.24c-0.65,0.65-1.59,1.05-2.84,1.2c-1.25,0.15-2.92-0.12-5.01-0.82V57.26
			c3.59-1.2,6.05-1.14,7.4,0.15c1.35,1.3,2.02,3.64,2.02,7.03V86.71z"/>
	</g>
	<line class="st1" x1="476.19" y1="96.4" x2="538.16" y2="96.4"/>
	<path class="st1" d="M743.24,147.95v43.16H565.15V1h178.09c0,6.13,0,12.27,0,18.4"/>
</g>
</svg>
