<svg xmlns="http://www.w3.org/2000/svg" xmlns:xlink="http://www.w3.org/1999/xlink" viewBox="0 0 500.74 282.72"><defs><style>.cls-1{isolation:isolate;}.cls-2{fill:#22ff93;}.cls-3{fill:url(#Безымянный_градиент_23);}.cls-4{fill:url(#Безымянный_градиент_24);}.cls-5{fill:url(#Безымянный_градиент_28);}.cls-6,.cls-9{fill:#fff;}.cls-13,.cls-15,.cls-19,.cls-26,.cls-27,.cls-6,.cls-7,.cls-8{mix-blend-mode:overlay;}.cls-7{fill:url(#Безымянный_градиент_22);}.cls-8{fill:url(#Безымянный_градиент_22-2);}.cls-10{fill:url(#Безымянный_градиент_28-2);}.cls-11{fill:url(#Безымянный_градиент_27);}.cls-12{fill:#86ace2;opacity:0.4;}.cls-13{fill:url(#Безымянный_градиент_22-3);}.cls-14{fill:url(#Безымянный_градиент_24-2);}.cls-15{fill:url(#Безымянный_градиент_22-4);}.cls-16{fill:url(#Безымянный_градиент_24-3);}.cls-17{fill:url(#Безымянный_градиент_18);}.cls-18{fill:url(#Безымянный_градиент_18-2);}.cls-19,.cls-26,.cls-27{opacity:0.7;}.cls-19{fill:url(#Безымянный_градиент_22-5);}.cls-20{fill:url(#Безымянный_градиент_18-3);}.cls-21{fill:url(#Безымянный_градиент_18-4);}.cls-22{fill:url(#Безымянный_градиент_18-5);}.cls-23{fill:url(#Безымянный_градиент_18-6);}.cls-24{fill:url(#Безымянный_градиент_18-7);}.cls-25{fill:url(#Безымянный_градиент_18-8);}.cls-26{fill:url(#Безымянный_градиент_22-6);}.cls-27{fill:url(#Безымянный_градиент_22-7);}.cls-28{fill:url(#Безымянный_градиент_18-9);}.cls-29{fill:url(#Безымянный_градиент_27-2);}</style><radialGradient id="Безымянный_градиент_23" cx="261.05" cy="53.69" r="329.23" gradientUnits="userSpaceOnUse"><stop offset="0" stop-color="#ffc896"/><stop offset="0.72" stop-color="#fa80b4"/><stop offset="1" stop-color="#f944a5"/></radialGradient><radialGradient id="Безымянный_градиент_24" cx="155.4" cy="117.33" r="98.64" gradientUnits="userSpaceOnUse"><stop offset="0" stop-color="#ffc990"/><stop offset="0.54" stop-color="#ffaf74"/><stop offset="0.75" stop-color="#feac72"/><stop offset="0.9" stop-color="#fda26d"/><stop offset="1" stop-color="#fb9868"/></radialGradient><radialGradient id="Безымянный_градиент_28" cx="92.79" cy="120.63" r="3.11" gradientUnits="userSpaceOnUse"><stop offset="0" stop-color="#fff"/><stop offset="0.34" stop-color="#fcfeff"/><stop offset="0.59" stop-color="#f3f9ff"/><stop offset="0.8" stop-color="#e3f1ff"/><stop offset="1" stop-color="#cde6ff"/></radialGradient><radialGradient id="Безымянный_градиент_22" cx="90.87" cy="69.72" r="16.42" gradientUnits="userSpaceOnUse"><stop offset="0" stop-color="#4e397e"/><stop offset="1" stop-color="#4a1263"/></radialGradient><radialGradient id="Безымянный_градиент_22-2" cx="186.79" cy="29.45" r="15.63" xlink:href="#Безымянный_градиент_22"/><radialGradient id="Безымянный_градиент_28-2" cx="145.16" cy="62.63" r="118.38" xlink:href="#Безымянный_градиент_28"/><radialGradient id="Безымянный_градиент_27" cx="144.83" cy="63.57" r="37.57" gradientUnits="userSpaceOnUse"><stop offset="0" stop-color="#faabb4"/><stop offset="0.15" stop-color="#f5a0ad"/><stop offset="0.43" stop-color="#e7829a"/><stop offset="0.77" stop-color="#d1557c"/></radialGradient><radialGradient id="Безымянный_градиент_22-3" cx="108.97" cy="179.59" r="30.04" xlink:href="#Безымянный_градиент_22"/><radialGradient id="Безымянный_градиент_24-2" cx="319.2" cy="159.31" r="69.67" xlink:href="#Безымянный_градиент_24"/><radialGradient id="Безымянный_градиент_22-4" cx="325.19" cy="173.95" r="61.6" xlink:href="#Безымянный_градиент_22"/><radialGradient id="Безымянный_градиент_24-3" cx="348.77" cy="131.07" r="9.7" xlink:href="#Безымянный_градиент_24"/><radialGradient id="Безымянный_градиент_18" cx="50.32" cy="205.14" r="34.04" gradientUnits="userSpaceOnUse"><stop offset="0" stop-color="#fff"/><stop offset="0.02" stop-color="#fffffe"/><stop offset="0.4" stop-color="#ffffe3"/><stop offset="0.74" stop-color="#ffffd3"/><stop offset="1" stop-color="#ffffcd"/></radialGradient><radialGradient id="Безымянный_градиент_18-2" cx="31.84" cy="216.31" r="6.83" xlink:href="#Безымянный_градиент_18"/><radialGradient id="Безымянный_градиент_22-5" cx="335.63" cy="250.28" r="41.13" xlink:href="#Безымянный_градиент_22"/><radialGradient id="Безымянный_градиент_18-3" cx="143.58" cy="197.88" r="44.53" xlink:href="#Безымянный_градиент_18"/><radialGradient id="Безымянный_градиент_18-4" cx="97.93" cy="230.67" r="11.24" xlink:href="#Безымянный_градиент_18"/><radialGradient id="Безымянный_градиент_18-5" cx="91.02" cy="234.72" r="12.15" xlink:href="#Безымянный_градиент_18"/><radialGradient id="Безымянный_градиент_18-6" cx="54.59" cy="229.2" r="2.71" xlink:href="#Безымянный_градиент_18"/><radialGradient id="Безымянный_градиент_18-7" cx="351.69" cy="199.97" r="16.25" xlink:href="#Безымянный_градиент_18"/><radialGradient id="Безымянный_градиент_18-8" cx="290.94" cy="181.91" r="32.04" xlink:href="#Безымянный_градиент_18"/><radialGradient id="Безымянный_градиент_22-6" cx="225.55" cy="244.57" r="24.14" xlink:href="#Безымянный_градиент_22"/><radialGradient id="Безымянный_градиент_22-7" cx="93.84" cy="233.66" r="55.67" xlink:href="#Безымянный_градиент_22"/><radialGradient id="Безымянный_градиент_18-9" cx="362.92" cy="213.72" r="8.38" xlink:href="#Безымянный_градиент_18"/><radialGradient id="Безымянный_градиент_27-2" cx="410.35" cy="214.4" r="7.41" xlink:href="#Безымянный_градиент_27"/></defs><g class="cls-1"><g id="Слой_1" data-name="Слой 1"><path class="cls-2" d="M247.47,66a2.12,2.12,0,0,1-.92-.73c-.27-.35-.52-.72-.77-1.11L245.05,63a3.91,3.91,0,0,0-.84-1,3.72,3.72,0,0,1-1.05-1.55q-.53-1.17-1-2.73c-.35-1-.69-2.11-1-3.23s-.63-2.14-.89-3.07-.49-1.69-.68-2.29-.33-.87-.4-.84c-.45-1.5-.79-2.68-1-3.52a6.11,6.11,0,0,0-.79-1.89,1.92,1.92,0,0,0-1.1-.79,12.14,12.14,0,0,0-2-.21c-.11,0-.24-.09-.4-.29a7.2,7.2,0,0,1-.47-.68c-.16-.26-.31-.52-.47-.76a3.23,3.23,0,0,0-.4-.53q.06-.21.48-.36c.28-.11.62-.22,1-.35a10.69,10.69,0,0,0,1.24-.47,4.53,4.53,0,0,0,1.2-.81,7.45,7.45,0,0,1-.05-.79v-.74a17.2,17.2,0,0,1,5.25-12.74,15.93,15.93,0,0,1,5-3.2,13.81,13.81,0,0,1,5.12-1.08,9.09,9.09,0,0,1,2.68.63,7.27,7.27,0,0,1,2.36,1.55,7.93,7.93,0,0,1,1.69,2.5,8.61,8.61,0,0,1,.63,3.41v.71a3.08,3.08,0,0,1-.08.71,1.18,1.18,0,0,1-.32.55,1,1,0,0,1-.71.24,4.26,4.26,0,0,1-.58-.05,3.36,3.36,0,0,0-.63-.06s-.05.06-.15.06a2.84,2.84,0,0,1-.42-.06l-.66-.1-.66-.11-.42-.05c-.1,0-.15,0-.15.05h-.06q-.11,0-.15.21c0,.15-.09.21-.16.21l-.05-.05a4.16,4.16,0,0,1-.64.4,1.45,1.45,0,0,1-.63.18c-.38,0-.63-.24-.73-.74a6,6,0,0,1-.16-1.31,2.72,2.72,0,0,1,.08-.63,2.72,2.72,0,0,0,.08-.63,3.46,3.46,0,0,0-.13-.79,4.21,4.21,0,0,0-.4-.94,3.4,3.4,0,0,0-.6-.82,1,1,0,0,0-.71-.34q-.58,0-1.26.87a11.68,11.68,0,0,0-1.26,2c-.39.76-.73,1.48-1,2.18a9.78,9.78,0,0,0-.5,1.37,15.06,15.06,0,0,0-.47,4,23.14,23.14,0,0,0,.16,2.68l5.59-.18c1.74,0,3.64-.08,5.7-.08.14,0,.21,0,.21.16a1.49,1.49,0,0,1,0,.21.76.76,0,0,0,0,.21,1.16,1.16,0,0,0,.16.52,1.34,1.34,0,0,1,.16.53.24.24,0,0,1-.27.26.15.15,0,0,1-.15-.1.22.22,0,0,0-.21-.11.59.59,0,0,0-.32.11c-.1.07-.16.14-.16.21a1.15,1.15,0,0,1,.32.15.63.63,0,0,0,.24.16c.08,0,.13.07.13.11a12.24,12.24,0,0,1-.08,1.39c-.05.44-.2.65-.45.65-.49,0-1,0-1.5,0s-1-.05-1.39-.05c-.87,0-1.62,0-2.23.08s-1.17.11-1.68.18l-1.45.19c-.45,0-.94.09-1.47.13q.21,1.1.69,2.94c.31,1.23.68,2.58,1.1,4.07s.88,3,1.39,4.65,1,3.15,1.52,4.62,1,2.81,1.48,4a18.76,18.76,0,0,0,1.28,2.74v.15c0,.11,0,.16-.05.16s-.16-.06-.26-.18a.46.46,0,0,0-.32-.19.87.87,0,0,0-.52.32,3.59,3.59,0,0,0-1.11-.53,1.82,1.82,0,0,0,0,.35.59.59,0,0,1-.05.23h-.37a3.1,3.1,0,0,0-1.6.55,3.5,3.5,0,0,1-1.92.56A1.59,1.59,0,0,1,247.47,66Z"/><path class="cls-2" d="M259.67,38.73A23,23,0,0,1,262,35.81a17.53,17.53,0,0,1,3.25-2.73,19.58,19.58,0,0,1,4.18-2,15,15,0,0,1,5-.81l1,0,1,.08v-.58h.68a15.44,15.44,0,0,1,5.33,1,21.26,21.26,0,0,1,5.1,2.73,23.92,23.92,0,0,1,4.31,4.05,20,20,0,0,1,3,4.94.66.66,0,0,1,.42-.26q.15,0,.39.6a9.34,9.34,0,0,1,.42,1.42c.12.54.23,1.11.32,1.71a11.58,11.58,0,0,1,.13,1.47,10.82,10.82,0,0,1-1,4.49,16.57,16.57,0,0,1-2.6,4,21.32,21.32,0,0,1-3.76,3.36,28.47,28.47,0,0,1-4.47,2.58,25.8,25.8,0,0,1-4.7,1.65,18.53,18.53,0,0,1-4.46.58,17.39,17.39,0,0,1-6.44-1.31,21.62,21.62,0,0,1-6-3.63,19.38,19.38,0,0,1-4.44-5.51,14.54,14.54,0,0,1-1.73-7A14.86,14.86,0,0,1,259.67,38.73ZM275,57.43a12.93,12.93,0,0,0,3.36.47,6.39,6.39,0,0,0,3.76-1,8,8,0,0,0,2.36-2.57A10.77,10.77,0,0,0,285.7,51a18.16,18.16,0,0,0,.34-3.26,13.72,13.72,0,0,0-.53-4.33,6.73,6.73,0,0,0-1.26-2.31,7.37,7.37,0,0,0-1.55-1.34,4.83,4.83,0,0,1-1.39-1.42A3,3,0,0,0,279,36.68a.86.86,0,0,1-.79.63h-.32a1.2,1.2,0,0,0-.89.37c-.87-.67-1.33-1-1.36-1v.1a1,1,0,0,0-.24-.49,4.4,4.4,0,0,0-.63-.71,4.24,4.24,0,0,0-.92-.66,2.4,2.4,0,0,0-1.16-.29,5,5,0,0,0-4.25,2.55q-1.74,2.55-1.74,7.27a20.56,20.56,0,0,0,.42,4.08,13.43,13.43,0,0,0,1.42,3.86,11.52,11.52,0,0,0,2.6,3.15A9,9,0,0,0,275,57.43Z"/><path class="cls-2" d="M308.49,64.63c-.53-.39-.93-.7-1.21-.95l-.69-.6a1.45,1.45,0,0,0-.47-.32,1.54,1.54,0,0,0-.52-.08,4.46,4.46,0,0,0-.66.06c-.26,0-.6.07-1,.1-.39-.42-.71-.63-.95-.63a.45.45,0,0,0-.39.16c-.09.1-.17.16-.24.16s-.11-.07-.11-.19,0-.26,0-.42a1.09,1.09,0,0,0-.13-.42q-.1-.18-.48-.18-.15-.95-.63-3.57c-.31-1.76-.69-3.83-1.13-6.23s-.89-5-1.36-7.88-.9-5.68-1.29-8.48-.71-5.48-1-8-.4-4.75-.4-6.57a20.1,20.1,0,0,1,.14-2.49,5.55,5.55,0,0,1,.39-1.66c.67-.14,1.22-.28,1.66-.42a11.27,11.27,0,0,0,1.12-.42c.32-.14.6-.25.84-.34a2.49,2.49,0,0,1,.85-.13,5.07,5.07,0,0,1,1.23.18c.47.12,1.11.33,1.92.61V16a2.73,2.73,0,0,1-.05.37l.21.11a1.4,1.4,0,0,0,.31.1q.17,1.37.39,4.68t.66,7.59q.42,4.28,1,9.06t1.34,9.19c.32,1.82.62,3.58.9,5.26s.58,3.17.91,4.49a14.3,14.3,0,0,0,1.19,3.23,2.58,2.58,0,0,0,1.68,1.47,3.23,3.23,0,0,1-.24.84,2.67,2.67,0,0,1-.23.39.53.53,0,0,1-.21.16c-.08,0-.11.08-.11.19v.1a1,1,0,0,1-.45.92,2.77,2.77,0,0,1-1,.39,4.44,4.44,0,0,1-1.08.08Z"/><path class="cls-2" d="M323.21,64.63c-.53-.39-.93-.7-1.21-.95l-.68-.6a1.59,1.59,0,0,0-.48-.32,1.54,1.54,0,0,0-.52-.08,4.57,4.57,0,0,0-.66.06c-.26,0-.6.07-1,.1-.39-.42-.7-.63-.95-.63a.47.47,0,0,0-.39.16c-.09.1-.17.16-.24.16s-.1-.07-.1-.19a3.44,3.44,0,0,0,0-.42,1.09,1.09,0,0,0-.13-.42c-.07-.12-.23-.18-.47-.18l-.63-3.57c-.32-1.76-.69-3.83-1.13-6.23s-.9-5-1.37-7.88-.9-5.68-1.29-8.48-.7-5.48-1-8-.39-4.75-.39-6.57a20.27,20.27,0,0,1,.13-2.49,6.24,6.24,0,0,1,.39-1.66c.67-.14,1.22-.28,1.66-.42a11.54,11.54,0,0,0,1.13-.42c.31-.14.59-.25.84-.34a2.39,2.39,0,0,1,.84-.13,5.07,5.07,0,0,1,1.23.18c.48.12,1.11.33,1.92.61V16a2.73,2.73,0,0,1-.05.37l.21.11a1.61,1.61,0,0,0,.31.1c.11.91.24,2.47.4,4.68s.37,4.73.66,7.59.6,5.87,1,9.06.81,6.25,1.34,9.19c.31,1.82.61,3.58.89,5.26s.59,3.17.92,4.49a13.86,13.86,0,0,0,1.18,3.23,2.6,2.6,0,0,0,1.68,1.47,3.78,3.78,0,0,1-.23.84,1.93,1.93,0,0,1-.24.39.42.42,0,0,1-.21.16c-.07,0-.11.08-.11.19v.1a1,1,0,0,1-.44.92,2.82,2.82,0,0,1-1,.39,4.44,4.44,0,0,1-1.08.08Z"/><path class="cls-2" d="M328.06,38.73a23.79,23.79,0,0,1,2.33-2.92,17.94,17.94,0,0,1,3.26-2.73,19.35,19.35,0,0,1,4.18-2,15,15,0,0,1,5-.81l1,0,1,.08v-.58h.68a15.44,15.44,0,0,1,5.33,1,21.45,21.45,0,0,1,5.1,2.73,23.92,23.92,0,0,1,4.31,4.05,20,20,0,0,1,3,4.94.66.66,0,0,1,.42-.26q.15,0,.39.6a9.34,9.34,0,0,1,.42,1.42c.12.54.23,1.11.32,1.71A11.58,11.58,0,0,1,365,47.4a10.82,10.82,0,0,1-1,4.49,16.57,16.57,0,0,1-2.6,4,21.32,21.32,0,0,1-3.76,3.36,28.47,28.47,0,0,1-4.47,2.58,26.06,26.06,0,0,1-4.7,1.65,18.53,18.53,0,0,1-4.46.58,17.35,17.35,0,0,1-6.44-1.31,21.62,21.62,0,0,1-6-3.63,19.38,19.38,0,0,1-4.44-5.51,14.54,14.54,0,0,1-1.73-7A14.86,14.86,0,0,1,328.06,38.73Zm15.34,18.7a12.93,12.93,0,0,0,3.36.47,6.36,6.36,0,0,0,3.75-1,8,8,0,0,0,2.37-2.57A10.77,10.77,0,0,0,354.09,51a18.16,18.16,0,0,0,.34-3.26,13.72,13.72,0,0,0-.53-4.33,6.73,6.73,0,0,0-1.26-2.31,7.63,7.63,0,0,0-1.55-1.34,4.83,4.83,0,0,1-1.39-1.42,3,3,0,0,0-2.36-1.63.86.86,0,0,1-.79.63h-.32a1.19,1.19,0,0,0-.89.37,16.19,16.19,0,0,0-1.37-1v.1a1.1,1.1,0,0,0-.23-.49,4.4,4.4,0,0,0-.63-.71,4.5,4.5,0,0,0-.92-.66,2.4,2.4,0,0,0-1.16-.29,5,5,0,0,0-4.25,2.55Q335,39.73,335,44.45a20.56,20.56,0,0,0,.42,4.08,13.43,13.43,0,0,0,1.42,3.86,11.52,11.52,0,0,0,2.6,3.15A9,9,0,0,0,343.4,57.43Z"/><path class="cls-2" d="M377.82,65.57q-1.68-2.83-3.81-6.8t-4.18-8.59c-.7-1.5-1.43-3-2.2-4.57s-1.5-3-2.18-4.54-1.28-2.93-1.79-4.31a19.26,19.26,0,0,1-1-3.81,2.3,2.3,0,0,0,.63-.47,1.32,1.32,0,0,0,.21-.45c0-.16.07-.34.1-.55s.11-.49.21-.84l1.16-.42c.21-.07.4-.32.58-.74l.86-.1,1-.11a3.46,3.46,0,0,0,.84-.18.73.73,0,0,0,.47-.45h.1a1.51,1.51,0,0,0,.5-.13c.23-.09.48-.19.74-.32l.71-.31a1.35,1.35,0,0,1,.42-.13c.24.63.51,1.36.81,2.18s.61,1.69.92,2.6.61,1.84.89,2.78.53,1.89.74,2.84a24.45,24.45,0,0,0,1.08,3.07c.47,1.14,1,2.27,1.52,3.39l1.55,3.21c.49,1,.88,1.85,1.16,2.52-.07,0-.11-.14-.11-.42s0-.81.11-1.47.16-1.43.28-2.29.26-1.76.4-2.7.28-1.88.42-2.79a57.32,57.32,0,0,1,1.47-6.91,17.18,17.18,0,0,1,2.47-5.49c1-.31,1.76-.55,2.34-.71l1.63-.44a5.55,5.55,0,0,1,.91-.21,4.84,4.84,0,0,1,1,.16,2.52,2.52,0,0,1,.74.36,7,7,0,0,1,.86.79l1.4,1.42c.31,1.33.64,2.77,1,4.31s.68,3.07,1,4.59.62,3,.9,4.44.52,2.73.73,3.86.39,2.09.53,2.84.22,1.2.26,1.34a27.4,27.4,0,0,0,1.5-3.57c.57-1.61,1.25-3.4,2-5.36s1.65-4,2.63-6.15a41.2,41.2,0,0,1,3.36-6c1-1.58,1.77-2.37,2.15-2.37.18,0,.27.18.27.53a1.48,1.48,0,0,1,0,.26,1.63,1.63,0,0,0,0,.31.72.72,0,0,1,.27.16,1.18,1.18,0,0,0,.26.21,11.68,11.68,0,0,1,.73-1.26c.28-.42.56-.86.84-1.31a.91.91,0,0,0,.5.26l.95.24c.37.08.75.16,1.15.23a11.43,11.43,0,0,1,1.19.27,33.69,33.69,0,0,1-1.47,4.62c-.71,1.82-1.52,3.78-2.45,5.88s-1.89,4.29-2.89,6.57-1.91,4.5-2.76,6.67q-2,5-2.83,6.78c-.25.49-.45.91-.61,1.26a6,6,0,0,1-.49.92,3,3,0,0,1-.61.66,3.9,3.9,0,0,1-.87.47c-.63.24-1.27.46-1.91.65a12.14,12.14,0,0,1-2.71.4v.84h-1.55a1.89,1.89,0,0,0-.6.1c0-.1-.07-.22-.11-.34a1.35,1.35,0,0,1-.05-.29h-.63a37.35,37.35,0,0,1-1.55-5.22q-.56-2.55-1.23-4.92c-.32-1.08-.63-2.25-.95-3.49s-.6-2.43-.87-3.57-.5-2.15-.71-3-.36-1.47-.47-1.79q-.1,3.73-.39,8.07c-.2,2.89-.43,6.19-.71,9.9-.07.8-.12,1.42-.13,1.84a6.09,6.09,0,0,1-.11,1,.68.68,0,0,1-.31.47,4.06,4.06,0,0,1-.71.29,9.87,9.87,0,0,1-1,.39,3.67,3.67,0,0,0-.65.29,1.58,1.58,0,0,0-.45.4l-.45.6h-1.84a4.43,4.43,0,0,0-.55.68l-.5.79c-.24,0-.53.06-.86.08A8.79,8.79,0,0,0,377.82,65.57Z"/><path class="cls-2" d="M431.06,47.76h-.63a51.14,51.14,0,0,1,.82-7.27q.66-3.5,1.65-7.17a1.86,1.86,0,0,0,.58-.34,6.67,6.67,0,0,0,.74-.69c.24-.26.47-.51.68-.76a2.23,2.23,0,0,0,.37-.52l.68.1a4.85,4.85,0,0,1,.63.16,1.3,1.3,0,0,1,.47-.89,2.06,2.06,0,0,1,.82-.35,4.11,4.11,0,0,1,.94-.05,5.5,5.5,0,0,0,.92,0c-.1,2.17-.16,4.14-.16,5.93a67,67,0,0,0,.58,9.48,32.15,32.15,0,0,0,1.5,6.36,9.49,9.49,0,0,0,2.1,3.57,3.47,3.47,0,0,0,2.39,1.13,3.56,3.56,0,0,0,2.13-.81,8.1,8.1,0,0,0,1.94-2.23A12.84,12.84,0,0,0,451.6,50a16.86,16.86,0,0,0,.53-4.34,19.88,19.88,0,0,0-.34-3.6,21.34,21.34,0,0,0-1.13-3.86,2.38,2.38,0,0,1-.5-.26c-.16-.1-.31-.19-.45-.26v-2a4.39,4.39,0,0,1,1-.45c.29-.08.58-.46.86-1.13a6.23,6.23,0,0,0,.71.06h.34a7.84,7.84,0,0,1,1.11.42V32.9a1.25,1.25,0,0,1,.57-.27v.69a8.43,8.43,0,0,1,2.68-.53,3,3,0,0,1,2.13.71,4.65,4.65,0,0,1,1.18,1.87,10.87,10.87,0,0,1,.58,2.62c.11,1,.19,2,.26,3s.17,2,.29,2.94a11,11,0,0,0,.61,2.52,1.32,1.32,0,0,0-.53.21,22.14,22.14,0,0,1-.26,3.49c-.18,1.07-.42,2.24-.74,3.5l-.44.16a1,1,0,0,0-.34.15,6.77,6.77,0,0,1-1.95,3.31,12.93,12.93,0,0,1-3.31,2.21,21.72,21.72,0,0,1-4,1.42c-1.42.35-2.77.65-4.07.89a9.19,9.19,0,0,1-2.1.21,14.32,14.32,0,0,1-4.57-.79A12.6,12.6,0,0,1,431,48.87v-.55A3.33,3.33,0,0,1,431.06,47.76Z"/><path class="cls-2" d="M483.61,30.38a1.45,1.45,0,0,1-.26-.69,3.25,3.25,0,0,1,1.86.76A6.23,6.23,0,0,1,486.5,32a8.86,8.86,0,0,1,.82,1.87,11.85,11.85,0,0,1,.39,1.76h-1a5.61,5.61,0,0,0-.79,0,1.29,1.29,0,0,0-.52.21,1.51,1.51,0,0,0-.4.5,6.85,6.85,0,0,0-.39,1,14.12,14.12,0,0,0-1.74.61,4.27,4.27,0,0,1-1.68.34l-.21,0a.75.75,0,0,0-.21,0v-.21a3,3,0,0,0-.63-1.37,11.9,11.9,0,0,0-1.63-1.92,13.57,13.57,0,0,0-2.15-1.71,4.06,4.06,0,0,0-2.15-.73,2.42,2.42,0,0,0-1.16.26,8.44,8.44,0,0,0-1.92.53c-.47.21-.71.47-.71.78,0,.5.38,1,1.13,1.61a16.23,16.23,0,0,0,2.92,1.7,42.19,42.19,0,0,0,4,1.61c1.46.5,2.9.93,4.34,1.28q3.78,1,7.51,1.76t6.78,1.5q3.78.94,3.73,3.36a3.93,3.93,0,0,1-.11.92c-.07.3-.15.64-.26,1a13.53,13.53,0,0,1-3.44,5.25,28.07,28.07,0,0,1-6.38,4.73,39.41,39.41,0,0,1-8.43,3.41,34.77,34.77,0,0,1-9.54,1.32,12.16,12.16,0,0,1-8-2.52,2.94,2.94,0,0,1,.64-.37,5.32,5.32,0,0,1-1.84-2.16,6.27,6.27,0,0,1-.58-2.68,7.61,7.61,0,0,1,.37-2.33,8.16,8.16,0,0,1,1.05-2.21,7.58,7.58,0,0,1,1.65-1.79,7.78,7.78,0,0,1,2.18-1.18v-.52c.46-.14,1-.32,1.53-.53s1.11-.4,1.65-.58l1.55-.47a4.85,4.85,0,0,1,1.31-.21,6.32,6.32,0,0,1,1.45.18c.51.13.76.35.76.66a2.13,2.13,0,0,1-.74,1.47c-.49.49-1,1-1.6,1.58a12.6,12.6,0,0,0-1.57,1.84,3.66,3.66,0,0,0-.71,2.2,2.49,2.49,0,0,0,1.1,2.34,6.33,6.33,0,0,0,3.21.66,23.73,23.73,0,0,0,4.64-.53,28.72,28.72,0,0,0,4.89-1.42,15.48,15.48,0,0,0,3.83-2.07,3.27,3.27,0,0,0,1.55-2.55,2.12,2.12,0,0,0-1.12-1.71,13.52,13.52,0,0,0-2.92-1.39,38.84,38.84,0,0,0-4-1.15c-1.49-.35-3-.68-4.47-1s-2.89-.58-4.22-.86a33.31,33.31,0,0,1-3.31-.84,35.5,35.5,0,0,1-7.73-3.18q-2.73-1.66-2.73-4a4.87,4.87,0,0,1,1.42-3.36,13.51,13.51,0,0,1,3.44-2.63,19.81,19.81,0,0,1,4.23-1.7,14.4,14.4,0,0,1,3.78-.61,15.56,15.56,0,0,1,4.84.82Z"/><path d="M32.76,203.18a58.49,58.49,0,0,0-21.34,8.76C6.58,215.18-.18,219.72,0,225.68a9.86,9.86,0,0,0,2.45,5.82C13.67,245.62,37.66,250,37.66,250c41.65,7.64,76.93,2.15,80.09,1.63a261.27,261.27,0,0,0,45.77-11.85,62.73,62.73,0,0,0-5.31-8.17C126.92,190.8,54,199.89,32.76,203.18Z"/><path d="M375.87,268.65c-17.3,16-44.94,12.31-57.54,10.63-28.55-3.81-61.32-19.72-60.24-32.77a8.75,8.75,0,0,1,1.67-4.33L257,239.43a91.51,91.51,0,0,1-33.83,16.92c-10.29,2.63-21.57,5.52-30.85-.69a25.23,25.23,0,0,1-8.92-11.2c-8.37,5.88-17.35,5.41-20.8,1.15-.45-.57-2.36-3.13-1.49-8.27-5.33.79-74.95,17-112.53,7.8-8.22-2-27.64-6.75-35.62-14.53A10.35,10.35,0,0,1,9.47,224c-.26-4.71,3.91-8.91,7.89-11.91-.73.06-2.48.22-4.83.63a75.41,75.41,0,0,1,20.23-9.5,43.88,43.88,0,0,1,6-9.38c9.31-11.09,21.7-14.6,27.27-15.78-.85-.37-1.71-.72-2.56-1.08a89,89,0,0,1,27.56-52.29,9.76,9.76,0,0,1-3.77-5.24,9.48,9.48,0,0,1-.27-3.89,7.85,7.85,0,0,1-1.88-2.15c-2.6-4.44.22-10.33,1.5-13C92,89,107.78,84.69,110.67,83.93a21.34,21.34,0,0,0,.16-3.13,22.67,22.67,0,0,0-.34-3.4c-1.76.6-4.33,1.45-7.48,2.38C87.34,84.4,71,87,70.64,85.81c0-.22.37-.64,2.64-1.62a20.14,20.14,0,0,1-2.81-4.67C65.13,67,74.85,53.42,75.4,52.67c1.48-2,9.15-12.37,21-12.28,1.89,0,8.33.07,13.33,5.07a18.05,18.05,0,0,1,5,10.87,36.29,36.29,0,0,1,3.48-6.8A39.31,39.31,0,0,1,135,35.43c-.18-.79,0-1,.09-1.11.52-.41,2.16.94,2.46,1.2-.26,3.09-.51,6.17-.77,9.26a19.82,19.82,0,0,1,3.46-2.21c5.59-2.77,13.87-3.47,17.22.37a6.84,6.84,0,0,1,.65.91.75.75,0,0,0,1-.21.72.72,0,0,0,0-.83,16.16,16.16,0,0,1-4.6-5.68c-2.8-5.86-1-11.66-.36-13.65,4.08-13,19.94-17.21,20.63-17.39,9-2.26,24.23-1.78,29.42,8,4.39,8.32-1.11,18.3-2.24,20.34-.44.81-6.38,11.17-18.6,13.58a26.56,26.56,0,0,1-9.15.17A21.38,21.38,0,0,0,186.4,58.93a21.92,21.92,0,0,1,5.48-1.85,23.45,23.45,0,0,1,14.71,2.25c.9-.65,3.92-2.69,7.36-1.92a9,9,0,0,1,5.19,3.85c7,9.55,3,32.36,2.66,34.19a124.73,124.73,0,0,1-7.15,24.39c.88-.07,1.8-.11,2.75-.1a32.15,32.15,0,0,1,12.81,2.93,164.55,164.55,0,0,1,20.26-6.38c13.53-3.3,44.06-10.36,75.36,1.6,1.71.65,3.08,1.23,3.93,1.59a51,51,0,0,1,9,0,56.78,56.78,0,0,1,29,11.37,7.52,7.52,0,0,1,.72,2.45c.62,5.85-6.39,10.33-6.91,10.66,6.48,6.07,13.11,12.67,19.81,19.83A419.68,419.68,0,0,1,410.9,199.1a6.59,6.59,0,0,1,4.41,1.58c2.37,2.25,1.78,6.25.16,14.35-3.56,17.88-4.67,18.32-5.2,18.36-1.18.08-3-1.69-5.73-10.76a194.78,194.78,0,0,1-11,21.4C387.91,253.38,382.39,262.63,375.87,268.65Z"/><path class="cls-3" d="M401.11,206.36a8.77,8.77,0,0,0-3.8-5.34,8.62,8.62,0,0,0-5.69-1.21c.44,2,1.09,5,1.8,8.63h0c-.34-.88-.72-1.74-1.14-2.59C381.92,185,352.15,181,338.37,190.18a21.7,21.7,0,0,0-3.77,3.23,32,32,0,0,0-2.82,3.24c-.21.29-.42.56-.61.84.4-1.61.79-3.24,1.19-4.86a47.87,47.87,0,0,0-15.77-20.1c-15-11-31.6-9.12-35.87-8.48a49.41,49.41,0,0,0-27.59,14.32h0a61.66,61.66,0,0,0-8.36,10.32,59.42,59.42,0,0,0-3.26,5.7,80.29,80.29,0,0,1-20.38,33.12c-1,5.35-3.39,9-5.36,9.13a5.47,5.47,0,0,1-2.55-.47,4.86,4.86,0,0,1-1.6-1.32,43.12,43.12,0,0,0-3.17,3.56c-2.11,2.64-2.88,4.25-3.51,4.07-.84-.25-.61-3.39-.57-3.9a11.27,11.27,0,0,1,.74-3.5c2.22-4.09,4.55-6.34,4.19-6.79s-2.82,1.67-5.5.86c-.47-.14-1.1-.34-1.23-.76-.33-1.19,3.82-3.49,9.28-6a53,53,0,0,0,1.59-12.76,54.42,54.42,0,0,0-6.4-25.39,151.34,151.34,0,0,0-19.49-.87l-2.08.05-1,0-.36,0-1.75.07-1,.06c-1.63.1-3.3.23-5,.39q-.75.06-1.5.15c-1.24.13-2.47.27-3.69.43l-1.83.24-1.8.26c-1.59.24-3.15.51-4.7.79s-3.06.59-4.55.91-3,.66-4.4,1c-.52.12-1,.26-1.55.39l-1.52.4h-.05l-1.14.32c-.7.18-1.38.38-2.06.58l-1.94.59c-1.09.33-2.15.66-3.2,1l-1.32.45c-3.72,1.26-7.22,2.61-10.48,4-.54.22-1.07.46-1.59.68l-1.15.5-1.47.67-1.16.54c-2.92,1.34-5.6,2.7-8.06,4-.87.48-1.71.93-2.52,1.39l14.86-11.48c-3.33.66-6.8,1.48-10.38,2.51l-2.34.71-.14,0c-.54.16-1.07.34-1.59.52l-2,.67c-.65.22-1.3.46-1.94.7l-1,.35-1.41.55c-.64.25-1.28.51-1.9.78-1,.42-2.09.86-3.11,1.33l-1,.46c-1.33.6-2.62,1.22-3.89,1.86l-.86.43q-.54.27-1.08.57l-1.08.57-1,.57-2.08,1.17c-.68.39-1.35.79-2,1.19s-1.3.78-1.94,1.18l-1.87,1.2c-1.23.8-2.42,1.6-3.56,2.4l-1,.69-.59.42a17.83,17.83,0,0,1,2.22-4.33,19.33,19.33,0,0,1,8.3-6.66c0-.39.1-1.21.1-2.3a25,25,0,0,0-1.28-8.08,16.56,16.56,0,0,0-4.67-7.17,18.28,18.28,0,0,0-9.48-4.1c-14.17-2.57-29.44,6.38-37.67,17.67A42.17,42.17,0,0,0,35.49,204a59.82,59.82,0,0,0-18.13,8.07c-4,3-8.15,7.2-7.89,11.91A10.35,10.35,0,0,0,13,230.61a24.79,24.79,0,0,0,3.77,2.95h0c9.21,6,24.72,9.83,31.84,11.57,20.47,5,58,9.69,112.53-7.8a42.87,42.87,0,0,1,9.78-19.51h0a51.36,51.36,0,0,1,27.24-16.19c-5.09,2.62-27.66,14.64-30.61,28.88-.33,1.6-.95,4.82.8,7.32,2.58,3.72,9.35,4.46,17.37,2.06a23.09,23.09,0,0,0,7.29,9.67c10.45,7.83,25.51,3.23,37.05-.3a95.11,95.11,0,0,0,28.18-14.15l.09-.08q.68-.37,3.75,3.61a37.09,37.09,0,0,0,1.45,3.74c6.39,14.14,20.63,20.28,30.24,24.28,9.95,4.14,34.54,12.4,62.7,3.88a87.63,87.63,0,0,0,14.7-6c2.91-.79,5.19-2.1,6-4.18a4.62,4.62,0,0,0,.33-1.2l-1.13.18a36,36,0,0,0,2.65-3.07c.77-1,1.62-2.21,3.34-4.38l0,0a45.37,45.37,0,0,0,5.77-6.77c-.18.36-.35.72-.54,1.09a51.56,51.56,0,0,0,12.25-22.6A50.9,50.9,0,0,0,401.11,206.36Z"/><path class="cls-4" d="M230,212.38a79.09,79.09,0,0,1-9.5,12.72,3.38,3.38,0,0,1-2.58.63,3.45,3.45,0,0,1-2.6-3c.22-1.08.56-2.88.83-5.12,1.72-14.57-1.14-36.93-15.7-45.87a25.67,25.67,0,0,0-4.64-2.23c-4.23.3-5.16.81-5.2,1.23-.09.78,2.83,1.29,6.2,3.53a21.57,21.57,0,0,1,4.71,4.28,175.11,175.11,0,0,0-51.21,3.26q-2.81.6-5.39,1.24a25.46,25.46,0,0,1-16.26-3.64,12.34,12.34,0,0,0,2.61,2.92,12.19,12.19,0,0,0,5.15,2.43c-2.6.53-5.32,1.16-8.15,1.92-3.33.89-6.45,1.86-9.35,2.86a148.79,148.79,0,0,1-17.07-1.31c-3.57-.49-7-1.08-10.14-1.74a19.18,19.18,0,0,0-3.36-3.74c-7-6-16.21-5.21-19-4.87a3,3,0,0,0-.95-1.6,2.57,2.57,0,0,0-.73-.44q.38-2.91,1.06-6.17h0c.07-.36.15-.72.23-1.09v0a81.36,81.36,0,0,1,5.33-15.93c10.87-23.91,30.43-36,39-40.63a1.45,1.45,0,0,1,1.13.53,1.44,1.44,0,0,1,.13,1.52,2.17,2.17,0,0,0-1.28.7c-.74.92-.51,2.67.77,4.14.57,5.64.81,10.31.92,13.61.68,20-2.1,25.88-5,29.47a20.24,20.24,0,0,1-1.72,1.9,9.38,9.38,0,0,0,4-1.73c2.68-2.05,3.39-5.12,4.29-9.28a39.82,39.82,0,0,0,.9-9.13,18.13,18.13,0,0,0,3.12,2.23,18.74,18.74,0,0,0,4.52,1.81,65.73,65.73,0,0,0,14.27,2c1.22,0,1.94,0,1.94,0a64.34,64.34,0,0,0,16.1-2.36c.77.15,1.91.35,3.29.5,5.21.58,11.91.29,12.14-1.09,0-.35-.28-.92-2.2-1.86a41.12,41.12,0,0,1-6.4.09c-10.8-.71-18.27-5.52-18.69-4.77-.18.31.85,1.44,6.3,5.19-2,.31-3.65.5-4.66.6-7.38.72-18.07,1.65-27.57-3.54-.94-.51-1.65-1-2-1.19.11-1.62.19-3.29.24-5a130.72,130.72,0,0,0-.56-16.17l.76.41a14.81,14.81,0,0,0,2.5,3.13,16.78,16.78,0,0,0,10.62,4.3,19.18,19.18,0,0,1-4.79-2.64,20.26,20.26,0,0,1-7.77-14c-.74-8.83,5.66-15.86,4.86-16.38-.28-.18-1.26.51-4.45,4.44-1.58-3.3-2.79-4.87-3.61-4.69-1.06.23-1.48,3.34-1.28,9.33L109.55,98a2.39,2.39,0,0,0-2-.62c-1,.3-1.86,1.89-1.29,3.71,1,2.64,2.06,5.27,3.1,7.91-.94-.56-7-4.17-7.77-3.24s4.21,5.84,5,6.62c-2.76,0-4.21.24-4.34.81-.09.4.48,1,1.72,1.66a46.14,46.14,0,0,0-4.72,2.86c-1.06.73-2,1.47-2.9,2.19-1.42-.47-6-2.17-8.08-6.63a13.32,13.32,0,0,1-1-6.19c1-10.65,18.88-23.89,35.64-21.51A28.38,28.38,0,0,1,131.16,88l-6.08-4.24c-1.06-.22-2.19-.4-3.39-.55a39.65,39.65,0,0,0-8-.1,48.5,48.5,0,0,0-1.15-10.52c-1-4.54-3.46-15.56-9.8-17.13-2.55-.63-5.32.38-5.31.6s.49.11,1.31.26A13,13,0,0,1,101,57s.54.21,1.05.46c3.25,1.56,5.79,9.53,6,10.33a62,62,0,0,1,1.78,7.08c-1.68.31-3.38.64-5.09,1C94.38,77.9,84.47,80.36,75,83.11c2.86-3,3.28-3.89,3.08-4.13S77,78.93,74,80.76a22.94,22.94,0,0,1-1.63-5,28.41,28.41,0,0,1,2.27-17.09A25.4,25.4,0,0,1,86.38,46.26c2.22-1.07,10.53-5.11,18.38-.65,5.69,3.23,9.11,9.77,9,17a1.84,1.84,0,0,0,.21,1,2.38,2.38,0,0,0,2.56.9c0-.38,0-.75,0-1.12.53-11.05,9.64-19.73,17.79-25.41-.23,1.43-.56,3.56-.82,6.17-.37,3.59-.84,8.07-.08,8.26.32.08,1-.56,2.48-4.13a22.46,22.46,0,0,1,6.24-3.24c3.21-1.06,8.18-1.87,11.76-.79a6.27,6.27,0,0,1,3.35,2.17,5.31,5.31,0,0,1,.75,1.41c-.88,2.15-.8,2.79-.56,3,.4.28,1.09-.76,2.91-1.38s2.9-.2,3.51-1.08a1.44,1.44,0,0,0,.19-1.35,1.72,1.72,0,0,0-1.86-.79,4.44,4.44,0,0,0,.51-2.37,4.81,4.81,0,0,0-.71-2.14,5,5,0,0,0-.43-.61c-1-1.21-1.79-2.49-2.73-3.71-1.67-2.19-2.4-6.32-2.52-7.28-.8-6.14,6.09-14.53,14.22-18.4,9.32-4.43,21.58-3.56,27.69,1.82h0a12,12,0,0,1,1.83,2A11,11,0,0,1,202,19.8c1.43,7.65-6.64,14.47-8.49,16a28.68,28.68,0,0,1-12.67,6.06,1.76,1.76,0,0,0-1.54,2,1.7,1.7,0,0,0,1.65,1.27,20.51,20.51,0,0,1-2.2.19,22.31,22.31,0,0,1-4.38-.29,8.08,8.08,0,0,1-.75-3.65,8.54,8.54,0,0,1,4.06-6.79c1.76-1.05,3.4-1,3.38-1.35s-2.06-.75-4-.45A10,10,0,0,0,171.45,36a14.84,14.84,0,0,1,1.08-5c1.93-4.64,6-7.21,7.49-8.36h0c.38-.3.59-.5.52-.62-.2-.35-2.65.39-5,1.89A18.5,18.5,0,0,0,168.33,34a20.42,20.42,0,0,0-.3,10.83,22.92,22.92,0,0,0,2.09,5.49,45.35,45.35,0,0,0,10.45,13.19c-1.24,2.29-1.25,3-1,3.26.89.78,5-4.19,10.78-6,4.85-1.56,9.61-.54,13.09.72a38,38,0,0,0-5.6,7.18c-2.34,3.87-4.09,8.37-3.54,8.69s2.05-2.41,6.24-7.13c8-9,11.1-9.41,12.88-9a5.86,5.86,0,0,1,1,.35c6,2.8,5.59,21.69,2.86,36a104,104,0,0,1-8.72,26c-1.27-6.23-2-7.34-2.45-7.31-.76.06-1.12,3.68-1.44,7a93.41,93.41,0,0,0-.46,9.69,1.66,1.66,0,0,0,1.27,1.53,1.71,1.71,0,0,0,1.45-.45l8.72-11A22.21,22.21,0,0,1,228,125.47C247.69,136.49,248,182.35,230,212.38Z"/><path class="cls-5" d="M89.64,117.57a8.83,8.83,0,0,0,.17,1.54,9,9,0,0,0,2.58,4.58c.42-.31.84-.64,1.26-1,.78-.61,1.54-1.22,2.29-1.83a6.44,6.44,0,0,1-3-.4A6.57,6.57,0,0,1,89.64,117.57Z"/><path class="cls-6" d="M109.35,54.25a13.87,13.87,0,0,0-4.83-6.37c-4.31-3.07-9.08-2.46-10.84-2.23C85,46.76,78.32,54.28,79.18,55.9c.59,1.11,5.17.33,8.48-1.65a15,15,0,0,0,2.6-2C92.36,50.41,97.19,49.53,109.35,54.25Z"/><path class="cls-6" d="M79.06,58.38c-.94.62-2.14,2-1.77,2.71.81,1.62,9,0,9.08-1.42C86.41,58.61,82,56.42,79.06,58.38Z"/><path class="cls-7" d="M109.85,74.84c-1.68.31-3.38.64-5.09,1C94.38,77.9,84.47,80.36,75,83.11c2.86-3,3.28-3.89,3.08-4.13S77,78.93,74,80.76a22.94,22.94,0,0,1-1.63-5,28.41,28.41,0,0,1,2.27-17.09v0a27.71,27.71,0,0,0-.42,12c.56,2.84,1.2,3.55,1.42,3.78,1.81,1.85,4.8,1.39,14-.59,11.43-2.46,12.58-3,13.44-4.48,1.74-3.07.94-7.93-1.69-10.9a9.4,9.4,0,0,0-2.72-2.1h0A13,13,0,0,1,101,57s.54.21,1.05.46c3.25,1.56,5.79,9.53,6,10.33A62,62,0,0,1,109.85,74.84Z"/><path class="cls-6" d="M155.55,47.79c-.77,1.25-4.82-.83-10.47-.55a22.06,22.06,0,0,0-7.16,1.6,9.79,9.79,0,0,1-2.72,5c-1.49,1.44-4.41,3.27-5.7,2.37-2.07-1.45,2-8.63.29-9.78-1.5-1-6.58,3.08-9.69,7.88a24.88,24.88,0,0,0-3.55,9.06c.53-11.05,9.64-19.73,17.79-25.41-.23,1.43-.56,3.56-.82,6.17-.37,3.59-.84,8.07-.08,8.26.32.08,1-.56,2.48-4.13a22.46,22.46,0,0,1,6.24-3.24c3.21-1.06,8.18-1.87,11.76-.79C155.72,46.43,155.82,47.35,155.55,47.79Z"/><path class="cls-6" d="M195.74,13.81c.14-1-4.76-2.93-9.72-3.4a25.07,25.07,0,0,0-15.58,3.51c-1.64,1-8.29,5.14-9.61,12.26-.37,2-.43,4.67.41,4.95,1.08.37,2.59-3.73,6.24-7.61a29.06,29.06,0,0,1,11.63-7.26C188.21,12.91,195.57,15,195.74,13.81Z"/><path class="cls-8" d="M193.46,35.84a28.68,28.68,0,0,1-12.67,6.06,1.76,1.76,0,0,0-1.54,2,1.7,1.7,0,0,0,1.65,1.27,20.51,20.51,0,0,1-2.2.19,22.31,22.31,0,0,1-4.38-.29,8.08,8.08,0,0,1-.75-3.65,8.54,8.54,0,0,1,4.06-6.79c1.76-1.05,3.4-1,3.38-1.35s-2.06-.75-4-.45A10,10,0,0,0,171.45,36a14.84,14.84,0,0,1,1.08-5c1.93-4.64,6-7.21,7.49-8.36-4.07,4.92-4.58,6.63-4.11,7.19.29.36.86.16,3.21-.09,3.66-.39,5.91-.61,6.42.28.17.29.25.84-.47,2a13.06,13.06,0,0,0,4.82-.29c4-1,8.43-4.22,9.64-9.35a12.9,12.9,0,0,0-1.28-8.81,12,12,0,0,1,1.83,2A11,11,0,0,1,202,19.8C203.38,27.45,195.31,34.27,193.46,35.84Z"/><path d="M119.65,64.92c-.76-.41-1.68.09-2.27.4a5.42,5.42,0,0,0-2.8,4.53c0,.66.15.74.19.75.36.14.83-1.2,2.06-2.23,1.7-1.41,3.39-1,3.62-2A1.46,1.46,0,0,0,119.65,64.92Z"/><path d="M119.19,80.38a3.32,3.32,0,0,1-.88-1.41,3.68,3.68,0,0,1-.1-1.31c.16-1.38,2.77-6.3,8.2-7.41,1.21-.24,3.81-.77,5.69.79a3.54,3.54,0,0,1,1.44,2.43c0,.83-.46,2.16-5.85,5.06-3.34,1.79-9.28,4.55-9.77,3.69C117.79,82,118,81.54,119.19,80.38Z"/><path class="cls-9" d="M127.13,71.71a2,2,0,0,0-1.64-.26c-.26.08-.82.35-.85.68s.68,1,3.8,2c.19-.33.47-.81.78-1.41.72-1.36.76-1.68.63-1.9s-.68-.29-.86-.29A2.47,2.47,0,0,0,127.13,71.71Z"/><path class="cls-10" d="M219.08,82.55h0a110.86,110.86,0,0,1-1.8,14.87,104,104,0,0,1-8.72,26c-1.27-6.23-2-7.34-2.45-7.31-.76.06-1.12,3.68-1.44,7a93.41,93.41,0,0,0-.46,9.69,1.66,1.66,0,0,0,1.27,1.53c-6.5,8.26-22.42,29.41-17.52,35.08a4.16,4.16,0,0,0,2.62,1.32c-.09.78,2.83,1.29,6.2,3.53a21.57,21.57,0,0,1,4.71,4.28,175.11,175.11,0,0,0-51.21,3.26C135.12,177,122.93,165,124.71,159.86c2-5.65,21.35-3,21.7-6,.15-1.26-3.07-2.75-7-4.1,1.22,0,1.94,0,1.94,0,1,0,2.07-.06,3.24-.14h0a64.75,64.75,0,0,0,12.86-2.22c.77.15,1.91.35,3.29.5,5.21.58,11.91.29,12.14-1.09,0-.35-.28-.92-2.2-1.86a41.12,41.12,0,0,1-6.4.09c-10.8-.71-18.27-5.52-18.69-4.77-.18.31.85,1.44,6.3,5.19-2,.31-3.65.5-4.66.6-7.38.72-18.07,1.65-27.57-3.54-.94-.51-1.65-1-2-1.19.11-1.62.19-3.29.24-5a130.72,130.72,0,0,0-.56-16.17l.76.41a14.81,14.81,0,0,0,2.5,3.13,16.78,16.78,0,0,0,10.62,4.3,19.18,19.18,0,0,1-4.79-2.64,20.26,20.26,0,0,1-7.77-14c-.74-8.83,5.66-15.86,4.86-16.38-.28-.18-1.26.51-4.45,4.44-1.58-3.3-2.79-4.87-3.61-4.69-1.06.23-1.48,3.34-1.28,9.33L109.55,98a2.39,2.39,0,0,0-2-.62c-1,.3-1.86,1.89-1.29,3.71,1,2.64,2.06,5.27,3.1,7.91-.94-.56-7-4.17-7.77-3.24s4.21,5.84,5,6.62c-2.76,0-4.21.24-4.34.81-.09.4.48,1,1.72,1.66a46.14,46.14,0,0,0-4.72,2.86c-1.06.73-2,1.47-2.9,2.19-1.42-.47-6-2.17-8.08-6.63a13.32,13.32,0,0,1-1-6.19c1-10.65,18.88-23.89,35.64-21.51A28.38,28.38,0,0,1,131.16,88l-6.08-4.24c-1.06-.22-2.19-.4-3.39-.55a24.88,24.88,0,0,0,5.7-1.42,26,26,0,0,0,10-6.82,2.55,2.55,0,0,1-1.05-1.47c-.57-2.81,5.54-6.45,10.08-8.08,1.11-.4,9.2-3.3,11.72-.11a3.57,3.57,0,0,1,.66,1.48c2.24-.13,4.58-.32,7-.61a115.85,115.85,0,0,0,14.81-2.74c-1.24,2.29-1.25,3-1,3.26.89.78,5-4.19,10.78-6,4.85-1.56,9.61-.54,13.09.72a38,38,0,0,0-5.6,7.18c-2.34,3.87-4.09,8.37-3.54,8.69s2.05-2.41,6.24-7.13c8-9,11.1-9.41,12.88-9a5.86,5.86,0,0,1,1,.35C218.45,63.33,219.59,72.44,219.08,82.55Z"/><path d="M161.21,64.73a5.15,5.15,0,0,1-1.34-1.51,5,5,0,0,1-.32-4.4c1.65-3.34,10.29-3.64,12.79,0a4.51,4.51,0,0,1,.69,1.71c1.68,0,2.27.2,2.31.43.11.64-4.07,1.89-6.07,2.41A44.83,44.83,0,0,1,161.21,64.73Z"/><path class="cls-9" d="M163.23,60.87a3.24,3.24,0,0,1-2-1.11c-.33-.41-.79-1.23-.52-1.58s1.13-.21,2.11.33a2,2,0,0,1,1.14-1.22c.41-.15,1.14-.27,1.37,0S165.34,58.45,163.23,60.87Z"/><path d="M142.52,79A4.09,4.09,0,0,1,141,77.61a5.92,5.92,0,0,1-.66-3.83c.75-4.94,11.34-9,15.65-6.8a5.61,5.61,0,0,1,2.21,2,4.71,4.71,0,0,1,.48,3.34c-.68,1.9-3.13,1.55-7.59,3.4C146.44,77.7,144.52,80,142.52,79Z"/><path class="cls-11" d="M148.48,70.36c-3.19,1.37-5.12,4.35-4.81,4.71s2.09-1.46,6.11-3.09c3.49-1.43,5.59-1.51,5.56-1.87S151.73,69,148.48,70.36Z"/><path d="M142.61,88c.09-.44,1.37-.18,3.1-.73a7.56,7.56,0,0,0,4.44-3.56c1-2.2.77-5.42-.8-6.24a2.24,2.24,0,0,0-1.37-.17,3.85,3.85,0,0,1,.91-1.51c1.7-1.69,4.45-.94,4.62-.88a2,2,0,0,0-.76,1.14c-.46,2.16,3.54,5.69,7,5.29.78-.09,2.38-.28,3.16-1.42.35-.5.46-1.08.92-1.18a1.38,1.38,0,0,1,1.29.84c.57,1.32-1.39,4-3.69,5-3.57,1.51-7.35-1.36-7.65-1.59a7.89,7.89,0,0,1-1.55,3.86,7.32,7.32,0,0,1-6.54,2.94C144,89.51,142.5,88.49,142.61,88Z"/><path class="cls-12" d="M123.51,95c-.28-.18-1.26.51-4.45,4.44-1.58-3.3-2.79-4.87-3.61-4.69-1.06.23-1.48,3.34-1.28,9.33L109.55,98a2.39,2.39,0,0,0-2-.62c-1,.3-1.86,1.89-1.29,3.71,1,2.64,2.06,5.27,3.1,7.91-.94-.56-7-4.17-7.77-3.24s4.21,5.84,5,6.62c-2.76,0-4.21.24-4.34.81-.09.4.48,1,1.72,1.66a46.14,46.14,0,0,0-4.72,2.86c-1.06.73-2,1.47-2.9,2.19-.3-.2-5.23-3.51-5.09-8.77.14-5,4.78-9.67,11.06-10a5.08,5.08,0,0,1-.57-4c.89-2.35,4.6-3.86,8.81-2.55,4.64-4.12,9.56-5,11.64-3.12C122.63,91.76,123.5,92.72,123.51,95Z"/><path class="cls-12" d="M219.08,82.55h0a110.86,110.86,0,0,1-1.8,14.87,104,104,0,0,1-8.72,26c-1.27-6.23-2-7.34-2.45-7.31-.76.06-1.12,3.68-1.44,7a93.41,93.41,0,0,0-.46,9.69,1.66,1.66,0,0,0,1.27,1.53c-11.68,13-23.22,19.06-30.89,22-6.47,2.53-19.78,6.66-21.83,3.2-1.08-1.84,1.28-5.28,3.61-8l-11.8-1.86a64.75,64.75,0,0,0,12.86-2.22c.77.15,1.91.35,3.29.5,5.21.58,11.91.29,12.14-1.09,0-.35-.28-.92-2.2-1.86a41.12,41.12,0,0,1-6.4.09c-10.8-.71-18.27-5.52-18.69-4.77-.18.31.85,1.44,6.3,5.19-2,.31-3.65.5-4.66.6-7.38.72-18.07,1.65-27.57-3.54-.94-.51-1.65-1-2-1.19.11-1.62.19-3.29.24-5a130.72,130.72,0,0,0-.56-16.17l.76.41a14.81,14.81,0,0,0,2.5,3.13,16.78,16.78,0,0,0,10.62,4.3,62.2,62.2,0,0,0,21.45,3.39c18.19-.38,41.93-9.17,44.85-23.49,1.55-7.64-4.22-10-2.72-19.61,2-12.69,14.45-23.71,20-21.55C216.52,67.5,219.26,70.13,219.08,82.55Z"/><path d="M202.2,101.52a16.73,16.73,0,0,0,2-3.68c2.11-5.6.44-10.61,1.73-11,.6-.2,1.54.67,2.06,1.51,3.17,5.11-4.56,16.17-5.74,15.7C202,103.91,201.88,103.28,202.2,101.52Z"/><path d="M209.69,90.35c-.19.05-.09.75-.18,2.1-.17,2.56-.81,3.74-.58,3.84s1.79-1.54,1.75-3.49C210.65,91.5,210,90.3,209.69,90.35Z"/><path class="cls-12" d="M155.31,109.52c-.47.62.67,2.46,1.89,3.61,4,3.71,11.4,2.46,11.58,1.32.07-.44-2.49-1.43-7.59-3.41C156.59,109.26,155.61,109.12,155.31,109.52Z"/><path class="cls-6" d="M109.47,118.36c-2.72-1.76-9.46,4.28-13.67,8.06C84.06,136.93,76.31,149.85,77.63,151c1,.8,5-6.07,15.92-11.61,7.14-3.63,10.66-3.35,13.86-7.49C111.06,127.12,111.81,119.88,109.47,118.36Z"/><path class="cls-13" d="M150.28,181.8q-2.81.6-5.39,1.24a25.46,25.46,0,0,1-16.26-3.64,12.34,12.34,0,0,0,2.61,2.92,12.19,12.19,0,0,0,5.15,2.43c-2.6.53-5.32,1.16-8.15,1.92-3.33.89-6.45,1.86-9.35,2.86a148.79,148.79,0,0,1-17.07-1.31c-3.57-.49-7-1.08-10.14-1.74a19.18,19.18,0,0,0-3.36-3.74c-7-6-16.21-5.21-19-4.87a3,3,0,0,0-.95-1.6,2.57,2.57,0,0,0-.73-.44q.38-2.91,1.06-6.17a3.77,3.77,0,0,0,1.41,3.39,3.91,3.91,0,0,0,3.18.56A18.42,18.42,0,0,1,79.88,171c9.74-1.81,17.54,5.25,18.73,6.36a46.51,46.51,0,0,0,13.3,4.88c3.18.63,9.75,2,11-.38,1.38-2.49-4.27-7.42-3.37-8.43s7.92,5.51,18,7.87A34.89,34.89,0,0,0,150.28,181.8Z"/><path class="cls-6" d="M220,127.42c-.57.13-3.33.73-4.29,2.79-1.46,3.12,2.1,7.57,3.65,9.67,7.77,10.55,10,23.06,11.6,32.45,2.3,13.12-.48,22.32.86,22.56s4.32-8.36,6-17c3-15.38,3.33-38.51-7.52-47C228.94,129.78,224.65,126.41,220,127.42Z"/><path class="cls-14" d="M406.8,199.79c-.56,1.54-1.13,3.09-1.69,4.64-3.36-3.35-29.71-28.89-57.77-21.45a41.91,41.91,0,0,0-11.89,5.29,48.06,48.06,0,0,0-13.19-17.94C306,156.8,281.12,155.49,263,165.93a52.36,52.36,0,0,0-19,19.37c1.79-7.38,4.09-20.68,1.27-35.21a61.5,61.5,0,0,0-1.65-6.62,1.07,1.07,0,0,0-.06-.17c-2.55-8.07-5.89-12.15-7.05-13.49a34.4,34.4,0,0,0-4.87-4.63,127,127,0,0,1,50.51-11c9.5-.06,26.33,0,45.34,8.59a96.22,96.22,0,0,1,16.87,9.79c-3.44-.43-5.2-.47-5.27-.15s3,1.59,9.35,3.44q9.39,9.69,18.83,19.8Q388,177.92,406.8,199.79Z"/><path class="cls-6" d="M325.23,125.85c-3.78-2.5-7.81-4-15.55-5.4-17.29-3.15-36.16-2.8-36.35-.66-.15,1.66,11.12,1.82,29,8.35,23,8.42,33.58,18.88,35.86,16.38C340.16,142.32,334.27,131.81,325.23,125.85Z"/><path class="cls-6" d="M293.63,128.47c-5.36-2.1-10.66-2.78-10.81-2.29s5.1,2,13.92,6.22c7.48,3.59,10.43,5.73,10.64,5.4S301.89,131.71,293.63,128.47Z"/><path d="M346.42,153.62c.26-.51,4.28.3,6.73,3.21.22.27,1.4,1.68,1.14,2C353.7,159.47,346,154.41,346.42,153.62Z"/><path d="M346.63,156.52a41.3,41.3,0,0,0,4.34,3.94,42.2,42.2,0,0,0,6.84,4.35,2.48,2.48,0,0,1-1.14,1.55c-3.53,1.76-13.33-9.32-12.43-10.46C344.41,155.7,345,155.73,346.63,156.52Z"/><path class="cls-15" d="M406.8,199.79c-.56,1.54-1.13,3.09-1.69,4.64a74.45,74.45,0,0,0-23-15.22c-6.45-2.7-21.37-9-38.21-4.24a46.19,46.19,0,0,0-8.49,3.3,48.06,48.06,0,0,0-13.19-17.94C306,156.8,281.12,155.49,263,165.93a52.36,52.36,0,0,0-19,19.37c1.79-7.38,4.09-20.68,1.27-35.21a61.5,61.5,0,0,0-1.65-6.62c.79,2.27,7,19.62,13,19.4a7.79,7.79,0,0,0,2.06-.44c4.27-1.59,5.5-6.84,6.28-8.11,6-9.78,33.42-7.1,62.22,1.8,27.95,8.64,43.47,18.91,46.65,14.87,2.16-2.73-2.79-10.21-6.61-15.32q5.65,5.81,11.32,11.9Q393.67,183.84,406.8,199.79Z"/><path class="cls-16" d="M337.8,122.83c1.86,1.12,3.79,2.38,5.74,3.8a78.08,78.08,0,0,1,13.64,12.67,7.79,7.79,0,0,0,2.24-3.51,7.87,7.87,0,0,0-.39-5.45,66.78,66.78,0,0,0-8.08-3.8A69.65,69.65,0,0,0,337.8,122.83Z"/><path class="cls-17" d="M91.17,192.8a4.91,4.91,0,0,1-.86,3c-3.8,5.29-18.58-1-20-1.62-3.12-1.36-7.28-3.22-7.29-6,0-1.5,1.23-2.75,2.24-3.52a26.34,26.34,0,0,0-6.43,2.76A29.59,29.59,0,0,0,46.7,202.32c7.33-.1,15.31-.1,15.35.55s-7.24.66-16.28,3.17c-14.66,4.08-31.57,14-32.56,22.9a15.08,15.08,0,0,1-.23,1.67A10.35,10.35,0,0,1,9.47,224c-.26-4.71,3.91-8.91,7.89-11.91A59.82,59.82,0,0,1,35.49,204a42.17,42.17,0,0,1,3.74-6.19c8.23-11.29,23.5-20.24,37.67-17.67a18.28,18.28,0,0,1,9.48,4.1,16.56,16.56,0,0,1,4.67,7.17A9.35,9.35,0,0,1,91.17,192.8Z"/><path class="cls-18" d="M36.82,212.09a26.43,26.43,0,0,0-5.06,1.75c-5,2.32-9,6-8.57,6.62s3.17-1.58,10.32-4.09c4.26-1.49,7.07-2.11,7-2.92S38.34,212.32,36.82,212.09Z"/><path class="cls-19" d="M386.36,233a16.59,16.59,0,0,1,1.79,9.22,16.26,16.26,0,0,1-5.73,9.71.21.21,0,0,0,0,.06,7.12,7.12,0,0,1-.81,1.11l0,.05a74.83,74.83,0,0,1-5.13,6.26l1.13-.18a4.62,4.62,0,0,1-.33,1.2c-.86,2.08-3.14,3.39-6,4.18-10.91,5.34-36.29,15.68-64.09,7.47a74.63,74.63,0,0,1-13.31-5.38c-6.67-5.46-11.5-11.52-10.64-17.43C286.54,225.61,378.64,218.44,386.36,233Z"/><path class="cls-20" d="M204.51,192.28c-3.18,7.57-32.3-.33-63.76,6.61-20.53,4.53-35.88,14-37.08,11.81-.62-1.16,3.16-4.45,6.85-7.32a43.38,43.38,0,0,0-5.17.14,47.23,47.23,0,0,0-23.06,8.82,121.83,121.83,0,0,1,36.82-17.94c3.58-1,7-1.85,10.38-2.5l-14.87,11.46a156.77,156.77,0,0,1,60.2-19.17c4.41-.45,8.66-.7,12.71-.77,5.56.76,16.29,2,17.27,6.52A4,4,0,0,1,204.51,192.28Z"/><path d="M40.14,226.54c-1.65,2.08-2.58,4.94-2,5.4s2.5-2.1,6-4a20.29,20.29,0,0,1,16.38-1.12,19.1,19.1,0,0,1,6.27,3.92c-3.07,3.44-6.41,7.38-5.94,7.87.62.65,6.46-6.21,15.74-10.25,16.74-7.28,33.14-.38,34,0a41.73,41.73,0,0,1,14,10.1,23.78,23.78,0,0,0-3-5.64c-7.55-10.61-22.56-13-32.81-11.73a41.42,41.42,0,0,0-19.31,7.72,21.78,21.78,0,0,0-7.72-5.5C54.45,220.21,44.47,221.1,40.14,226.54Z"/><path class="cls-21" d="M98.73,225.94c-7-1.26-15.52.3-15.82,2.71-.38,3.13,13.27,7.68,24.88,7.16,4.58-.21,5-1,5.13-1.35C113.56,232.36,106.35,227.32,98.73,225.94Z"/><path class="cls-22" d="M78,229.77a11.66,11.66,0,0,0,1.24,2c2.9,3.73,7.35,4.73,10.05,5.29,9.25,1.9,18.2,2.81,18.21,2.64,0-.33-32.15-.21-32.88-5.95C74.41,232.27,76.26,230.82,78,229.77Z"/><path class="cls-23" d="M57.15,228.2c-1.17-1.2-3.11-.72-3.79-.54-.36.09-2.15.53-2.16,1.21,0,1.22,5.68,3,6.63,1.63C58.23,229.91,57.73,228.79,57.15,228.2Z"/><path class="cls-24" d="M338.37,190.18a31.55,31.55,0,0,0-7.2,7.31,77.48,77.48,0,0,0,25.35,11.19c5.27,1.24,12.87,3,15.07-.19,1.85-2.7-.88-7.77-2.64-10.17C360.87,187.29,341.6,189.73,338.37,190.18Z"/><path class="cls-25" d="M332.36,192.63c-.4,1.62-.79,3.24-1.19,4.86l-6.86-4.28c.81,1.6,1.42,3.5.65,4.92-2,3.74-12.24,1.63-15.39,1-13.85-2.86-29.06-11.38-27.84-15.72.53-1.86,4.26-3.55,18-2.94a45.92,45.92,0,0,0-22.45-2.31c-14.95,2.41-24.93,12.56-27.34,10.16-.85-.84-.75-3.24,3.17-9.92h0a49.35,49.35,0,0,1,27.59-14.32c4.27-.64,20.82-2.53,35.87,8.48A48.1,48.1,0,0,1,332.36,192.63Z"/><path d="M380.46,242.08s0,0,0,.06a9.28,9.28,0,0,1-.41,1.24s0,0,0,.05c-.16.4-.36.86-.61,1.38a39.39,39.39,0,0,1-7.71,5.24c-2.76,1.43-6.64,3-6.92,2.42-.11-.23.28-.8,5.06-4.62,9.6-7.65,10.36-7.17,10.55-7S380.61,241.39,380.46,242.08Z"/><path d="M379.16,235.4a5.62,5.62,0,0,1,0,1.23c-.24,2.2-1.82,3.92-4.05,5.26-5.76,3.46-15.88,4.39-18.33,4.59,4.64-2.58,9.56-5.13,14.74-7.6,2.27-1.08,4.52-2.1,6.74-3.08Z"/><path class="cls-26" d="M258.32,235l-.09.08a69.7,69.7,0,0,1-37.94,18.38,67.87,67.87,0,0,1-27.51-1.94c.21-3.15,1.07-6.64,3.66-9,7.36-6.62,20.82,3.22,39,1.27A50,50,0,0,0,258.32,235Z"/><path class="cls-27" d="M170.91,217.82h0a42.87,42.87,0,0,0-9.78,19.51c-54.57,17.49-92.06,12.81-112.53,7.8-7.12-1.74-22.63-5.53-31.84-11.57a92.27,92.27,0,0,0,35.76,9.15c2.67.11,5.25.1,7.71,0,2,.33,5.05.79,8.71,1.24,24.13,3,59.5,3.46,61.19-4.23.23-1,0-2.58-2.49-5a44.93,44.93,0,0,1,8-7.71C149.13,216.87,164.78,217.3,170.91,217.82Z"/><path class="cls-28" d="M351.43,210.94c-.18.45,2.65,2.14,5.09,3.21,8.6,3.78,17.86,2.27,17.9,1.5,0-.54-4.53-.41-15.08-3C354.75,211.51,351.61,210.5,351.43,210.94Z"/><path class="cls-29" d="M410,204.35a2,2,0,0,1,1.7.14c1.44.85,1.24,3.68.71,7.92-1,8.13-1.55,12.19-2.41,12.17-1.09,0-1.7-6.48-1.84-7.92C407.92,213.88,407.12,205.45,410,204.35Z"/><path d="M404.54,222.63q-1.73-8.13-3.43-16.27A53.81,53.81,0,0,1,398.28,225c-8.24,24-31.74,34.36-38.54,37.36C326.3,277.14,280,270.52,265.3,245.8a35.31,35.31,0,0,1-3.23-7.16l-3.84-3.53,1.53,7.07a11.41,11.41,0,0,0-1.85,6.06c.15,19,56.83,45,100.4,30a68.25,68.25,0,0,0,28.1-17.51C400.22,246.31,403.56,229.5,404.54,222.63Z"/><path class="cls-2" d="M410.9,199.1c-9.9-10.09-20-20.9-30.15-32.46q-10.11-11.49-19.22-22.7c.52-.33,7.53-4.81,6.91-10.66a7.52,7.52,0,0,0-.72-2.45,56.78,56.78,0,0,0-29-11.37,51,51,0,0,0-9,0c-.85-.36-2.22-.94-3.93-1.59-31.3-12-61.83-4.9-75.36-1.6a164.55,164.55,0,0,0-20.26,6.38,32.15,32.15,0,0,0-12.81-2.93c-1,0-1.87,0-2.75.1a124.73,124.73,0,0,0,7.15-24.39c.33-1.83,4.35-24.64-2.66-34.19A9,9,0,0,0,214,57.41c-3.44-.77-6.46,1.27-7.36,1.92a23.45,23.45,0,0,0-14.71-2.25,21.92,21.92,0,0,0-5.48,1.85,21.38,21.38,0,0,1-12.19-10.71,26.56,26.56,0,0,0,9.15-.17c12.22-2.41,18.16-12.77,18.6-13.58,1.13-2,6.63-12,2.24-20.34-5.19-9.82-20.46-10.3-29.42-8-.69.18-16.55,4.4-20.63,17.39-.61,2-2.44,7.79.36,13.65a16.16,16.16,0,0,0,4.6,5.68.72.72,0,0,1,0,.83.75.75,0,0,1-1,.21,6.84,6.84,0,0,0-.65-.91c-3.35-3.84-11.63-3.14-17.22-.37a19.82,19.82,0,0,0-3.46,2.21c.26-3.09.51-6.17.77-9.26-.3-.26-1.94-1.61-2.46-1.2-.11.09-.27.32-.09,1.11a39.31,39.31,0,0,0-16.82,14.1,36.29,36.29,0,0,0-3.48,6.8,18.05,18.05,0,0,0-5-10.87c-5-5-11.44-5.06-13.33-5.07-11.84-.09-19.51,10.28-21,12.28-.55.75-10.27,14.31-4.93,26.85a20.14,20.14,0,0,0,2.81,4.67c-2.27,1-2.69,1.4-2.64,1.62.32,1.2,16.7-1.41,32.37-6,3.15-.93,5.72-1.78,7.48-2.38a22.67,22.67,0,0,1,.34,3.4,21.34,21.34,0,0,1-.16,3.13c-2.89.76-18.63,5.09-24,16.42-1.28,2.69-4.1,8.58-1.5,13A7.85,7.85,0,0,0,87,115.52a9.48,9.48,0,0,0,.27,3.89,9.76,9.76,0,0,0,3.77,5.24,89,89,0,0,0-27.56,52.29c.85.36,1.71.71,2.56,1.08-5.57,1.18-18,4.69-27.27,15.78a43.88,43.88,0,0,0-6,9.38,75.41,75.41,0,0,0-20.23,9.5,30.29,30.29,0,0,1,17.6-15.05,55.18,55.18,0,0,1,28.62-24.46A104.32,104.32,0,0,1,63.37,157a106.92,106.92,0,0,1,20.3-33.5,24.11,24.11,0,0,1-4.44-14.13c.39-11.16,9.86-21.68,23.82-25.75a43.52,43.52,0,0,0-6.36,0c-13,.94-22.63,7.47-28,11.91-2-3.77-7.9-15.77-4.71-30.47C64.46,63,70.08,38.9,90,34.89,103.17,32.26,114,40,116.35,41.82c.63-.76,14.91-17.73,21-14.4,1,.53,3,2.26,2.78,9.41a12,12,0,0,1,6.92-3,11.24,11.24,0,0,1,3.6.26,24.18,24.18,0,0,1-.27-11.9C153.67,8.65,169.52-.15,183.65,0c.82,0,20.34.47,26,12.74,5.41,11.67-2.93,31.3-24.1,41.55l6.1.54a17.48,17.48,0,0,1,8.59-1.66,17,17,0,0,1,5,1.12c2.47-1.45,6.13-3,9.69-1.95,11.2,3.38,11.56,29.93,11.63,35.18a87.48,87.48,0,0,1-4.43,28.53l8,2.21a119.9,119.9,0,0,1,34.89-11.63c32.17-5.42,58.3,3.88,70.34,9.14,20,2.83,42.62,7.86,43.48,16.62.26,2.59-1.35,6-7.47,10.25,5.89,8.72,12.5,17.85,19.91,27.23,8,10.12,15.95,19.28,23.61,27.51,3.5-.37,5.33.48,6.36,1.43,4.69,4.28.91,17.71-8.9,34a2.56,2.56,0,0,1-1.27.62,2.72,2.72,0,0,1-.86,0,1.61,1.61,0,0,0,.29-.21,1.74,1.74,0,0,0,.48-.75c.59-2.09,4.35-15.42,5.52-23.76.09-.62.84-6.29-1.31-7.51-.19-.1-.39-.17-1.37-.62C412.6,200,411.57,199.44,410.9,199.1Z"/></g></g></svg>