<?xml version="1.0" encoding="utf-8"?>
<!-- Generator: Adobe Illustrator 26.0.3, SVG Export Plug-In . SVG Version: 6.00 Build 0)  -->
<svg version="1.1" id="Слой_1" xmlns="http://www.w3.org/2000/svg" xmlns:xlink="http://www.w3.org/1999/xlink" x="0px" y="0px"
	 viewBox="0 0 1920 259.76" style="enable-background:new 0 0 1920 259.76;" xml:space="preserve">
<style type="text/css">
	.st0{fill:#FFFFFF;}
</style>
<g>
	<path class="st0" d="M1866.52,9.55c-38.04-5.14-52.63,61.25-128.9,108.68c-85.5,53.17-184.04,42.42-202.21,40.44
		c-83.06-9.05-101.96-44.59-181.99-45.49c-54.53-0.62-98.83,15.28-126.38,27.8c-3.75-10.28-14.16-16.64-24.92-15.29
		c-10.51,1.31-18.92,9.69-20.3,20.3c-174.94-59.69-274.3-43.27-333.49-14.71c-14.81,7.14-20.32,11.77-36.07,16.39
		c-108.04,31.68-196.07-84.35-265.59-49.18c-21.29,10.76-14.14,22.24-36.77,41.95c-104.68,91.19-370.02-55.91-386.08-23.17
		c-5.69,11.61,24.13,37.38,20.39,40.9c-4,3.77-34.2-29.46-81.8-53.63C37.91,92.1,15.69,85.56,0,81.94v177.82h1920V76.06
		C1901.88,26.77,1882.76,11.74,1866.52,9.55z"/>
	<path class="st0" d="M1796.7,24.37c7.15-4.77,3.34-22.68-2.55-24.25c-5.67-1.51-17.79,10.93-14.04,19.14
		C1782.64,24.81,1791.97,27.53,1796.7,24.37z"/>
</g>
</svg>
