<?xml version="1.0" encoding="utf-8"?>
<!-- Generator: Adobe Illustrator 26.0.3, SVG Export Plug-In . SVG Version: 6.00 Build 0)  -->
<svg version="1.1" id="Слой_1" xmlns="http://www.w3.org/2000/svg" xmlns:xlink="http://www.w3.org/1999/xlink" x="0px" y="0px"
	 viewBox="0 0 539.13 185.05" style="enable-background:new 0 0 539.13 185.05;" xml:space="preserve">
<style type="text/css">
	.st0{fill:#FFFFFF;}
</style>
<g>
	<polygon class="st0" points="25.81,161.77 25.81,2.84 0,2.84 0,166.47 0,183.5 25.81,183.5 59.36,183.5 51.1,157.17 	"/>
	<polygon class="st0" points="67.1,2.84 67.1,183.76 90.33,183.76 92.91,183.76 92.91,2.84 90.33,2.84 	"/>
	<polygon class="st0" points="170.85,2.84 162.85,153.56 160.78,153.56 154.85,2.84 110.97,2.84 108.39,183.5 131.62,183.5 
		131.62,30.45 134.97,30.45 145.3,183.5 177.3,183.24 188.14,30.45 191.49,30.45 191.49,183.5 214.72,183.5 212.14,2.84 	"/>
	<path class="st0" d="M288.4,8.39c-5.94-5.42-14.15-8.13-24.65-8.13c-10.5,0-18.71,2.71-24.65,8.13c-5.94,5.42-8.9,13.81-8.9,25.16
		v115.62c0,7.57,0.81,13.72,2.45,18.45c1.63,4.73,3.96,8.39,6.97,10.97c3.01,2.58,6.67,4.3,10.97,5.16
		c4.3,0.86,9.03,1.29,14.19,1.29c5.16,0,9.76-0.52,13.81-1.55c4.04-1.03,7.44-2.88,10.19-5.55c2.75-2.67,4.86-6.36,6.32-11.1
		c1.46-4.73,2.19-10.71,2.19-17.94v-17.29h-24.78v11.36c0,5.51-0.43,10.07-1.29,13.68c-0.86,3.61-3.27,5.42-7.23,5.42
		c-3.96,0-6.45-1.81-7.48-5.42c-1.03-3.61-1.55-8.17-1.55-13.68V39.74c0-4.3,0.47-8.09,1.42-11.36c0.94-3.27,3.39-4.9,7.36-4.9
		c3.96,0,6.41,1.59,7.36,4.77c0.94,3.19,1.42,7.01,1.42,11.48V64h24.78V33.55C297.31,22.2,294.34,13.81,288.4,8.39z"/>
	<path class="st0" d="M369.83,8.39C363.97,2.8,355.8,0,345.31,0c-10.5,0-18.76,2.8-24.78,8.39c-6.02,5.59-9.03,14.07-9.03,25.42
		v115.11c0,7.74,0.77,13.98,2.32,18.71c1.55,4.73,3.83,8.39,6.84,10.97c3.01,2.58,6.62,4.3,10.84,5.16
		c4.21,0.86,8.9,1.29,14.07,1.29c4.99,0,9.5-0.43,13.55-1.29c4.04-0.86,7.52-2.58,10.45-5.16c2.92-2.58,5.2-6.23,6.84-10.97
		c1.63-4.73,2.45-10.97,2.45-18.71L378.6,33.81C378.6,22.45,375.67,13.98,369.83,8.39z M353.82,142.98c0,5.51-0.43,10.07-1.29,13.68
		c-0.86,3.61-3.27,5.42-7.23,5.42c-3.96,0-6.41-1.81-7.36-5.42c-0.95-3.61-1.42-8.17-1.42-13.68V40c0-4.3,0.52-8.17,1.55-11.61
		c1.03-3.44,3.44-5.16,7.23-5.16c1.89,0,3.4,0.48,4.52,1.42c1.12,0.95,1.98,2.19,2.58,3.74c0.6,1.55,0.99,3.31,1.16,5.29
		c0.17,1.98,0.26,4.09,0.26,6.32V142.98z"/>
	<path class="st0" d="M458.61,121.69c1.89-3.01,2.92-7.1,3.1-12.26l-0.26-81.56c0-7.74-2.5-13.85-7.48-18.32
		c-4.99-4.47-12.65-6.71-22.97-6.71h-36.65V183.5h25.81v-57.04v-6.97h1.55c0.09,0,0.18,0.04,0.27,0.06l11.09,63.95h28.39
		l-15.01-53.34c1.78-0.44,3.43-1.06,4.94-1.89C454.3,126.89,456.71,124.7,458.61,121.69z M420.15,114.59V26.84
		c6.19-2.06,10.45-1.98,12.77,0.26c2.32,2.24,3.48,6.28,3.48,12.13v66.84c0,1.21-0.17,2.54-0.52,4c-0.35,1.46-1.08,2.75-2.19,3.87
		c-1.12,1.12-2.75,1.81-4.9,2.06C426.64,116.27,423.76,115.8,420.15,114.59z"/>
	<polygon class="st0" points="503,162.45 503,101.69 525.71,101.69 525.71,75.36 503,75.36 503,23.88 530.87,29.16 539.13,2.84 
		503,2.84 479.77,2.84 477.19,2.84 477.19,183.5 479.77,183.5 503,183.5 539.13,183.5 530.87,157.17 	"/>
</g>
</svg>
