<?xml version="1.0" encoding="utf-8"?>
<!-- Generator: Adobe Illustrator 24.3.0, SVG Export Plug-In . SVG Version: 6.00 Build 0)  -->
<svg version="1.1" id="Слой_1" xmlns="http://www.w3.org/2000/svg" xmlns:xlink="http://www.w3.org/1999/xlink" x="0px" y="0px"
	 viewBox="0 0 168.51 67.13" style="enable-background:new 0 0 168.51 67.13;" xml:space="preserve">
<style type="text/css">
	.st0{fill:#22FF93;}
</style>
<path class="st0" d="M167.76,18.45l-0.33,0.38c-0.53-0.24-0.81-0.43-0.96-0.64c-0.58,0.01-1.1,0.52-2.26-0.13l0.35,0.08
	c-1.02-0.29-0.54-0.48-0.73-0.62l0.22,0.07l-0.79-0.48c0.61,0.34,1.79,0.31,1.22,0.16c-1.18-0.5,0.28,0.2-0.65-0.02
	c-0.57-0.15-0.34-0.34-0.28-0.47l-1.02-0.29c0.1-0.2,0.67,0.21,0.32-0.13l-1.35-0.16c-0.08-0.6-1.47-0.15-1.92-0.82
	c0.96,0.14-0.03-0.2,0.16-0.33l-2.28-0.62c-0.19-0.13,0.64,0,0.29-0.07c-0.39-0.26-0.74-0.07-0.97-0.13c-0.16-0.2-1.7-0.47-1.54-0.8
	c-1.48-0.66-0.77,0.27-2.16-0.32c-0.13-0.26,1.16,0.25,0.58-0.14l-1.52-0.32c0.16-0.07,0.38-0.27,0.93-0.07
	c-3.97-1.36-5.9-3.03-9.72-3.64c-0.47-0.38,0.42-0.08,0.84-0.16c-2.79-0.3-3.69-1.45-6.03-1.94l-0.09,0.2
	c-3.1-1.36-7.1-1.77-10.75-2.7l0.41,0.23c-0.55,0.11-1.37-0.01-1.99-0.02c-0.07-0.12,0.52-0.38-0.57-0.48
	c0.21,0.12,0.65,0.28,0.49,0.36c-3.08-1.13-9.84-2.07-15.1-2.91c-7.16-0.67-14.96-1.64-22.1-1.53c1.09,0,0.62,0.53-0.2,0.39
	c-2.24-0.95-3.88,0.21-6.18-0.38c-2.07,0.22-4.05,0.24-5.99,0.27c-1.94,0.11-3.85,0.27-5.74,0.83l-0.11-0.24
	c-0.59-0.03-0.73,0.17-1.33,0.28l0-0.07c-1.45,0.12-3.14,0.6-3.98,0.64l0,0.29c-0.84,0.19-0.48-0.13-1.32,0.2l0-0.15l-0.96,0.47
	c0-0.5-2.4,0.4-3.11,0.37c-1.07,0.37-3.07,1.08-4.74,1.44c-0.37-0.15-2.37,0.49-3.69,0.77c-2.45,0.91-5.91,2.34-8.94,3.79l0.2,0.27
	l-0.77,0.4c-0.02-0.07-0.14-0.05-0.04-0.14c-0.8-0.07-1.72,1.07-2.44,1.22c0.53,0.03,0.55-0.27,0.99-0.52
	c0.7-0.23,0.25,0.4-0.66,0.74l-0.02-0.07l-0.48,0.48c-0.19-0.18-0.77,0.02-0.97-0.16c-0.62,0.38-1.18,0.74-1.69,1.13
	c-0.49,0.41-0.97,0.81-1.44,1.21c-0.47,0.4-0.95,0.79-1.47,1.19c-0.52,0.39-1.07,0.79-1.65,1.27c0.05-0.42-1.59,1.46-1.46,0.69
	c-1.25,1.32,0.49,0.11,0.09,0.91c-0.39,0.32-0.69,0.76-0.88,0.69c0.1-0.24-0.51,0.04-0.23-0.26c-0.29,0.28-0.61,0.53-0.87,0.83
	c-0.11,0.06,0.03-0.19,0.1-0.3c-0.76,0.99-1.57,1.72-2.36,2.43c-0.4,0.36-0.79,0.71-1.16,1.08c-0.37,0.38-0.69,0.81-0.99,1.28
	c0.03,0.24,0.6-0.64,0.64-0.4c-1.12,1.93-1.5,1.3-2.52,3.1l0.05-0.49c-0.26,0.63-0.26,0.99-1.04,1.76
	c-0.35-0.01,0.33-0.89,0.53-1.39c-0.46,0.6-1.47,2.19-0.92,1.87c-0.42,0.79-0.81,0.91-1.14,1.27c0.05,0.05,0.62-0.58,0.45-0.08
	c-0.81,0.91-1.78,2.5-2.54,3.76c-0.06-0.05-0.2-0.01-0.17-0.14c-0.26,1.21-0.77,0.78-1.48,2.25c-1.99,3.88-3.92,9.14-5.37,13.23
	c0.07,1.02-0.34,2.33-0.61,3.7l-0.53,0.01c-0.05,0.39-0.09,0.79-0.13,1.19C8.94,53.35,9.32,52,8.94,52.79l0.2,0.51
	c-0.22,0.03-0.74,3.01-0.7,0.94c-0.12,0.55-0.2,1.12-0.29,1.7C8,55.37,7.56,54.34,7.4,53.62c-0.24-0.19-0.46-0.39-0.68-0.6
	l0.07-0.35c-0.14-0.08-0.45-0.7-0.44-0.25c-0.05-0.14-0.09-0.28-0.13-0.43c-0.43,0.11-0.33-0.55-0.78-1.35
	c0.01-0.22,0.13-0.2,0.24-0.03c-0.12-0.4,0.11-0.34,0.2-0.55c-0.17,0.07-1.2-1.28-1.06-0.14c-0.16,0.14-0.49-0.52-0.52-0.98
	l0.32-0.37l-0.55-0.41c-0.23-0.67-0.05-1.03-0.14-1.59c0.17,0.56,1.06,1.07,0.7-0.38c0.23,0.75,0.54,1.07,0.72,1.44
	c-0.06-0.3-0.05-0.46,0.22-0.04c-0.39-1.09-0.33-0.31-0.65-1.42c0.37-0.02,0.41-0.36,0.32-1.36l-0.1,0.79
	c-0.05-0.02-0.09-0.07-0.13-0.12c0.02,0.29-0.02,0.38-0.14,0.47c-0.04-0.22-0.73-1.21-0.54-1.45C4,45.76,3.51,42.58,3.32,43.38
	c-0.13-0.11-0.29-0.92-0.13-1.03c0.44,0.92,0.28-0.8,0.56-0.68c-0.16-0.34-0.13,0.8-0.35,0.34c-0.13-0.57,0.03-1.03,0.09-1.36
	l0.1,0.23l0.02-0.91c-0.2-0.12-0.17,0.91-0.39,0.1c0.04-0.23-0.17-1.03-0.02-1.03c0.3,0.36,0.58,0.03,0.75,0.71
	c-0.11-0.57-0.4-2.4-0.64-1.62l-0.08-0.69c-0.1,0.45-0.2,1.71-0.44,0.32l0.07,0l-0.39-0.94l0.13-0.45
	c-0.09,0.02-0.19-0.12-0.23-0.48c0.1-0.11,0.1-0.45,0.25-0.44c-0.13-1.04-0.3-0.94-0.42-1.07c-0.09-0.58-0.03-0.81,0.21-0.56
	c-0.03-0.81-0.2-2.21-0.05-2.77c-0.25-1.06-0.06,0.23-0.35-0.38C2.57,29.7,2,27.1,1.84,25.33c-0.51,0.49-0.13-0.4-0.56-0.74
	c0.17,0.02,0.32-1.61,0.53-0.2l-0.1-0.94c0.27-0.66,0.29,1.55,0.67,0.56c-0.06-1.05-0.7-1.72-0.53-2.98
	c0.4,0.41-0.16-0.96,0.28-0.66c0.15,0.25,0.12,0.6,0.16,0.95l0.07-0.22c0.04-2.32-0.48-0.66-0.78-1.86
	c-0.08-1.41,0.28-1.12,0.46-1.21c0.07-0.22,0-0.93-0.11-1.3c0.25,0.86-0.22,1.6-0.47,1.21c0.43-0.63,0-2.1-0.18-2.49
	c-0.44,2.03-0.01,1.4-0.47,3.31c0.15,0.26,0.54,0.2,0.41,1.35C1,19.41,1,20.18,0.94,20.38c0.22-0.23,0.12,0.79,0.23,1.13
	c-0.18,0.32-0.55-0.67-0.61,0.49l0.55,0.2c-0.06,0.46-0.4-0.18-0.24,0.78c-0.3-0.51-0.43,0.17-0.57-1.13
	c-0.4,1.58,0.34,2.38,0.6,3.58c-0.04-0.12-0.11-0.13-0.15-0.25c0.16,0.25,0.17,0.72,0.22,1.08c-0.08,0.8-0.28-0.62-0.42-0.4
	l0.09,1.29c-0.02,0.03-0.03,0.03-0.04,0.03c0.09,0.34,0.16,0.66,0.03,0.78c-0.2-0.37-0.38-0.51-0.54-0.77l0.46,1.34
	c-0.19-0.14-0.23,1.14-0.43,0.18l0.22,2.01L0,30.93c0.1,0.48,0.18,0.49,0.17-0.1c-0.04,0.7,0.9,2.99,0.15,2.7
	c0.45,1.55,0.39,2.13,0.81,4.01c-0.51-1.43-0.22,1.74-0.56,0.2c-0.04,0.93,0.38,1.07,0.54,1.78c-0.06,0.69-0.46,0.45-0.69-0.26
	L0.7,40.1l-0.07-0.01l0.32,0.71c-0.07,0.82-0.34,0.22-0.26,1.05l0.35,0.12l-0.09,0.58c0.11-0.23,0.26,0.24,0.38,0.82l-0.07,0
	l0.2,0.7c-0.33-0.67,0.06,0.67-0.23,0.38c0.11,0.62,0.1,0.63,0.4,1.72l0.17-0.24c0.5,1.39-0.31,0.13-0.07,1.3l0.23-0.13
	c-0.01,1.77,0.94,2.77,1.06,4.05c-0.27-0.68-0.5-0.42-0.42-0.43c0.39,1.03,0.92,2.77,1.64,3.72c-0.18,0.52-0.25,0.66,0.1,1.83
	c0.41,0.78,0.49,0.89,0.81,1.04c0.26,0.83,1.31,2.08,1.11,2.27c0.29,0.04,0.43,0.67,0.86,0.95l-0.02,0.15l0.15-0.22
	c0.23,0.67,0.65,1.1,1.11,1.46c0.03,0.15,0.05,0.31,0.1,0.52c-0.04,0.44-0.27-0.61-0.4-0.4c0.22,1.3,0.58,2.3,1.12,2.96
	c0.13,0.17,0.24,0.34,0.38,0.48c0.15,0.12,0.3,0.25,0.44,0.36c0.28,0.23,0.58,0.43,0.86,0.62c0.79,0.35,1.57,0.59,2.48,0.63
	c0.91,0.06,1.92,0.01,3.28-0.26l-0.41,0.17c0.84-0.28,2.39-0.89,2.38-0.98c-0.38-0.12-0.55,0.05-0.85,0.25
	c-0.29,0.21-0.72,0.49-1.46,0.5c0.06-0.24,0.5-0.41,0.9-0.58c0.4-0.19,0.77-0.35,0.68-0.5c0.53-0.15,0.94-0.33,1.3-0.57
	c0.08-0.05,0.13-0.09,0.2-0.14c0.69-0.17,1.35-0.34,1.58-0.49c0.49-0.09,0.4,0.13,0.17,0.29c1.76-0.92,0.88-0.25,2.55-1.27
	l0.03,0.14l0.51-0.45c0.32-0.06,0.65-0.11,0.98-0.18l-0.39,0c0.54-0.33,0.82-0.61,1.49-0.92l-0.14,0.33
	c1.44-1.03,1.93-0.81,3.11-2.03c0.12-0.04-0.05,0.17-0.14,0.28c1.03-1.19,1.17-0.39,2.13-1.68c-0.03,0.12,0.16,0.08,0.15,0.16
	l0.45-0.55l0.14,0.26l0.16-0.69l0.52-0.05l0.11-0.28c0.93-0.07,1.44-1.09,2.47-1.49l-0.38-0.15c1.35-2.29,4.47-3.83,6.25-6.4
	l0.18,0.23l0.57-1.19c0.62-0.37-0.08,0.47,0.17,0.41c0.76-1.15,0.05-0.71,0.99-1.98c0.66-0.5-0.01,0.35-0.18,0.71
	c0.84-1.23,2.07-3.05,2.82-3.82c-0.02-0.04-0.02-0.13-0.07-0.09c0.49-0.88,1.36-1.87,1.97-2.87c0.1,0.1-0.04,0.36-0.18,0.61
	c0.24-0.33,0.63-0.78,0.72-1.22l-0.03,0.55c0.14-0.2,0.28-0.45,0.48-0.86c0.06-0.13,0.09-0.19,0.18-0.44
	c0.04-0.13,0.06-0.12,0.14-0.5c0.03-0.15,0.05-0.3,0.06-0.45l0.01-0.1c0-0.09,0-0.19-0.01-0.29c-0.01-0.2-0.05-0.4-0.11-0.61
	c-0.12-0.41-0.34-0.8-0.58-1.09c-0.22-0.27-0.65-0.62-1.16-0.81c-0.52-0.2-1.09-0.22-1.51-0.14l-0.12,0.03l-0.06,0.02l-0.12,0.03
	l-0.24,0.08c-0.14,0.05-0.36,0.16-0.41,0.19l-0.14,0.08l-0.25,0.17l-0.14,0.11c-0.35,0.27-0.53,0.44-0.71,0.57
	c-0.17,0.12-0.31,0.19-0.39,0.17c0.16,0.01,0.26,0.21-0.29,0.7c-0.61-0.04-1.3,1.49-2.27,2.11c0.02-0.17,0.61-0.77,0.43-0.61
	c-0.49,0.32-0.71,0.82-0.97,1.27l-0.01-0.23l-1.71,2.02c-0.59-0.04-1.73,1.77-1.83,1.42c-0.68,0.64,0.7-0.41-0.12,0.45
	c-0.35,0.09-0.71,0.81-0.87,0.57l0.07-0.11l-0.58,0.59l0.18-0.56c-0.47,0.54-0.65,1.1-0.53,1.28c-0.6,0.35-1.2,1.1-1.6,1.12
	l0.13-0.22c-1.3,1.38-2.81,1.56-3.57,2.91c-0.11,0.04-0.15-0.02,0.03-0.17l-0.87,0.76l0.06-0.34l-1.21,1.52l-0.08-0.12
	c-0.98,0.79-2.42,2.13-3.64,3.17l0.14-0.2c-1.22,1.27-1.4,0.95-2.3,1.84c0.01-0.06,0.04-0.09,0.07-0.13l-0.9,0.68l0.12-0.26
	c-0.49,0.76-2.15,1.03-1.58,0.95c-0.3,0.37-0.86,0.94-0.88,1.16c-0.98,0.62-0.34,0-1.01,0.25c-0.36,0.2-0.53,0.35-0.74,0.52
	c-0.15,0.1-0.15,0.12-0.18,0.14c-0.04,0.02-0.09,0.04-0.16,0.03l-0.03-0.15c-0.08,0.06-0.14,0.2-0.32,0.26l0.06-0.09
	c-0.15,0.19-0.23,0.09-0.26,0.01c-0.04-0.09-0.04-0.14-0.28,0.04c-0.03,0.02-0.06,0.04-0.09,0.07c-0.01-0.2-0.16-0.35,0.12-0.54
	c-0.23-0.26-0.38-0.02-0.3-1.85c0.5-0.17,0-0.31,0.42-1.16l-0.26,0.02c0.34-2.12,1.64-4.42,2.36-6.76L18,49.71l-0.1-0.56
	c1-2.47,2.47-5.62,3.42-7.53c0.19-0.69,0.39-1.78,0.99-2.73l-0.02,0.12c0.78-1.78,1.71-3.63,2.97-5.33c0.02,0.17,0.2,0.03,0.13,0.27
	c0.03-0.58,0.65-1.05,0.91-1.41l-0.45,0.33c0.13-0.63,0.8-1.22,1.13-1.35l0.32-0.93c0.06-0.04,0.14-0.09,0.18-0.08l-0.01-0.21
	l0.57-0.2c0.08-0.23,0.76-1.26,0.75-1.76c0.14,0,0.75-0.63,0.38-0.06c0.36-0.44,0.75-0.85,1.12-1.27c0.39-0.4,0.8-0.79,1.2-1.18
	l-0.45,0.3c-0.24-0.12,0.36-0.97,0.81-1.27c-0.33,0.64,0.22,0.29,0.56,0.21c0.22-0.43-0.44,0.13-0.37-0.14
	c0.29-0.53,1.05-1.51,1.38-1.61c-0.06,0.1-0.14,0.19-0.19,0.31c0.52-0.59,1.11-0.49,1.67-1.01c0.39-0.61,0.9-0.8,0.51-1.04
	c0.71-0.73,0.48-0.02,0.76-0.2c0.2-0.5,1.44-1.21,1.72-1.13c0.08-0.84,2.34-1.37,2.2-1.94c0.27-0.09,0.58-0.12,0.87-0.18
	c-0.05-0.14-0.08-0.49,0.47-0.89c0.63-0.19,0.63,0.11,0.87,0.14l0.1-0.68c1.69-0.75,3.68-1.55,5.64-2.48c1-0.42,2.05-0.79,3.07-1.16
	c0.51-0.17,1.02-0.35,1.52-0.51c0.52-0.13,1.03-0.24,1.53-0.34c0.84-0.34,1.8-0.72,2.79-1.12c1.01-0.35,2.08-0.65,3.12-0.88
	l-0.21,0.13c0.7-0.12,1.39-0.26,2.09-0.37c-0.52,0.03-1.03,0.09-1.55,0.13c0.43-0.17,0.76-0.36,1.2-0.47
	c2.35-0.24,5.43-0.6,8.27-1.23c1.78-0.88,1.29,0.34,3.03-0.28c-0.15,0.07-0.19,0.16-0.32,0.24c1.91-0.38,2.93-0.64,4.85-1.12
	c-0.18,0.62,1.27-0.09,1.11,0.24l0.15-0.26c0.44,0.13,1.46,0.12,1.33,0.31l0.84-0.36l0.09,0.25c1.13-0.06,3.59-0.28,4.19,0.21
	c2.82-0.46,7.3-0.26,10.85,0.02c0.51-0.19,1.55-0.17,2.37-0.12l0.85,0.37c0.83-0.04,1.74-0.36,2.49-0.11
	c-0.01,0.03-0.04,0.06-0.1,0.07c0.84-0.01,1.63,0.22,2.44,0.02c0.92,0.1,1.8,0.35,1.49,0.61c0.14-0.49,1.94,0.26,1.94,0.26
	s2.94,0.38,7.51,1.08c4.58,0.68,10.78,1.78,17.32,3.09c13.09,2.57,27.44,6.29,33.42,6.74c0.45-0.12,1.54,0.05,1.23-0.36
	c0.83,0.16,1.07,0.7,1.3,0.51c-1.04-0.5,0.53-0.51-0.44-1.14l0.7,0.16C168.69,18.68,167.5,18.7,167.76,18.45z"/>
</svg>
