<?xml version="1.0" encoding="utf-8"?>
<!-- Generator: Adobe Illustrator 24.3.0, SVG Export Plug-In . SVG Version: 6.00 Build 0)  -->
<svg version="1.1" id="Слой_1" xmlns="http://www.w3.org/2000/svg" xmlns:xlink="http://www.w3.org/1999/xlink" x="0px" y="0px"
	 viewBox="0 0 174.95 52.11" style="enable-background:new 0 0 174.95 52.11;" xml:space="preserve">
<style type="text/css">
	.st0{fill:#22FF93;}
</style>
<g>
	<path class="st0" d="M31.83,34.48c0.84-1.01,1.45-2,1.89-2.97c0.37,1.03,0.78,2.1,1.28,3.26c0.72,1.67,1.67,3.47,2.85,5.4l1.4-0.12
		c-0.42-0.37-0.63-0.61-0.64-0.69l0.04-0.09c0-0.03-0.04-0.13-0.12-0.3l0.48-0.04c0.04,0.11,0.12,0.25,0.26,0.4
		c0.13,0.15,0.28,0.3,0.44,0.45c0.16,0.15,0.33,0.27,0.5,0.35c0.17,0.09,0.31,0.13,0.43,0.12c0.09-0.01,0.13-0.08,0.11-0.23
		l-0.01-0.09c-0.01-0.09,0.06-0.14,0.21-0.15c0.26-0.02,0.74,0.08,1.44,0.31c0.02-0.12,0.12-0.18,0.29-0.18
		c0.18,0,0.25-0.16,0.22-0.48c-0.02-0.26-0.16-0.77-0.4-1.53c-0.25-0.76-0.54-1.64-0.88-2.64c-0.34-1-0.69-2.07-1.06-3.2
		c-0.37-1.13-0.67-2.23-0.91-3.3c-0.1-0.4-0.2-0.96-0.3-1.67c-0.11-0.71-0.22-1.49-0.34-2.33c-0.12-0.84-0.24-1.71-0.36-2.6
		c-0.12-0.89-0.23-1.7-0.33-2.45c-0.1-0.74-0.17-1.37-0.23-1.88c-0.06-0.51-0.11-0.82-0.15-0.94c-0.24-0.74-0.71-1.23-1.41-1.44
		s-1.5-0.29-2.4-0.21c-0.26,0.02-0.52,0.06-0.76,0.11c-0.25,0.05-0.35,0.25-0.32,0.6l-0.48,0.04c-0.11,0.13-0.15,0.26-0.14,0.41
		c-0.16-0.13-0.29-0.25-0.39-0.36c-0.23,0.02-0.42,0.37-0.57,1.04c-0.14,0.68-0.15,1.75-0.02,3.21c0.08,0.88,0.18,1.79,0.31,2.73
		c0.13,0.95,0.28,1.87,0.45,2.77c0.01,0.05,0.02,0.09,0.03,0.13c-0.34-0.1-0.7-0.19-1.11-0.26c-1.73-0.26-3.66-0.51-5.77-0.75
		c-2.11-0.24-4.25-0.54-6.4-0.91c-1.22-0.19-2.46-0.44-3.71-0.75s-2.39-0.66-3.43-1.04c-1.04-0.38-1.89-0.78-2.56-1.21
		c-0.67-0.43-1.03-0.84-1.06-1.25c-0.02-0.26,0.15-0.5,0.53-0.71c0.38-0.21,0.9-0.41,1.56-0.58c0.25-0.17,0.57-0.27,0.95-0.3
		c0.55-0.05,1.17,0.1,1.85,0.45c0.68,0.35,1.32,0.77,1.92,1.26c0.6,0.49,1.1,0.98,1.5,1.48c0.4,0.49,0.61,0.86,0.63,1.09l0.02,0.18
		c0.06,0,0.12,0,0.18,0.01c0.06,0.01,0.12,0.01,0.18,0.01c0.5-0.04,0.96-0.18,1.38-0.41c0.42-0.23,0.89-0.44,1.4-0.63
		c0.08-0.36,0.17-0.64,0.26-0.84c0.09-0.2,0.18-0.35,0.29-0.45c0.11-0.1,0.25-0.17,0.42-0.21c0.17-0.04,0.39-0.08,0.65-0.1
		l0.88-0.08c-0.1-0.43-0.25-0.91-0.46-1.44c-0.21-0.52-0.48-1.02-0.82-1.5c-0.34-0.47-0.73-0.87-1.19-1.2
		c-0.46-0.33-1-0.49-1.61-0.5c0.01,0.15,0.1,0.33,0.27,0.55c-1.71-0.38-3.29-0.73-4.73-1.06c-1.44-0.33-2.81-0.43-4.09-0.32
		c-0.88,0.08-1.91,0.34-3.11,0.79c-1.2,0.45-2.33,1.03-3.4,1.74c-1.07,0.71-1.96,1.53-2.68,2.45c-0.71,0.92-1.02,1.89-0.93,2.91
		c0.11,1.29,0.97,2.32,2.57,3.11c1.6,0.79,3.83,1.48,6.68,2.08c0.75,0.17,1.69,0.32,2.82,0.45c1.13,0.14,2.33,0.27,3.59,0.41
		c1.26,0.14,2.53,0.3,3.8,0.48c1.27,0.18,2.41,0.4,3.44,0.67c1.02,0.26,1.87,0.58,2.54,0.94c0.67,0.37,1.02,0.81,1.07,1.34
		c0.07,0.76-0.3,1.51-1.1,2.24c-0.8,0.74-1.82,1.41-3.04,2.02c-1.23,0.61-2.55,1.13-3.97,1.55c-1.42,0.42-2.7,0.68-3.84,0.78
		c-1.17,0.1-2.08,0-2.72-0.31c-0.65-0.31-1.01-0.93-1.09-1.87c-0.06-0.67,0.08-1.3,0.43-1.89c0.35-0.59,0.74-1.14,1.18-1.65
		c0.44-0.51,0.85-0.99,1.22-1.43c0.37-0.45,0.54-0.87,0.5-1.28c-0.02-0.26-0.25-0.43-0.69-0.49c-0.43-0.06-0.84-0.08-1.22-0.04
		c-0.32,0.03-0.68,0.12-1.08,0.27c-0.4,0.15-0.82,0.32-1.26,0.51C9.4,30.4,8.96,30.6,8.5,30.81c-0.45,0.22-0.86,0.4-1.23,0.55
		l0.04,0.44c-0.65,0.29-1.23,0.68-1.73,1.15c-0.5,0.47-0.92,1.01-1.25,1.61c-0.33,0.6-0.57,1.24-0.71,1.92
		c-0.15,0.68-0.19,1.34-0.13,1.98c0.07,0.79,0.3,1.52,0.68,2.19c0.38,0.67,0.95,1.23,1.69,1.66c-0.28,0.17-0.45,0.29-0.5,0.35
		c1.82,1.25,4.1,1.75,6.85,1.51c2.72-0.24,5.34-0.84,7.86-1.81c2.52-0.96,4.78-2.12,6.78-3.48C28.86,37.54,30.51,36.07,31.83,34.48z
		"/>
	<path class="st0" d="M30.17,11.82c0.41,0.41,1.03,0.57,1.88,0.5c1.67-0.15,3.27-0.85,4.8-2.11c0.02-0.12,0.05-0.3,0.08-0.54
		c-0.26-0.24-0.49-0.9-0.71-1.97c-0.14-0.61-0.45-0.89-0.91-0.85c-0.35,0.03-0.83,0.28-1.44,0.75c0.02-0.06,0.05-0.13,0.07-0.21
		c0.02-0.08,0.04-0.17,0.06-0.29c-0.06-0.05-0.13-0.14-0.2-0.27c-0.07-0.13-0.16-0.26-0.26-0.4c-0.02,0.09-0.06,0.17-0.11,0.23
		c-0.05,0.06-0.09,0.11-0.12,0.14c-0.24-0.07-0.48-0.09-0.71-0.07c-0.41,0.04-0.92,0.19-1.53,0.45c-0.61,0.26-1.1,0.45-1.47,0.57
		c-0.12,0.6-0.17,1.08-0.14,1.45c0.03,0.37,0.03,0.65-0.01,0.86C29.53,10.84,29.77,11.42,30.17,11.82z"/>
	<path class="st0" d="M46.2,34.81c1.23,0.44,2.65,0.73,4.25,0.88c1.6,0.15,3.33,0.15,5.17-0.02c1.2-0.11,2.42-0.32,3.65-0.64
		c1.24-0.32,2.42-0.69,3.54-1.13c1.12-0.44,2.14-0.94,3.05-1.49c0.91-0.55,1.63-1.12,2.17-1.7c0.65,1.03,1.37,2.18,2.16,3.43
		c0.79,1.26,1.54,2.54,2.24,3.84c0.71,1.31,1.31,2.57,1.82,3.79c0.51,1.22,0.8,2.31,0.89,3.28c0.04,0.47-0.12,0.76-0.5,0.86
		c-0.38,0.11-1.12,0.21-2.23,0.31c-5.7,0.51-10.62,0.18-14.76-0.98c-0.57-0.13-0.87-0.35-0.9-0.67c0-0.06,0.09-0.35,0.28-0.86
		c0.19-0.52,0.54-1.06,1.05-1.64c0.32-0.38,0.68-0.72,1.08-1.02c0.4-0.3,0.66-0.49,0.77-0.55l-0.05-0.57
		c0.08-0.07,0.15-0.11,0.21-0.13c0.06-0.02,0.11-0.05,0.17-0.08l0.17-0.1c0.03,0,0.02,0.01-0.04,0.05c-0.06,0.03-0.08,0.07-0.08,0.1
		c0,0.03,0.02,0.04,0.05,0.04c0.15-0.01,0.3-0.12,0.46-0.31c0.16-0.19,0.24-0.32,0.23-0.37c-0.01-0.09-0.06-0.16-0.17-0.21
		c-0.11-0.05-0.17-0.15-0.18-0.29c0-0.06,0.02-0.09,0.08-0.09l-0.39,0.12l-0.04,0.09l-0.37-0.14l-0.13,0.05l0.12-0.19
		c-0.16-0.1-0.35-0.17-0.57-0.21c-0.22-0.04-0.35-0.06-0.38-0.05c-0.09,0.01-0.23,0.06-0.43,0.17c-0.82,0.37-1.7,0.78-2.63,1.23
		c-0.93,0.45-1.79,1.02-2.59,1.71c-0.33,0.26-0.72,0.68-1.17,1.23c-0.45,0.56-0.89,1.16-1.32,1.82c-0.43,0.66-0.78,1.34-1.06,2.04
		c-0.28,0.7-0.39,1.35-0.33,1.93c0.05,0.58,0.29,1.06,0.72,1.44c0.43,0.37,1.12,0.59,2.07,0.66c0.56,0.04,1.3,0.12,2.21,0.24
		c0.91,0.12,1.93,0.26,3.06,0.41c1.13,0.15,2.35,0.3,3.64,0.45c1.29,0.15,2.6,0.28,3.92,0.38c1.32,0.1,2.62,0.17,3.91,0.2
		c1.29,0.03,2.5,0,3.64-0.1c0.5-0.04,0.99-0.1,1.49-0.18c0.5-0.07,0.96-0.17,1.39-0.3c0.72-0.21,1.47-0.65,2.25-1.31
		c0.78-0.66,1.49-1.43,2.11-2.31c0.63-0.88,1.14-1.8,1.52-2.76c0.38-0.96,0.54-1.87,0.46-2.72c-0.02-0.2-0.07-0.45-0.15-0.74
		c-0.48-1.43-1.07-2.87-1.78-4.33c-0.7-1.45-1.48-2.89-2.33-4.32c-0.85-1.43-1.73-2.83-2.65-4.2c-0.92-1.38-1.8-2.7-2.65-3.98
		c-0.75-1.08-1.29-1.95-1.62-2.59c-0.34-0.65-0.58-1.25-0.74-1.81c-0.15-0.56-0.27-1.15-0.36-1.78c-0.08-0.63-0.25-1.47-0.49-2.54
		c-0.23-0.95-0.64-1.75-1.21-2.41c-0.57-0.66-1.25-1.18-2.02-1.56c-0.77-0.39-1.6-0.65-2.48-0.77c-0.88-0.13-1.73-0.15-2.55-0.08
		c-1.37,0.12-2.78,0.48-4.21,1.08c-1.43,0.6-2.83,1.34-4.18,2.23c-1.35,0.89-2.64,1.89-3.88,3.02c-1.24,1.13-2.33,2.31-3.29,3.54
		c-0.42,0.54-0.84,1.2-1.26,1.99s-0.78,1.62-1.1,2.48c-0.32,0.87-0.57,1.73-0.76,2.59C42,29.08,41.94,29.86,42,30.56
		c0.09,0.97,0.5,1.81,1.24,2.52C43.98,33.8,44.97,34.37,46.2,34.81z M50.06,26.31c0.36-0.95,0.85-1.88,1.47-2.8
		c0.62-0.92,1.35-1.82,2.17-2.69c0.82-0.87,1.66-1.63,2.51-2.3c0.85-0.67,1.69-1.21,2.5-1.64c0.82-0.43,1.53-0.67,2.14-0.72
		c0.67-0.06,1.32,0.09,1.94,0.45c0.62,0.36,0.96,0.87,1.02,1.54c0.03,0.38-0.02,0.81-0.15,1.29c-0.4,0.12-0.6,0.23-0.59,0.32
		c0.01,0.06,0.09,0.11,0.26,0.15c0.17,0.04,0.25,0.11,0.26,0.2c0.01,0.15-0.11,0.29-0.36,0.43c0.04,0.14,0.08,0.26,0.1,0.35
		c0.02,0.09,0.04,0.16,0.04,0.22c0,0.03-0.01,0.09-0.05,0.18c-0.04,0.09-0.24,0.39-0.6,0.89c0.17-0.02,0.33,0.04,0.46,0.16
		c0.13,0.12,0.22,0.27,0.28,0.44c0.06,0.17,0.1,0.36,0.14,0.56c0.03,0.2,0.05,0.36,0.06,0.48c0.07,0.73,0.04,1.38-0.07,1.95
		c-0.11,0.57-0.34,1.11-0.7,1.61c-0.35,0.5-0.85,0.99-1.5,1.46c-0.65,0.47-1.5,0.99-2.54,1.55c-0.56,0.32-1.18,0.57-1.85,0.76
		c-0.68,0.19-1.35,0.32-2.02,0.38c-1.31,0.12-2.5-0.03-3.55-0.44c-1.05-0.41-1.65-1.12-1.8-2.14C49.56,28.14,49.7,27.25,50.06,26.31
		z"/>
	<path class="st0" d="M70.75,17.7c0.51,1.22,1.13,2.61,1.87,4.16c0.74,1.55,1.56,3.17,2.44,4.84c0.88,1.67,1.77,3.23,2.65,4.67
		c0.88,1.44,1.7,2.66,2.47,3.67c0.77,1.01,1.41,1.62,1.93,1.84c0.03-0.03,0.07-0.05,0.13-0.06c0.06,0,0.13,0,0.22,0.02
		c0.09,0.02,0.18,0.03,0.27,0.02c0.15-0.01,0.29-0.03,0.44-0.06c0.15-0.03,0.29-0.05,0.44-0.06c0.41-0.04,0.75-0.05,1.04-0.03
		c0.28,0.02,0.56,0.05,0.83,0.08c0.27,0.03,0.54,0.06,0.8,0.08s0.6,0.01,1.01-0.02c0.2-0.02,0.42-0.04,0.63-0.08
		c0.22-0.03,0.44-0.08,0.67-0.13c0.04-1.15,0.06-2.44,0.05-3.87c-0.01-1.43,0-2.89,0.03-4.4c0.03-1.5,0.09-2.98,0.2-4.44
		s0.3-2.75,0.58-3.9c0.67,0.97,1.36,2.09,2.07,3.37c0.7,1.28,1.42,2.59,2.16,3.94c0.74,1.35,1.5,2.67,2.28,3.95
		c0.78,1.29,1.56,2.41,2.35,3.37c0.04-0.18,0.06-0.3,0.06-0.36c-0.01-0.09-0.04-0.2-0.1-0.34c-0.06-0.14-0.16-0.37-0.3-0.68
		l0.48-0.04c0.22,0.51,0.41,0.99,0.57,1.43c0.16,0.44,0.35,0.85,0.57,1.21c0.22,0.36,0.5,0.69,0.84,0.99
		c0.33,0.29,0.78,0.55,1.33,0.76c0.18-0.02,0.33-0.07,0.45-0.15c0.12-0.08,0.29-0.17,0.49-0.24c0.06-0.01,0.14,0.07,0.24,0.22
		c0.1,0.15,0.2,0.23,0.28,0.22c0.35-0.03,0.69-0.16,1.03-0.38c0.33-0.22,0.62-0.48,0.86-0.76c0.24-0.29,0.43-0.56,0.57-0.82
		c0.14-0.26,0.2-0.44,0.2-0.53c-0.02-0.26-0.1-0.56-0.23-0.89c-0.13-0.33-0.29-0.64-0.46-0.95c-0.18-0.34-0.39-0.69-0.62-1.05
		c-1.17-1.84-2.23-3.73-3.2-5.68s-1.89-3.91-2.76-5.9c-0.87-1.98-1.71-3.98-2.52-5.98c-0.81-2-1.66-4-2.54-5.98
		c-0.11-0.23-0.24-0.39-0.4-0.5c-0.16-0.1-0.34-0.18-0.55-0.22c-0.21-0.04-0.45-0.08-0.72-0.11c-0.27-0.04-0.55-0.1-0.86-0.19
		l-0.04-0.48c-0.45-0.05-0.83-0.06-1.15-0.03c-0.35,0.03-0.67,0.1-0.95,0.22c-0.29,0.11-0.57,0.24-0.85,0.39
		C87.73,8,87.42,8.13,87.1,8.24c-0.33,0.12-0.7,0.2-1.11,0.23c-0.18,0.02-0.33,0.1-0.46,0.26c-0.13,0.16-0.25,0.35-0.35,0.56
		c-0.1,0.22-0.19,0.44-0.27,0.69c-0.08,0.24-0.16,0.44-0.23,0.6c-0.89,1.93-1.58,3.8-2.08,5.6c-0.5,1.8-0.94,3.6-1.31,5.4
		c-0.31-0.53-0.66-1.16-1.03-1.9c-0.38-0.73-0.75-1.49-1.13-2.26c-0.38-0.78-0.75-1.53-1.11-2.26c-0.36-0.73-0.67-1.37-0.92-1.91
		c-0.59-0.01-1.1,0.01-1.54,0.05c-0.44,0.04-0.83,0.07-1.18,0.11c-0.55,0.05-1.1,0.12-1.64,0.21c-0.54,0.09-1.32,0.29-2.36,0.59
		c-0.28,0.11-0.45,0.22-0.5,0.31c-0.05,0.09-0.07,0.27-0.04,0.53C69.94,15.59,70.25,16.48,70.75,17.7z"/>
	<path class="st0" d="M117.15,21.69c-0.01,0.15-0.02,0.3,0,0.46c0.01,0.16,0.03,0.32,0.04,0.46c0.17,1.87,0.66,3.46,1.46,4.77
		c0.81,1.31,1.79,2.37,2.94,3.18c1.15,0.81,2.4,1.38,3.75,1.7c1.35,0.32,2.65,0.43,3.87,0.32c0.67-0.06,1.25-0.17,1.74-0.33
		c1.06-0.3,2.17-0.65,3.33-1.05c1.16-0.4,2.24-0.89,3.25-1.48c1.01-0.59,1.87-1.29,2.6-2.09c0.72-0.8,1.18-1.77,1.37-2.91
		c0.08-0.07,0.17-0.12,0.27-0.16c0.1-0.04,0.22-0.09,0.36-0.17c0.17-1.07,0.29-2.06,0.35-2.97c0.07-0.9,0.05-1.88-0.04-2.93
		c0.05-0.06,0.19-0.14,0.42-0.22c-0.29-0.59-0.52-1.28-0.69-2.06c-0.12-0.52-0.21-1.08-0.31-1.63c0.2,0.46,0.41,0.92,0.61,1.39
		c0.62,1.45,1.27,2.94,1.97,4.46c1.07,2.38,1.95,4.67,2.64,6.86c0.7,2.19,1.31,4.37,1.84,6.53c0.53,2.16,1.06,4.33,1.58,6.51
		c0.52,2.18,1.13,4.46,1.85,6.84l0.74-0.07c0.03,0.06,0.07,0.15,0.11,0.28c0.04,0.13,0.1,0.26,0.17,0.41
		c0.3-0.23,0.53-0.42,0.68-0.57c0.15-0.15,0.26-0.25,0.35-0.32c0.08-0.07,0.16-0.12,0.23-0.15c0.07-0.04,0.19-0.06,0.37-0.08
		l1.45-0.13c-0.02-0.18,0.04-0.34,0.18-0.48c0.13-0.15,0.31-0.27,0.52-0.38c0.21-0.11,0.45-0.2,0.7-0.28
		c0.26-0.08,0.49-0.16,0.69-0.24c0.07-0.56,0.06-1.26-0.01-2.08c-0.08-0.88-0.22-1.82-0.43-2.83c-0.21-1.01-0.43-2.02-0.67-3.03
		c-0.24-1.01-0.46-1.99-0.68-2.94c-0.22-0.95-0.38-1.84-0.48-2.65c0.23-0.02,0.47,0.01,0.71,0.09c0.24,0.08,0.48,0.11,0.71,0.09
		c0.09-0.01,0.16-0.03,0.21-0.06c2.44-0.78,4.57-1.63,6.4-2.56c1.83-0.9,3.44-2.19,4.82-3.88c1.38-1.68,2.53-3.52,3.44-5.5
		c0.91-1.98,1.56-4.01,1.95-6.09c0.39-2.08,0.51-3.98,0.35-5.71c-0.13-1.49-0.45-2.85-0.96-4.07c-0.51-1.22-1.23-2.26-2.16-3.12
		l-0.75,0.07c-0.07-0.11-0.12-0.2-0.16-0.27c-0.04-0.07-0.07-0.13-0.11-0.19c-1.92-0.39-3.7-0.51-5.33-0.36
		c-1.99,0.18-3.71,0.71-5.16,1.61c-1.45,0.9-2.72,2.02-3.81,3.39c-1.09,1.36-2.04,2.88-2.86,4.54c-0.82,1.66-1.6,3.35-2.33,5.07
		c-0.36-0.76-0.67-1.41-0.93-1.95c-0.25-0.54-0.48-1.02-0.68-1.46c-0.2-0.44-0.38-0.83-0.55-1.19c-0.16-0.35-0.35-0.73-0.54-1.14
		c-0.2-0.41-0.43-0.86-0.7-1.35c-0.26-0.49-0.58-1.09-0.93-1.79c-0.09,0.01-0.17,0.02-0.24,0.04c-0.07,0.02-0.15,0.04-0.24,0.04
		c-0.5,0.04-0.99,0.04-1.48-0.02c-0.49-0.06-1-0.07-1.53-0.02l-0.44,0.04l-0.1,0.41c-0.32,0-0.59-0.02-0.8-0.06l0.07,0.75
		c-0.66,0.21-1.17,0.45-1.52,0.73c-0.22,0.17-0.47,0.32-0.74,0.46c-0.14-0.16-0.28-0.32-0.44-0.45c-0.46-0.36-1.07-0.5-1.83-0.43
		c-0.64,0.06-1.38,0.27-2.2,0.64l-0.05-0.57c-0.17,0.04-0.33,0.13-0.46,0.26l0.13,1.4c-0.58-0.19-0.89-0.27-0.95-0.27l-0.04,0
		c-0.03,0-0.11,0.01-0.24,0.02c-0.13,0.01-0.33,0.02-0.6,0.01c-0.19,0.58-0.4,0.91-0.64,1.01c-0.24,0.1-0.5,0.24-0.78,0.44
		l0.15,1.67c0.12,0.05,0.25,0.11,0.39,0.19c0.14,0.08,0.28,0.14,0.44,0.18c0.54,1.07,0.95,2.12,1.23,3.14
		c0.28,1.02,0.47,2.01,0.55,2.98c0.12,1.32,0.08,2.53-0.12,3.66c-0.2,1.12-0.5,2.1-0.91,2.93s-0.9,1.5-1.46,2.01
		c-0.56,0.51-1.13,0.79-1.71,0.84c-0.67,0.06-1.36-0.2-2.08-0.76c-0.71-0.57-1.39-1.51-2.02-2.82c-0.63-1.31-1.21-3.04-1.72-5.19
		c-0.52-2.15-0.91-4.77-1.19-7.87c-0.13-1.49-0.24-3.15-0.31-4.96c-0.23,0.05-0.49,0.08-0.77,0.09c-0.28,0.01-0.54,0.05-0.79,0.11
		c-0.24,0.07-0.46,0.18-0.65,0.35c-0.19,0.17-0.3,0.43-0.33,0.78c-0.18-0.04-0.36-0.07-0.54-0.08c-0.18-0.01-0.37-0.03-0.58-0.04
		c-0.02,0.09-0.11,0.25-0.27,0.47c-0.16,0.22-0.33,0.45-0.51,0.69c-0.18,0.24-0.37,0.45-0.56,0.62c-0.19,0.18-0.34,0.29-0.46,0.33
		c-0.37,2.1-0.65,4.13-0.85,6.11c-0.19,1.98-0.24,4.02-0.14,6.13L117.15,21.69z M156.5,20.12c-0.05-0.02-0.19-0.03-0.42-0.01
		c0.07-0.24,0.21-0.49,0.42-0.75c-0.24-0.04-0.41-0.1-0.5-0.18c0.38-2.71,0.99-5.27,1.86-7.65c0.86-2.39,2.17-4.64,3.93-6.74
		c0.24-0.29,0.44-0.51,0.6-0.67c0.16-0.16,0.36-0.25,0.59-0.27c0.29-0.03,0.64,0.06,1.04,0.26c1.2,0.57,2.1,1.45,2.71,2.63
		c0.61,1.18,0.98,2.52,1.11,4.01c0.14,1.58,0.05,3.21-0.27,4.91c-0.32,1.69-0.83,3.29-1.52,4.8c-0.34,0.77-0.77,1.54-1.27,2.32
		c-0.5,0.78-1.04,1.5-1.62,2.16c-0.58,0.65-1.15,1.19-1.74,1.61c-0.58,0.42-1.11,0.65-1.57,0.69c-0.06,0.01-0.1,0-0.13-0.01
		c-0.03-0.01-0.08-0.02-0.13-0.01c-0.62-0.06-1.13-0.25-1.51-0.55s-0.69-0.66-0.93-1.07c-0.24-0.4-0.41-0.83-0.51-1.28
		c-0.1-0.45-0.16-0.85-0.2-1.2c-0.06-0.64-0.09-1.49-0.09-2.55c-0.32,0.03-0.49-0.02-0.5-0.13l0.75-0.07
		C156.58,20.23,156.55,20.15,156.5,20.12z"/>
</g>
</svg>
