<?xml version="1.0" encoding="utf-8"?>
<!-- Generator: Adobe Illustrator 26.0.3, SVG Export Plug-In . SVG Version: 6.00 Build 0)  -->
<svg version="1.1" id="Слой_1" xmlns="http://www.w3.org/2000/svg" xmlns:xlink="http://www.w3.org/1999/xlink" x="0px" y="0px"
	 viewBox="0 0 29.22 21.16" style="enable-background:new 0 0 29.22 21.16;" xml:space="preserve">
<style type="text/css">
	.st0{fill:#22FF93;}
</style>
<g>
	<g>
		<path class="st0" d="M18.66,21.16c-0.14-0.11-0.26-0.19-0.37-0.25v-0.12h-0.46c-0.14-0.22-0.28-0.45-0.44-0.69
			c-0.15-0.23-0.27-0.46-0.35-0.69h-0.5c-0.06-0.22-0.1-0.4-0.15-0.54c-0.04-0.14-0.16-0.29-0.35-0.46c-0.55,0-1-0.11-1.33-0.33
			c-0.33-0.22-0.61-0.46-0.83-0.71c-0.22-0.25-0.42-0.48-0.6-0.71c-0.18-0.22-0.37-0.33-0.56-0.33c-0.22,0-0.48,0.16-0.77,0.48
			s-0.67,0.88-1.14,1.68c-0.55,0.55-1.19,0.92-1.91,1.1s-1.46,0.28-2.2,0.31C6.67,19.94,6.65,19.97,6.65,20
			c0,0.03-0.01,0.06-0.04,0.08H6.32v-0.5c-0.44,0.11-0.85,0.17-1.21,0.17c-0.44,0-0.67-0.12-0.67-0.37c0-0.3,0.14-0.69,0.42-1.16
			s0.6-0.98,0.98-1.52s0.73-1.09,1.08-1.66c0.35-0.57,0.6-1.13,0.77-1.68c-0.31-0.05-0.87-0.17-1.7-0.35
			c-0.83-0.18-1.69-0.4-2.58-0.67c-0.89-0.26-1.68-0.55-2.37-0.85S0,10.86,0,10.56c0.25-0.14,0.47-0.28,0.67-0.44
			c0.19-0.15,0.43-0.27,0.71-0.35V9.56c0.14-0.08,0.3-0.16,0.5-0.23C2.06,9.26,2.22,9.2,2.33,9.15V8.85h0.58
			c0.03-0.17,0.17-0.31,0.44-0.44C3.61,8.29,3.91,8.2,4.24,8.15c0.33-0.06,0.67-0.1,1-0.12C5.57,8,5.82,7.98,5.99,7.98
			c0.55,0,1.16,0.02,1.81,0.06c0.65,0.04,1.38,0.06,2.18,0.06c0.75-1.86,1.29-3.73,1.62-5.61c0.22-0.08,0.34-0.18,0.35-0.29
			c0.01-0.11,0.03-0.26,0.06-0.46c0.19-0.05,0.39-0.12,0.58-0.19c0.19-0.07,0.32-0.2,0.37-0.4h0.46c0.19-0.28,0.45-0.48,0.77-0.62
			C14.51,0.4,14.78,0.22,15.01,0c0.39,0.08,0.89,0.13,1.5,0.15c0.61,0.01,1.12,0.05,1.54,0.1c0.39,1.03,0.73,2.06,1.04,3.1
			s0.57,2.14,0.79,3.3c1.19,0,2.44-0.08,3.74-0.23c1.3-0.15,2.41-0.3,3.33-0.44c0.14,0,0.25-0.01,0.33-0.04
			c0.08-0.03,0.17-0.04,0.25-0.04s0.21,0.07,0.37,0.21c0.17,0.14,0.35,0.33,0.54,0.58c0.19,0.25,0.36,0.56,0.5,0.93
			c0.14,0.38,0.24,0.78,0.29,1.23c0,0.17-0.01,0.27-0.04,0.31c-0.03,0.04-0.14,0.06-0.33,0.06c-0.5,0.14-1.14,0.26-1.91,0.35
			c-0.78,0.1-1.56,0.19-2.35,0.27s-1.53,0.15-2.22,0.21c-0.69,0.06-1.19,0.1-1.5,0.12v0.46c0,0.91,0.19,1.77,0.56,2.58
			s0.79,1.54,1.25,2.22c0.46,0.68,0.88,1.3,1.27,1.87c0.39,0.57,0.58,1.08,0.58,1.52c0,0.47-0.24,0.85-0.71,1.12
			c-0.47,0.28-1.34,0.54-2.62,0.79c-0.31-0.11-0.54-0.26-0.71-0.46c-0.17-0.19-0.37-0.36-0.62-0.5v0.42
			c-0.06,0.06-0.12,0.08-0.19,0.08s-0.1,0.06-0.1,0.17h-0.42v0.37c-0.06,0.06-0.1,0.08-0.12,0.08c-0.03,0-0.06,0.01-0.08,0.04
			c-0.03,0.03-0.06,0.04-0.08,0.04v0.17H18.66z"/>
	</g>
</g>
</svg>
