<?xml version="1.0" encoding="utf-8"?>
<!-- Generator: Adobe Illustrator 24.3.0, SVG Export Plug-In . SVG Version: 6.00 Build 0)  -->
<svg version="1.1" id="Слой_1" xmlns="http://www.w3.org/2000/svg" xmlns:xlink="http://www.w3.org/1999/xlink" x="0px" y="0px"
	 viewBox="0 0 1920 1027.96" style="enable-background:new 0 0 1920 1027.96;" xml:space="preserve">
<style type="text/css">
	.st0{fill:#FFFFFF;}
</style>
<g>
	<path class="st0" d="M1890.63,314.67c-67.44-52.51-219.1,61.24-251.59,23.31c-17.51-20.45,24.18-55.64,14.21-89.13
		c-26.5-89-405.26-2.18-812.28-61.3c-147.54-21.43-267.05-53.5-345.67-77.54c41.35,37.87,59.16,61.98,53.43,72.33
		c-6.89,12.46-47.92,4.98-123.09-22.45c-1.31,10.88-5.13,14.3-7.48,15.6c-10.28,5.68-30.98-8.14-51.96-35.23
		c-50.26-11.19-104.87-26.45-162.68-47.35c-14.79-5.35-38.79-14.31-68.2-26.76C79.49,42.53,33.86,18.92,0,0v512.06
		c113.53,126.82,165.4,195.38,155.67,205.68c-8.2,8.66-60.09-23.96-155.67-97.89v27.12c5.85,7.42,13.37,19.2,17.1,35.17
		c9,38.59-11.34,70.58-17.1,78.82v143.11c97.52-24.38,243.19-47.57,412.1-19.62c239.88,39.7,431.86,166.84,448.71,139.76
		c4.37-7.01-2.42-25.29-59.49-77.66c53.47,7.76,136.98,16.07,238.16,9.05c335.41-23.28,549.33-194.37,638.67-106.8
		c46.92,46,31.43,131.48,64.94,135.73c26.29,3.33,55.25-47.82,78.21-99.86c36.7,27.73,73.39,34.58,89.57,20.07
		c3.27-2.94,7.29-8.17,9.12-17.95V379.24C1917.87,357.7,1911.32,330.77,1890.63,314.67z"/>
	<path class="st0" d="M1616.25,858.06c-7.16-0.6-20.75,18.64-13.4,32.42c5.02,9.41,18,12.87,23.14,8.1
		C1634.33,890.86,1625.12,858.8,1616.25,858.06z"/>
</g>
</svg>
