<?xml version="1.0" encoding="utf-8"?>
<!-- Generator: Adobe Illustrator 26.0.3, SVG Export Plug-In . SVG Version: 6.00 Build 0)  -->
<svg version="1.1" id="Слой_1" xmlns="http://www.w3.org/2000/svg" xmlns:xlink="http://www.w3.org/1999/xlink" x="0px" y="0px"
	 viewBox="0 0 354.65 199.87" style="enable-background:new 0 0 354.65 199.87;" xml:space="preserve">
<style type="text/css">
	.st0{fill:#22FF93;}
</style>
<g>
	<path class="st0" d="M18.16,81.48c2.15,2.71,4.05,5.03,5.71,6.95c0.42-0.16,0.82-0.28,1.2-0.37c0.37-0.09,0.7-0.18,0.97-0.27
		c0.14-0.35,0.28-0.69,0.41-1s0.29-0.61,0.49-0.89l2.09-0.37c0.15-0.31,0.28-0.57,0.38-0.78c0.11-0.2,0.25-0.38,0.43-0.54
		c0.18-0.15,0.41-0.31,0.69-0.46s0.64-0.37,1.08-0.65c0.34-0.18,0.59-0.34,0.75-0.47c0.16-0.13,0.25-0.33,0.26-0.6
		c0.01-0.27-0.01-0.64-0.08-1.12c-0.07-0.48-0.14-1.18-0.22-2.11c-0.44-4.27-0.84-8.06-1.21-11.38c-0.37-3.32-0.77-6.39-1.19-9.23
		c0.18,0.34,0.48,0.98,0.9,1.93c0.42,0.95,0.89,2.05,1.42,3.28c0.53,1.24,1.1,2.53,1.71,3.88s1.21,2.6,1.78,3.77
		c0.84,1.7,1.64,3.47,2.4,5.32c0.76,1.85,1.7,3.73,2.82,5.62l0.71-0.13c0.01,0.08,0.05,0.19,0.12,0.32
		c0.06,0.13,0.13,0.25,0.19,0.37c0.22-0.12,0.45-0.2,0.66-0.24c0.22-0.04,0.47-0.08,0.75-0.13l1.01-0.18l-0.17-0.96
		c1.3-0.31,2.29-0.65,2.99-1c0.7-0.35,1.38-0.73,2.04-1.13c0.37-0.23,0.66-0.47,0.89-0.71c0.22-0.25,0.41-0.54,0.55-0.87
		c0.14-0.33,0.27-0.71,0.38-1.14s0.25-0.95,0.43-1.55c0.4-1.42,1.01-4.18,1.84-8.27c0.51-2.63,1.1-5.35,1.77-8.13
		c0.67-2.79,1.32-5.47,1.94-8.04c0.63-2.57,1.15-4.96,1.58-7.18c0.42-2.21,0.67-4.06,0.73-5.54c-0.46-0.04-0.92-0.06-1.39-0.06
		c-0.47,0-0.92-0.01-1.36-0.03c-0.43-0.02-0.81-0.05-1.12-0.08c-0.31-0.02-0.52-0.09-0.62-0.2c-0.23,0.57-0.46,1.13-0.69,1.66
		c-0.23,0.53-0.42,1.06-0.58,1.58c-0.13-0.06-0.25-0.12-0.34-0.19c-0.09-0.06-0.2-0.11-0.33-0.12c-0.02-0.12-0.03-0.24-0.04-0.36
		s-0.01-0.22-0.02-0.3c-0.07-0.4-0.21-0.58-0.4-0.54c-0.44,0.08-1.09,1.12-1.96,3.12c-1.05,2.36-1.92,4.86-2.6,7.48
		c-0.68,2.62-1.26,5.13-1.73,7.51s-0.88,4.55-1.21,6.49c-0.33,1.95-0.65,3.4-0.97,4.36c-0.07-0.15-0.26-0.64-0.57-1.47
		s-0.7-1.86-1.17-3.11c-0.47-1.25-1.01-2.66-1.62-4.23c-0.61-1.57-1.25-3.19-1.92-4.86s-1.36-3.34-2.07-5.01
		c-0.71-1.68-1.38-3.24-2.01-4.69c-0.8-0.55-1.42-1-1.87-1.33c-0.45-0.33-0.83-0.57-1.14-0.72c-0.31-0.15-0.62-0.24-0.91-0.27
		c-0.29-0.03-0.68-0.02-1.17,0.03c-0.12,0.02-0.45,0.16-1,0.43s-1.13,0.54-1.76,0.84c-0.62,0.3-1.46,0.72-2.51,1.28
		c-0.87,1.8-1.43,4.04-1.68,6.73c-0.26,2.69-0.34,5.41-0.26,8.14c0.03,1.06,0.06,2.14,0.09,3.25s0.07,2.15,0.1,3.15
		c0.04,1,0.08,1.88,0.14,2.65c0.06,0.77,0.12,1.33,0.18,1.69c0.02,0.09,0.03,0.16,0.05,0.22c-0.44-0.66-0.99-1.45-1.67-2.39
		c-0.76-1.05-1.57-2.16-2.41-3.32c-0.84-1.16-1.65-2.34-2.42-3.54c-0.77-1.19-1.38-2.28-1.85-3.27c-0.43-1.03-0.9-2.05-1.41-3.07
		c-0.51-1.02-1.04-2.01-1.58-2.98s-1.07-1.89-1.57-2.76C9.46,48.29,9,47.52,8.6,46.86c-0.08,0.01-0.23,0.09-0.45,0.23
		s-0.47,0.31-0.74,0.5c-0.27,0.19-0.53,0.36-0.77,0.51c-0.24,0.14-0.42,0.23-0.54,0.25l-0.12,0.02c-0.04,0.25-0.19,0.45-0.45,0.6
		c-0.26,0.15-0.57,0.28-0.92,0.38s-0.71,0.21-1.08,0.32c-0.37,0.11-0.69,0.21-0.96,0.3c-0.11,0.51-0.28,0.83-0.51,0.95
		c-0.22,0.12-0.63,0.36-1.23,0.71c-0.05,0.42-0.07,0.75-0.07,1s0,0.46-0.01,0.65c-0.01,0.19-0.06,0.37-0.15,0.55s-0.3,0.4-0.62,0.67
		c0.43,1.27,1.08,2.65,1.94,4.11c0.86,1.47,1.83,2.98,2.9,4.53c1.08,1.55,2.21,3.12,3.4,4.71c1.19,1.59,2.33,3.17,3.43,4.74
		C13.85,75.8,16.01,78.77,18.16,81.48z"/>
	<path class="st0" d="M58.14,62.59c0.25,0.04,0.43,0.07,0.54,0.09c0.11,0.02,0.28,0.03,0.53,0.03c0.41,1.81,0.88,3.44,1.4,4.88
		c0.53,1.45,1.2,3,2.03,4.65c0.13,0.02,0.29,0.13,0.49,0.34c0.2,0.21,0.41,0.46,0.63,0.75c0.22,0.29,0.43,0.59,0.65,0.9
		c0.22,0.31,0.44,0.53,0.67,0.65c1.38,0.37,2.6,0.69,3.68,0.97c1.08,0.28,2.14,0.5,3.2,0.66c1.05,0.16,2.15,0.22,3.29,0.18
		c1.14-0.04,2.47-0.2,3.98-0.47c1.11-0.2,2.35-0.48,3.72-0.85c1.37-0.37,2.72-0.77,4.06-1.19s2.58-0.86,3.73-1.32
		c1.15-0.45,2.08-0.87,2.79-1.24c0.45-0.24,0.98-0.57,1.61-0.96c0.62-0.4,1.22-0.84,1.79-1.34c0.57-0.49,1.06-1,1.48-1.53
		c0.42-0.53,0.64-1.06,0.67-1.6l-0.36,0.06c-0.02-0.12-0.14-0.32-0.36-0.61c-0.22-0.29-0.33-0.49-0.36-0.61
		c-1.65,0.66-3.39,1.41-5.23,2.23c-1.84,0.82-4.02,1.46-6.52,1.91c-1.55,0.28-3.09,0.48-4.63,0.62c-1.54,0.13-2.94,0.03-4.21-0.29
		c-1.27-0.32-2.37-0.96-3.29-1.9s-1.56-2.33-1.88-4.15c1.79,0.13,3.95,0.17,6.48,0.13c1.39,0,2.78,0.02,4.16,0.05
		c1.38,0.04,2.65-0.04,3.8-0.25c0.6-0.11,1-0.26,1.21-0.46c0.2-0.28,0.6-0.55,1.21-0.8c0.61-0.25,1.25-0.49,1.93-0.71
		c0.68-0.22,1.28-0.43,1.79-0.63c0.52-0.2,0.76-0.37,0.73-0.53c1.21-0.55,1.97-1.59,2.27-3.14c0.29-1.55,0.27-3.32-0.09-5.31
		c-0.35-1.95-0.92-3.96-1.7-6.03c-0.78-2.08-1.79-3.96-3.01-5.64c-1.23-1.69-2.67-3.06-4.34-4.12c-1.67-1.05-3.56-1.55-5.68-1.5
		l-0.08-0.48c-1.38-0.12-2.7-0.07-3.97,0.16c-1.91,0.34-3.74,1.07-5.49,2.18s-3.36,2.46-4.84,4.04c-1.48,1.58-2.81,3.33-3.98,5.27
		c-1.17,1.93-2.14,3.9-2.91,5.9c-0.77,2.01-1.3,3.96-1.6,5.86C57.87,59.31,57.86,61.04,58.14,62.59z M68.94,48.5
		c0.15-1.11,0.45-2.11,0.91-2.99c0.46-0.88,1.04-1.6,1.77-2.16c0.72-0.56,1.54-0.92,2.45-1.09c0.83-0.15,1.73-0.03,2.68,0.35
		s1.88,1.09,2.78,2.12c0.9,1.03,1.72,2.4,2.46,4.11c0.74,1.71,1.33,3.8,1.77,6.27l0.2,1.13l-0.71,0.13c-0.88-0.09-1.88-0.17-3-0.23
		c-1.12-0.07-2.27-0.13-3.45-0.18c-1.18-0.05-2.35-0.11-3.51-0.17s-2.19-0.11-3.1-0.15c-0.56-1.29-0.93-2.46-1.12-3.49
		C68.83,50.83,68.79,49.61,68.94,48.5z"/>
	<path class="st0" d="M91.65,23.54c0.37,2.07,0.96,4.53,1.78,7.37s1.73,5.82,2.74,8.92c1.01,3.1,2.07,6.22,3.19,9.37
		c1.12,3.14,2.17,6.03,3.15,8.67s1.83,4.91,2.55,6.83c0.71,1.92,1.19,3.23,1.44,3.93c0.28-0.05,0.47-0.01,0.57,0.11
		c0.1,0.12,0.18,0.28,0.23,0.45c0.05,0.18,0.09,0.33,0.12,0.47c0.03,0.14,0.08,0.2,0.16,0.19c0.08-0.01,0.16-0.09,0.24-0.23
		s0.22-0.22,0.42-0.26c0.28-0.05,0.68,0.12,1.2,0.52c0.47-0.13,0.85-0.24,1.14-0.33c0.29-0.09,0.54-0.16,0.73-0.2
		c0.24-0.04,0.44-0.05,0.61-0.02c0.17,0.03,0.37,0.12,0.6,0.26c0.23,0.14,0.53,0.33,0.9,0.55c0.37,0.22,0.89,0.5,1.56,0.83
		c0.12-0.02,0.38-0.06,0.78-0.11c0.4-0.05,0.8-0.15,1.21-0.31s0.75-0.37,1.05-0.65c0.3-0.28,0.41-0.66,0.32-1.13l-0.02-0.12
		c-0.02-0.12,0.01-0.2,0.08-0.23c0.08-0.04,0.14-0.11,0.21-0.22c0.06-0.11,0.12-0.28,0.19-0.49c0.06-0.22,0.1-0.55,0.1-1
		c-0.78-0.02-1.52-0.46-2.21-1.33c-0.69-0.86-1.35-2-2-3.43c-0.65-1.42-1.3-3.06-1.96-4.91s-1.35-3.78-2.08-5.78
		c-1.19-3.23-2.33-6.62-3.39-10.16c-1.07-3.54-2.05-6.9-2.95-10.09c-0.9-3.18-1.66-6.01-2.29-8.48c-0.63-2.47-1.09-4.21-1.4-5.23
		c-0.17-0.01-0.29-0.03-0.38-0.05c-0.09-0.02-0.17-0.05-0.26-0.08c0-0.21,0-0.35-0.01-0.43s-0.02-0.14-0.03-0.18
		c-0.97-0.15-1.74-0.25-2.3-0.3c-0.56-0.04-1.04-0.03-1.44,0.04c-0.36,0.06-0.67,0.17-0.93,0.32c-0.26,0.15-0.55,0.34-0.88,0.56
		c-0.33,0.22-0.73,0.46-1.2,0.71c-0.47,0.25-1.07,0.52-1.79,0.81c-0.12,0.47-0.16,1.13-0.11,1.96
		C91.33,21.51,91.45,22.46,91.65,23.54z"/>
	<path class="st0" d="M114.79,57.14c0.33,0.95,0.84,1.92,1.51,2.93c0.67,1.01,1.54,1.98,2.62,2.92c1.07,0.94,2.42,1.72,4.05,2.35
		s3.57,1.03,5.82,1.2s4.86-0.01,7.84-0.54c1.83-0.33,3.74-0.75,5.74-1.28c2-0.52,3.94-1.21,5.82-2.06c1.88-0.85,3.66-1.92,5.33-3.2
		c1.68-1.28,3.15-2.86,4.41-4.73c-0.12-0.23-0.24-0.43-0.38-0.61c0.97,0.82,2,1.57,3.11,2.22c2.36,1.38,4.87,2.35,7.53,2.89
		c2.66,0.55,5.19,0.61,7.57,0.18c1.59-0.29,3.24-0.81,4.95-1.56c1.71-0.76,3.38-1.71,5-2.84c1.62-1.13,3.14-2.41,4.54-3.83
		c1.41-1.42,2.6-2.95,3.58-4.58c0.98-1.63,1.69-3.32,2.14-5.06c0.45-1.74,0.51-3.51,0.19-5.29c-0.08-0.44-0.23-0.98-0.45-1.64
		c-0.22-0.66-0.46-1.28-0.71-1.87c-0.05-0.11-0.09-0.2-0.14-0.3c0.62,0.89,1.33,1.92,2.17,3.11c2.48,3.54,6.24,8.17,11.29,13.91
		l0.6-0.11c0.08,0.19,0.15,0.34,0.23,0.45c0.08,0.11,0.17,0.21,0.27,0.32s0.26,0.23,0.47,0.38c0.21,0.15,0.5,0.33,0.87,0.55
		l0.36-0.06l0.54-0.1c0.12-0.23,0.24-0.45,0.34-0.68c0.1-0.22,0.2-0.43,0.29-0.61c0.52-0.09,0.89-0.11,1.13-0.05
		c0.24,0.06,0.58,0.21,1.04,0.46c0.5-0.17,0.81-0.28,0.93-0.32c0.12-0.04,0.17-0.08,0.16-0.12l-0.02-0.12
		c-0.01-0.08,0.08-0.2,0.27-0.36c0.2-0.16,0.75-0.46,1.65-0.91c-0.16-2.02-0.4-4.18-0.73-6.48c-0.33-2.3-0.67-4.45-1.01-6.46
		c-0.34-2.01-0.61-3.71-0.82-5.11s-0.29-2.18-0.24-2.36c0.6,1.08,1.46,2.53,2.56,4.34c1.1,1.81,2.29,3.66,3.55,5.55
		s2.51,3.68,3.74,5.39c1.23,1.71,2.29,3,3.18,3.86c0.4-0.07,0.76-0.21,1.1-0.41c0.33-0.21,0.67-0.36,1.03-0.46
		c0.87-0.16,1.64-0.3,2.29-0.44c0.65-0.14,1.24-0.25,1.75-0.35c0.63-0.11,1.13-0.15,1.49-0.11c0.36,0.04,0.69,0.03,1.01-0.03
		c0.44-0.08,0.74-0.27,0.91-0.56c0.17-0.3,0.2-0.78,0.08-1.46c-0.08-0.44-0.21-1.04-0.39-1.81c-0.18-0.77-0.38-1.6-0.6-2.51
		c-0.22-0.9-0.45-1.86-0.67-2.87c-0.22-1.01-0.41-1.97-0.58-2.88c-0.16-0.87-0.28-1.65-0.36-2.34c-0.08-0.68-0.08-1.26,0-1.72
		c1.26,1.79,2.51,3.5,3.75,5.14c1.24,1.64,2.54,3.21,3.92,4.68c1.37,1.48,2.85,2.86,4.44,4.16s3.36,2.48,5.32,3.57
		c1.42-0.54,2.48-1.1,3.18-1.68c0.7-0.58,1.18-1.05,1.44-1.43c-0.71-0.65-1.48-1.47-2.29-2.44c1.34,0.36,2.53,0.67,3.58,0.94
		c1.08,0.28,2.14,0.5,3.2,0.66c1.05,0.16,2.15,0.22,3.29,0.18c1.14-0.04,2.47-0.2,3.98-0.47c1.11-0.2,2.35-0.48,3.72-0.85
		c1.37-0.37,2.72-0.77,4.06-1.19c1.34-0.42,2.58-0.86,3.73-1.31c1.15-0.45,2.08-0.87,2.79-1.24c0.45-0.24,0.98-0.57,1.61-0.96
		c0.62-0.4,1.22-0.85,1.79-1.34c0.57-0.49,1.06-1,1.48-1.53c0.42-0.53,0.64-1.06,0.67-1.6l-0.36,0.06
		c-0.02-0.12-0.14-0.32-0.36-0.61c-0.22-0.29-0.33-0.49-0.36-0.61c-1.65,0.66-3.39,1.41-5.23,2.23s-4.01,1.46-6.52,1.91
		c-1.55,0.28-3.09,0.48-4.63,0.62c-1.54,0.13-2.94,0.04-4.21-0.29c-1.27-0.33-2.37-0.96-3.29-1.9s-1.56-2.33-1.88-4.15
		c1.79,0.13,3.95,0.17,6.48,0.13c1.39,0,2.78,0.02,4.16,0.05c1.38,0.04,2.65-0.04,3.8-0.25c0.6-0.11,1-0.26,1.21-0.46
		c0.2-0.28,0.6-0.55,1.21-0.8c0.61-0.25,1.25-0.49,1.93-0.72c0.68-0.22,1.28-0.43,1.8-0.63c0.52-0.2,0.76-0.37,0.74-0.53
		c1.21-0.55,1.97-1.59,2.27-3.14s0.27-3.32-0.09-5.31c-0.35-1.95-0.92-3.96-1.7-6.03c-0.78-2.08-1.79-3.96-3.01-5.65
		c-1.23-1.69-2.67-3.06-4.34-4.11s-3.56-1.55-5.68-1.5l-0.09-0.48c-1.38-0.12-2.7-0.07-3.97,0.16c-1.91,0.34-3.74,1.07-5.49,2.18
		c-1.75,1.11-3.36,2.46-4.84,4.04c-1.48,1.58-2.81,3.33-3.98,5.27c-1.17,1.93-2.14,3.9-2.91,5.91c-0.77,2.01-1.3,3.96-1.6,5.86
		c-0.3,1.9-0.3,3.62-0.03,5.17c0.25,0.04,0.43,0.07,0.54,0.09c0.11,0.02,0.28,0.03,0.53,0.03c0.41,1.81,0.88,3.44,1.4,4.88
		c0.34,0.93,0.76,1.91,1.22,2.93c-0.76-1.06-1.54-2.16-2.32-3.31c-1.45-2.12-2.88-4.3-4.28-6.55c-1.41-2.25-2.72-4.36-3.94-6.34
		c-1.22-1.97-2.29-3.7-3.21-5.18s-1.62-2.52-2.1-3.13c-0.95-0.04-1.8,0.02-2.56,0.15c-0.83,0.15-1.63,0.39-2.39,0.74
		s-1.44,0.69-2.03,1.04c-0.59,0.35-1.07,0.67-1.43,0.96c-0.36,0.29-0.55,0.48-0.58,0.56c0.03,0.65,0.1,1.56,0.18,2.74
		c0.09,1.18,0.18,2.41,0.27,3.71c0.09,1.3,0.13,2.53,0.14,3.7c0,1.17-0.04,2.07-0.13,2.7c-0.7-0.9-1.44-1.92-2.24-3.04
		c-0.8-1.13-1.65-2.39-2.56-3.79c-0.49-0.69-1.04-1.5-1.63-2.41s-1.17-1.78-1.72-2.58c-0.55-0.8-1.05-1.47-1.5-2.01
		c-0.45-0.54-0.75-0.79-0.91-0.76c-1.19,0.21-2.35,0.54-3.48,0.99c-1.13,0.45-2.17,0.9-3.11,1.36c-1.33,0.61-2.18,1.06-2.56,1.35
		c-0.38,0.29-0.57,0.5-0.56,0.62c0,0.12,0.03,0.22,0.08,0.29c0.05,0.07-0.11,0.2-0.48,0.39c-0.13,0.43-0.24,0.82-0.34,1.17
		c-0.1,0.35-0.19,0.87-0.28,1.56s-0.18,1.64-0.29,2.85c-0.11,1.21-0.24,2.88-0.4,4.99c-0.81-0.88-1.61-1.87-2.38-2.99
		c-0.78-1.11-1.53-2.16-2.25-3.13c-0.73-0.98-1.42-1.78-2.06-2.4c-0.64-0.62-1.26-0.88-1.86-0.77c-0.44,0.08-0.88,0.29-1.33,0.64
		s-1.04,0.75-1.78,1.21l0.12,0.66c-0.86,0.48-1.43,0.85-1.71,1.11c-0.28,0.26-0.46,0.47-0.53,0.65c-0.07,0.18-0.15,0.38-0.23,0.6
		c-0.08,0.22-0.35,0.54-0.81,0.95c0.27,0.61,0.53,1.12,0.77,1.52c0.22,0.38,0.54,0.88,0.95,1.48c-0.85-1.01-1.79-1.97-2.84-2.86
		c-1.76-1.49-3.67-2.73-5.71-3.71c-2.04-0.99-4.16-1.67-6.34-2.06c-2.18-0.39-4.27-0.4-6.25-0.05l-0.77,0.14l0.12,0.66
		c-0.41,0.03-0.8,0.07-1.18,0.12c-0.38,0.05-0.77,0.11-1.17,0.18c-2.03,0.36-3.86,1.01-5.5,1.94s-3.08,1.99-4.32,3.17
		c-1.24,1.19-2.29,2.44-3.14,3.76c-0.85,1.32-1.54,2.58-2.06,3.78c-1.42,3.5-1.88,6.66-1.38,9.48c0.51,2.86,1.64,5.39,3.39,7.58
		c0.68,0.85,1.42,1.63,2.2,2.36c-0.12-0.07-0.24-0.13-0.37-0.16c-0.63-0.17-1.3-0.2-2.01-0.07c-0.2,0.04-0.42,0.07-0.66,0.12
		s-0.45,0.1-0.65,0.18c-0.07-0.15-0.11-0.3-0.14-0.44c-0.02-0.14-0.06-0.24-0.12-0.32c-0.06,0.13-0.15,0.21-0.27,0.23
		c-0.04,0.01-0.08,0-0.12-0.01c-0.04-0.01-0.11-0.01-0.18,0c-0.08,0.01-0.11,0.08-0.09,0.2c-0.55,0.59-1.21,1.19-1.98,1.8
		c-0.77,0.61-1.62,1.18-2.55,1.72s-1.91,1-2.95,1.39c-1.04,0.39-2.05,0.68-3.05,0.86c-1.11,0.2-2.25,0.37-3.41,0.52
		c-1.16,0.15-2.29,0.16-3.38,0.05c-1.09-0.12-2.14-0.42-3.15-0.91c-1.01-0.49-1.9-1.27-2.66-2.32l-0.66,0.12
		c-1.02-1.13-1.81-2.22-2.37-3.27c-0.56-1.05-0.93-2.09-1.11-3.12c-0.21-1.19-0.21-2.37,0.01-3.54c0.22-1.17,0.56-2.3,1.02-3.41
		c0.46-1.11,0.99-2.2,1.6-3.27s1.19-2.13,1.74-3.17c0.25-0.45,0.69-0.74,1.32-0.85c0.28-0.05,0.58-0.04,0.9,0.03
		s0.61,0.24,0.86,0.52c2.28,2.63,4.8,3.69,7.59,3.19c0.04-0.21,0.1-0.42,0.17-0.62c0.07-0.2,0.12-0.4,0.17-0.61
		c0.82,0.43,1.64,0.57,2.47,0.42c0.99-0.18,1.87-0.79,2.63-1.83c0.1,0.11,0.24,0.22,0.43,0.35c-0.08-0.19-0.15-0.49-0.22-0.88
		c0.1-0.1,0.19-0.18,0.27-0.23c0.07-0.05,0.14-0.11,0.22-0.16c-0.6-1.49-1.55-2.7-2.86-3.61c-1.31-0.91-2.72-1.6-4.21-2.04
		c-1.5-0.45-2.95-0.71-4.36-0.79c-1.41-0.07-2.49-0.04-3.25,0.09c-1.23,0.22-2.39,0.67-3.48,1.33c-1.09,0.67-2.11,1.41-3.04,2.24
		c-0.94,0.83-1.81,1.66-2.6,2.5c-0.79,0.84-1.51,1.54-2.15,2.11c-0.91,0.86-1.78,1.97-2.6,3.33c-0.82,1.36-1.52,2.83-2.1,4.41
		c-0.58,1.58-0.99,3.19-1.22,4.84s-0.23,3.18,0.03,4.61C114.24,55.42,114.46,56.19,114.79,57.14z M258.25,14.56
		c0.15-1.11,0.45-2.11,0.91-2.99c0.46-0.88,1.05-1.6,1.77-2.16c0.72-0.56,1.54-0.92,2.45-1.09c0.83-0.15,1.73-0.03,2.68,0.35
		c0.95,0.38,1.88,1.09,2.78,2.12c0.9,1.03,1.72,2.4,2.46,4.11s1.33,3.8,1.77,6.27l0.2,1.13l-0.72,0.13
		c-0.88-0.09-1.88-0.17-2.99-0.23c-1.12-0.07-2.27-0.13-3.45-0.18c-1.18-0.05-2.35-0.11-3.51-0.17c-1.16-0.06-2.19-0.11-3.1-0.15
		c-0.56-1.29-0.93-2.46-1.12-3.49C258.14,16.88,258.09,15.67,258.25,14.56z M192.46,28.84c0.23,0.37,0.63,0.97,1.18,1.77
		c-0.11,0.04-0.24,0.15-0.38,0.36c-0.45-0.7-0.96-1.36-1.49-2.01L192.46,28.84z M162.07,30.39c0.97-2.16,2.4-3.42,4.31-3.76
		c0.48-0.08,0.93-0.05,1.37,0.09c0.44,0.15,0.83,0.33,1.18,0.56c0.35,0.22,0.63,0.45,0.86,0.68c0.23,0.23,0.35,0.4,0.37,0.52
		l-0.01-0.06l-0.01-0.06c0.04-0.01,0.62,0.28,1.75,0.86c0.23-0.33,0.54-0.53,0.94-0.6l0.36-0.06c0.4-0.07,0.65-0.36,0.77-0.88
		c0.95-0.17,1.96,0.29,3.01,1.37c0.56,0.6,1.18,1.04,1.87,1.33c0.69,0.29,1.36,0.69,2.03,1.2c0.67,0.52,1.3,1.31,1.9,2.37
		c0.6,1.06,1.09,2.67,1.48,4.81c0.2,1.11,0.29,2.37,0.28,3.77c-0.02,1.4-0.25,2.73-0.7,4c-0.45,1.27-1.17,2.4-2.16,3.4
		c-0.99,1-2.34,1.65-4.05,1.96c-1.19,0.21-2.5,0.26-3.91,0.15c-1.82-0.08-3.43-0.53-4.83-1.35c-1.4-0.81-2.6-1.83-3.59-3.05
		c-1-1.21-1.8-2.58-2.4-4.09c-0.6-1.51-1.03-3.03-1.3-4.54C160.94,35.42,161.11,32.55,162.07,30.39z"/>
	<path class="st0" d="M10.29,128.98c-0.06,0.02-0.1,0.03-0.12,0.04C10.2,129.05,10.24,129.03,10.29,128.98z"/>
	<path class="st0" d="M73.37,153.38c1.59-0.29,3.24-0.81,4.95-1.56c1.71-0.76,3.38-1.7,5-2.84c1.62-1.13,3.14-2.41,4.54-3.83
		c1.41-1.42,2.6-2.95,3.58-4.58c0.98-1.63,1.69-3.32,2.14-5.06c0.45-1.74,0.51-3.51,0.19-5.29c-0.08-0.44-0.23-0.98-0.45-1.64
		c-0.22-0.66-0.46-1.28-0.71-1.87c-0.25-0.59-0.51-1.1-0.77-1.53c-0.26-0.42-0.45-0.63-0.57-0.61s-0.26,0.15-0.42,0.38
		c-1.19-1.84-2.67-3.5-4.43-4.99c-1.76-1.49-3.67-2.73-5.71-3.71c-2.04-0.99-4.16-1.67-6.34-2.06c-2.18-0.39-4.27-0.4-6.25-0.05
		l-0.78,0.14l0.12,0.66c-0.41,0.03-0.8,0.07-1.18,0.12c-0.38,0.05-0.77,0.11-1.17,0.18c-2.03,0.36-3.86,1.01-5.5,1.94
		c-1.64,0.93-3.08,1.99-4.32,3.18c-1.24,1.19-2.29,2.44-3.14,3.76c-0.85,1.32-1.54,2.58-2.06,3.79c-1.4,3.43-1.86,6.53-1.4,9.31
		c-0.21,0.13-0.41,0.23-0.59,0.28l-2.1-0.73l-0.12,0.02c-0.08,0.01-0.15,0.12-0.22,0.32c-0.07,0.2-0.19,0.37-0.37,0.53
		c-0.45,1.39-1.18,2.81-2.19,4.24c-1.01,1.43-2.08,2.74-3.2,3.93c-1.12,1.18-2.18,2.16-3.17,2.94c-0.99,0.77-1.7,1.2-2.14,1.28
		c-0.4,0.07-0.78-0.02-1.16-0.28s-0.72-0.64-1.04-1.14c-0.31-0.5-0.59-1.08-0.84-1.76c-0.24-0.67-0.43-1.37-0.56-2.08l-0.88-4.89
		c-0.11-0.64-0.23-1.23-0.35-1.78c-0.12-0.55-0.22-1.05-0.3-1.49c-0.19-1.03-0.2-1.56-0.04-1.59l0.06-0.01
		c0.04-0.01,0.08-0.02,0.11-0.05s0.09-0.05,0.17-0.06l0.06-0.01c-0.15-0.38-0.3-0.89-0.46-1.52c-0.15-0.63-0.28-1.22-0.38-1.78
		c-0.06-0.32-0.1-0.6-0.12-0.84c-0.02-0.24-0.05-0.44-0.08-0.6c0.65-0.24,1.63-0.54,2.92-0.89c1.29-0.36,2.6-0.94,3.93-1.75
		c0.96-0.58,1.94-1.06,2.95-1.42c1-0.37,1.94-0.73,2.82-1.09c0.88-0.36,1.64-0.81,2.28-1.33c0.63-0.52,1.05-1.24,1.26-2.15
		c0.01-0.01,0.01-0.01,0.02-0.01c0.18-0.13,0.38-0.3,0.59-0.51c0.21-0.2,0.38-0.44,0.52-0.71c0.14-0.27,0.18-0.54,0.13-0.82
		c-0.03-0.16-0.09-0.28-0.19-0.37c-0.1-0.09-0.2-0.16-0.32-0.22c-0.11-0.06-0.24-0.15-0.39-0.27c-0.14-0.12-0.28-0.31-0.41-0.57
		c-0.12,0.02-0.21,0.05-0.26,0.08s-0.12,0.05-0.2,0.07l-0.18,0.03c-0.04,0.01-0.06-0.01-0.07-0.05c0.04-0.01,0.1-0.04,0.17-0.09
		c0.1-0.14,0.15-0.19,0.16-0.15l-0.18,0.03c-1.43,0.26-2.81,0.62-4.14,1.08c-1.33,0.46-2.66,0.96-3.98,1.48s-2.63,1.06-3.93,1.6
		c-1.3,0.54-2.61,0.99-3.94,1.35l-0.34-1.91c-0.38-2.14-0.66-4.04-0.83-5.67c-0.17-1.63-0.38-3.14-0.63-4.53
		c-0.06-0.36-0.14-0.79-0.24-1.31c-0.09-0.52-0.21-1.02-0.36-1.51c-0.15-0.48-0.33-0.9-0.53-1.26c-0.21-0.35-0.44-0.55-0.69-0.58
		l-0.06-0.36c-0.93-0.16-1.58-0.21-1.93-0.14c-0.24,0.04-0.48,0.21-0.71,0.5c-0.24,0.29-0.79,0.65-1.65,1.1
		c0.03,0.16-0.05,0.3-0.23,0.44c-0.18,0.13-0.42,0.27-0.73,0.41c-0.3,0.14-0.62,0.29-0.97,0.45c-0.34,0.16-0.65,0.36-0.94,0.57
		c0.04,0.45,0.1,0.93,0.2,1.44c0.09,0.52,0.2,1.09,0.31,1.73l0.18,1.01c0.06,0.36,0.12,0.68,0.17,0.95
		c0.05,0.28,0.07,0.52,0.07,0.73c0.01,0.08,0.05,0.59,0.12,1.52c0.06,0.93,0.16,1.97,0.28,3.12c0.12,1.15,0.22,2.23,0.3,3.24
		s0.14,1.62,0.17,1.81c-0.42,0.2-1.06,0.43-1.94,0.69c-0.88,0.26-1.8,0.54-2.77,0.84c-0.97,0.3-1.87,0.58-2.71,0.86
		c-0.83,0.27-1.4,0.47-1.71,0.61c0.01,0.08,0.04,0.15,0.07,0.2c0.03,0.06,0.05,0.12,0.07,0.2c0.04,0.2,0.03,0.33-0.02,0.4
		c-0.01,0.01-0.01,0.01-0.02,0.02c0.06-0.02,0.15-0.05,0.25-0.09c0.21-0.08,0.35-0.14,0.43-0.2c-0.12,0.23-0.16,0.46-0.12,0.7
		c0.03,0.16,0.08,0.3,0.14,0.44c0.06,0.13,0.11,0.3,0.15,0.5c0.06,0.32-0.04,0.55-0.31,0.7c-0.26,0.15-0.51,0.27-0.74,0.35
		c0.02,0.12,0.08,0.18,0.19,0.18c0.1,0,0.16,0.04,0.18,0.12c0.01,0.08-0.01,0.16-0.08,0.23c-0.07,0.07-0.1,0.13-0.09,0.17
		c0.12,0.19,0.2,0.43,0.25,0.72c0.05,0.3,0.11,0.61,0.17,0.92l0.19,1.07c1.58-0.36,3.09-0.78,4.54-1.25
		c1.46-0.46,2.94-0.92,4.46-1.35c0.23,0.82,0.44,1.6,0.64,2.35s0.35,1.46,0.47,2.13c0.26,1.47,0.43,3.15,0.5,5.05
		c0.07,1.9,0.35,4.2,0.84,6.9c0.23,1.27,0.48,2.48,0.77,3.62c0.29,1.14,0.68,2.2,1.18,3.17c0.5,0.98,1.13,1.85,1.88,2.62
		c0.75,0.77,1.71,1.42,2.87,1.95c1.2,0.52,2.36,0.69,3.47,0.49c0.6-0.11,1.25-0.36,1.96-0.75c0.71-0.39,1.42-0.84,2.13-1.34
		s1.38-1,2.01-1.5c0.63-0.5,1.14-0.91,1.53-1.23c0.89-0.73,1.93-1.68,3.12-2.84c1.19-1.16,2.39-2.37,3.62-3.63
		c1.23-1.27,2.44-2.55,3.62-3.85c0.36-0.39,0.68-0.76,1.02-1.13c0.18,0.26,0.37,0.51,0.56,0.75c1.75,2.19,3.8,3.98,6.16,5.36
		c2.36,1.38,4.87,2.35,7.53,2.89C68.46,153.74,70.99,153.81,73.37,153.38z M62.89,141.6c-1-1.21-1.8-2.58-2.4-4.09
		s-1.03-3.03-1.3-4.54c-0.64-3.58-0.48-6.45,0.49-8.61s2.4-3.42,4.31-3.76c0.48-0.09,0.93-0.05,1.37,0.09
		c0.44,0.15,0.83,0.33,1.18,0.56c0.35,0.23,0.63,0.45,0.86,0.68c0.22,0.23,0.35,0.4,0.37,0.52l-0.01-0.06l-0.01-0.06
		c0.04-0.01,0.62,0.28,1.75,0.86c0.23-0.33,0.54-0.53,0.94-0.6l0.36-0.06c0.4-0.07,0.65-0.36,0.77-0.88
		c0.95-0.17,1.96,0.29,3.01,1.37c0.56,0.6,1.18,1.04,1.87,1.33c0.69,0.29,1.36,0.69,2.03,1.21c0.67,0.52,1.3,1.3,1.9,2.37
		c0.6,1.06,1.09,2.67,1.48,4.81c0.2,1.11,0.29,2.37,0.28,3.77c-0.02,1.4-0.25,2.73-0.7,4s-1.17,2.4-2.16,3.4s-2.34,1.65-4.05,1.96
		c-1.19,0.21-2.5,0.26-3.91,0.15c-1.82-0.08-3.43-0.53-4.83-1.35C65.09,143.83,63.89,142.81,62.89,141.6z"/>
	<path class="st0" d="M135.34,140.82c0.06-0.11,0.12-0.28,0.19-0.5c0.06-0.22,0.1-0.55,0.1-1c-0.78-0.03-1.52-0.47-2.21-1.33
		c-0.69-0.86-1.35-2-2-3.43c-0.65-1.42-1.3-3.06-1.96-4.91c-0.66-1.85-1.35-3.78-2.08-5.78c-1.19-3.23-2.32-6.62-3.39-10.16
		c-1.07-3.54-2.05-6.9-2.95-10.09c-0.9-3.18-1.66-6.01-2.29-8.48c-0.63-2.47-1.09-4.21-1.4-5.22c-0.17-0.01-0.29-0.03-0.38-0.05
		c-0.09-0.03-0.17-0.05-0.26-0.08c0-0.21,0-0.35-0.01-0.43c-0.01-0.08-0.03-0.14-0.03-0.18c-0.97-0.15-1.74-0.25-2.3-0.29
		c-0.56-0.04-1.04-0.03-1.44,0.04c-0.36,0.06-0.67,0.17-0.93,0.32c-0.26,0.15-0.56,0.34-0.88,0.56c-0.33,0.22-0.73,0.46-1.2,0.71
		c-0.47,0.25-1.07,0.52-1.79,0.81c-0.12,0.47-0.16,1.12-0.11,1.96c0.05,0.83,0.17,1.79,0.36,2.86c0.37,2.07,0.97,4.53,1.78,7.37
		c0.82,2.85,1.73,5.82,2.74,8.92c1.01,3.1,2.07,6.22,3.19,9.37s2.17,6.03,3.15,8.66c0.98,2.63,1.83,4.91,2.55,6.84
		c0.71,1.92,1.19,3.23,1.44,3.93c0.28-0.05,0.47-0.01,0.57,0.11c0.1,0.13,0.18,0.28,0.23,0.45c0.05,0.17,0.09,0.33,0.12,0.47
		s0.08,0.2,0.16,0.19s0.16-0.09,0.24-0.23s0.22-0.22,0.42-0.26c0.28-0.05,0.68,0.12,1.2,0.52c0.47-0.12,0.85-0.24,1.14-0.33
		s0.54-0.16,0.73-0.19c0.24-0.04,0.44-0.05,0.61-0.02c0.17,0.03,0.37,0.12,0.6,0.26c0.23,0.14,0.53,0.33,0.9,0.55
		c0.37,0.22,0.89,0.5,1.56,0.83c0.12-0.02,0.38-0.06,0.78-0.11c0.4-0.05,0.8-0.15,1.21-0.31c0.4-0.16,0.75-0.37,1.05-0.65
		c0.3-0.28,0.41-0.66,0.32-1.13l-0.02-0.12c-0.02-0.12,0.01-0.2,0.08-0.23S135.27,140.93,135.34,140.82z"/>
	<path class="st0" d="M132.09,93.13c-0.09-0.06-0.2-0.18-0.31-0.34c-0.11-0.16-0.25-0.33-0.4-0.51c-0.02,0.13-0.06,0.24-0.12,0.33
		c-0.07,0.1-0.12,0.17-0.15,0.21c-0.34-0.06-0.67-0.06-0.99-0.01c-0.56,0.1-1.24,0.37-2.04,0.8c-0.8,0.43-1.45,0.75-1.95,0.96
		c-0.1,0.84-0.1,1.51-0.01,2c0.09,0.5,0.12,0.89,0.09,1.18c0.19,1.04,0.58,1.8,1.18,2.31c0.6,0.51,1.48,0.66,2.63,0.45
		c2.27-0.41,4.38-1.56,6.33-3.47c0.01-0.17,0.03-0.41,0.05-0.75c-0.38-0.3-0.79-1.17-1.21-2.61c-0.27-0.81-0.72-1.16-1.36-1.05
		c-0.48,0.08-1.1,0.48-1.88,1.2c0.03-0.09,0.05-0.18,0.07-0.29C132.07,93.43,132.08,93.3,132.09,93.13z"/>
	<path class="st0" d="M145.57,137.05c0.36-0.06,1.03,0.02,2.01,0.26c0.01-0.17,0.14-0.26,0.38-0.29c0.24-0.02,0.32-0.25,0.25-0.69
		c-0.06-0.36-0.31-1.04-0.74-2.05c-0.43-1.01-0.93-2.18-1.52-3.51c-0.59-1.33-1.2-2.75-1.84-4.25c-0.64-1.51-1.19-2.98-1.65-4.41
		c-0.18-0.54-0.39-1.29-0.62-2.26c-0.23-0.96-0.48-2.01-0.75-3.16s-0.54-2.31-0.81-3.52c-0.28-1.2-0.53-2.3-0.75-3.31
		c-0.22-1.01-0.41-1.86-0.55-2.55c-0.15-0.69-0.25-1.11-0.32-1.27c-0.42-0.99-1.13-1.59-2.11-1.81c-0.98-0.21-2.09-0.21-3.32,0.01
		c-0.36,0.06-0.7,0.15-1.03,0.25c-0.33,0.1-0.45,0.39-0.37,0.87l-0.66,0.12c-0.13,0.19-0.18,0.38-0.14,0.58
		c-0.24-0.16-0.42-0.31-0.57-0.45c-0.32,0.06-0.54,0.56-0.65,1.5c-0.12,0.94,0,2.41,0.36,4.4c0.21,1.19,0.47,2.43,0.76,3.71
		s0.61,2.53,0.95,3.74c0.34,1.21,0.68,2.32,1.03,3.32c0.34,1.01,0.66,1.85,0.95,2.54c0.79,1.87,1.78,3.91,2.97,6.11
		c1.2,2.21,2.71,4.56,4.56,7.06l1.91-0.34c-0.62-0.46-0.94-0.76-0.96-0.88l0.04-0.13c-0.01-0.04-0.07-0.17-0.19-0.4l0.66-0.12
		c0.07,0.15,0.2,0.32,0.4,0.51c0.2,0.19,0.42,0.38,0.65,0.56c0.24,0.18,0.48,0.32,0.72,0.42c0.24,0.1,0.44,0.14,0.6,0.11
		c0.12-0.02,0.16-0.13,0.12-0.33l-0.02-0.12C145.28,137.16,145.37,137.08,145.57,137.05z"/>
	<path class="st0" d="M190.11,118.39c1.24,1.64,2.54,3.2,3.92,4.68c1.37,1.48,2.85,2.86,4.44,4.16s3.36,2.48,5.32,3.57
		c1.42-0.54,2.48-1.1,3.18-1.68c0.7-0.58,1.18-1.05,1.44-1.43c-1.13-1.03-2.38-2.44-3.75-4.25c-1.37-1.81-2.78-3.77-4.23-5.89
		c-1.45-2.12-2.87-4.3-4.28-6.55c-1.41-2.25-2.72-4.36-3.94-6.34c-1.21-1.98-2.29-3.7-3.21-5.18c-0.92-1.48-1.62-2.52-2.1-3.13
		c-0.95-0.04-1.8,0.02-2.56,0.15c-0.83,0.15-1.63,0.39-2.39,0.74c-0.76,0.34-1.44,0.69-2.03,1.04c-0.59,0.35-1.07,0.68-1.43,0.96
		c-0.36,0.29-0.55,0.48-0.58,0.57c0.04,0.65,0.1,1.56,0.18,2.74c0.09,1.17,0.18,2.41,0.26,3.71c0.09,1.29,0.13,2.53,0.14,3.7
		c0,1.17-0.04,2.07-0.13,2.7c-0.7-0.9-1.44-1.91-2.24-3.04c-0.8-1.13-1.65-2.39-2.56-3.79c-0.49-0.69-1.04-1.5-1.63-2.41
		c-0.6-0.92-1.17-1.78-1.72-2.58c-0.55-0.8-1.05-1.47-1.5-2.01c-0.45-0.54-0.75-0.79-0.91-0.76c-1.19,0.21-2.35,0.54-3.48,0.99
		c-1.13,0.45-2.17,0.9-3.11,1.36c-1.33,0.61-2.18,1.06-2.56,1.35c-0.38,0.29-0.57,0.5-0.56,0.62c0,0.12,0.03,0.22,0.08,0.29
		s-0.11,0.2-0.48,0.39c-0.13,0.43-0.24,0.82-0.34,1.17c-0.1,0.35-0.19,0.87-0.27,1.56c-0.08,0.69-0.18,1.64-0.29,2.85
		c-0.11,1.21-0.24,2.88-0.4,4.99c-0.81-0.88-1.61-1.88-2.38-2.99c-0.77-1.11-1.53-2.16-2.25-3.13c-0.73-0.97-1.42-1.78-2.06-2.4
		s-1.26-0.88-1.86-0.77c-0.44,0.08-0.88,0.29-1.33,0.64s-1.04,0.75-1.78,1.21l0.12,0.65c-0.86,0.48-1.43,0.85-1.71,1.11
		c-0.28,0.26-0.46,0.47-0.53,0.65c-0.07,0.18-0.15,0.38-0.23,0.59c-0.08,0.22-0.35,0.54-0.82,0.95c0.27,0.61,0.53,1.12,0.77,1.52
		c0.24,0.41,0.58,0.94,1.03,1.6l0.72-0.13c0.58,0.92,2.1,3.15,4.58,6.69c2.48,3.54,6.24,8.17,11.29,13.91l0.6-0.11
		c0.07,0.19,0.15,0.34,0.23,0.45c0.08,0.11,0.17,0.21,0.27,0.32c0.1,0.11,0.26,0.23,0.47,0.38c0.21,0.15,0.5,0.33,0.87,0.55
		l0.36-0.06l0.54-0.1c0.12-0.23,0.24-0.45,0.34-0.68c0.1-0.22,0.2-0.43,0.29-0.61c0.52-0.09,0.89-0.11,1.13-0.05
		c0.24,0.06,0.58,0.21,1.04,0.46c0.5-0.17,0.81-0.28,0.93-0.32c0.12-0.04,0.17-0.08,0.16-0.12l-0.02-0.12
		c-0.01-0.08,0.08-0.2,0.28-0.36c0.2-0.16,0.75-0.46,1.65-0.91c-0.16-2.02-0.4-4.18-0.73-6.48c-0.33-2.3-0.67-4.46-1.01-6.46
		c-0.34-2.01-0.62-3.71-0.82-5.11c-0.21-1.4-0.29-2.18-0.24-2.36c0.6,1.08,1.46,2.53,2.56,4.34s2.29,3.66,3.55,5.55
		c1.26,1.89,2.51,3.69,3.74,5.39c1.23,1.71,2.29,2.99,3.18,3.86c0.4-0.07,0.76-0.21,1.1-0.41c0.33-0.2,0.67-0.36,1.03-0.46
		c0.87-0.16,1.64-0.3,2.29-0.44c0.65-0.14,1.24-0.25,1.75-0.35c0.64-0.12,1.13-0.15,1.49-0.11c0.35,0.04,0.69,0.03,1.01-0.03
		c0.44-0.08,0.74-0.27,0.91-0.56c0.17-0.3,0.2-0.78,0.08-1.46c-0.08-0.44-0.21-1.04-0.39-1.81c-0.18-0.77-0.38-1.6-0.6-2.51
		c-0.22-0.9-0.45-1.86-0.67-2.86c-0.22-1.01-0.41-1.97-0.58-2.88c-0.16-0.88-0.28-1.65-0.36-2.34c-0.08-0.68-0.08-1.26,0-1.72
		C187.62,115.03,188.87,116.74,190.11,118.39z"/>
	<path class="st0" d="M254.47,119.37c2.66,0.55,5.19,0.61,7.57,0.18c1.59-0.29,3.24-0.81,4.95-1.56c1.71-0.76,3.38-1.71,5-2.84
		c1.62-1.13,3.14-2.41,4.54-3.83c1.41-1.42,2.6-2.95,3.58-4.58c0.98-1.63,1.69-3.32,2.14-5.06c0.45-1.74,0.51-3.51,0.19-5.29
		c-0.08-0.44-0.23-0.98-0.45-1.64c-0.22-0.66-0.46-1.28-0.71-1.87c-0.25-0.59-0.5-1.1-0.76-1.52c-0.26-0.43-0.45-0.63-0.57-0.61
		s-0.26,0.15-0.42,0.38c-1.19-1.84-2.67-3.5-4.43-4.99c-1.76-1.49-3.67-2.73-5.71-3.71c-2.04-0.99-4.16-1.67-6.34-2.06
		s-4.27-0.4-6.25-0.05l-0.77,0.14l0.12,0.66c-0.41,0.03-0.8,0.07-1.18,0.12c-0.38,0.05-0.77,0.11-1.17,0.18
		c-2.03,0.36-3.86,1.01-5.5,1.94c-1.64,0.93-3.08,1.99-4.32,3.17c-1.24,1.19-2.29,2.44-3.14,3.76c-0.85,1.32-1.54,2.58-2.06,3.78
		c-1.42,3.5-1.88,6.66-1.38,9.48c0.51,2.86,1.64,5.39,3.39,7.58c0.68,0.85,1.42,1.63,2.2,2.36c-0.12-0.07-0.24-0.13-0.37-0.16
		c-0.63-0.17-1.3-0.2-2.01-0.07c-0.2,0.04-0.42,0.07-0.66,0.12s-0.45,0.1-0.65,0.18c-0.07-0.15-0.11-0.3-0.14-0.44
		s-0.06-0.24-0.12-0.32c-0.06,0.13-0.15,0.21-0.27,0.23c-0.04,0.01-0.08,0.01-0.12-0.01c-0.04-0.01-0.1-0.01-0.18,0
		c-0.08,0.01-0.11,0.08-0.09,0.2c-0.55,0.59-1.21,1.19-1.98,1.8c-0.77,0.61-1.62,1.18-2.55,1.72c-0.93,0.54-1.91,1-2.95,1.39
		c-1.04,0.39-2.05,0.68-3.05,0.85c-1.11,0.2-2.25,0.37-3.41,0.52c-1.16,0.15-2.29,0.17-3.38,0.05c-1.09-0.11-2.14-0.42-3.15-0.91
		s-1.9-1.27-2.66-2.32l-0.66,0.12c-1.02-1.13-1.81-2.22-2.37-3.27c-0.56-1.05-0.93-2.09-1.11-3.12c-0.21-1.19-0.21-2.37,0.01-3.54
		c0.22-1.17,0.56-2.3,1.02-3.41c0.46-1.11,0.99-2.2,1.6-3.27c0.61-1.07,1.19-2.13,1.74-3.17c0.25-0.45,0.69-0.74,1.32-0.85
		c0.28-0.05,0.58-0.04,0.9,0.02s0.61,0.24,0.86,0.52c2.28,2.63,4.8,3.69,7.59,3.19c0.04-0.21,0.1-0.42,0.17-0.61
		c0.07-0.2,0.12-0.4,0.17-0.62c0.82,0.43,1.64,0.57,2.48,0.42c0.99-0.18,1.87-0.79,2.63-1.82c0.1,0.11,0.25,0.22,0.43,0.35
		c-0.08-0.19-0.15-0.49-0.22-0.88c0.1-0.1,0.19-0.18,0.27-0.23c0.07-0.05,0.14-0.11,0.22-0.16c-0.6-1.49-1.55-2.7-2.86-3.61
		c-1.31-0.91-2.72-1.6-4.21-2.04c-1.5-0.45-2.95-0.71-4.36-0.79c-1.41-0.07-2.49-0.04-3.25,0.09c-1.23,0.22-2.39,0.67-3.48,1.33
		c-1.09,0.67-2.11,1.41-3.04,2.24c-0.94,0.83-1.81,1.66-2.6,2.5s-1.51,1.54-2.14,2.11c-0.91,0.86-1.78,1.97-2.6,3.33
		c-0.82,1.36-1.52,2.83-2.1,4.41s-0.99,3.19-1.22,4.84c-0.24,1.64-0.23,3.18,0.03,4.61c0.11,0.6,0.33,1.37,0.66,2.31
		c0.33,0.95,0.84,1.92,1.51,2.93c0.67,1.01,1.54,1.98,2.62,2.92c1.07,0.94,2.42,1.72,4.05,2.35c1.63,0.63,3.57,1.03,5.82,1.2
		c2.25,0.17,4.86-0.01,7.84-0.54c1.83-0.33,3.74-0.75,5.74-1.28c2-0.52,3.94-1.21,5.82-2.06c1.88-0.85,3.66-1.92,5.33-3.2
		c1.68-1.28,3.15-2.86,4.41-4.73c-0.12-0.23-0.25-0.43-0.38-0.62c0.97,0.83,2,1.57,3.11,2.22
		C249.3,117.85,251.81,118.82,254.47,119.37z M248.35,90.53c0.97-2.16,2.4-3.42,4.31-3.76c0.48-0.08,0.93-0.05,1.37,0.09
		c0.44,0.15,0.83,0.33,1.18,0.56c0.35,0.22,0.63,0.45,0.86,0.68c0.22,0.23,0.35,0.4,0.37,0.52l-0.01-0.06l-0.01-0.06
		c0.04-0.01,0.62,0.28,1.75,0.86c0.23-0.33,0.54-0.53,0.94-0.6l0.36-0.06c0.4-0.07,0.65-0.36,0.77-0.88
		c0.95-0.17,1.96,0.29,3.01,1.37c0.56,0.6,1.18,1.04,1.87,1.33c0.69,0.29,1.36,0.69,2.03,1.2c0.67,0.52,1.3,1.3,1.9,2.37
		c0.6,1.06,1.09,2.67,1.48,4.81c0.2,1.11,0.29,2.37,0.28,3.76c-0.02,1.4-0.25,2.73-0.7,4c-0.45,1.27-1.17,2.4-2.16,3.4
		s-2.34,1.65-4.05,1.96c-1.19,0.21-2.5,0.26-3.91,0.15c-1.82-0.08-3.43-0.53-4.83-1.35s-2.6-1.83-3.59-3.05
		c-1-1.21-1.8-2.58-2.4-4.09c-0.6-1.51-1.03-3.02-1.3-4.53C247.22,95.56,247.38,92.69,248.35,90.53z"/>
	<path class="st0" d="M315.98,75.05c0.25-0.87,0.35-1.7,0.29-2.51c-0.06-0.81-0.12-1.37-0.18-1.69c-0.03-0.16-0.22-0.2-0.57-0.11
		c-0.35,0.08-0.63,0.14-0.83,0.18c-1.87,0.34-3.81,0.84-5.82,1.51c-2.01,0.67-3.94,1.51-5.77,2.51c-1.83,1.01-3.48,2.18-4.94,3.53
		c-1.46,1.35-2.56,2.85-3.29,4.5l-0.66,0.12c-0.25,0.66-0.46,1-0.61,1.03c-0.04,0.01-0.06-0.01-0.07-0.05
		c-0.11,0.06-0.25,0.11-0.41,0.13c-1.07,0.19-1.89-1.26-2.44-4.36c-0.19-1.03-0.35-2.28-0.48-3.73c-0.96,0.13-1.72,0.25-2.28,0.35
		c-0.56,0.1-1.32,0.22-2.28,0.35l-0.12-0.66c-0.07,0.03-0.16,0.04-0.23,0.07c-0.14-0.04-0.38-0.06-0.75-0.07l0.13,0.71
		c-0.39,0.11-0.78,0.23-1.17,0.36s-0.78,0.25-1.17,0.36c-0.13,0.64-0.44,1-0.91,1.09c-0.2,0.04-0.42,0.03-0.65-0.04
		c-0.24-0.06-0.45-0.07-0.65-0.04c-0.44,0.08-0.74,0.26-0.92,0.53c-0.18,0.28-0.2,0.78-0.07,1.49c0.36,2.03,1.07,4.14,2.12,6.33
		c2.32,4.96,4.62,9.64,6.89,14.06c2.27,4.41,4.77,8.43,7.51,12.04c1.73-0.64,3.38-1.42,4.94-2.33c1.56-0.91,3.24-1.84,5.04-2.78
		c-0.08-1.13-0.1-1.95-0.07-2.45l-0.66,0.12c-0.87-3.46-1.48-6.22-1.85-8.28c-0.13-0.72-0.23-1.7-0.32-2.96
		c-0.08-1.26-0.05-2.64,0.09-4.14s0.44-3.05,0.89-4.65c0.45-1.6,1.14-3.1,2.06-4.49c0.92-1.4,2.12-2.62,3.62-3.66
		s3.35-1.77,5.58-2.17L315.98,75.05z"/>
	<path class="st0" d="M354.29,96.05c-0.02-0.12-0.14-0.32-0.36-0.61s-0.33-0.49-0.36-0.61c-1.64,0.66-3.39,1.41-5.23,2.23
		c-1.84,0.82-4.01,1.46-6.52,1.91c-1.55,0.28-3.09,0.48-4.63,0.62s-2.94,0.03-4.21-0.29c-1.27-0.33-2.37-0.96-3.29-1.9
		c-0.93-0.94-1.56-2.32-1.88-4.15c1.79,0.13,3.95,0.17,6.49,0.13c1.39,0,2.78,0.02,4.16,0.05c1.38,0.04,2.65-0.04,3.8-0.25
		c0.6-0.11,1-0.26,1.21-0.46c0.2-0.28,0.6-0.55,1.21-0.8c0.61-0.25,1.25-0.49,1.93-0.72c0.68-0.22,1.28-0.43,1.79-0.63
		c0.52-0.2,0.76-0.37,0.74-0.53c1.21-0.55,1.97-1.59,2.27-3.15c0.3-1.55,0.27-3.32-0.09-5.31c-0.35-1.95-0.92-3.96-1.7-6.03
		c-0.78-2.07-1.79-3.96-3.01-5.64c-1.23-1.69-2.67-3.06-4.34-4.11c-1.67-1.06-3.56-1.55-5.68-1.5l-0.09-0.48
		c-1.38-0.12-2.7-0.07-3.97,0.16c-1.91,0.34-3.74,1.07-5.49,2.19c-1.75,1.11-3.36,2.46-4.84,4.04c-1.48,1.58-2.81,3.33-3.98,5.27
		c-1.17,1.93-2.14,3.9-2.91,5.91c-0.77,2-1.3,3.96-1.6,5.86c-0.3,1.9-0.3,3.62-0.03,5.17c0.25,0.04,0.43,0.07,0.54,0.09
		c0.11,0.02,0.28,0.03,0.53,0.03c0.41,1.81,0.87,3.44,1.4,4.89c0.53,1.45,1.2,2.99,2.03,4.65c0.13,0.02,0.29,0.13,0.49,0.34
		c0.2,0.21,0.41,0.46,0.63,0.75c0.22,0.29,0.43,0.59,0.65,0.9c0.22,0.31,0.44,0.53,0.67,0.65c1.38,0.37,2.61,0.69,3.68,0.97
		c1.08,0.28,2.14,0.5,3.2,0.66c1.05,0.16,2.15,0.22,3.29,0.18c1.14-0.04,2.47-0.2,3.98-0.46c1.11-0.2,2.35-0.48,3.72-0.85
		c1.37-0.37,2.72-0.77,4.06-1.19c1.34-0.42,2.58-0.86,3.73-1.31c1.15-0.45,2.08-0.87,2.79-1.24c0.45-0.25,0.99-0.57,1.61-0.97
		c0.63-0.4,1.22-0.84,1.79-1.34c0.57-0.49,1.06-1,1.48-1.53c0.42-0.53,0.64-1.06,0.67-1.6L354.29,96.05z M325.74,85.42
		c-0.56-1.29-0.93-2.46-1.12-3.49c-0.23-1.31-0.28-2.52-0.13-3.64c0.15-1.11,0.45-2.11,0.91-2.99c0.46-0.88,1.04-1.6,1.77-2.16
		c0.72-0.56,1.54-0.92,2.45-1.08c0.83-0.15,1.73-0.03,2.68,0.35c0.95,0.38,1.88,1.09,2.78,2.12c0.9,1.03,1.72,2.4,2.46,4.11
		c0.74,1.71,1.33,3.8,1.77,6.27l0.2,1.13l-0.72,0.13c-0.88-0.09-1.88-0.17-3-0.23c-1.12-0.07-2.27-0.13-3.45-0.18
		c-1.18-0.05-2.35-0.11-3.51-0.17C327.68,85.51,326.65,85.46,325.74,85.42z"/>
	<path class="st0" d="M287.52,166.02c0.01-0.03,0-0.03,0.01-0.05c-0.2,0.2-0.47,0.47-0.91,0.9L287.52,166.02z"/>
	<path class="st0" d="M279.28,170.7c-0.07-0.05-0.25,0.02-0.5,0.24L279.28,170.7z"/>
	<path class="st0" d="M266.43,184.71c0.02,0,0.03,0,0.06,0C266.5,184.68,266.47,184.69,266.43,184.71z"/>
	<path class="st0" d="M272.32,179.64c-0.15,0.16-0.34,0.36-0.3,0.43C272.12,179.95,272.22,179.8,272.32,179.64z"/>
	<path class="st0" d="M272.46,179.43c-0.04,0.07-0.09,0.14-0.14,0.21C272.41,179.54,272.49,179.46,272.46,179.43z"/>
	<path class="st0" d="M61.68,197.18c-0.49,0.21-0.85,0.53-1.23,0.84L61.68,197.18z"/>
	<path class="st0" d="M233.52,155.89l0.12-0.08C233.52,155.84,233.51,155.87,233.52,155.89z"/>
	<path class="st0" d="M221.27,163.21l-0.35,0.02C221.09,163.23,221.19,163.22,221.27,163.21z"/>
	<path class="st0" d="M62.19,198.82c-0.05-0.02-0.1-0.02-0.16-0.03c-0.08,0.06-0.16,0.12-0.26,0.17L62.19,198.82z"/>
	<path class="st0" d="M172.1,161.09c0.01,0,0.01,0,0.02,0c0.04-0.02,0.07-0.03,0.12-0.05L172.1,161.09z"/>
	<path class="st0" d="M168.82,161.34c0.22-0.06,0.44-0.11,0.68-0.18C169.13,161.2,168.94,161.27,168.82,161.34z"/>
	<path class="st0" d="M60.45,198.02l-0.7,0.48C60.01,198.36,60.23,198.19,60.45,198.02z"/>
	<polygon class="st0" points="282.31,149.13 282.32,149.13 282.32,149.13 	"/>
	<path class="st0" d="M280.99,148.97c0.38,0.16,0.98,0.2,1.32,0.16C281.92,149.01,281.53,148.94,280.99,148.97z"/>
	<path class="st0" d="M259.72,143.07c0,0.01-0.01,0.01,0,0.02c0.01-0.01,0.01-0.01,0.02-0.01L259.72,143.07z"/>
	<path class="st0" d="M296.41,159.07L296.41,159.07c-0.01,0-0.01,0-0.02,0.01L296.41,159.07z"/>
	<path class="st0" d="M296.06,155.41c0.22,0.02,0.46,0.39,0.56,0.68c0.2-0.53-0.78-0.88-0.98-1.14c-0.08,0.08,0.36,0.7-0.23,0.4
		c-0.3-0.45-1.43-0.87-1.37-1.2c0.33,0.14,0.63,0.29,0.92,0.44c-0.63-0.44-0.96-0.54-1.18-0.67c-0.13-0.06-0.25-0.13-0.42-0.25
		c-0.16-0.12-0.39-0.28-0.78-0.54c0.12,0.05,0.18,0,0.3,0.01c-1.55-0.53-2.77-1.42-5-2.29l0.49,0.12c-0.99-0.29-1.7-0.29-2.15-0.47
		c1.11,0.55,0.68,0.48,0.55,0.69c-1.16-0.86-2.86-0.48-4.84-1.34c0.04-0.06,0.18-0.1,0.36-0.09c0.18,0.01,0.58,0.13,0.88,0.3
		c1.07-0.1,1.41-0.39,3.34,0.06c-1.18-0.31-2.5-0.67-2.13-0.73l-0.54,0.24c-0.59-0.19-1.06-0.34-1.51-0.49
		c-0.13,0.09,0.06,0.26,0.14,0.38c0.15,0.14,0.05,0.2-0.43,0.13c-1.13-0.21-0.46-0.56-0.69-0.45c-1.55-0.3-0.74,0.22-2.16-0.33
		c0.15,0.01,0.46,0.03,0.57,0.1c-1-0.46-2.58-0.66-2.76-1.2c0.18-0.06,0.25-0.19,0.64-0.04l-0.04,0.07
		c1.15-0.01-0.67-0.15-0.57-0.42c-0.28,0.09-1.47-0.29-2.04-0.48l0.13,0.34c-2.43,0.26,0.27-0.53-1.95-1
		c-1.44-0.17,0.5,0.21-0.4,0.19c-0.93-0.29-1.21-0.63-2.62-0.86c-0.35-0.21-1.1-0.55-1.09-0.89c-0.87-0.08-2.51-0.76-3.06-0.56
		c1.37,0.61,1.51,0.01,3.08,0.83l-0.54,0.19c-1.15-0.3-2.67-0.5-3.44-0.8c0.15,0.1,0.2,0.2,0.08,0.24
		c-1.68-0.27-2.22-0.07-3.81-0.52c-0.15-0.33,0.78-0.07,1.47,0.06c-0.98-0.46-1.08-0.27-2.67-0.72c-0.03-0.27,1.08,0.26,1.32,0.05
		l-1.8-0.32c0.01-0.01,0.01-0.03,0.01-0.05c-0.35,0.36-1.35-0.33-2.47-0.44c-2.59-0.55-3.11-0.06-4.61-0.01
		c-0.37-0.19-0.46-0.32-0.28-0.39c0.6,0.31,0.52,0.14,0.76,0.08c-0.89-0.13-1.85-0.78-1.33-0.86c-1.43-0.14,0.47,0.32-0.42,0.29
		l-1.94-0.37c0.19,0.26,0.87,0.42-0.17,0.41c-0.3-0.03-0.54-0.06-0.78-0.1c-0.24-0.11-0.48-0.23-0.66-0.33l-0.09-0.05
		c-0.02-0.01-0.01-0.01-0.02-0.02l-0.01-0.01c-0.01,0.01,0.01-0.02-0.01,0.02l-0.08,0.15l-0.05,0.1c0,0-0.01,0-0.01,0
		c-0.24-0.03-0.45-0.07-0.92-0.09c0.15-0.05-0.01-0.14-0.02-0.2c0-0.03,0.03-0.06,0.18-0.08c0.11-0.01,0.3-0.02,0.54,0.01
		c-0.16-0.04-0.33-0.07-0.62-0.09l-0.24-0.01c-0.09,0-0.21,0.01-0.31,0.03l-0.16,0.03l-0.08,0.02c-0.04,0.01,0.01-0.01-0.25,0.08
		c-0.39,0.13-0.85,0.46-1.12,0.87c-0.14,0.2-0.23,0.41-0.29,0.59c-0.07,0.18-0.14,0.63-0.07,0.99c0.05,0.38,0.23,0.76,0.39,0.98
		c0.04,0.06,0.09,0.12,0.14,0.17c0.1,0.11,0.21,0.22,0.32,0.31c0.19,0.15,0.35,0.24,0.42,0.27c0.33,0.17,0.49,0.21,0.65,0.25
		c0.16,0.04,0.29,0.04,0.4,0.03c-0.46-0.26-0.25-0.22,0.12-0.13l0,0.15l0,0.14l0,0c-0.03,0,0,0.01,0.04,0.01l0.22,0.04
		c0.41,0.07,0.87,0.15,1.34,0.22c0.24,0.24,0.73,0.17,1.11,0.2l-0.08,0.21l0.62-0.03c0.18,0.07,0.38,0.16,0.57,0.23
		c-0.04,0.01-0.06,0.03-0.02,0.07c0.08,0.01,0.14,0.01,0.21,0.01c0.21,0.1,0.38,0.18,0.4,0.24c0.39,0.03,1.27,0.37,1.39,0.58
		c0.56,0.1,0.11-0.19,0.3-0.25l1.84,0.59c0.05,0.21,0.05,0.74-0.25,0.72c0.75,0.05,0.41-0.44,1.46-0.11
		c-0.71,0.16,1.32,0.68,0.32,0.82c0.53,0.43,2.27,0.94,3.25,1.12c0.67-0.1-0.99-0.46-0.84-0.72c2.71,0.69,3.1-0.03,5.02,0.68
		l-0.49-0.23c1.27,0.2,1.12,0.19,1.91,0.17c-0.44,0.24,1.12,1.33,3.16,1.84c0.22-0.12-1.03-0.66-0.63-0.83l1.35,0.33
		c0.09,0.06-0.07,0.07-0.26,0.06c1.24,0.22,2.1,1.09,2.57,0.79l1.07,0.85l-0.42-0.35c0.22-0.12,1.58,0.21,1.87,0.22
		c1.43,0.2,1.88,0.49,2.57,0.93c-0.2-0.21-0.7-0.7,0.39-0.45c-0.17,0.56,2.21,0.85,2.09,1.13c0.44,0.12,1.16,0.51,1.28,0.29
		l-0.17,0.33c0.24-0.46,1.83,0.02,3.07,0.27c-0.1,0.13-0.08,0.21,0,0.28c-0.06,0.02-0.12,0.03-0.19,0.04l-0.29-0.13
		c0.3,0.15-0.11,0.08-0.41-0.01c-0.31-0.09-0.55-0.19-0.26-0.07c0.2,0.13,0.29,0.3,0.5,0.47c-0.35,0.04-0.37-0.17-0.71-0.28
		c-0.19-0.01-0.02,0.24-0.43,0.12l-0.08-0.14c-0.1,0.03-0.14,0.13-0.34,0.16l0.05-0.07c-0.04,0.04-0.05,0.06-0.11,0.07
		c-0.16,0.01-0.31,0.01-0.45,0.01c-0.28-0.01-0.51-0.05-0.73-0.08c-0.45-0.06-0.85-0.08-1.47,0.23c-0.66-0.11-1.91-0.03-1.85-0.32
		c-1.96,0.18-3.49,0.26-5.45,0.35c-0.31-0.48-0.42,0.03-1.6-0.26l0.08,0.25c-2.77,0-5.94-0.68-9.01-0.62l-0.08-0.26l-0.62,0.27
		c-3.3-0.17-7.57-0.33-10.2-0.35c-0.86,0.12-2.18,0.42-3.55,0.32l0.14-0.03c-2.39,0.13-4.91,0.23-7.52,0.09
		c0.16-0.11-0.1-0.18,0.19-0.25c-0.62,0.28-1.53,0.02-2.09,0.01l0.66,0.19c-0.74,0.25-1.81,0.02-2.19-0.16l-1.17,0.28
		c-0.08-0.02-0.2-0.06-0.21-0.1l-0.21,0.14l-0.63-0.33c-0.29,0.07-1.84,0.18-2.32,0.51c-0.11-0.11-1.21-0.18-0.37-0.25l-4.29-0.01
		l0.67,0.1c0.09,0.25-1.2,0.44-1.87,0.35c0.87-0.23,0.06-0.36-0.32-0.54c-0.58,0.15,0.51,0.21,0.21,0.36
		c-0.73,0.19-2.28,0.32-2.67,0.23l0.44-0.12c-0.99,0.13-1.47-0.3-2.45-0.24c-0.88,0.24-1.53,0.08-1.33,0.51
		c-1.27,0.15-0.5-0.27-0.92-0.3c-0.59,0.23-2.38,0.2-2.62-0.01c-0.66,0.68-3.45-0.04-3.68,0.51l-1.07-0.25
		c-0.02,0.15-0.21,0.47-1.06,0.6c-0.81-0.1-0.64-0.36-0.89-0.49l-0.5,0.58c-4.65-0.25-10.68,0.68-15.76,0.79
		c-2.23,0.4-5.03,0.94-7.65,1.24l0.28-0.11l-2.62,0.23l1.92-0.03c-0.56,0.14-0.98,0.31-1.53,0.38c-1.44,0.09-3.12,0.21-4.87,0.4
		c-1.75,0.19-3.57,0.53-5.3,0.95c-2.16,0.99-1.6-0.29-3.69,0.52c0.18-0.09,0.23-0.19,0.38-0.27c-2.3,0.59-3.53,0.98-5.79,1.77
		c0.15-0.65-1.51,0.31-1.36-0.05l-0.15,0.28c-0.55-0.05-1.77,0.13-1.63-0.08l-0.96,0.5l-0.14-0.23c-1.37,0.24-4.22,1.11-5.04,0.75
		c-1.64,0.56-3.79,1.08-6.04,1.61c-2.25,0.56-4.62,1.09-6.73,1.56c-0.54,0.35-1.75,0.67-2.7,0.92l-1.09-0.02
		c-0.94,0.35-1.86,1-2.81,1.06c0-0.04,0.03-0.07,0.08-0.1c-0.96,0.33-1.94,0.43-2.78,0.95c-1.08,0.28-2.16,0.41-1.91,0.05
		c0.03,0.52-2.29,0.55-2.29,0.55s-3.44,0.98-8.8,2.5c-2.69,0.74-5.8,1.81-9.23,2.89c-3.43,1.07-7.09,2.4-10.86,3.77
		c-15.08,5.46-31.2,12.97-36.9,17.16c-0.32,0.42-1.43,1.1-0.85,1.16c-0.87,0.5-1.47,0.28-1.54,0.59c1.3-0.41-0.11,0.76,1.23,0.49
		l-0.75,0.4c-0.08,0.23,0.96-0.66,0.91-0.28l0.02-0.52c0.66-0.22,1.04-0.29,1.33-0.24c0.51-0.43,0.62-1.18,2.14-1.56l-0.38,0.2
		c1.14-0.53,0.83-0.04,1.1-0.08l-0.25,0.11l1.06-0.22c-0.79,0.19-1.84,1.08-1.22,0.77c1.42-0.5-0.4,0.06,0.6-0.46
		c0.62-0.31,0.55,0,0.58,0.14l1.13-0.53c0.05,0.22-0.76,0.33-0.2,0.33l1.34-0.86c0.49,0.38,1.45-0.95,2.32-0.77
		c-0.98,0.58,0.17,0.13,0.08,0.36c0.84-0.38,1.67-0.8,2.52-1.16c0.27-0.03-0.6,0.44-0.23,0.25c0.54-0.06,0.74-0.45,1-0.56
		c0.28,0.04,1.9-0.81,1.98-0.45c1.83-0.51,0.55-0.73,2.24-1.22c0.3,0.11-1.26,0.59-0.46,0.5l1.64-0.78
		c-0.11,0.16-0.19,0.47-0.83,0.69c2.32-0.82,4.2-1.22,5.99-1.66c1.81-0.43,3.55-0.85,5.58-1.81c0.68,0.02-0.36,0.33-0.71,0.65
		c2.89-1.5,4.45-1.12,7-2.15l-0.03-0.22c3.84-0.7,8.05-2.63,12.22-3.83l-0.54,0.03c0.49-0.4,1.4-0.71,2.05-1.03
		c0.14,0.07-0.34,0.6,0.83,0.12c-0.27,0.01-0.8,0.1-0.69-0.05c1.86-0.32,4.64-1.13,7.7-2.06c3.06-0.93,6.43-1.85,9.38-2.62
		c1.96-0.66,3.99-1.23,6.05-1.76c2.06-0.54,4.14-1.08,6.21-1.62c4.18-0.97,8.33-1.96,12.27-2.92c-1.2,0.28-0.81-0.35,0.13-0.43
		c2.69,0.34,4.29-1.1,6.96-1.05c2.28-0.64,4.51-0.91,6.67-1.26c2.17-0.35,4.28-0.73,6.39-1.42l0.13,0.24
		c0.67,0.01,0.81-0.2,1.49-0.34l0,0.07c1.62-0.18,3.52-0.76,4.46-0.79l0.01-0.29c0.95-0.16,0.53,0.15,1.49-0.15l-0.01,0.15l1.1-0.44
		c-0.04,0.52,2.71-0.35,3.51-0.23c0.61-0.13,1.5-0.32,2.47-0.53c0.97-0.17,2.03-0.33,2.98-0.39c0.38,0.22,2.69-0.07,4.18-0.11
		c2.86-0.39,6.96-0.88,10.63-1.09l-0.09-0.32l0.96-0.09c-0.01,0.07,0.12,0.1-0.02,0.15c0.77,0.31,2.2-0.28,2.99-0.11
		c-0.5-0.26-0.67,0-1.22,0.04c-0.8-0.1-0.07-0.47,1-0.39l-0.02,0.07l0.71-0.23c0.1,0.25,0.76,0.32,0.87,0.56
		c3.15-0.27,5.27-0.81,8.53-0.87c-0.32,0.3,2.34-0.17,1.71,0.35c1.95-0.26-0.34-0.39,0.54-0.77c0.55-0.01,1.12-0.17,1.22,0.01
		c-0.25,0.13,0.46,0.29,0.01,0.35l1.31-0.08c0.13,0.03-0.16,0.11-0.3,0.15c2.66-0.37,4.74,0.19,7.13-0.14
		c0.18-0.18-0.95-0.03-0.78-0.22c2.41-0.41,2.14,0.28,4.39,0l-0.46,0.25c0.73-0.18,1.04-0.4,2.24-0.21
		c0.21,0.29-1.01,0.25-1.59,0.39c0.82,0,2.9-0.09,2.26-0.35c0.98-0.1,1.34,0.16,1.88,0.23c0.02-0.07-0.92-0.19-0.34-0.33
		c1.34,0.16,3.41,0.15,5.05,0.18c-0.02,0.07,0.1,0.18-0.04,0.22c1.32-0.38,1.18,0.27,2.99,0.2c4.84-0.09,11.13-0.38,15.95-0.19
		c1.05-0.37,2.58-0.36,4.12-0.42l0.16,0.51l1.29-0.15c0.52,0.16-0.99,0.08-0.07,0.29l0.49-0.31c0.1,0.19,3.3,0.16,1.14,0.5l5,0.06
		c1.11,0.02,0.65-0.42,1.88-0.29c0.25,0.15-0.44,0.1-0.34,0.28c1.84,0.2,2.91-0.05,3.95-0.32c1.16-0.28,1.52-0.54,5-0.51l-0.5,0.08
		c0.85-0.13,2.34-0.2,2.78-0.27c-0.3,0.29-0.58,0.57-0.57,0.81c0.24-0.51,1.16-1.14,1.03-1.26c-0.11,0.13-0.25,0.26-0.39,0.39
		c-0.49-0.19-0.7-0.12-1.03-0.02c-0.33,0.11-0.83,0.26-1.81,0.13c0.02-0.43,2.12-0.31,1.81-0.63c0.38,0.03,0.7,0.02,0.98,0
		c-0.05,0.04-0.08,0.06-0.14,0.11l0.2-0.11c0.16-0.01,0.31-0.03,0.45-0.05c-0.05,0.05-0.1,0.09-0.17,0.15
		c0.05,0,0.08,0.01,0.09,0.03c0.06-0.06,0.09-0.12,0.13-0.18c0.15-0.02,0.3-0.05,0.44-0.08c-0.27,0.42-0.71,1.24-0.96,1.25
		c1.38-0.61-1.4,2.05-0.53,1.65c-0.04,0.19-0.7,0.9-0.9,0.84c0.62-1.02-0.91,0.34-0.96,0.03c-0.23,0.38,0.83-0.47,0.52,0.05
		c-0.47,0.51-0.98,0.72-1.33,0.92l0.15-0.25l-0.86,0.65c0.01,0.25,0.94-0.53,0.32,0.24c-0.24,0.13-0.86,0.91-0.94,0.78
		c0.15-0.51-0.32-0.5,0.22-1.14c-0.47,0.52-1.99,2.14-1.12,1.73l-0.59,0.59c0.47-0.27,1.69-1.12,0.56,0.11l-0.04-0.06l-0.62,1.02
		l-0.49,0.23c0.08,0.05,0.01,0.24-0.3,0.55c-0.16,0-0.47,0.27-0.55,0.14c-0.86,0.91-0.66,0.96-0.7,1.15
		c-0.47,0.52-0.71,0.65-0.63,0.27c-0.7,0.65-1.84,1.88-2.43,2.21c-0.78,1.03,0.24-0.14-0.11,0.57c-1.23,0.35-3.13,2.86-4.53,4.41
		c0.76-0.02-0.26,0.42-0.26,1.01c-0.1-0.14-1.6,1.08-0.53-0.23l-0.74,0.84c-0.75,0.33,1.13-1.48,0.02-0.94
		c-0.86,0.91-1,1.92-2.18,2.83c0.07-0.63-0.7,0.9-0.75,0.34c0.11-0.32,0.43-0.58,0.7-0.9l-0.24,0.13c-2,1.88-0.22,0.89-1.04,2.11
		c-1.13,1.23-1.14,0.73-1.34,0.67c-0.24,0.13-0.78,0.78-1.01,1.16c0.54-0.9,1.49-1.18,1.34-0.67c-0.83,0.22-1.76,1.75-1.95,2.2
		c2-1.38,1.17-1.17,3.1-2.42c0.11-0.32-0.21-0.56,0.85-1.41c-0.45,0.74,0.2,0.11,0.41-0.01c-0.35,0.02,0.58-0.74,0.8-1.1
		c0.4-0.14-0.18,0.95,0.84,0.04l-0.21-0.56c0.43-0.33,0.12,0.44,0.83-0.46c-0.23,0.64,0.44,0.17-0.57,1.33
		c1.61-0.99,1.79-2.19,2.64-3.35c-0.08,0.13-0.04,0.19-0.11,0.32c0.11-0.32,0.5-0.71,0.77-1.03c0.74-0.59-0.34,0.7-0.07,0.63
		l1.05-1.1c0.03-0.01,0.05-0.01,0.05,0c0.23-0.34,0.46-0.65,0.65-0.65c-0.19,0.45-0.19,0.7-0.3,1.02l0.85-1.41
		c0,0.25,1.14-0.73,0.44,0.18l1.6-1.75l0.4,0.11c0.35-0.45,0.31-0.51-0.2-0.06c0.62-0.52,2.05-3.01,2.27-2.21
		c1.08-1.54,1.64-1.94,3.08-3.67c-0.97,1.47,1.69-1.12,0.52,0.3c0.86-0.66,0.74-1.09,1.28-1.74c0.67-0.46,0.67,0.04,0.17,0.75
		l0.58-0.84l0.04,0.06l0.46-0.77c0.79-0.53,0.4,0.12,1.1-0.54l-0.09-0.37l0.59-0.33c-0.28,0.07,0.07-0.38,0.54-0.9l0.04,0.06
		l0.55-0.65c-0.44,0.74,0.59-0.5,0.49-0.07c0.52-0.51,0.52-0.52,1.39-1.5l-0.32,0.01c1.05-1.35,0.28,0.18,1.26-0.8l-0.24-0.12
		c0.38-0.24,0.87-0.69,1.25-1.07c0.33-0.33,0.61-0.66,0.87-0.97c0.58-0.11,1.13-0.2,1.6-0.25c0.39-0.33,0.36-0.81,1.27-1.32
		c1.07-0.26,0.31,0.26,1.25-0.3l-0.19-0.19c0.65-0.54,0.61-0.49,0.73-0.41c0.26-0.38,0.26-0.62,0.29-0.91c0.06-0.28,0-0.72-0.1-1.29
		c0.16,0.22,0.29,0.48,0.4,0.77C296.74,156.56,296.69,156.36,296.06,155.41z M288.09,162.23c0.09-0.1,0.15-0.22,0.21-0.34
		c0.08,0,0.16,0,0.25,0C288.41,161.98,288.26,162.08,288.09,162.23z"/>
	<path class="st0" d="M260.1,142.94l-1.02-0.05l0.65,0.19C259.74,143.01,259.78,142.95,260.1,142.94z"/>
	<path class="st0" d="M292.87,153.14c0.12,0.04,0.24,0.09,0.37,0.13C293.06,153.17,292.95,153.14,292.87,153.14z"/>
	<path class="st0" d="M296.74,158.97c0.17-0.46-0.11-0.06-0.33,0.1C296.47,159.1,296.56,159.11,296.74,158.97z"/>
	<path class="st0" d="M250.83,147.14c0.17,0,0.21-0.03,0.2-0.07C250.91,147.06,250.83,147.08,250.83,147.14z"/>
	<path class="st0" d="M253.65,142.34c-0.28-0.05-0.43-0.04-0.53-0.01C253.3,142.36,253.48,142.37,253.65,142.34z"/>
	<path class="st0" d="M268.57,151.86c-0.02,0-0.05-0.01-0.07-0.01C267.94,151.82,268.28,151.86,268.57,151.86z"/>
	<path class="st0" d="M278.39,155.13c0.22-0.05,0.31-0.1,0.33-0.15C278.5,154.92,278.35,154.93,278.39,155.13z"/>
</g>
</svg>
