<?xml version="1.0" encoding="utf-8"?>
<!-- Generator: Adobe Illustrator 24.3.0, SVG Export Plug-In . SVG Version: 6.00 Build 0)  -->
<svg version="1.1" id="Слой_1" xmlns="http://www.w3.org/2000/svg" xmlns:xlink="http://www.w3.org/1999/xlink" x="0px" y="0px"
	 viewBox="0 0 568.18 172.81" style="enable-background:new 0 0 568.18 172.81;" xml:space="preserve">
<style type="text/css">
	.st0{fill:#3BFF9F;}
</style>
<g>
	<path class="st0" d="M508.52,2.51c0.06-0.11,0.09-0.24,0.09-0.42C508.49,2.28,508.48,2.41,508.52,2.51z"/>
	<path class="st0" d="M476.85,27.24l-0.75,0.34C476.61,27.45,476.79,27.35,476.85,27.24z"/>
	<path class="st0" d="M511.97,43.37l0.76-0.49C512.38,43.09,512.13,43.2,511.97,43.37z"/>
	<path class="st0" d="M535.14,18.12c0.24-0.19,0.67-0.3,1.08-0.39C535.69,17.76,535.26,17.84,535.14,18.12z"/>
	<path class="st0" d="M543.26,57.85c-0.01-0.08-0.08-0.05-0.17,0.01C543.14,57.87,543.18,57.88,543.26,57.85z"/>
	<path class="st0" d="M553.74,45.47c0.13-0.33,0.24-0.73,0.36-1.14C553.87,44.77,553.56,45.32,553.74,45.47z"/>
	<path class="st0" d="M554.24,43.78c-0.05,0.18-0.09,0.37-0.14,0.55C554.23,44.06,554.33,43.82,554.24,43.78z"/>
	<path class="st0" d="M3.8,145.72l3.36-0.22C5.99,145.28,4.92,145.54,3.8,145.72z"/>
	<path class="st0" d="M394.4,100.34l0.16-0.31C394.35,100.19,394.34,100.28,394.4,100.34z"/>
	<path class="st0" d="M4.88,150.16l-0.82-0.26C4.35,150.05,4.62,150.12,4.88,150.16z"/>
	<path class="st0" d="M375.51,129.95l-0.75,0.3C375.12,130.13,375.34,130.04,375.51,129.95z"/>
	<path class="st0" d="M4.88,150.16l0.95,0.29c-0.06-0.12-0.16-0.22-0.25-0.33C5.35,150.17,5.12,150.19,4.88,150.16z"/>
	<path class="st0" d="M263.85,138.82c0.02,0,0.02,0,0.04-0.01c0.09-0.05,0.16-0.09,0.25-0.15L263.85,138.82z"/>
	<path class="st0" d="M256.59,139.27c0.48-0.15,0.95-0.3,1.47-0.47C257.26,138.9,256.86,139.07,256.59,139.27z"/>
	<path class="st0" d="M3.8,145.72l-1.92,0.13C2.55,145.89,3.18,145.82,3.8,145.72z"/>
	<path class="st0" d="M179.65,150.13c0.25-0.03,0.48-0.07,0.71-0.12C180.05,150.03,179.81,150.07,179.65,150.13z"/>
	<path class="st0" d="M529.75,18.43c-0.18-0.03-0.42-0.03-0.63-0.04C529.07,18.53,529.12,18.61,529.75,18.43z"/>
	<path class="st0" d="M553.89,34.51c0-0.01,0.02-0.03,0.02-0.03L553.89,34.51L553.89,34.51z"/>
	<path class="st0" d="M547.48,39.42c0.11-0.05,0.19-0.1,0.32-0.16C547.67,39.31,547.57,39.36,547.48,39.42z"/>
	<path class="st0" d="M546.58,1.49c-0.26-0.11-0.64-0.21-1.17-0.24C545.71,1.34,546.12,1.43,546.58,1.49z"/>
	<path class="st0" d="M523.97,57.6c0.01-0.01,0-0.02,0-0.03c-0.02,0.02-0.03,0.02-0.05,0.04C523.94,57.61,523.95,57.6,523.97,57.6z"
		/>
	<path class="st0" d="M550.98,47.72c-0.01,0.07-0.02,0.15-0.02,0.22C550.98,47.86,550.98,47.79,550.98,47.72z"/>
	<path class="st0" d="M566.79,13.77c0.36-0.06,0.8-0.14,1.09-0.56c0.29-0.43,0.48-1.19,0.08-2.78c-0.01-0.02-0.02-0.04-0.03-0.07
		c-0.49-0.94-0.78-1.29-0.88-1.34c-0.1-0.05,0,0.17,0.09,0.47c0.18,0.58,0.41,1.34-0.35,0.28c-0.53-1.31-0.96-2.1-1.52-2.91
		c-0.59-0.79-1.36-1.59-3.14-2.35c-0.53-0.74-2.17-1.94-1.51-2.8c-1.34-0.3-3.16-0.98-5.18-1.36c-1.99-0.4-4.09-0.51-5.24-0.08
		c2.4,0.56,3.74,0.49,5.21,0.53c1.42,0.05,3,0.23,4.75,1.62c-0.72,0.09-1.42,0.2-2.15,0.34c-1.61-0.52-3.79-0.81-5.9-0.95
		c-2.12-0.14-4.15-0.14-5.52-0.32c0.37,0.13,0.53,0.3,0.43,0.46c-0.26-0.04-0.55-0.07-0.87-0.11l0.19,0.33
		c-0.59,0.04-1.14,0.09-1.65,0.16c-0.41-0.34,0.9-0.92-1.41-1.27l0.12,0.78c-2.28-0.91-4.32-0.83-6.15-0.64
		c-1.83,0.2-3.48,0.5-5.2,0.14c1.95-0.23,1.45-1.09,1.41-0.88c-2.97,0.3-7.78,0.43-10.68,1.68c-1.21-0.97-1.51-1.3-4.68-1.38
		c-2.24,0.37-2.55,0.54-3.19,1.28c-2.23-0.11-6.15,1.24-6.4,0.48c-0.38,0.72-1.95,0.24-3.03,1l-0.31-0.27l0.33,0.71
		c-4.13-0.91-6.16,2.27-10.26,1.72l0.6-0.35l-1.52,0.67c-0.33-0.26,0.27-0.62,0.24-1.06c-2.48,0.55-4.95,1.14-7.42,1.76l1.59,0.17
		c-1.53,0.49-2.37,1.48-4.25,1.52c2.62-1.92-2.44,0.64-3.16-0.06l1.49-0.74c-2.13,0.69-2.13,0.69-1.73,1.38
		c-2.7,1.08-2.33-0.83-4.65,0.75l1.83-0.53c0.67,0.26-0.46,1.26-1.67,1.62c-0.32-0.02-1.28-0.07-0.39-0.46
		c-1.49,0.68-3.64,1.24-5.06,1.74c-0.74,0.15-1.46,0.32-2.09,0.49c-0.24-0.17-0.03-0.54,0.34-0.81c-4.43,2.3-2.15,0.57-6.61,3.01
		l-0.08-0.43l-1.43,1.16c-0.91,0.06-1.82,0.13-2.85,0.31c0.4,0.01,0.79,0.02,1.16,0.05c-0.83,0.45-1.42,0.82-2.43,1.53l-0.45,0.34
		l-0.29,0.24c-0.13,0.11-0.19,0.16-0.37,0.33l-0.24,0.25c-0.08,0.09-0.14,0.14-0.29,0.34c-0.13,0.16-0.26,0.34-0.37,0.51l-0.09,0.13
		l-0.14,0.25c-0.1,0.19-0.19,0.38-0.27,0.58c-0.08,0.2-0.15,0.4-0.21,0.61c-0.07,0.26-0.16,0.74-0.18,1.12
		c-0.02,0.41,0,0.82,0.07,1.21c0.06,0.39,0.2,0.86,0.39,1.28c0.19,0.43,0.44,0.83,0.72,1.18c0.24,0.3,0.38,0.42,0.59,0.63
		c0.2,0.18,0.42,0.35,0.65,0.5c0.11,0.07,0.23,0.15,0.34,0.21l0.17,0.09c0.23,0.12,0.48,0.23,0.73,0.32l0.19,0.07l0.1,0.03l0.2,0.06
		l0.42,0.1l0.28,0.05c0.4,0.06,0.6,0.08,0.87,0.1c0.35,0.02,0.72,0.04,1.12,0.06c-0.35,0.23-0.73,0.46-1.39,0.64
		c0.72,0.02,1.12-0.02,1.49-0.05c0.33-0.03,0.65-0.06,0.95-0.08c0.56-0.05,1.02-0.08,1.45-0.1c0.84-0.04,1.53-0.03,2.2-0.03
		c1.34-0.01,2.62-0.09,4.66-0.92c0.31,0.06-0.31,0.38-0.63,0.54c3.73-1.71,3.17,0.58,6.84-1.38c-0.2,0.26,0.28,0.44,0.16,0.65
		l1.69-0.75l0.03,0.88l1.19-1.54l1.26,0.66l0.6-0.54c2.2,1.26,4.61-0.49,7.41,0.23l-0.65-0.99c6.04-3.5,15-1.62,22.57-4l0.01,0.88
		l3.03-1.56c1.83,0.39-0.91,0.91-0.3,1.25c3.34-1.05,1.21-1.51,5.16-2.4c2.13,0.25-0.61,0.74-1.52,1.2
		c3.65-1.04,9.09-2.32,11.78-2.17c0.04-0.12,0.19-0.3,0.04-0.33c1.21-0.35,2.65-0.53,4.11-0.66c0.73-0.05,1.47-0.11,2.2-0.16
		c0.36-0.03,0.72-0.06,1.07-0.08c0.31-0.03,0.61-0.06,0.91-0.09c0.12,0.39-0.56,0.52-1.23,0.67c0.24-0.01,0.51-0.01,0.79-0.01
		l0.41,0l0.17,0.01c0.21,0.01,0.41-0.04,0.59-0.26c-0.15,0.26-0.28,0.52-0.39,0.78c0.34,0.05,0.85-0.13,1.33-0.2
		c0.47-0.07,0.85-0.03,0.68,0.42c0.1-0.34,0.44-1.02,1.13-1c-0.25,0.69,0.21,0.54,0.94,0.33c0.7-0.21,1.76-0.46,1.84-0.01
		c-0.54,0.29-1.33,0.28-1.14,0.32c0.05,0.4,1.22-0.17,2.34-0.42l-0.92,0.48c0.46-0.02,0.95,0,1.42,0.09
		c0.46,0.09,0.92,0.3,1.15,0.61c0.12,0.11,0.17,0.24,0.24,0.37c-1.2,0.62-1.25,1.1-1.35,1.52c-0.1,0.42-0.16,0.77-0.88,0.78
		c-0.28,0.34,0.05,0.19,0.41,0.03c0.36-0.16,0.77-0.31,0.52,0.17c-1.03,0.29-0.32,0.85-1.53,0.78l-0.07-0.09
		c-0.13,0.19-0.27,0.37-0.42,0.56c-0.26-0.16-0.54-0.3-0.84-0.41c-0.07,0.37,0.63,0.9,1.35,1.13c-0.54,0.19-0.87,0.46-1.2,0.69
		c-0.33,0.23-0.67,0.39-1.12,0.26l-0.02-0.26c-0.23,0.32-0.62,0.51-1,0.59c-0.1,0.02-0.19,0.04-0.29,0.05
		c-0.1,0.02-0.16-0.01-0.36,0.08c-0.45,0.21-0.89,0.41-1.32,0.61c-1.72,0.8-3.26,1.61-4.35,3.32c-0.3,0.07-0.4-0.12,0.08-0.47
		l-2.43,1.73l0.2-0.93c-1.14,1.23-2.28,2.47-3.46,3.69l-0.2-0.39c-2.78,1.75-6.95,4.83-10.48,7.25l0.42-0.52
		c-3.57,3.08-4.02,2.08-6.68,4.29c0.04-0.16,0.12-0.26,0.21-0.35L509.35,45l0.36-0.71c-1.46,2-6.22,2.33-4.61,2.28
		c-0.9,1.02-2.57,2.58-2.63,3.23c-2.9,1.75-1-0.06-2.99,0.67c-2.14,1.17-2.14,2.05-5.22,3.34l-0.15-0.41
		c-1.32,0.82-2,1.58-3.86,2.68l0.46-0.49c-2.65,2.5-4.46,1-5.99,3.99c-1.47,0.4-3.82,1.96-4.11,1.13
		c-3.61,2.57-6.54,4.38-10.27,6.68c-1.27-0.95-0.79,0.52-3.53,0.98l0.52,0.59c-5.49,2.89-12.7,4.32-18.73,7.51l-0.5-0.61l-0.88,1.34
		c-6.8,2.82-15.58,6.45-20.95,8.78c-1.6,1.13-3.9,3.15-6.82,4.09l0.25-0.22c-4.7,2.51-9.78,4.95-15.31,6.73
		c0.18-0.37-0.23-0.42-0.04-0.7c-1.02,1.12-3.03,1.16-4.14,1.58l1.56-0.01c-1.26,1.29-3.72,1.52-4.7,1.3l-2.13,1.72
		c-0.19-0.01-0.48-0.02-0.55-0.12l-0.28,0.55l-1.66-0.43c-0.53,0.42-3.65,1.9-4.31,3.19c-0.35-0.22-2.72,0.4-1.03-0.44l-9.02,3.05
		l1.52-0.18c0.44,0.65-2.08,2.1-3.59,2.28c1.61-1.25-0.22-1.07-1.19-1.32c-1.07,0.83,1.29,0.25,0.79,0.88
		c-1.35,1.04-4.51,2.45-5.44,2.42l0.81-0.62c-1.98,1.02-3.39,0.1-5.42,0.88c-1.64,1.23-3.19,1.17-2.38,2.27
		c-2.59,1.17-1.32-0.49-2.23-0.31c-1.05,1.02-4.92,1.93-5.61,1.44c-0.86,2.32-7.43,1.74-7.48,3.45l-2.48-0.16
		c0.06,0.43-0.07,1.51-1.82,2.25c-1.83,0.08-1.66-0.76-2.31-1.02l-0.65,1.89c-10.24,1.44-22.83,6.31-33.99,7.79
		c-4.72,1.6-10.61,3.9-16.33,4.98l0.58-0.34l-5.73,0.84l4.26-0.2c-1.19,0.46-2.08,0.98-3.27,1.22c-3.17,0.37-6.86,0.81-10.69,1.48
		c-1.91,0.33-3.86,0.73-5.8,1.19c-1.95,0.42-3.89,0.87-5.76,1.44c-4.61,2.76-3.61-0.99-8.11,1.24c0.38-0.25,0.48-0.53,0.81-0.78
		c-2.5,0.79-4.44,1.39-6.36,2.06c-0.96,0.33-1.92,0.68-2.95,1.07c-1.04,0.36-2.14,0.76-3.39,1.23c0.29-1.9-3.35,0.57-3.05-0.46
		l-0.31,0.81c-1.22-0.27-3.95-0.01-3.64-0.6l-2.13,1.28l-0.31-0.73c-3.03,0.39-9.41,2.11-11.23,0.7
		c-7.35,2.03-19.24,3.36-28.72,3.79c-1.27,0.75-4.03,1.06-6.18,1.33l-2.38-0.69c-2.16,0.51-4.42,1.8-6.51,1.34
		c0.01-0.11,0.08-0.19,0.22-0.25c-2.22,0.33-4.38-0.02-6.41,0.96c-2.17,0.1-4.29-0.15-4.28-0.83c-0.76,1.03-5.07-0.17-5.07-0.17
		s-7.86,0.12-20.13,0.3c-3.07-0.02-6.41-0.04-9.97-0.07c-1.78-0.01-3.62-0.01-5.5-0.02c-1.89,0-3.82,0-5.79-0.07
		c-7.9-0.21-16.47-0.31-25.28-0.74c-17.61-0.68-36.17-1.81-52.28-2.91c-16.11-1.07-29.81-1.79-37.76-1.08
		c-1.14,0.56-4.07,0.57-3.13,1.63c-2.24-0.09-3.03-1.56-3.58-0.89c2.9,0.99-1.26,1.76,1.51,3.16l-1.91-0.13
		c-0.48,0.46,2.66-0.17,2.03,0.71l0.77-1.29c1.49,0.46,2.27,0.89,2.73,1.45c1.52-0.3,2.74-2.02,6.02-0.64l-0.96-0.07
		c2.79,0.41,1.56,1.18,2.11,1.5l-0.61-0.11l2.24,1.05c-1.71-0.71-4.82-0.1-3.27,0.08c3.26,0.93-0.81-0.47,1.71-0.24
		c1.56,0.16,1.01,0.83,0.88,1.25l2.79,0.36c-0.19,0.63-1.84-0.31-0.81,0.52l3.62-0.16c0.42,1.73,3.93-0.22,5.32,1.56
		c-2.58,0.01,0.15,0.58-0.33,1.05c2.07,0.28,4.15,0.49,6.23,0.74c0.56,0.3-1.7,0.29-0.75,0.33c1.11,0.6,1.98-0.15,2.61-0.05
		c0.48,0.52,4.64,0.58,4.34,1.64c4.14,1.26,1.94-1.12,5.81-0.07c0.44,0.72-3.15-0.19-1.48,0.69l4.12,0.2
		c-0.41,0.28-0.92,0.98-2.44,0.67c5.49,1.02,9.64,2.62,13.72,3.88c4.08,1.23,8.08,2.24,13.22,2.24c1.38,0.91-1.07,0.44-2.14,0.86
		c3.74-0.17,6.31,0.39,8.74,1.11c2.43,0.71,4.72,1.53,7.89,1.69l0.15-0.64c4.34,1.35,9.2,1.66,14.21,1.95
		c2.5,0.12,5.04,0.25,7.58,0.37c2.54,0.08,5.07,0.21,7.57,0.46l-1.18-0.48c1.39-0.6,3.6-0.63,5.25-0.9c0.25,0.33-1.21,1.37,1.7,1.15
		c-0.6-0.24-1.82-0.51-1.45-0.82c2.14,0.45,4.88,0.83,8,1.03c3.13,0.18,6.64,0.28,10.32,0.36c7.38,0.23,15.43-0.04,22.51,0.12
		c4.77-0.29,9.64-0.58,14.55-0.88c2.46-0.12,4.93-0.25,7.4-0.38c2.48-0.11,4.96-0.21,7.43-0.42c4.95-0.38,9.89-0.75,14.76-1.12
		c1.22-0.1,2.43-0.21,3.64-0.31c1.2-0.15,2.4-0.29,3.59-0.44c2.38-0.3,4.74-0.62,7.07-0.96c-2.84,0.41-1.82-1.34,0.36-1.24
		c6.2,1.95,10.09-1.63,16.3-0.79c5.34-1.28,10.51-1.71,15.57-2.28c5.05-0.63,9.96-1.57,14.77-3.52l0.34,0.72
		c1.56,0.06,1.86-0.54,3.42-0.91l0,0.22c1.88-0.21,3.91-0.72,5.73-1.18c1.82-0.51,3.44-0.99,4.53-1.04l-0.05-0.88
		c2.17-0.56,1.28,0.4,3.41-0.59l0.03,0.44l2.43-1.39c0.08,1.54,6.19-1.27,8.09-0.99c1.38-0.46,3.38-1.12,5.57-1.81
		c2.18-0.71,4.56-1.38,6.73-1.77c0.98,0.54,6.21-0.78,9.62-1.31c6.42-1.91,15.55-4.74,23.77-6.95l-0.43-0.9l2.1-0.71
		c0.03,0.22,0.35,0.24,0.06,0.44c1.97,0.57,4.8-1.82,6.7-1.71c-1.34-0.51-1.52,0.34-2.74,0.69c-1.88,0.08-0.49-1.32,1.99-1.6
		l0.02,0.22l1.44-1c0.41,0.68,1.97,0.56,2.39,1.23c6.91-2.41,11.22-5.2,18.45-7.31c-0.45,1.07,5.04-1.98,4.1-0.08
		c4.09-2.03-1.1-0.89,0.5-2.57c1.2-0.39,2.31-1.22,2.71-0.78c-0.44,0.53,1.27,0.51,0.35,0.98l2.81-1.13
		c0.31,0.01-0.25,0.43-0.53,0.64c5.5-2.88,10.6-2.82,15.46-5.58c0.19-0.65-2.1,0.63-1.92-0.02c4.81-2.97,4.93-0.84,9.49-3.42
		l-0.73,1.08c1.38-1.08,1.82-1.95,4.6-2.4c0.77,0.64-1.91,1.52-3,2.39c1.78-0.66,6.15-2.62,4.5-2.83c2-1.1,3.05-0.69,4.28-0.92
		c-0.04-0.21-2.18,0.25-1.1-0.62c3.05-0.68,7.45-2.5,10.96-3.88c0.05,0.21,0.42,0.41,0.16,0.64c2.35-2.23,2.82-0.28,6.56-2.15
		c10.14-4.65,22.82-11.6,32.92-16.07c1.67-2.07,4.8-3.63,7.85-5.4l1.01,1.21l2.41-1.74c1.28-0.12-1.9,1.26,0.25,0.84l0.57-1.34
		c0.46,0.4,6.91-3.07,3,0.14c3.41-1.71,6.8-3.44,10.19-5.2c2.26-1.13,0.72-1.81,3.37-2.78c0.71,0.13-0.74,0.74-0.29,1.12
		c7.97-2.94,7.16-7.18,14.32-10.37l-0.48,0.5c0.96-1.01,3.2-2.2,3.12-2.41c-1.64-0.85-0.81,1.42-3.34,1.79
		c-0.45-1.24,2.25-2.07,1.63-2.85c1.82-0.49,2.39-1.67,3.73-2.53c2.76-0.65,5.83-3.12,8.12-3.31c0.94-1.03,1.55-2.9,3.97-4.43
		c2.28-0.21,0.1,1.09,2.68-0.06l-0.02-0.88c2.01-1.11,1.82-0.74,1.94-0.4c2.1-1.29,1.18-1.97,4.03-3.22l-1.05,1.55
		c1.77-1.47,2.62-1.87,5.32-3.58c0.18,0.4-0.9,1.09-1.76,1.49c2.07-0.01,2.21-2.05,3.06-2.46c-0.41-0.12-2.33,0.98-1.84-0.24
		c1.39-0.76,2.22-2.72,3.65-2.62l-1.02,1.58c2.4-2.36,0.93-1.75,4.21-3.7c-0.14,0.16,0.05,0.26,0.08,0.44
		c1.41-2.16,4.47-3.3,7.38-5.41l-0.42,0.57c1-1.08,1.22-2.11,1.87-2.54c-1.89,0.91-1.58,0.39-2.17-0.07
		c1.44-0.33,2.04-1.24,2.74-2.36c0.57-0.98,1.85-2.67,4.3-4.32c0.32,0.31-0.41,1.62-2.02,2.38c-0.82,2.38-0.1,3.15-1.91,5.36
		c1.15-1.28,2.57-2.66,2.63-2.02c-0.08-0.44-0.1-0.95-0.17-1.4c1.14-1.01,2.11-1.74,2.99-2.49c-0.06-0.44-0.89-0.14-1.4-0.06
		c-0.52,0.07-0.71-0.06,0.31-1.28c1.56-1.78,2.17-1.46,2.38-1.27c-0.18,0.29-0.35,0.55-0.54,0.73c-0.09,0.42-0.14,0.69-0.16,0.87
		c-0.23,0.36-0.42,0.7-0.56,1c0.38-0.35,0.74-0.72,1.08-1.1c0.07,0.04,0.13,0.19,0.14,0.54c-1.31,0.72-2.39,2.66-3.46,4.95
		c-1.07,2.29-2.15,4.92-3.23,6.94c1.98-0.21-0.28,1.06,0.28,2.5c-0.47-0.2-3.18,2.84-1.59-0.46l-1.17,2.16
		c-1.66,0.91,1.59-3.77-0.82-2.31c-1.4,2.31-0.88,4.83-3.23,7.17c-0.34-1.56-1.11,2.27-1.71,0.87c0.04-0.79,0.66-1.45,1.1-2.26
		l-0.51,0.34c-3.72,4.73,0.14,2.22-1.05,5.28c-2.06,3.09-2.47,1.81-3.04,1.66c-0.53,0.32-1.49,1.93-1.84,2.89
		c0.79-2.23,3.09-2.91,3.07-1.63c-2.03,0.52-3.41,4.34-3.62,5.47c4.36-3.38,2.3-2.87,6.5-6.01c0.07-0.81-0.97-1.41,1.17-3.56
		c-0.61,1.88,0.62,0.28,1.08-0.04c-0.89,0.08,0.96-1.87,1.23-2.79c0.93-0.38,0.3,2.39,2.25,0.02l-1.03-1.38
		c0.86-0.85,0.72,1.08,1.79-1.25c-0.04,1.61,1.34,0.38-0.37,3.4c3.46-2.67,2.87-5.72,3.99-8.73c-0.06,0.25,0.02,0.39,0.03,0.58
		c0.09-0.77,0.65-1.71,1.01-2.49c1.36-1.64-0.19,1.8,0.45,1.56c0.57-0.99,1.11-1.99,1.66-2.99c0.08-0.04,0.11-0.04,0.14-0.02
		c0.23-0.9,0.51-1.71,1.01-1.81c-0.02,1.14,0.26,1.75,0.3,2.57c0.25-1.25,0.49-2.49,0.7-3.73c0.31,0.61,2.15-2.28,1.36,0.22
		c0.73-1.65,1.44-3.31,2.06-5l1.19,0c0.32-1.29,0.14-1.4-0.59-0.01c0.49-0.81,0.79-2.92,1.1-4.61c0.29-1.69,0.62-2.99,1.53-2.24
		c0.14-2.19,0.23-3.68,0.34-5.28c0.03-0.55,0.05-1.12,0.05-1.74c0.45-0.44,0.9-0.79,1.37-0.99c0.16,0.37,0.71,0.44-0.09,1.47
		l-0.23-0.05c-0.3,1.5,0,0.89,0.49,0c0.12-0.22,0.26-0.46,0.4-0.68c0.12-0.22,0.24-0.43,0.36-0.6c0.18-0.24,0.36-0.39,0.55-0.39
		c-0.04-0.09-0.04-0.22,0-0.4c0.03-0.18,0.1-0.39,0.19-0.63c0.07-0.24,0.15-0.51,0.24-0.79c0.2-0.57,0.45-1.2,0.62-1.8
		c0.1-0.3,0.19-0.59,0.28-0.86c0.07-0.28,0.13-0.53,0.19-0.75l-1.05,0.75c-0.39-1.25-0.57-1.87-0.51-2.21
		C566.16,13.89,566.42,13.83,566.79,13.77z M547.11,11.19c-0.07-0.07-0.1-0.12-0.15-0.17C547.03,11.06,547.08,11.11,547.11,11.19z
		 M462.27,25.14L462.27,25.14c-0.01-0.01-0.01-0.01-0.01-0.02C462.27,25.14,462.27,25.14,462.27,25.14z"/>
	<path class="st0" d="M566.38,21c-0.08-0.07-0.16-0.09-0.24-0.09C566.18,21,566.25,21.04,566.38,21z"/>
	<path class="st0" d="M404.35,95.87c0.05-0.06,0.11-0.1,0.16-0.16C404.43,95.77,404.39,95.83,404.35,95.87z"/>
	<path class="st0" d="M168.96,150.27c0.06-0.08,0.11-0.18,0.12-0.29C168.99,150.08,168.96,150.18,168.96,150.27z"/>
	<path class="st0" d="M538.65,46.81c-0.12,0.17-0.24,0.33-0.32,0.51C538.61,47.07,538.66,46.92,538.65,46.81z"/>
	<path class="st0" d="M524.72,57.89c0.97-0.84-0.11-0.43-0.75-0.29C524.04,57.76,524.18,57.93,524.72,57.89z"/>
</g>
</svg>
