<?xml version="1.0" encoding="utf-8"?>
<!-- Generator: Adobe Illustrator 24.3.0, SVG Export Plug-In . SVG Version: 6.00 Build 0)  -->
<svg version="1.1" id="Слой_1" xmlns="http://www.w3.org/2000/svg" xmlns:xlink="http://www.w3.org/1999/xlink" x="0px" y="0px"
	 viewBox="0 0 1731.64 802.67" style="enable-background:new 0 0 1731.64 802.67;" xml:space="preserve">
<style type="text/css">
	.st0{fill:#22FF93;}
	.st1{fill:#FFFFFF;}
</style>
<g>
	<g>
		<path d="M932.28,195.66c-0.8,1.28-7.18-1.44-10.03-2.86c-0.67-0.34-7.43-3.72-6.93-5.26c0.37-1.12,4.52-1.09,7.88,0
			C928.79,189.37,933.04,194.44,932.28,195.66z"/>
		<path d="M886.27,146.57c-5.47-1.37-9.54-4.35-12.21-6.78c5.17,0.24,11.86,0.08,19.45-1.36c31.6-6.02,48.89-28.78,49.57-28.04
			C943.99,111.39,913.77,153.45,886.27,146.57z"/>
		<path d="M945.89,204.26c-1.09,3.73-16.25,4.17-28.42-1.43c-5.12-2.36-9.99-5.92-9.55-6.93c0.46-1.04,6.36,1.19,14.81,2.63
			c8.19,1.4,15.21,1.45,20.29,1.19C945.73,202.01,946.14,203.39,945.89,204.26z"/>
		<path d="M926.53,87.77c8.59,0.2,11.64,2.34,12.66,4.52c3.69,7.86-13.82,27.04-34.37,33.93c-10.58,3.54-29.03,6.2-34.83-2.27
			c-1.72-2.5-1.8-5.19-1.81-6.33c-0.29-17.88,32.74-37.04,61.97-45.23c19.37-5.43,40.87-7.11,41.61-4.07
			C972.22,70.2,964.9,74.88,926.53,87.77z"/>
		<path d="M1097.24,108.25c-0.46,1.25-9.53-0.76-9.55-2.72c-0.01-0.85,1.66-1.59,3.53-2.18
			C1096.16,106.4,1097.43,107.72,1097.24,108.25z"/>
		<path d="M1106.78,99.62c-4.46-0.4-6.54-6.45-5.39-8.63c1.05-1.99,5.52-2.09,8.72-0.94c1.12,0.99,2.24,1.98,3.35,2.97
			C1113.85,95.47,1110.83,99.99,1106.78,99.62z"/>
		<path d="M1383.56,123.95h-60.1c0,0.03,0.01,0.05,0.02,0.08h60.14C1383.6,124,1383.58,123.98,1383.56,123.95z M1207.88,123.95
			c0,0.03,0,0.06,0.01,0.08h54.01c0.01-0.02,0.01-0.05,0.02-0.08H1207.88z M1537.98,123.95h-128.97c0.03,0.03,0.06,0.05,0.09,0.08
			c0.01,0.01,0.03,0.02,0.04,0.04c35.42-0.01,70.82-0.02,106.24-0.03h0.01c7.65-0.01,15.31-0.01,22.96-0.01
			C1538.23,124,1538.11,123.98,1537.98,123.95z M1605.18,310.33c1.4,1.32,2.75,2.64,4.08,3.97v-3.75
			C1607.91,310.49,1606.55,310.42,1605.18,310.33z M1319.69,677.51c-2.99-0.28-5.21,0.55-5.42,1.59c-0.26,1.39,2.92,3.96,4.64,2.97
			C1319.98,681.46,1320.47,679.51,1319.69,677.51z M1329.38,677.03c0.04,1.12,4.38,2.3,8.17,1.39c4.78-1.14,6.85-5.16,7.12-5.72
			C1332.46,674.69,1329.34,676.08,1329.38,677.03z M1466.95,685.28c-2.07,0.17-3.33,1.93-3.6,2.3c-0.8,1.11-1.79,3.31-0.97,4.5
			c1.55,2.23,9.43,0.81,10.02-1.96C1472.8,688.22,1469.93,685.03,1466.95,685.28z M1454.61,712.2c-0.01,0-0.01,0-0.02,0
			c-0.08,0.01-0.16,0.02-0.24,0.03c-0.01,0-0.02,0.01-0.03,0.01c-1.01,0.45-2.81,4.05-6.16,15.78c-2.06-3.03-3.84-3.39-4.67-3.42
			c-4.45-0.16-10.08,8.24-7.69,14.67c1.07,2.86,3.96,5.96,7.2,5.91c4.94-0.08,8.04-7.45,9.62-11.21
			C1456.87,723.85,1456.36,712.49,1454.61,712.2z M1434.53,664.88c-7.07-0.19-12.05-0.08-20.46,0.11
			c-25.74,0.59-57.76,2.6-57.76,4.23c0.02,1.06,16.32,1.95,48.91,3.73c2.82,0.15,5.27,0.28,7.2,0.38
			c0.35,5.03,1.12,11.89,2.78,12.04c1.52,0.13,3.76-5.31,4.6-9.63c0.2-1.01,0.31-1.88,0.37-2.53c2.72-0.1,6.3-0.22,10.5-0.33
			c41.23-1.14,58.13,0.3,58.24-0.95C1489.04,670.41,1463.78,665.63,1434.53,664.88z M1511.17,770.57
			c-2.01-3.15-8.3-12.97-9.19-12.47c-0.6,0.33,1.24,5.39,3.89,9.76c3.78,6.24,9.05,10.84,9.63,10.38
			C1515.88,777.93,1514.22,775.33,1511.17,770.57z M1494.69,697.86c-0.11-0.78-0.64-4.49-3.71-5.96c-1.79-0.86-4.37-0.91-5.86,0.34
			c-3.97,3.35-0.18,16.11,3.65,16.49C1491.5,709,1495.45,703.11,1494.69,697.86z M1628.6,161.77c-1.76,1.03,10.91,27.25,23.18,50.46
			c2.52-0.65,5.04-1.3,7.56-1.94C1645.96,181.64,1630.27,160.8,1628.6,161.77z M1398.99,123.95h-5.18c0.02,0.03,0.04,0.05,0.07,0.08
			h5.21C1399.06,124,1399.02,123.98,1398.99,123.95z"/>
		<g>
			<g>
				<path d="M1651.78,212.23c-12.27-23.21-24.94-49.43-23.18-50.46c1.67-0.97,17.36,19.87,30.74,48.52
					c2.66,5.67,5.22,11.65,7.56,17.82c2.26,5.96,7.22,19.03,6.08,19.55C1671.64,248.27,1661.84,231.26,1651.78,212.23z"/>
				<path d="M1673.62,272.8c0.61-10.25-1.7-15.83,0.09-16.57c1.67-0.69,5.26,3.52,7.15,7.27c2.74,5.43,3.89,13.82-0.66,19.63
					c-2.13,2.72-5.92,5.42-7.61,4.4C1670.75,286.41,1673.08,281.84,1673.62,272.8z"/>
				<path d="M1609.26,310.55v3.75c-1.33-1.33-2.68-2.65-4.08-3.97C1606.55,310.42,1607.91,310.49,1609.26,310.55z"/>
				<path d="M1639.19,305.21c-0.14,0.58-2.84,0.5-6.51,0.4c-3.43-0.11-11.25-0.34-11.33-1.4c-0.06-0.84,4.74-2.36,9.58-1.97
					C1635.3,302.58,1639.38,304.46,1639.19,305.21z"/>
				<path d="M1647.46,294.15c-0.89,2.07-8.71,1.89-14.84-0.14c-10.8-3.57-18.37-13.56-16.53-15.8c1.87-2.28,13.78,3.08,19.37,6.09
					C1637.19,285.23,1648.64,291.39,1647.46,294.15z"/>
				<path d="M1635.36,532.99c-0.52,0.44-3.88-1.23-5.67-4.1c-2.07-3.3-1.51-7.34-0.83-7.46c0.38-0.06,0.68,1.16,2.25,4.15
					C1633.8,530.7,1635.82,532.61,1635.36,532.99z"/>
				<path d="M1635.3,455.08c-2.33,0.91-8.15-4.79-10.03-10.98c-2.38-7.87,1.64-16.4,4.31-16.37
					C1634.2,427.8,1639.66,453.4,1635.3,455.08z"/>
				<path d="M1637.59,532.47c-1.18-1.97-2.81-5.04-4.1-9.07c-1.54-4.82-2.38-10.32-1.79-10.45c0.62-0.14,2.94,5.46,4.31,10.57
					C1637,527.23,1637.41,530.35,1637.59,532.47z"/>
				<path d="M1645.94,618.99c-1.16,1.5-3.16,0.58-8.11,1.12c-0.61,0.06-1.26,0.15-1.96,0.27c-6.11,1.03-9.16,3.18-9.64,2.48
					c-0.39-0.58,1.1-2.79,9.95-10.25c0.42-0.36,0.86-0.73,1.32-1.11c0.59-2.23,1.5-4.54,2.91-4.72
					C1643.4,606.42,1648.38,615.82,1645.94,618.99z"/>
				<path d="M1644.44,522.79c-6.69-0.75,7.46-50.86-11.95-124c-9.21-34.75-22.42-61.19-17.36-63.45
					c4.38-1.96,19.06,15.62,28.04,29.95c8.58,13.69,18.87,35.49,21.07,66.8C1667.54,479.25,1650.75,523.49,1644.44,522.79z"/>
				<path d="M1695.27,699.1c-2.56,4.35-5.62,7.37-7.93,9.31c1.5-3.16,3.7-7.93,6.22-13.82c4.87-11.43,5.87-15.31,6.45-15.17
					C1700.91,679.65,1700.68,689.87,1695.27,699.1z"/>
				<path d="M1699.84,600.99c-2.23,2.46-6.56,4.49-9.44,3.09c-8.68-4.23-3.16-39.25,2.36-39.68c4-0.32,7.81,17.52,8.08,18.79
					C1702.28,590.12,1703.67,596.75,1699.84,600.99z"/>
				<path d="M1694.08,717.59c-5.03,6.8-10.68,11.54-11.14,11.14c-0.63-0.53,8.7-10.14,15.64-26.55c1.44-3.38,2.44-6.28,3.09-8.3
					c2.85-5.09,3.88-6.08,4.26-5.92C1707.25,688.5,1704.01,704.17,1694.08,717.59z"/>
				<path class="st0" d="M1639.19,305.21c-0.14,0.58-2.84,0.5-6.51,0.4c-3.43-0.11-11.25-0.34-11.33-1.4
					c-0.06-0.84,4.74-2.36,9.58-1.97C1635.3,302.58,1639.38,304.46,1639.19,305.21z"/>
				<path class="st0" d="M1647.46,294.15c-0.89,2.07-8.71,1.89-14.84-0.14c-10.8-3.57-18.37-13.56-16.53-15.8
					c1.87-2.28,13.78,3.08,19.37,6.09C1637.19,285.23,1648.64,291.39,1647.46,294.15z"/>
				<path class="st0" d="M1635.36,532.99c-0.52,0.44-3.88-1.23-5.67-4.1c-2.07-3.3-1.51-7.34-0.83-7.46
					c0.38-0.06,0.68,1.16,2.25,4.15C1633.8,530.7,1635.82,532.61,1635.36,532.99z"/>
				<path class="st0" d="M1635.3,455.08c-2.33,0.91-8.15-4.79-10.03-10.98c-2.38-7.87,1.64-16.4,4.31-16.37
					C1634.2,427.8,1639.66,453.4,1635.3,455.08z"/>
				<path class="st0" d="M1637.59,532.47c-1.18-1.97-2.81-5.04-4.1-9.07c-1.54-4.82-2.38-10.32-1.79-10.45
					c0.62-0.14,2.94,5.46,4.31,10.57C1637,527.23,1637.41,530.35,1637.59,532.47z"/>
				<path class="st0" d="M1644.44,522.79c-6.69-0.75,7.46-50.86-11.95-124c-9.21-34.75-22.42-61.19-17.36-63.45
					c4.38-1.96,19.06,15.62,28.04,29.95c8.58,13.69,18.87,35.49,21.07,66.8C1667.54,479.25,1650.75,523.49,1644.44,522.79z"/>
				<path class="st0" d="M1695.27,699.1c-2.56,4.35-5.62,7.37-7.93,9.31c1.5-3.16,3.7-7.93,6.22-13.82
					c4.87-11.43,5.87-15.31,6.45-15.17C1700.91,679.65,1700.68,689.87,1695.27,699.1z"/>
				<path class="st0" d="M1699.84,600.99c-2.23,2.46-6.56,4.49-9.44,3.09c-8.68-4.23-3.16-39.25,2.36-39.68
					c4-0.32,7.81,17.52,8.08,18.79C1702.28,590.12,1703.67,596.75,1699.84,600.99z"/>
				<path class="st0" d="M1694.08,717.59c-5.03,6.8-10.68,11.54-11.14,11.14c-0.63-0.53,8.7-10.14,15.64-26.55
					c1.44-3.38,2.44-6.28,3.09-8.3c2.85-5.09,3.88-6.08,4.26-5.92C1707.25,688.5,1704.01,704.17,1694.08,717.59z"/>
				<path class="st1" d="M1647.46,294.15c-0.89,2.07-8.71,1.89-14.84-0.14c-10.8-3.57-18.37-13.56-16.53-15.8
					c1.87-2.28,13.78,3.08,19.37,6.09C1637.19,285.23,1648.64,291.39,1647.46,294.15z"/>
				<path class="st1" d="M1644.44,522.79c-6.69-0.75,7.46-50.86-11.95-124c-9.21-34.75-22.42-61.19-17.36-63.45
					c4.38-1.96,19.06,15.62,28.04,29.95c8.58,13.69,18.87,35.49,21.07,66.8C1667.54,479.25,1650.75,523.49,1644.44,522.79z"/>
				<path class="st1" d="M1635.3,455.08c-2.33,0.91-8.15-4.79-10.03-10.98c-2.38-7.87,1.64-16.4,4.31-16.37
					C1634.2,427.8,1639.66,453.4,1635.3,455.08z"/>
				<path class="st1" d="M1699.84,600.99c-2.23,2.46-6.56,4.49-9.44,3.09c-8.68-4.23-3.16-39.25,2.36-39.68
					c4-0.32,7.81,17.52,8.08,18.79C1702.28,590.12,1703.67,596.75,1699.84,600.99z"/>
				<path d="M1637.59,532.47c-1.18-1.97-2.81-5.04-4.1-9.07c-1.54-4.82-2.38-10.32-1.79-10.45c0.62-0.14,2.94,5.46,4.31,10.57
					C1637,527.23,1637.41,530.35,1637.59,532.47z"/>
				<path d="M1635.36,532.99c-0.52,0.44-3.88-1.23-5.67-4.1c-2.07-3.3-1.51-7.34-0.83-7.46c0.38-0.06,0.68,1.16,2.25,4.15
					C1633.8,530.7,1635.82,532.61,1635.36,532.99z"/>
				<path d="M1639.19,305.21c-0.14,0.58-2.84,0.5-6.51,0.4c-3.43-0.11-11.25-0.34-11.33-1.4c-0.06-0.84,4.74-2.36,9.58-1.97
					C1635.3,302.58,1639.38,304.46,1639.19,305.21z"/>
				<path d="M1706.86,338.65c-3.34-3.41-7.25-7.39-10.44-6.51c-5.18,1.43-8.63,15.78-1.15,24.41c5.93,6.84,18.1,9.38,21.77,5.92
					C1721.41,358.35,1713.72,345.65,1706.86,338.65z"/>
				<path d="M1691.31,534.3c-14.37-1.89-23.81,18.42-31.27,14.61c-14.82-7.58,31.03-84.01,11.52-158.31
					c-9.44-35.94-31.14-61.7-45.57-76.25c35.54,1.66,49.45-9.09,55.48-16.33c14.88-17.85,12.26-50.76-5.94-91.89
					c0-0.02-0.01-0.03-0.02-0.05c-9.23-22.94-13.97-42.01-16.56-54.48c-11.04-53.41-4.8-94.27-26.76-104.31
					c-2.52-1.15-4.54-1.5-6.71-1.85c-34.45-5.64-80.95,38.08-102.17,60.11c-54.33-24.39-70.37-44.94-70.09-61.5
					c0.21-12.24,9.28-19.57,5.34-29.24c-7.91-19.4-56.19-18.54-91.49-4.38c-25.47,10.21-42.85,26.81-52.76,38
					c-48.27-19.16-125.76-39.85-213.04-17.54c-15.09,3.86-29.15,8.67-42.18,14.04c-23.17-0.06-199.25,0.85-219.68,70.01
					c-0.67,2.26-2.08,7.66-2.04,15.29c0.3,71.5,126.05,118.05,144.98,124.84c1.39,0.89,2.52,1.08,3.45,0.94
					c7.81-1.22,9.26-27.54,9.44-31.2c7.65,10.04,17.8,15.25,26.46,13.16c1.32-0.32,6.94-1.85,10.37-7.03
					c9.03-13.68-11.28-31.54-6.3-58.88c0.86-4.7,2.89-15.85,9.22-17.61c10.21-2.84,18.51,22.43,35.64,26.04
					c10.45,2.21,26.12-3.24,49.8-33.81c6.74,10.92,13.3,19.12,17.36,17.82c3.72-1.18,2.96-9.54,5.49-10.05
					c6.33-1.27,15.33,50.29,28.33,51.17c5.91,0.4,15.08-9.51,28.78-58.94c1.85,1.46,4.7,3.12,8.23,3.2
					c6.88,0.16,13.82-5.75,16.6-14.86h271.77c-0.18,0.44-3.93,9.78,1.71,17.09c2.93,3.8,6.91,5.12,8.56,5.56
					c7.87,40.62,14.83,52.6,20.53,52.62c8.17,0.03,12.92-24.48,22.67-23.96c8.31,0.45,9.63,18.46,21.39,21.82
					c7.97,2.27,16.66-3.33,23-8.73c-1.17,119.53-2.34,239.05-3.51,358.57c-3.04,12.2-9.43,29.17-24.43,37.59
					c-18.5,10.39-35.72-0.29-51.68,10.34c-7.67,5.1-16.79,16.27-18.58,44.26c-13.02-0.06-30.24-0.12-50.49-0.1
					c-85.68,0.09-177.77,1.56-199.61,30.75c-1.12,1.49-2.05,3.06-1.98,5.03c0.57,16.59,70.61,27.5,134.51,34.36
					c4.09,13.64,16.49,20.16,25.06,17.23c8.11-2.77,10.63-13.24,10.83-14.11c7.54,29.83,25.42,45.93,35.95,43.4
					c9.06-2.17,15.58-18.85,15.74-38.91c1.64,3.95,32.89,77.62,58.58,74.76c14.59-1.62,18.96-10.15,18.96-10.15
					c1.92-3.74,1.8-7.65,1.38-10.35c0.35,1.66,1,3.78,2.25,5.98c10.79,18.84,50.19,14.17,59.06,13.12
					c44.47-5.26,73.29-32.91,79.08-38.67c5.56-5.54,20.85-21.69,31.98-48.98C1749.05,637.28,1721.52,538.28,1691.31,534.3z
					 M1428.15,10.97c7.12-1.7,16.72-0.64,17.96,3.78c0.76,2.73-1.78,6.26-4.14,7.94c-1.82,1.29-4.03,1.86-11.75,0.76
					c-9.44-1.36-14.17-2.03-14.5-4.16C1415.28,16.49,1422.11,12.42,1428.15,10.97z M1074.79,173.61
					c-5.4-0.75-10.54-11.89-7.51-20.67c0.3-0.88,3.27-9.06,10.64-10.02c4.36-0.57,9.22,1.51,11.28,5.01
					C1094.35,156.68,1082.2,174.63,1074.79,173.61z M1409.14,124.07c-0.01-0.02-0.03-0.03-0.04-0.04c-0.03-0.03-0.06-0.05-0.09-0.08
					c-1.74-1.56-3.94-3.44-6.69-5.7c-1.78-1.77-3.39-3.34-4.84-4.73c-9.1-8.7-12-10.31-12.65-9.66c-0.75,0.74,0.96,4.9,4.42,9.74
					c2.44,3.43,5.78,7.21,9.74,10.35c0.03,0.03,0.07,0.05,0.1,0.08h-5.21c-0.03-0.03-0.05-0.05-0.07-0.08
					c-3.58-3.84-6.81-7.27-9.69-10.3c-11.63-12.15-17.83-17.83-18.61-17.05c-0.69,0.69,2.84,6.4,10.56,17.14
					c2.17,3.01,4.66,6.41,7.49,10.21c0.02,0.03,0.04,0.05,0.06,0.08h-60.14c-0.01-0.03-0.02-0.05-0.02-0.08
					c-1.07-3.45-2.11-6.67-3.11-9.64c-6.45-19.19-11.51-28.48-15.16-27.86c-2.71,0.46-4.64,6.36-5.81,17.72
					c-1.48-0.67-12.7-5.45-24.07,1.36c-4.35,2.61-7.37,6.09-9.42,9.35c-2.58,4.1-3.65,7.86-3.97,9.07
					c-0.01,0.03-0.01,0.06-0.02,0.08h-54.01c0,0.04,0,0.07,0.01,0.1c0.28,3.31-0.34,6.59-1.99,7.46c-1.72,0.9-5.47-0.31-7.82-2.85
					c-0.84-0.9-1.5-1.96-1.84-3.16c-11.72,48.4-19.49,61.38-24.77,61.13c-10.86-0.53-15.48-57.2-25.3-56.97
					c-5.17,0.12-8.29,15.91-12.92,15.5c-4.28-0.38-2.99-13.98-12.21-21.08c-23.96,0.01-47.93,0.02-71.89,0.02h-2.33
					c-0.01,0-0.01,0-0.02,0c-5.58,0.18-9.69,1.62-12.69,3.22c-17.57,9.45-24.17,39.74-15.69,75.23c0.7,2.53,5.78,21.12,0.98,23.52
					c-3.33,1.67-11.32-4.48-14.18-12.2c-2.53-6.81-0.5-13.33,0-15.06c6.71-23.27-6.09-70.69-10.48-70.63
					c-3.27,0.05-6.87,26.48-10.11,115.28c-81.19-27.35-135.64-78.41-130.62-115.3c5.63-41.37,88.68-84.6,205.02-68.49
					c0.02-0.01,0.03-0.01,0.05-0.02c3.69-1.29,7.76-2.65,12.17-4.03c42.65-13.42,117.51-29.3,198.44-5.46
					c18.01,5.31,34.08,11.93,48.25,19.02c2.1,1.31,4.23,2.7,6.4,4.16c4.66,3.16,8.97,6.37,12.95,9.55
					c-4.88-5.91-9.76-11.83-14.64-17.75c41.08-34.5,65.99-37.22,81.36-32.8c23.29,6.69,26.71,30.39,57.38,55.86
					c12.97,10.77,26.8,18.53,40.01,24.16c6.37,2.72,12.6,4.95,18.52,6.77c6.45,2.01,12.54,3.54,18.05,4.74
					c0.13,0.03,0.25,0.05,0.37,0.08c-7.65,0-15.31,0-22.96,0.01h-0.01C1479.96,124.05,1444.56,124.06,1409.14,124.07z
					 M1516.46,144.56c-3.17,3.04-8.5,5.04-9.84,3.51c-1.64-1.88,2.06-9.92,7.73-11.24c1.74-0.41,4.45-0.37,5.27,1.05
					C1520.7,139.73,1518.03,143.05,1516.46,144.56z M1534.83,187.94c-1.09,4.28-4.55,9.97-7.68,9.61
					c-5.66-0.67-7.79-20.94-6.58-35.24c0.56-6.64,1.08-11.96,4.09-13.08c4.44-1.64,14.11,5.94,13.9,14.72
					c-0.15,6.14-5.08,10.21-6.13,11.03C1533.04,175.88,1536.55,181.26,1534.83,187.94z M1569.92,194.4
					c-10.7-4.02-8.49-36.39-5.52-59.38c0.5-3.91,1.03-7.55,1.52-10.73c0.02-0.09,0.03-0.18,0.04-0.26c0.01-0.03,0.01-0.05,0.01-0.08
					c0.07-0.45,0.14-0.89,0.21-1.31c-13.38-4.81-25.3-9.48-35.88-14.02c27.65-27.45,70.95-63.87,97.46-51.53
					c21.55,10.03,10.52,42.28,24.35,105.24v0.01c3.05,13.92,7.32,29.33,13.43,46.35c0.38,1.04,0.76,2.1,1.15,3.16
					c9.64,26.21,26.59,64.08,12.41,76.97c-3.54,3.23-8.11,4.09-11.48,4.3c5.44-5.75,4.2-14.59-1.05-18.2
					c-4.77-3.27-12.5-1.97-16.49,3.95c-6.43-4.96-13.47-10.04-21.14-15.09c-6.75-4.46-13.34-8.47-19.68-12.08
					c-2.09-1.19-4.16-2.34-6.19-3.44c-0.43-25.37-0.86-50.73-1.3-76.09C1591.14,187.2,1577.16,197.12,1569.92,194.4z
					 M1682.03,753.52c-3.05,2.97-60.61,57.23-122.18,31.21c-4.76-2.01-9.17-4.34-13.26-6.94c-0.68-0.42-1.35-0.85-2.01-1.3
					c-0.8-0.53-1.59-1.08-2.36-1.63c-1.46,4.5-2.92,9-4.38,13.5c-2.77,3.4-5.58,5.01-8.24,5.59c-24.76,5.47-60.05-72.38-64.94-83.34
					c-0.82,0.14-1.66,0.28-2.51,0.42c-3.01,16.87-8.8,39.63-18.31,40.41c-9.07,0.75-19.7-18.71-23.88-31.84
					c-0.43-1.36-0.81-2.7-1.14-4.02c-5.02,0.23-10.24,0.36-15.63,0.37c-2.72,5.87-5.74,9.22-8.34,9.08
					c-2.52-0.14-5.06-3.62-7.09-9.38c-1.78-0.07-3.57-0.16-5.37-0.26c-55.38-3.1-121.57-19.66-120.85-32.22
					c0.88-15.47,103.33-23.21,168.65-23.23c36.35-0.01,66.47,2.36,87.23,4.54c-5.62-16.14-9.95-36.49,0-47.71
					c12.12-13.67,34.99-2.07,55.63-13.11c10.09-5.39,20.48-16.63,26.75-40.85c0.86-53.38,1.72-106.76,2.59-160.14
					c0.45,8.75,1.1,19.01,1.99,30.96c0.57-0.27,1.18-0.58,1.83-0.91c0.95-0.5,1.97-1.07,3.05-1.72c2.67-1.62,5.65-3.76,8.56-6.55
					c4.48-4.28,12.63-13.75,9.78-17.28c-2.28-2.83-10.74-0.72-14.85,0.49c1.35-4.37,2.6-10.12,2.69-16.89
					c0.14-11.36-3.02-22.63-6.18-29.04c-1.59-3.24-3.18-5.24-4.35-5.39c-0.09-0.01-0.17-0.01-0.26,0c-0.58,0.07-1.1,0.69-1.54,1.98
					c0.29-18.41,0.59-36.82,0.89-55.23c0.23-14.01,0.45-28.02,0.68-42.03c1.55,0.6,3.08,1.21,4.58,1.83
					c31.67,13.05,50.12,28.71,47.12,37.55c-2.69,7.89-22.76,11.22-47.12,10.11v3.75c29.67,29.48,42.08,57.49,47.78,74.55
					c21.73,65.14-1.74,128.92-15.21,165.53c-3.24,8.83-6.29,16.01-8.42,20.84c6.51-5.03,15.75-11.66,27.54-18.56
					c16.18-9.47,24.63-13.58,29.48-12.62C1716.38,549.2,1751.97,685.46,1682.03,753.52z"/>
				<path class="st0" d="M1712.8,354.61c0.53-0.8-1.94-3.61-6.9-9.21c-4.36-4.92-5-5.31-5.56-5.16c-1.92,0.52-3.1,7.47,0.8,11.61
					C1704.72,355.67,1711.75,356.19,1712.8,354.61z"/>
				<path class="st0" d="M1538.35,124.03c-7.65,0-15.31,0-22.96,0.01v-0.01c0.03-0.03,0.05-0.05,0.08-0.08h22.51
					C1538.11,123.98,1538.23,124,1538.35,124.03z"/>
				<path class="st0" d="M1666.69,211.85c-0.39-1.06-0.77-2.12-1.15-3.16c-6.11-17.02-10.38-32.43-13.43-46.35v-0.01
					c-13.83-62.96-2.8-95.21-24.35-105.24c-26.51-12.34-69.81,24.08-97.46,51.53c10.58,4.54,22.5,9.21,35.88,14.02
					c-0.07,0.42-0.14,0.86-0.21,1.31c0,0.03,0,0.05-0.01,0.08c-0.01,0.08-0.02,0.17-0.04,0.26c-0.49,3.18-1.02,6.82-1.52,10.73
					c-2.97,22.99-5.18,55.36,5.52,59.38c7.24,2.72,21.22-7.2,31.85-22.23c0.44,25.36,0.87,50.72,1.3,76.09
					c2.03,1.1,4.1,2.25,6.19,3.44c6.34,3.61,12.93,7.62,19.68,12.08c7.67,5.05,14.71,10.13,21.14,15.09
					c3.99-5.92,11.72-7.22,16.49-3.95c5.25,3.61,6.49,12.45,1.05,18.2c3.37-0.21,7.94-1.07,11.48-4.3
					C1693.28,275.93,1676.33,238.06,1666.69,211.85z M1651.78,212.23c-12.27-23.21-24.94-49.43-23.18-50.46
					c1.67-0.97,17.36,19.87,30.74,48.52c2.66,5.67,5.22,11.65,7.56,17.82c2.26,5.96,7.22,19.03,6.08,19.55
					C1671.64,248.27,1661.84,231.26,1651.78,212.23z M1672.59,287.53c-1.84-1.12,0.49-5.69,1.03-14.73
					c0.61-10.25-1.7-15.83,0.09-16.57c1.67-0.69,5.26,3.52,7.15,7.27c2.74,5.43,3.89,13.82-0.66,19.63
					C1678.07,285.85,1674.28,288.55,1672.59,287.53z"/>
				<path class="st0" d="M1651.78,212.23c-12.27-23.21-24.94-49.43-23.18-50.46c1.67-0.97,17.36,19.87,30.74,48.52
					c2.66,5.67,5.22,11.65,7.56,17.82c2.26,5.96,7.22,19.03,6.08,19.55C1671.64,248.27,1661.84,231.26,1651.78,212.23z"/>
				<path class="st0" d="M1680.2,283.13c-2.13,2.72-5.92,5.42-7.61,4.4c-1.84-1.12,0.49-5.69,1.03-14.73
					c0.61-10.25-1.7-15.83,0.09-16.57c1.67-0.69,5.26,3.52,7.15,7.27C1683.6,268.93,1684.75,277.32,1680.2,283.13z"/>
				<path class="st1" d="M1672.98,247.66c-1.34,0.61-11.14-16.4-21.2-35.43c-12.27-23.21-24.94-49.43-23.18-50.46
					c1.67-0.97,17.36,19.87,30.74,48.52c2.66,5.67,5.22,11.65,7.56,17.82C1669.16,234.07,1674.12,247.14,1672.98,247.66z"/>
				<path class="st1" d="M1680.2,283.13c-2.13,2.72-5.92,5.42-7.61,4.4c-1.84-1.12,0.49-5.69,1.03-14.73
					c0.61-10.25-1.7-15.83,0.09-16.57c1.67-0.69,5.26,3.52,7.15,7.27C1683.6,268.93,1684.75,277.32,1680.2,283.13z"/>
				<path d="M1680.44,71.58c-8.71-15.57-10.03-22.92-12.66-22.51c-4.82,0.74-6.56,26.14-1.41,49.49c0.74,3.35,8.8,39.9,21.14,39.92
					c7.53,0.02,16.3-13.52,16.15-25.98C1703.52,99.95,1694.43,96.58,1680.44,71.58z M1688.84,126.67
					c-4.62,0.91-10.61-12.1-11.89-14.87c-6.95-15.12-8.3-33.63-4.22-35.02c2.14-0.73,5.26,3.4,10.15,9.88
					c5.04,6.67,9.81,12.98,10.74,21.99C1694.37,116.02,1692.64,125.92,1688.84,126.67z"/>
				<path class="st0" d="M1688.84,126.67c-4.62,0.91-10.61-12.1-11.89-14.87c-6.95-15.12-8.3-33.63-4.22-35.02
					c2.14-0.73,5.26,3.4,10.15,9.88c5.04,6.67,9.81,12.98,10.74,21.99C1694.37,116.02,1692.64,125.92,1688.84,126.67z"/>
				<path class="st1" d="M1652.84,749.22c-4.15,4.95-19.9,22.37-46.07,25.54c-23.01,2.79-50.92-5.82-53.21-17.33
					c-0.03-0.14-0.05-0.29-0.07-0.43c-0.46-3.19,1.01-6.87,3.6-9.87c2.45-2.86,5.93-5.09,9.72-5.68c6.85-1.05,14.33,3.32,18.31,11.1
					c59.24-28.81,76.16-30.82,79.37-26.08C1667.82,731.37,1657.03,744.23,1652.84,749.22z"/>
				<path class="st1" d="M1662.27,703.71c-17.94,19.97-47.58,28.68-54.07,24.2c5.34-1.52,8.92-3.6,11.14-5.11
					c9-6.12,15.51-16.36,19.28-29.87c14.82-8.49,30.68-12.45,33.64-8.09C1675.26,689.26,1664.44,701.3,1662.27,703.71z"/>
				<path d="M1695.27,699.1c-2.56,4.35-5.62,7.37-7.93,9.31c1.5-3.16,3.7-7.93,6.22-13.82c4.87-11.43,5.87-15.31,6.45-15.17
					C1700.91,679.65,1700.68,689.87,1695.27,699.1z"/>
				<path d="M1694.08,717.59c-5.03,6.8-10.68,11.54-11.14,11.14c-0.63-0.53,8.7-10.14,15.64-26.55c1.44-3.38,2.44-6.28,3.09-8.3
					c2.85-5.09,3.88-6.08,4.26-5.92C1707.25,688.5,1704.01,704.17,1694.08,717.59z"/>
			</g>
			<g>
				<path d="M1097.24,108.25c-0.46,1.25-9.53-0.76-9.55-2.72c-0.01-0.85,1.66-1.59,3.53-2.18
					C1096.16,106.4,1097.43,107.72,1097.24,108.25z"/>
				<path d="M1106.78,99.62c-4.46-0.4-6.54-6.45-5.39-8.63c1.05-1.99,5.52-2.09,8.72-0.94c1.68,0.6,3.02,1.55,3.32,2.76
					c0.02,0.07,0.03,0.14,0.03,0.21C1113.85,95.47,1110.83,99.99,1106.78,99.62z"/>
				<path d="M1206.8,84.16c-10,4.12-40.02,14.83-73.62,1.47c-9.54-3.8-26.42-12.34-25.43-16.12
					C1108.7,65.9,1126.31,65.77,1206.8,84.16z"/>
				<path d="M1277.74,89.29c-2.11,4.58-22.28-3.79-52.87-12.45c-61.88-17.52-88.99-14.33-89.01-19.04
					c-0.02-7.42,67.07-27.14,117.12,5.86C1265.1,71.65,1279.7,85.03,1277.74,89.29z"/>
				<path d="M1338.17,103.51c-0.05,1.48-3.02,2.62-6.32,3.46c-8.44-5.87-10.56-8.32-10.18-9.22
					C1322.58,95.61,1338.3,100.06,1338.17,103.51z"/>
				<path d="M1402.89,54.13c-1.94,4.31-23.97-0.7-24.1-5.12c-0.07-2.79,8.5-7.68,16.07-4.4
					C1399.57,46.66,1403.9,51.87,1402.89,54.13z"/>
				<path d="M1470.48,106.87c-20.77,3.28-30.15-1.65-34.8-7.33c-5.57-6.79-4.22-14.5-12.72-22.7c-7.18-6.93-15.03-8.08-14.72-10.99
					c0.15-1.35,2.07-3.09,10.71-4.39c5.8,8.31,14.28,18.69,26.1,28.56C1454.26,97.71,1463.1,103.1,1470.48,106.87z"/>
				<path d="M1261.92,123.95c-0.01,0.03-0.01,0.06-0.02,0.08h-54.01c-0.01-0.02-0.01-0.05-0.01-0.08H1261.92z"/>
				<path d="M1383.62,124.03h-60.14c-0.01-0.03-0.02-0.05-0.02-0.08h60.1C1383.58,123.98,1383.6,124,1383.62,124.03z"/>
				<path d="M1399.09,124.03h-5.21c-0.03-0.03-0.05-0.05-0.07-0.08h5.18C1399.02,123.98,1399.06,124,1399.09,124.03z"/>
				<path d="M1441.97,22.69c-1.82,1.29-4.03,1.86-11.75,0.76c-9.44-1.36-14.17-2.03-14.5-4.16c-0.44-2.8,6.39-6.87,12.43-8.32
					c7.12-1.7,16.72-0.64,17.96,3.78C1446.87,17.48,1444.33,21.01,1441.97,22.69z"/>
				<path d="M1538.35,124.03H1409.1c-0.03-0.03-0.06-0.05-0.09-0.08h128.97C1538.11,123.98,1538.23,124,1538.35,124.03z"/>
				<path class="st0" d="M932.28,195.66c-0.8,1.28-7.18-1.44-10.03-2.86c-0.67-0.34-7.43-3.72-6.93-5.26c0.37-1.12,4.52-1.09,7.88,0
					C928.79,189.37,933.04,194.44,932.28,195.66z"/>
				<path class="st0" d="M886.27,146.57c-5.47-1.37-9.54-4.35-12.21-6.78c5.17,0.24,11.86,0.08,19.45-1.36
					c31.6-6.02,48.89-28.78,49.57-28.04C943.99,111.39,913.77,153.45,886.27,146.57z"/>
				<path class="st0" d="M945.89,204.26c-1.09,3.73-16.25,4.17-28.42-1.43c-5.12-2.36-9.99-5.92-9.55-6.93
					c0.46-1.04,6.36,1.19,14.81,2.63c8.19,1.4,15.21,1.45,20.29,1.19C945.73,202.01,946.14,203.39,945.89,204.26z"/>
				<path class="st0" d="M926.53,87.77c8.59,0.2,11.64,2.34,12.66,4.52c3.69,7.86-13.82,27.04-34.37,33.93
					c-10.58,3.54-29.03,6.2-34.83-2.27c-1.72-2.5-1.8-5.19-1.81-6.33c-0.29-17.88,32.74-37.04,61.97-45.23
					c19.37-5.43,40.87-7.11,41.61-4.07C972.22,70.2,964.9,74.88,926.53,87.77z"/>
				<path class="st0" d="M1097.24,108.25c-0.46,1.25-9.53-0.76-9.55-2.72c-0.01-0.85,1.66-1.59,3.53-2.18
					C1096.16,106.4,1097.43,107.72,1097.24,108.25z"/>
				<path class="st0" d="M1106.78,99.62c-4.46-0.4-6.54-6.45-5.39-8.63c1.05-1.99,5.52-2.09,8.72-0.94c1.68,0.6,3.02,1.55,3.32,2.76
					c0.02,0.07,0.03,0.14,0.03,0.21C1113.85,95.47,1110.83,99.99,1106.78,99.62z"/>
				<path class="st0" d="M1206.8,84.16c-10,4.12-40.02,14.83-73.62,1.47c-9.54-3.8-26.42-12.34-25.43-16.12
					C1108.7,65.9,1126.31,65.77,1206.8,84.16z"/>
				<path class="st0" d="M1277.74,89.29c-2.11,4.58-22.28-3.79-52.87-12.45c-61.88-17.52-88.99-14.33-89.01-19.04
					c-0.02-7.42,67.07-27.14,117.12,5.86C1265.1,71.65,1279.7,85.03,1277.74,89.29z"/>
				<path class="st0" d="M1338.17,103.51c-0.05,1.48-3.02,2.62-6.32,3.46c-8.44-5.87-10.56-8.32-10.18-9.22
					C1322.58,95.61,1338.3,100.06,1338.17,103.51z"/>
				<path class="st0" d="M1402.89,54.13c-1.94,4.31-23.97-0.7-24.1-5.12c-0.07-2.79,8.5-7.68,16.07-4.4
					C1399.57,46.66,1403.9,51.87,1402.89,54.13z"/>
				<path class="st0" d="M1470.48,106.87c-20.77,3.28-30.15-1.65-34.8-7.33c-5.57-6.79-4.22-14.5-12.72-22.7
					c-7.18-6.93-15.03-8.08-14.72-10.99c0.15-1.35,2.07-3.09,10.71-4.39c5.8,8.31,14.28,18.69,26.1,28.56
					C1454.26,97.71,1463.1,103.1,1470.48,106.87z"/>
				<path class="st0" d="M1261.92,123.95c-0.01,0.03-0.01,0.06-0.02,0.08h-54.01c-0.01-0.02-0.01-0.05-0.01-0.08H1261.92z"/>
				<path class="st0" d="M1383.62,124.03h-60.14c-0.01-0.03-0.02-0.05-0.02-0.08h60.1C1383.58,123.98,1383.6,124,1383.62,124.03z"/>
				<path class="st0" d="M1399.09,124.03h-5.21c-0.03-0.03-0.05-0.05-0.07-0.08h5.18C1399.02,123.98,1399.06,124,1399.09,124.03z"/>
				<path class="st0" d="M1538.35,124.03c-7.65,0-15.31,0-22.96,0.01h-0.01c-35.42,0.01-70.82,0.02-106.24,0.03
					c-0.01-0.02-0.03-0.03-0.04-0.04c-0.03-0.03-0.06-0.05-0.09-0.08h128.97C1538.11,123.98,1538.23,124,1538.35,124.03z"/>
				<path class="st1" d="M1277.74,89.29c-2.11,4.58-22.28-3.79-52.87-12.45c-61.88-17.52-88.99-14.33-89.01-19.04
					c-0.02-7.42,67.07-27.14,117.12,5.86C1265.1,71.65,1279.7,85.03,1277.74,89.29z"/>
				<path class="st1" d="M1402.89,54.13c-1.94,4.31-23.97-0.7-24.1-5.12c-0.07-2.79,8.5-7.68,16.07-4.4
					C1399.57,46.66,1403.9,51.87,1402.89,54.13z"/>
				<path class="st1" d="M1470.48,106.87c-20.77,3.28-30.15-1.65-34.8-7.33c-5.57-6.79-4.22-14.5-12.72-22.7
					c-7.18-6.93-15.03-8.08-14.72-10.99c0.15-1.35,2.07-3.09,10.71-4.39c5.8,8.31,14.28,18.69,26.1,28.56
					C1454.26,97.71,1463.1,103.1,1470.48,106.87z"/>
				<path class="st1" d="M1206.8,84.16c-10,4.12-40.02,14.83-73.62,1.47c-9.54-3.8-26.42-12.34-25.43-16.12
					C1108.7,65.9,1126.31,65.77,1206.8,84.16z"/>
				<path d="M1106.78,99.62c-4.46-0.4-6.54-6.45-5.39-8.63c1.05-1.99,5.52-2.09,8.72-0.94c1.68,0.6,3.02,1.55,3.32,2.76
					c0.02,0.07,0.03,0.14,0.03,0.21C1113.85,95.47,1110.83,99.99,1106.78,99.62z"/>
				<path d="M1097.24,108.25c-0.46,1.25-9.53-0.76-9.55-2.72c-0.01-0.85,1.66-1.59,3.53-2.18
					C1096.16,106.4,1097.43,107.72,1097.24,108.25z"/>
				<path d="M1338.17,103.51c-0.05,1.48-3.02,2.62-6.32,3.46c-8.44-5.87-10.56-8.32-10.18-9.22
					C1322.58,95.61,1338.3,100.06,1338.17,103.51z"/>
				<path class="st0" d="M1519.93,119.21c-5.92-1.82-12.15-4.05-18.52-6.77c-13.21-5.63-27.04-13.39-40.01-24.16
					c-30.67-25.47-34.09-49.17-57.38-55.86c-15.37-4.42-40.28-1.7-81.36,32.8c4.88,5.92,9.76,11.84,14.64,17.75
					c-3.98-3.18-8.29-6.39-12.95-9.55c-2.17-1.46-4.3-2.85-6.4-4.16c-14.17-7.09-30.24-13.71-48.25-19.02
					c-80.93-23.84-155.79-7.96-198.44,5.46c-4.41,1.38-8.48,2.74-12.17,4.03c-0.02,0.01-0.03,0.01-0.05,0.02
					C942.7,43.64,859.65,86.87,854.02,128.24c-5.02,36.89,49.43,87.95,130.62,115.3c3.24-88.8,6.84-115.23,10.11-115.28
					c4.39-0.06,17.19,47.36,10.48,70.63c-0.5,1.73-2.53,8.25,0,15.06c2.86,7.72,10.85,13.87,14.18,12.2
					c4.8-2.4-0.28-20.99-0.98-23.52c-8.48-35.49-1.88-65.78,15.69-75.23c3-1.6,7.11-3.04,12.69-3.22c0.01,0,0.01,0,0.02,0
					c0.75-0.02,1.53-0.02,2.33,0c23.96,0,47.93-0.01,71.89-0.02c9.22,7.1,7.93,20.7,12.21,21.08c4.63,0.41,7.75-15.38,12.92-15.5
					c9.82-0.23,14.44,56.44,25.3,56.97c5.28,0.25,13.05-12.73,24.77-61.13c0.34,1.2,1,2.26,1.84,3.16c2.35,2.54,6.1,3.75,7.82,2.85
					c1.65-0.87,2.27-4.15,1.99-7.46c-0.01-0.03-0.01-0.06-0.01-0.1c-0.01-0.02-0.01-0.05-0.01-0.08h54.04
					c0.32-1.21,1.39-4.97,3.97-9.07c2.05-3.26,5.07-6.74,9.42-9.35c11.37-6.81,22.59-2.03,24.07-1.36
					c1.17-11.36,3.1-17.26,5.81-17.72c3.65-0.62,8.71,8.67,15.16,27.86c1,2.97,2.04,6.19,3.11,9.64h60.1
					c-2.83-3.8-5.32-7.2-7.49-10.21c-7.72-10.74-11.25-16.45-10.56-17.14c0.78-0.78,6.98,4.9,18.61,17.05
					c2.88,3.03,6.11,6.46,9.69,10.3h5.18c-3.96-3.14-7.3-6.92-9.74-10.35c-3.46-4.84-5.17-9-4.42-9.74
					c0.65-0.65,3.55,0.96,12.65,9.66c1.45,1.39,3.06,2.96,4.84,4.73c2.75,2.26,4.95,4.14,6.69,5.7h128.97
					C1532.47,122.75,1526.38,121.22,1519.93,119.21z M886.27,146.57c-5.47-1.37-9.54-4.35-12.21-6.78
					c5.17,0.24,11.86,0.08,19.45-1.36c31.6-6.02,48.89-28.78,49.57-28.04C943.99,111.39,913.77,153.45,886.27,146.57z
					 M932.28,195.66c-0.8,1.28-7.18-1.44-10.03-2.86c-0.67-0.34-7.43-3.72-6.93-5.26c0.37-1.12,4.52-1.09,7.88,0
					C928.79,189.37,933.04,194.44,932.28,195.66z M945.89,204.26c-1.09,3.73-16.25,4.17-28.42-1.43c-5.12-2.36-9.99-5.92-9.55-6.93
					c0.46-1.04,6.36,1.19,14.81,2.63c8.19,1.4,15.21,1.45,20.29,1.19C945.73,202.01,946.14,203.39,945.89,204.26z M926.53,87.77
					c8.59,0.2,11.64,2.34,12.66,4.52c3.69,7.86-13.82,27.04-34.37,33.93c-10.58,3.54-29.03,6.2-34.83-2.27
					c-1.72-2.5-1.8-5.19-1.81-6.33c-0.29-17.88,32.74-37.04,61.97-45.23c19.37-5.43,40.87-7.11,41.61-4.07
					C972.22,70.2,964.9,74.88,926.53,87.77z M1097.24,108.25c-0.46,1.25-9.53-0.76-9.55-2.72c-0.01-0.85,1.66-1.59,3.53-2.18
					C1096.16,106.4,1097.43,107.72,1097.24,108.25z M1106.78,99.62c-4.46-0.4-6.54-6.45-5.39-8.63c1.05-1.99,5.52-2.09,8.72-0.94
					c1.68,0.6,3.02,1.55,3.32,2.76c0.02,0.07,0.03,0.14,0.03,0.21C1113.85,95.47,1110.83,99.99,1106.78,99.62z M1133.18,85.63
					c-9.54-3.8-26.42-12.34-25.43-16.12c0.95-3.61,18.56-3.74,99.05,14.65C1196.8,88.28,1166.78,98.99,1133.18,85.63z
					 M1277.74,89.29c-2.11,4.58-22.28-3.79-52.87-12.45c-61.88-17.52-88.99-14.33-89.01-19.04c-0.02-7.42,67.07-27.14,117.12,5.86
					C1265.1,71.65,1279.7,85.03,1277.74,89.29z M1331.85,106.97c-8.44-5.87-10.56-8.32-10.18-9.22c0.91-2.14,16.63,2.31,16.5,5.76
					C1338.12,104.99,1335.15,106.13,1331.85,106.97z M1402.89,54.13c-1.94,4.31-23.97-0.7-24.1-5.12c-0.07-2.79,8.5-7.68,16.07-4.4
					C1399.57,46.66,1403.9,51.87,1402.89,54.13z M1435.68,99.54c-5.57-6.79-4.22-14.5-12.72-22.7c-7.18-6.93-15.03-8.08-14.72-10.99
					c0.15-1.35,2.07-3.09,10.71-4.39c5.8,8.31,14.28,18.69,26.1,28.56c9.21,7.69,18.05,13.08,25.43,16.85
					C1449.71,110.15,1440.33,105.22,1435.68,99.54z"/>
				<path class="st0" d="M1441.97,22.69c-1.82,1.29-4.03,1.86-11.75,0.76c-9.44-1.36-14.17-2.03-14.5-4.16
					c-0.44-2.8,6.39-6.87,12.43-8.32c7.12-1.7,16.72-0.64,17.96,3.78C1446.87,17.48,1444.33,21.01,1441.97,22.69z"/>
			</g>
			<path class="st0" d="M1074.79,173.61c-5.4-0.75-10.54-11.89-7.51-20.67c0.3-0.88,3.27-9.06,10.64-10.02
				c4.36-0.57,9.22,1.51,11.28,5.01C1094.35,156.68,1082.2,174.63,1074.79,173.61z"/>
			<path class="st1" d="M926.53,87.77c8.59,0.2,11.64,2.34,12.66,4.52c3.69,7.86-13.82,27.04-34.37,33.93
				c-10.58,3.54-29.03,6.2-34.83-2.27c-1.72-2.5-1.8-5.19-1.81-6.33c-0.29-17.88,32.74-37.04,61.97-45.23
				c19.37-5.43,40.87-7.11,41.61-4.07C972.22,70.2,964.9,74.88,926.53,87.77z"/>
			<path class="st1" d="M886.27,146.57c-5.47-1.37-9.54-4.35-12.21-6.78c5.17,0.24,11.86,0.08,19.45-1.36
				c31.6-6.02,48.89-28.78,49.57-28.04C943.99,111.39,913.77,153.45,886.27,146.57z"/>
			<path d="M932.28,195.66c-0.8,1.28-7.18-1.44-10.03-2.86c-0.67-0.34-7.43-3.72-6.93-5.26c0.37-1.12,4.52-1.09,7.88,0
				C928.79,189.37,933.04,194.44,932.28,195.66z"/>
			<path d="M945.89,204.26c-1.09,3.73-16.25,4.17-28.42-1.43c-5.12-2.36-9.99-5.92-9.55-6.93c0.46-1.04,6.36,1.19,14.81,2.63
				c8.19,1.4,15.21,1.45,20.29,1.19C945.73,202.01,946.14,203.39,945.89,204.26z"/>
			<path d="M1261.92,123.95c-0.01,0.03-0.01,0.06-0.02,0.08h-54.01c-0.01-0.02-0.01-0.05-0.01-0.08H1261.92z"/>
			<path d="M1383.62,124.03h-60.14c-0.01-0.03-0.02-0.05-0.02-0.08h60.1C1383.58,123.98,1383.6,124,1383.62,124.03z"/>
			<path d="M1399.09,124.03h-5.21c-0.03-0.03-0.05-0.05-0.07-0.08h5.18C1399.02,123.98,1399.06,124,1399.09,124.03z"/>
			<path d="M1538.35,124.03c-7.65,0-15.31,0-22.96,0.01h-0.01c-35.42,0.01-70.82,0.02-106.24,0.03c-0.01-0.02-0.03-0.03-0.04-0.04
				c-0.03-0.03-0.06-0.05-0.09-0.08h128.97C1538.11,123.98,1538.23,124,1538.35,124.03z"/>
			<path class="st0" d="M1532.43,174.98c0.61,0.9,4.12,6.28,2.4,12.96c-1.09,4.28-4.55,9.97-7.68,9.61
				c-5.66-0.67-7.79-20.94-6.58-35.24c0.56-6.64,1.08-11.96,4.09-13.08c4.44-1.64,14.11,5.94,13.9,14.72
				C1538.41,170.09,1533.48,174.16,1532.43,174.98z"/>
			<path class="st0" d="M1516.46,144.56c-3.17,3.04-8.5,5.04-9.84,3.51c-1.64-1.88,2.06-9.92,7.73-11.24
				c1.74-0.41,4.45-0.37,5.27,1.05C1520.7,139.73,1518.03,143.05,1516.46,144.56z"/>
			<path class="st0" d="M1318.91,682.07c-1.72,0.99-4.9-1.58-4.64-2.97c0.21-1.04,2.43-1.87,5.42-1.59
				C1320.47,679.51,1319.98,681.46,1318.91,682.07z"/>
			<path class="st0" d="M1344.67,672.7c-0.27,0.56-2.34,4.58-7.12,5.72c-3.79,0.91-8.13-0.27-8.17-1.39
				C1329.34,676.08,1332.46,674.69,1344.67,672.7z"/>
			<path class="st0" d="M1690.43,544.04c-4.85-0.96-13.3,3.15-29.48,12.62c-11.79,6.9-21.03,13.53-27.54,18.56
				c2.13-4.83,5.18-12.01,8.42-20.84c13.47-36.61,36.94-100.39,15.21-165.53c-5.7-17.06-18.11-45.07-47.78-74.55
				c-1.33-1.33-2.68-2.65-4.08-3.97c1.37,0.09,2.73,0.16,4.08,0.22c24.36,1.11,44.43-2.22,47.12-10.11
				c3-8.84-15.45-24.5-47.12-37.55c-1.5-0.62-3.03-1.23-4.58-1.83c-0.23,14.01-0.45,28.02-0.68,42.03
				c-0.3,18.41-0.6,36.82-0.89,55.23c0.44-1.29,0.96-1.91,1.54-1.98c0.09-0.01,0.17-0.01,0.26,0c1.17,0.15,2.76,2.15,4.35,5.39
				c3.16,6.41,6.32,17.68,6.18,29.04c-0.09,6.77-1.34,12.52-2.69,16.89c4.11-1.21,12.57-3.32,14.85-0.49
				c2.85,3.53-5.3,13-9.78,17.28c-2.91,2.79-5.89,4.93-8.56,6.55c-1.08,0.65-2.1,1.22-3.05,1.72c-0.65,0.33-1.26,0.64-1.83,0.91
				c-0.89-11.95-1.54-22.21-1.99-30.96c-0.87,53.38-1.73,106.76-2.59,160.14c-6.27,24.22-16.66,35.46-26.75,40.85
				c-20.64,11.04-43.51-0.56-55.63,13.11c-9.95,11.22-5.62,31.57,0,47.71c-20.76-2.18-50.88-4.55-87.23-4.54
				c-65.32,0.02-167.77,7.76-168.65,23.23c-0.72,12.56,65.47,29.12,120.85,32.22c1.8,0.1,3.59,0.19,5.37,0.26
				c2.03,5.76,4.57,9.24,7.09,9.38c2.6,0.14,5.62-3.21,8.34-9.08c5.39-0.01,10.61-0.14,15.63-0.37c0.33,1.32,0.71,2.66,1.14,4.02
				c4.18,13.13,14.81,32.59,23.88,31.84c9.51-0.78,15.3-23.54,18.31-40.41c0.85-0.14,1.69-0.28,2.51-0.42
				c4.89,10.96,40.18,88.81,64.94,83.34c2.66-0.58,5.47-2.19,8.24-5.59c1.46-4.5,2.92-9,4.38-13.5c0.77,0.55,1.56,1.1,2.36,1.63
				c0.66,0.45,1.33,0.88,2.01,1.3c4.09,2.6,8.5,4.93,13.26,6.94c61.57,26.02,119.13-28.24,122.18-31.21
				C1751.97,685.46,1716.38,549.2,1690.43,544.04z M1632.68,305.61c-3.43-0.11-11.25-0.34-11.33-1.4c-0.06-0.84,4.74-2.36,9.58-1.97
				c4.37,0.34,8.45,2.22,8.26,2.97C1639.05,305.79,1636.35,305.71,1632.68,305.61z M1616.09,278.21c1.87-2.28,13.78,3.08,19.37,6.09
				c1.73,0.93,13.18,7.09,12,9.85c-0.89,2.07-8.71,1.89-14.84-0.14C1621.82,290.44,1614.25,280.45,1616.09,278.21z M1318.91,682.07
				c-1.72,0.99-4.9-1.58-4.64-2.97c0.21-1.04,2.43-1.87,5.42-1.59C1320.47,679.51,1319.98,681.46,1318.91,682.07z M1337.55,678.42
				c-3.79,0.91-8.13-0.27-8.17-1.39c-0.04-0.95,3.08-2.34,15.29-4.33C1344.4,673.26,1342.33,677.28,1337.55,678.42z M1415.2,685.37
				c-1.66-0.15-2.43-7.01-2.78-12.04c-1.93-0.1-4.38-0.23-7.2-0.38c-32.59-1.78-48.89-2.67-48.91-3.73c0-1.63,32.02-3.64,57.76-4.23
				c8.41-0.19,13.39-0.3,20.46-0.11c29.25,0.75,54.51,5.53,54.38,7.05c-0.11,1.25-17.01-0.19-58.24,0.95
				c-4.2,0.11-7.78,0.23-10.5,0.33c-0.06,0.65-0.17,1.52-0.37,2.53C1418.96,680.06,1416.72,685.5,1415.2,685.37z M1452.62,733.97
				c-1.58,3.76-4.68,11.13-9.62,11.21c-3.24,0.05-6.13-3.05-7.2-5.91c-2.39-6.43,3.24-14.83,7.69-14.67
				c0.83,0.03,2.61,0.39,4.67,3.42c3.35-11.73,5.15-15.33,6.16-15.78c0.01,0,0.02-0.01,0.03-0.01c0.08-0.03,0.16-0.04,0.24-0.03
				c0.01,0,0.01,0,0.02,0C1456.36,712.49,1456.87,723.85,1452.62,733.97z M1475.49,691.78c-0.82,4.03-6.91,5.58-10.39,5.66
				c-0.28,0.01-0.57,0.01-0.89,0.01c-1.66,0-3.69-0.18-4.75-1.55c-0.43-0.55-0.69-1.29-0.8-2.14c-0.52-4.08,2.53-10.68,7.34-11.27
				C1470.83,681.9,1476.35,687.46,1475.49,691.78z M1499.97,729.49c0.67,6.22,0.27,16.92-3.23,17.81
				c-4.05,1.04-10.97-11.41-14.45-20.37c-4.04-10.4-9.95-32.81-1.14-38.57c4.87-3.18,14.33-1.34,18.23,4.96
				c0.08,0.13,0.15,0.26,0.22,0.39h0.01c2.33,4.11,2.16,9.6-0.48,14.38c-1.09,1.98-2.6,3.83-4.54,5.42
				C1496.51,716.76,1499.19,722.27,1499.97,729.49z M1515.5,778.24c-0.58,0.46-5.85-4.14-9.63-10.38c-2.65-4.37-4.49-9.43-3.89-9.76
				c0.89-0.5,7.18,9.32,9.19,12.47C1514.22,775.33,1515.88,777.93,1515.5,778.24z M1635.36,532.99c-0.52,0.44-3.88-1.23-5.67-4.1
				c-2.07-3.3-1.51-7.34-0.83-7.46c0.38-0.06,0.68,1.16,2.25,4.15C1633.8,530.7,1635.82,532.61,1635.36,532.99z M1633.49,523.4
				c-1.54-4.82-2.38-10.32-1.79-10.45c0.62-0.14,2.94,5.46,4.31,10.57c0.99,3.71,1.4,6.83,1.58,8.95
				C1636.41,530.5,1634.78,527.43,1633.49,523.4z M1615.13,335.34c4.38-1.96,19.06,15.62,28.04,29.95
				c8.58,13.69,18.87,35.49,21.07,66.8c3.3,47.16-13.49,91.4-19.8,90.7c-6.69-0.75,7.46-50.86-11.95-124
				C1623.28,364.04,1610.07,337.6,1615.13,335.34z M1629.58,427.73c4.62,0.07,10.08,25.67,5.72,27.35
				c-2.33,0.91-8.15-4.79-10.03-10.98C1622.89,436.23,1626.91,427.7,1629.58,427.73z M1616.91,617.79
				c2.43-7.05,8.18-15.04,15.75-18.69c2.94-1.42,6.16-2.19,9.56-1.99c14.16,0.81,24.85,17.92,22.8,32.87
				c-1.67,12.18-11.81,23.08-22.72,25.21c-2.16,0.43-4.36,0.51-6.52,0.18c-10.66-1.61-16.41-12.41-17.25-13.98
				C1612.8,630.63,1616.12,620.08,1616.91,617.79z M1652.84,749.22c-4.15,4.95-19.9,22.37-46.07,25.54
				c-23.01,2.79-50.92-5.82-53.21-17.33c-0.03-0.14-0.05-0.29-0.07-0.43c-0.46-3.19,1.01-6.87,3.6-9.87
				c2.45-2.86,5.93-5.09,9.72-5.68c6.85-1.05,14.33,3.32,18.31,11.1c59.24-28.81,76.16-30.82,79.37-26.08
				C1667.82,731.37,1657.03,744.23,1652.84,749.22z M1662.27,703.71c-17.94,19.97-47.58,28.68-54.07,24.2
				c5.34-1.52,8.92-3.6,11.14-5.11c9-6.12,15.51-16.36,19.28-29.87c14.82-8.49,30.68-12.45,33.64-8.09
				C1675.26,689.26,1664.44,701.3,1662.27,703.71z M1692.76,564.4c4-0.32,7.81,17.52,8.08,18.79c1.44,6.93,2.83,13.56-1,17.8
				c-2.23,2.46-6.56,4.49-9.44,3.09C1681.72,599.85,1687.24,564.83,1692.76,564.4z M1695.27,699.1c-2.56,4.35-5.62,7.37-7.93,9.31
				c1.5-3.16,3.7-7.93,6.22-13.82c4.87-11.43,5.87-15.31,6.45-15.17C1700.91,679.65,1700.68,689.87,1695.27,699.1z M1682.94,728.73
				c-0.63-0.53,8.7-10.14,15.64-26.55c1.44-3.38,2.44-6.28,3.09-8.3c2.85-5.09,3.88-6.08,4.26-5.92
				c1.32,0.54-1.92,16.21-11.85,29.63C1689.05,724.39,1683.4,729.13,1682.94,728.73z"/>
			<path class="st0" d="M1472.4,690.12c-0.59,2.77-8.47,4.19-10.02,1.96c-0.82-1.19,0.17-3.39,0.97-4.5c0.27-0.37,1.53-2.13,3.6-2.3
				C1469.93,685.03,1472.8,688.22,1472.4,690.12z"/>
			<path class="st0" d="M1488.91,671.93c-0.11,1.25-17.01-0.19-58.24,0.95c-4.2,0.11-7.78,0.23-10.5,0.33
				c-0.06,0.65-0.17,1.52-0.37,2.53c-0.84,4.32-3.08,9.76-4.6,9.63c-1.66-0.15-2.43-7.01-2.78-12.04c-1.93-0.1-4.38-0.23-7.2-0.38
				c-32.59-1.78-48.89-2.67-48.91-3.73c0-1.63,32.02-3.64,57.76-4.23c8.41-0.19,13.39-0.3,20.46-0.11
				C1463.78,665.63,1489.04,670.41,1488.91,671.93z"/>
			<path class="st0" d="M1515.5,778.24c-0.58,0.46-5.85-4.14-9.63-10.38c-2.65-4.37-4.49-9.43-3.89-9.76
				c0.89-0.5,7.18,9.32,9.19,12.47C1514.22,775.33,1515.88,777.93,1515.5,778.24z"/>
			<path class="st0" d="M1488.77,708.73c-3.83-0.38-7.62-13.14-3.65-16.49c1.49-1.25,4.07-1.2,5.86-0.34
				c3.07,1.47,3.6,5.18,3.71,5.96C1495.45,703.11,1491.5,709,1488.77,708.73z"/>
			<path class="st0" d="M1636.18,612.61c0.59,2.53,1.15,5.03,1.65,7.5c-0.61,0.06-1.26,0.15-1.96,0.27
				c-6.11,1.03-9.16,3.18-9.64,2.48C1625.84,622.28,1627.33,620.07,1636.18,612.61z"/>
		</g>
		<path d="M1344.67,672.7c-0.27,0.56-2.34,4.58-7.12,5.72c-3.79,0.91-8.13-0.27-8.17-1.39
			C1329.34,676.08,1332.46,674.69,1344.67,672.7z"/>
		<path d="M1318.91,682.07c-1.72,0.99-4.9-1.58-4.64-2.97c0.21-1.04,2.43-1.87,5.42-1.59
			C1320.47,679.51,1319.98,681.46,1318.91,682.07z"/>
		<path class="st1" d="M1488.91,671.93c-0.11,1.25-17.01-0.19-58.24,0.95c-4.2,0.11-7.78,0.23-10.5,0.33
			c-0.06,0.65-0.17,1.52-0.37,2.53c-0.84,4.32-3.08,9.76-4.6,9.63c-1.66-0.15-2.43-7.01-2.78-12.04c-1.93-0.1-4.38-0.23-7.2-0.38
			c-32.59-1.78-48.89-2.67-48.91-3.73c0-1.63,32.02-3.64,57.76-4.23c8.41-0.19,13.39-0.3,20.46-0.11
			C1463.78,665.63,1489.04,670.41,1488.91,671.93z"/>
		<path d="M1645.94,618.99c-1.16,1.5-3.16,0.58-8.11,1.12c-0.61,0.06-1.26,0.15-1.96,0.27c-6.11,1.03-9.16,3.18-9.64,2.48
			c-0.39-0.58,1.1-2.79,9.95-10.25c0.42-0.36,0.86-0.73,1.32-1.11c0.59-2.23,1.5-4.54,2.91-4.72
			C1643.4,606.42,1648.38,615.82,1645.94,618.99z"/>
		<path d="M1642.22,597.11c-3.4-0.2-6.62,0.57-9.56,1.99c-7.57,3.65-13.32,11.64-15.75,18.69c-0.79,2.29-4.11,12.84,1.62,23.6
			c0.84,1.57,6.59,12.37,17.25,13.98c2.16,0.33,4.36,0.25,6.52-0.18c10.91-2.13,21.05-13.03,22.72-25.21
			C1667.07,615.03,1656.38,597.92,1642.22,597.11z M1653.34,637.31c-1.83,5.42-6.67,8.71-11.54,9.84c-2.08,0.49-4.17,0.58-6.04,0.28
			c-10.6-1.72-16.28-16.54-14.31-27.4c0.09-0.52,2.37-12.09,12.05-16.42c0.11-0.05,0.24-0.11,0.37-0.16v-0.01
			c1.96-0.85,6.02-2.46,9.59-0.71c4.62,2.25,7,9.41,4.94,17.61C1653.35,624.87,1655.28,631.56,1653.34,637.31z"/>
		<path class="st0" d="M1648.4,620.34c2.06-8.2-0.32-15.36-4.94-17.61c-3.57-1.75-7.63-0.14-9.59,0.71v0.01
			c-0.13,0.05-0.26,0.11-0.37,0.16c-9.68,4.33-11.96,15.9-12.05,16.42c-1.97,10.86,3.71,25.68,14.31,27.4
			c1.87,0.3,3.96,0.21,6.04-0.28c4.87-1.13,9.71-4.42,11.54-9.84C1655.28,631.56,1653.35,624.87,1648.4,620.34z M1645.94,618.99
			c-1.16,1.5-3.16,0.58-8.11,1.12c-0.61,0.06-1.26,0.15-1.96,0.27c-6.11,1.03-9.16,3.18-9.64,2.48c-0.39-0.58,1.1-2.79,9.95-10.25
			c0.42-0.36,0.86-0.73,1.32-1.11c0.59-2.23,1.5-4.54,2.91-4.72C1643.4,606.42,1648.38,615.82,1645.94,618.99z"/>
		<path class="st0" d="M1645.94,618.99c-1.16,1.5-3.16,0.58-8.11,1.12c-0.61,0.06-1.26,0.15-1.96,0.27
			c-6.11,1.03-9.16,3.18-9.64,2.48c-0.39-0.58,1.1-2.79,9.95-10.25c0.42-0.36,0.86-0.73,1.32-1.11c0.59-2.23,1.5-4.54,2.91-4.72
			C1643.4,606.42,1648.38,615.82,1645.94,618.99z"/>
		<path d="M1515.5,778.24c-0.58,0.46-5.85-4.14-9.63-10.38c-2.65-4.37-4.49-9.43-3.89-9.76c0.89-0.5,7.18,9.32,9.19,12.47
			C1514.22,775.33,1515.88,777.93,1515.5,778.24z"/>
		<path d="M1494.59,713.51c1.94-1.59,3.45-3.44,4.54-5.42c2.64-4.78,2.81-10.27,0.48-14.38h-0.01c-0.07-0.13-0.14-0.26-0.22-0.39
			c-3.9-6.3-13.36-8.14-18.23-4.96c-8.81,5.76-2.9,28.17,1.14,38.57c3.48,8.96,10.4,21.41,14.45,20.37
			c3.5-0.89,3.9-11.59,3.23-17.81C1499.19,722.27,1496.51,716.76,1494.59,713.51z M1488.77,708.73c-3.83-0.38-7.62-13.14-3.65-16.49
			c1.49-1.25,4.07-1.2,5.86-0.34c3.07,1.47,3.6,5.18,3.71,5.96C1495.45,703.11,1491.5,709,1488.77,708.73z"/>
		<path d="M1488.77,708.73c-3.83-0.38-7.62-13.14-3.65-16.49c1.49-1.25,4.07-1.2,5.86-0.34c3.07,1.47,3.6,5.18,3.71,5.96
			C1495.45,703.11,1491.5,709,1488.77,708.73z"/>
		<path d="M1466,682.49c-4.81,0.59-7.86,7.19-7.34,11.27c0.11,0.85,0.37,1.59,0.8,2.14c1.06,1.37,3.09,1.55,4.75,1.55
			c0.32,0,0.61,0,0.89-0.01c3.48-0.08,9.57-1.63,10.39-5.66C1476.35,687.46,1470.83,681.9,1466,682.49z M1472.4,690.12
			c-0.59,2.77-8.47,4.19-10.02,1.96c-0.82-1.19,0.17-3.39,0.97-4.5c0.27-0.37,1.53-2.13,3.6-2.3
			C1469.93,685.03,1472.8,688.22,1472.4,690.12z"/>
		<path d="M1472.4,690.12c-0.59,2.77-8.47,4.19-10.02,1.96c-0.82-1.19,0.17-3.39,0.97-4.5c0.27-0.37,1.53-2.13,3.6-2.3
			C1469.93,685.03,1472.8,688.22,1472.4,690.12z"/>
		<path class="st0" d="M1472.4,690.12c-0.59,2.77-8.47,4.19-10.02,1.96c-0.82-1.19,0.17-3.39,0.97-4.5c0.27-0.37,1.53-2.13,3.6-2.3
			C1469.93,685.03,1472.8,688.22,1472.4,690.12z"/>
		<path class="st1" d="M1645.94,618.99c-1.16,1.5-3.16,0.58-8.11,1.12c-0.61,0.06-1.26,0.15-1.96,0.27
			c-6.11,1.03-9.16,3.18-9.64,2.48c-0.39-0.58,1.1-2.79,9.95-10.25c0.42-0.36,0.86-0.73,1.32-1.11c0.59-2.23,1.5-4.54,2.91-4.72
			C1643.4,606.42,1648.38,615.82,1645.94,618.99z"/>
		<path class="st0" d="M1488.77,708.73c-3.83-0.38-7.62-13.14-3.65-16.49c1.49-1.25,4.07-1.2,5.86-0.34
			c3.07,1.47,3.6,5.18,3.71,5.96C1495.45,703.11,1491.5,709,1488.77,708.73z"/>
		<path class="st1" d="M1452.62,733.97c-1.58,3.76-4.68,11.13-9.62,11.21c-3.24,0.05-6.13-3.05-7.2-5.91
			c-2.39-6.43,3.24-14.83,7.69-14.67c0.83,0.03,2.61,0.39,4.67,3.42c3.35-11.73,5.15-15.33,6.16-15.78c0.01,0,0.02-0.01,0.03-0.01
			c0.08-0.01,0.16-0.02,0.24-0.03c0.01,0,0.01,0,0.02,0C1456.36,712.49,1456.87,723.85,1452.62,733.97z"/>
	</g>
	<g>
		<path class="st1" d="M263.11,357.71c0.09,0.14,0.21,0.29,0.35,0.45c0.15,0.16,0.25,0.37,0.31,0.63c0.3-1.77,0.3-3.71,0.01-5.8
			c-0.3-2.1-0.67-4-1.12-5.71c-2.22-7.66-3.79-15.72-4.72-24.17c-0.93-8.45-1.76-16.92-2.49-25.39s-1.67-16.77-2.79-24.91
			c-1.12-8.13-2.98-15.77-5.58-22.9c-0.45-1.21-1.42-2.4-2.93-3.56c-1.51-1.16-3.13-2.22-4.86-3.19c-1.74-0.97-3.34-1.82-4.83-2.54
			c-1.49-0.72-2.54-1.34-3.15-1.86c-0.03,0.12-0.45,0.08-1.26-0.12c-0.81-0.2-1.88-0.51-3.18-0.95c-1.31-0.44-2.61-0.9-3.91-1.4
			c-1.3-0.49-2.51-0.94-3.64-1.33c-1.13-0.39-1.93-0.65-2.4-0.76c-2.33-0.56-4.05-0.79-5.18-0.69c-1.13,0.1-2.06,0.28-2.8,0.53
			c-0.74,0.26-1.45,0.54-2.14,0.87c-0.69,0.33-1.69,0.4-3,0.2c-2.72,3.65-5.36,7.26-7.94,10.82c-2.58,3.56-4.55,7.45-5.93,11.67
			l-3.83-0.92c0.06-2.32,0.4-5.65,1.01-9.99c0.61-4.34,1.35-9.11,2.23-14.31c0.88-5.2,1.79-10.57,2.75-16.11
			c0.96-5.54,1.9-10.76,2.82-15.64c0.92-4.88,1.68-9.18,2.26-12.91c0.58-3.73,0.93-6.32,1.03-7.77c-1.48-3.06-4.43-5.12-8.84-6.17
			c-2.91-0.7-6.4-0.98-10.49-0.85c-0.55,0.24-0.92,0.64-1.12,1.21c-0.2,0.57-0.76,0.74-1.69,0.52c-0.35-0.08-0.8-0.22-1.38-0.42
			c-0.56-0.2-1.14-0.37-1.72-0.5l-0.7-0.17c-0.79,4.85-1.69,10.53-2.7,17.05c-0.85,5.5-1.73,11.33-2.64,17.43
			c-1.13,0.91-2.25,1.8-3.36,2.64c-1.37,1.04-2.63,2.12-3.78,3.25c-0.26-0.34-0.46-0.67-0.61-0.97c-0.15-0.3-0.37-0.57-0.67-0.8
			c0.12-0.34,0.26-0.67,0.44-0.99c0.17-0.32,0.3-0.59,0.38-0.82c0.39-1.13,0.3-1.79-0.26-1.99c-1.25-0.43-4.44,1.31-9.58,5.22
			c-6.14,4.58-11.98,9.77-17.53,15.56c-5.55,5.79-10.66,11.42-15.33,16.89c-4.67,5.47-8.84,10.47-12.5,15.02
			c-3.66,4.55-6.6,7.83-8.81,9.85c0.04-0.49,0.26-2.03,0.65-4.61c0.39-2.58,0.88-5.83,1.47-9.73c0.59-3.9,1.24-8.33,1.94-13.27
			c0.7-4.94,1.39-10.05,2.07-15.31c0.68-5.26,1.32-10.58,1.91-15.94c0.59-5.36,1.12-10.36,1.59-15c-1.26-2.58-2.23-4.63-2.91-6.13
			c-0.69-1.5-1.32-2.67-1.92-3.51c-0.6-0.84-1.25-1.51-1.96-2.01c-0.71-0.5-1.73-1.04-3.04-1.62c-0.34-0.12-1.41-0.23-3.2-0.35
			c-1.8-0.12-3.71-0.24-5.75-0.38c-2.04-0.14-4.82-0.25-8.33-0.32c-4.84,3.38-9.54,8.37-14.09,14.95s-8.71,13.46-12.45,20.64
			c-1.47,2.78-2.96,5.62-4.46,8.51c-1.51,2.89-2.94,5.65-4.29,8.29c-1.36,2.63-2.51,4.98-3.48,7.05c-0.97,2.07-1.63,3.61-1.98,4.63
			c-0.08,0.24-0.14,0.45-0.19,0.63c-0.17-2.32-0.46-5.18-0.85-8.58c-0.45-3.82-0.92-7.84-1.42-12.06c-0.5-4.22-0.88-8.43-1.13-12.63
			c-0.25-4.2-0.27-7.9-0.04-11.11c0.38-3.28,0.64-6.61,0.79-9.97c0.15-3.36,0.23-6.68,0.23-9.97c0-3.29-0.02-6.43-0.06-9.41
			c-0.04-2.99-0.11-5.63-0.19-7.94c-0.23-0.08-0.73-0.09-1.5-0.05c-0.78,0.05-1.65,0.12-2.64,0.23c-0.99,0.1-1.89,0.17-2.72,0.2
			c-0.83,0.03-1.42-0.02-1.75-0.13l-0.34-0.12c-0.46,0.6-1.14,0.91-2.02,0.91c-0.89,0.01-1.86-0.1-2.92-0.35
			c-1.06-0.24-2.14-0.49-3.25-0.75c-1.11-0.26-2.08-0.47-2.91-0.63c-1.03,1.16-1.93,1.74-2.68,1.73c-0.76-0.01-2.15,0.01-4.2,0.07
			c-0.73,1.01-1.27,1.84-1.62,2.48c-0.35,0.64-0.67,1.19-0.96,1.66c-0.29,0.47-0.68,0.87-1.18,1.21c-0.5,0.33-1.35,0.61-2.56,0.82
			c-0.72,3.92-1.04,8.4-0.95,13.42c0.09,5.03,0.41,10.32,0.95,15.88c0.54,5.56,1.19,11.26,1.96,17.09
			c0.76,5.83,1.43,11.56,2.01,17.2c0.96,11.46,2.26,22.25,3.88,32.36c1.62,10.11,3.18,18.84,4.69,26.19
			c1.32,0.2,2.53,0.46,3.62,0.78c1.09,0.31,2.05,0.55,2.88,0.71c0.88-0.71,1.71-1.37,2.49-1.98c0.78-0.62,1.63-1.14,2.54-1.59
			l5.93,2.05c0.84-0.6,1.54-1.08,2.11-1.45c0.57-0.37,1.2-0.63,1.88-0.77c0.68-0.14,1.5-0.21,2.44-0.2
			c0.95,0.01,2.19-0.03,3.74-0.13c1.13,0.01,2-0.04,2.61-0.14c0.61-0.1,1.12-0.5,1.54-1.17c0.42-0.67,0.9-1.68,1.42-3.02
			c0.52-1.34,1.35-3.26,2.48-5.78c5.04-11.66,9.49-22.04,13.34-31.14c3.84-9.1,7.27-17.62,10.27-25.56
			c-0.01,1.13-0.17,3.23-0.47,6.29c-0.3,3.06-0.66,6.57-1.08,10.53c-0.42,3.96-0.82,8.13-1.19,12.49
			c-0.37,4.36-0.65,8.47-0.85,12.32c-0.29,5.59-0.79,11.33-1.5,17.22c-0.71,5.89-0.99,12.08-0.83,18.59l2.03,0.7
			c-0.08,0.23-0.13,0.55-0.15,0.99c-0.02,0.43-0.04,0.84-0.04,1.22c0.76,0.01,1.44,0.12,2.06,0.34c0.62,0.21,1.33,0.46,2.12,0.73
			l2.88,1l0.94-2.71c3.81,1.06,6.86,1.65,9.16,1.75c2.3,0.1,4.61,0.11,6.92,0.02c1.28-0.06,2.39-0.25,3.32-0.56
			c0.93-0.31,1.82-0.79,2.68-1.44c0.86-0.65,1.73-1.45,2.63-2.41c0.9-0.95,2.02-2.08,3.36-3.39c3.1-3.1,8.67-9.33,16.71-18.69
			c5.13-6.06,10.58-12.21,16.34-18.44c5.76-6.23,11.31-12.21,16.65-17.95c3.05-3.28,5.91-6.45,8.62-9.52
			c-1.03,7.56-1.9,14.96-2.62,22.19c-0.74,7.44-1.31,14.43-1.71,20.97c-0.4,6.54-0.44,12.24-0.13,17.11
			c0.11,0.03,0.16,1.27,0.12,3.72c-0.03,2.45-0.13,5.16-0.29,8.13c-0.16,2.97-0.32,5.82-0.48,8.55c-0.16,2.73-0.33,4.44-0.49,5.13
			c0.96,0.11,1.94,0.25,2.94,0.43c1,0.18,1.97,0.38,2.9,0.6c4.42,1.06,8.71,2.49,12.89,4.29c4.18,1.8,8.47,3.23,12.89,4.29
			c2.87-8.9,5.81-17.35,8.84-25.35c3.02-8,6.08-16.42,9.18-25.27c0.36-1.02,0.92-2.3,1.66-3.84c0.74-1.54,1.55-3.01,2.43-4.39
			c0.88-1.38,1.84-2.54,2.86-3.46c1.02-0.92,2.05-1.26,3.1-1.01c0.93,0.22,1.81,1.02,2.65,2.39c0.84,1.37,1.56,3.6,2.18,6.7
			c0.59,1.62,1.24,4.29,1.95,8.02c0.7,3.73,1.45,8.06,2.24,12.98c0.79,4.92,1.66,10.14,2.61,15.65c0.95,5.51,1.97,10.76,3.05,15.75
			c1.08,4.99,2.18,9.49,3.31,13.51c1.12,4.02,2.38,6.99,3.76,8.92c-0.11,0.46,0.22,1,1,1.62c0.77,0.62,1.85,1.24,3.24,1.88
			c1.38,0.64,2.93,1.25,4.63,1.84s3.42,1.1,5.17,1.51c2.21,0.53,4.25,0.86,6.12,1C260.96,358.82,262.3,358.49,263.11,357.71z"/>
		<path class="st1" d="M390.11,375.94c-0.81-4.54-1.83-9.14-3.04-13.8c-1.22-4.66-2.5-9.24-3.86-13.75
			c-1.36-4.5-2.65-8.66-3.88-12.48c-2.41-7.14-4.99-14.47-7.76-21.97c-2.77-7.5-5.3-14.84-7.58-22.03
			c-2.28-7.18-4.08-13.93-5.4-20.24c-1.32-6.31-1.67-11.9-1.04-16.76c-0.56-0.33-1.36-0.57-2.43-0.74
			c-1.18-0.18-2.33-0.18-3.45,0.01c-1.12,0.19-2.33,0.18-3.63-0.02c-0.71-0.11-1.23-0.25-1.57-0.42c-0.82,0.6-1.52,1.22-2.1,1.85
			c-2.24-0.35-3.96-0.16-5.17,0.56c-1.2,0.72-2.72,1.55-4.55,2.47l-0.27,1.77c-0.87,0.11-1.73,0.25-2.6,0.42
			c-0.88,0.17-1.37,0.24-1.49,0.22c-0.24-0.04-0.43-0.13-0.59-0.27c-0.16-0.14-0.36-0.24-0.59-0.27c-0.24-0.04-0.48,0.53-0.72,1.7
			c-0.24,1.17-0.46,2.41-0.66,3.71c-0.33,2.12-0.66,4.64-0.99,7.56c-0.33,2.91-0.73,5.9-1.2,8.97c-0.62,4.02-1.3,7.99-2.02,11.93
			c-0.73,3.94-1.69,7.42-2.88,10.44c-1.19,3.02-2.77,5.38-4.72,7.07c-1.96,1.69-4.41,2.31-7.36,1.86c-2.6-0.4-4.44-2.2-5.52-5.39
			c-1.08-3.19-1.72-7.04-1.94-11.54c-0.21-4.5-0.22-9.37-0.01-14.6c0.2-5.23,0.26-10.09,0.16-14.58c-0.09-4.49-0.5-8.3-1.23-11.43
			c-0.73-3.13-2.09-4.86-4.1-5.17c-1.3-0.2-2.82-0.16-4.55,0.11c-1.74,0.28-4.01,0.5-6.81,0.67l-0.3,1.95
			c-0.75,0.13-1.44,0.32-2.08,0.58c-0.65,0.26-1.04,0.87-1.19,1.81c-1.39,0.39-2.66,0.77-3.8,1.14c-1.14,0.37-2.33,0.64-3.57,0.81
			c-0.96,3.84-1.7,7.48-2.23,10.9c-1.64,10.63-1.6,19.77,0.12,27.41c1.11,5.37,2.07,10.29,2.89,14.78c0.82,4.48,1.94,8.4,3.35,11.76
			c1.41,3.36,3.32,6.11,5.71,8.23c2.39,2.12,5.72,3.51,9.97,4.17c3.3,0.51,7.21,0.3,11.71-0.64c4.5-0.94,9.01-2.36,13.54-4.26
			c4.53-1.9,8.9-4.16,13.11-6.77c4.21-2.61,7.74-5.33,10.6-8.16c1.79,4.87,3.91,10.7,6.37,17.49c2.46,6.79,4.75,13.88,6.87,21.29
			c2.12,7.4,3.87,14.68,5.24,21.85c1.37,7.16,1.93,13.57,1.66,19.21l-0.14,0.89c-0.38,2.48-1.76,3.54-4.12,3.17
			c-0.59-0.09-1.2-0.25-1.83-0.46c-0.63-0.22-1.28-0.5-1.96-0.85c-4.78-1.95-9.7-3.74-14.77-5.36c-5.07-1.63-10.34-3.11-15.82-4.44
			c-2.82-0.56-6.18-1.32-10.08-2.28c-3.9-0.96-7.67-2.03-11.3-3.19c-3.63-1.17-6.74-2.37-9.33-3.62c-2.59-1.25-3.97-2.49-4.14-3.72
			c0.64-0.26,1.43-0.87,2.37-1.81c0.93-0.95,1.91-1.97,2.92-3.09c1.02-1.11,2.02-2.11,3-2.98c0.98-0.88,1.85-1.44,2.62-1.68
			l0.33-2.13c3.83-1.34,6.69-2.63,8.57-3.85c1.88-1.22,3.44-1.92,4.68-2.09c0.02-0.12-0.38-0.45-1.21-1
			c-0.82-0.55-1.7-1.14-2.63-1.77c-0.93-0.63-1.81-1.21-2.63-1.77c-0.82-0.55-1.22-0.88-1.21-1c-4.1,0.7-8.34,1.52-12.72,2.48
			c-4.38,0.96-8.73,2.49-13.04,4.61c-1.82,0.81-3.9,2.12-6.23,3.94c-2.34,1.82-4.59,3.86-6.75,6.12c-2.16,2.27-4.07,4.63-5.72,7.1
			c-1.65,2.47-2.65,4.82-3,7.07c-0.38,2.48,0.02,4.57,1.21,6.26c1.19,1.69,3.69,3.14,7.5,4.33c3.33,1.12,7.98,2.92,13.95,5.42
			c5.96,2.49,12.58,5.08,19.84,7.78c7.26,2.69,14.79,5.25,22.58,7.66c7.79,2.41,15.17,4.15,22.14,5.23
			c2.24,0.35,4.35,0.61,6.32,0.79c1.97,0.18,3.92,0.24,5.87,0.18c3.02-0.02,6.4-0.95,10.14-2.79c3.73-1.84,7.27-4.2,10.61-7.07
			c3.34-2.87,6.25-6.02,8.71-9.45c2.46-3.43,3.96-6.86,4.49-10.28c0.13-0.83,0.16-1.85,0.11-3.07
			C391.51,384.71,390.92,380.47,390.11,375.94z"/>
		<path class="st1" d="M674.66,311.42c-7-1.37-14.77-2.74-23.32-4.11c-8.55-1.36-17.17-3-25.87-4.9c-4.95-0.98-9.94-2.23-14.96-3.75
			c-5.03-1.52-9.62-3.14-13.76-4.88c-4.14-1.73-7.54-3.53-10.19-5.39c-2.65-1.86-4.01-3.62-4.08-5.3c-0.05-1.08,0.72-2,2.3-2.79
			c1.58-0.79,3.73-1.48,6.46-2.07c1.05-0.64,2.35-1,3.9-1.07c2.27-0.1,4.75,0.63,7.45,2.19c2.7,1.56,5.23,3.39,7.59,5.5
			c2.36,2.11,4.31,4.21,5.83,6.3c1.53,2.09,2.31,3.61,2.35,4.56l0.03,0.72c0.24-0.01,0.48,0.01,0.72,0.06
			c0.24,0.05,0.48,0.07,0.72,0.06c2.03-0.09,3.92-0.56,5.68-1.41c1.76-0.85,3.7-1.62,5.82-2.31c0.41-1.45,0.81-2.58,1.2-3.37
			c0.38-0.79,0.81-1.38,1.27-1.76c0.46-0.38,1.05-0.64,1.76-0.79c0.71-0.15,1.61-0.25,2.68-0.29l3.58-0.15
			c-0.32-1.78-0.85-3.76-1.6-5.94c-0.75-2.18-1.77-4.26-3.05-6.24c-1.28-1.98-2.82-3.67-4.62-5.09c-1.8-1.42-3.95-2.19-6.47-2.32
			c0.03,0.6,0.36,1.36,1,2.29c-6.9-1.86-13.25-3.58-19.06-5.19c-5.81-1.6-11.34-2.29-16.6-2.07c-3.58,0.15-7.85,1.03-12.81,2.61
			c-4.96,1.59-9.68,3.74-14.17,6.44c-4.49,2.71-8.27,5.86-11.35,9.46c-2.56,3-3.97,6.19-4.28,9.59c-0.1-0.36-0.2-0.73-0.31-1.07
			c-0.87-2.66-2.14-4.82-3.82-6.5c-1.68-1.67-4.07-2.56-7.18-2.66c-2.63-0.09-5.69,0.41-9.2,1.49l0.08-2.33
			c-0.72,0.1-1.39,0.37-2,0.83l-0.19,5.73c-2.24-1.03-3.48-1.55-3.71-1.56l-0.18-0.01c-0.12,0-0.45-0.02-0.99-0.03
			c-0.54-0.02-1.34-0.1-2.41-0.26c-1.03,2.24-2.06,3.49-3.08,3.75c-1.03,0.26-2.15,0.74-3.36,1.41l-0.23,6.81
			c0.47,0.26,0.97,0.57,1.49,0.95c0.53,0.38,1.08,0.69,1.67,0.95c1.64,4.6,2.77,9.03,3.41,13.3c0.63,4.27,0.89,8.37,0.75,12.31
			c-0.18,5.37-0.94,10.28-2.29,14.72c-1.35,4.44-3.06,8.24-5.13,11.4c-2.08,3.16-4.38,5.62-6.88,7.39
			c-2.51,1.77-4.96,2.61-7.35,2.53c-2.75-0.09-5.42-1.46-8.02-4.12c-2.6-2.66-4.86-6.8-6.76-12.42c-1.91-5.62-3.37-12.91-4.38-21.85
			c-1.02-8.94-1.31-19.74-0.89-32.4c0.2-6.09,0.61-12.83,1.21-20.23c-0.96,0.09-2.01,0.08-3.14-0.02c-1.13-0.1-2.21-0.07-3.23,0.07
			c-1.02,0.15-1.96,0.5-2.82,1.07c-0.86,0.57-1.43,1.57-1.71,2.99c-0.71-0.26-1.42-0.46-2.13-0.61c-0.71-0.14-1.49-0.29-2.32-0.44
			c-0.13,0.36-0.57,0.94-1.31,1.75c-0.75,0.81-1.55,1.65-2.42,2.52c-0.87,0.87-1.73,1.62-2.59,2.25c-0.86,0.63-1.53,1-2.01,1.1
			c-2.55,8.29-4.7,16.38-6.46,24.27c-1.76,7.89-2.96,16.13-3.61,24.72l2.15,0.07c-0.14,0.59-0.22,1.22-0.24,1.88
			c-0.02,0.66-0.04,1.29-0.06,1.88c-0.26,7.64,0.93,14.32,3.54,20.03c2.62,5.71,6.04,10.49,10.28,14.33
			c4.24,3.85,9.01,6.76,14.33,8.73c5.31,1.97,10.48,3.04,15.5,3.21c2.75,0.09,5.14-0.07,7.19-0.48c4.45-0.69,9.11-1.55,13.99-2.58
			c4.88-1.03,9.5-2.49,13.87-4.38c4.37-1.89,8.21-4.27,11.54-7.15c3.33-2.88,5.66-6.57,7.01-11.07c0.37-0.23,0.76-0.39,1.18-0.5
			c0.42-0.1,0.93-0.26,1.54-0.49c1.22-4.26,2.19-8.21,2.91-11.83c0.72-3.62,1.15-7.58,1.29-11.88c0.25-0.23,0.85-0.45,1.82-0.66
			c-0.87-2.54-1.46-5.43-1.77-8.67c-0.31-3.24-0.53-6.59-0.65-10.07c-0.13-3.47-0.31-6.88-0.55-10.24
			c-0.02-0.25-0.05-0.48-0.07-0.72c1.54,3.03,4.38,5.69,8.54,7.97c6.37,3.49,15.3,6.73,26.79,9.7c3.02,0.83,6.83,1.62,11.41,2.38
			c4.58,0.76,9.42,1.54,14.54,2.33c5.12,0.8,10.24,1.68,15.37,2.66c5.12,0.98,9.75,2.09,13.87,3.35c4.12,1.26,7.5,2.7,10.14,4.32
			c2.64,1.62,4.01,3.51,4.1,5.66c0.13,3.11-1.5,6.08-4.91,8.91c-3.41,2.84-7.66,5.38-12.77,7.64c-5.11,2.26-10.59,4.11-16.45,5.55
			c-5.86,1.45-11.12,2.27-15.77,2.47c-4.78,0.21-8.45-0.38-11.02-1.77c-2.57-1.38-3.94-3.99-4.1-7.81
			c-0.12-2.74,0.58-5.29,2.09-7.62c1.51-2.34,3.21-4.5,5.1-6.5c1.89-1.99,3.63-3.86,5.23-5.61c1.6-1.74,2.36-3.45,2.29-5.12
			c-0.05-1.07-0.95-1.78-2.69-2.13c-1.75-0.34-3.4-0.48-4.95-0.42c-1.32,0.06-2.8,0.36-4.45,0.91c-1.65,0.55-3.39,1.16-5.21,1.84
			c-1.83,0.68-3.68,1.42-5.56,2.21c-1.88,0.8-3.59,1.47-5.12,2.01l0.08,1.79c-2.71,1.08-5.12,2.53-7.26,4.35
			c-2.13,1.83-3.93,3.94-5.38,6.33c-1.45,2.4-2.54,4.95-3.26,7.68c-0.72,2.72-1.02,5.4-0.91,8.02c0.14,3.22,0.93,6.24,2.36,9.05
			c1.44,2.81,3.63,5.17,6.58,7.07c-1.17,0.65-1.87,1.1-2.09,1.35c7.17,5.43,16.37,7.91,27.59,7.43c11.1-0.48,21.87-2.44,32.31-5.88
			c10.44-3.44,19.85-7.73,28.24-12.88c8.39-5.14,15.41-10.83,21.07-17.05c5.65-6.22,9.3-12.36,10.96-18.41
			c0.3-1.33,0.55-2.51,0.74-3.53c0.2-1.02,0.27-2.08,0.22-3.15C687.75,316.84,683.35,313.2,674.66,311.42z"/>
		<path class="st1" d="M735.74,323.07c1.65-0.31,3.29-0.62,4.94-0.93c1.65-0.31,3.29-0.62,4.95-0.93c-0.41-0.43-0.72-0.73-0.91-0.89
			c-0.2-0.16-0.37-0.29-0.5-0.39c1.08,0,2.7,0.23,4.86,0.7s4.19,0.6,6.09,0.38c0.95-0.11,2.02-0.44,3.22-1
			c1.2-0.56,2.31-1.35,3.34-2.37c1.02-1.02,1.85-2.17,2.49-3.45c0.63-1.27,0.86-2.74,0.67-4.41c-0.18-1.54-1-2.89-2.45-4.05
			c-3.98-1.1-8.15-1.8-12.51-2.08c-4.36-0.28-8.49-0.85-12.38-1.73c-3.89-0.87-7.21-2.51-9.95-4.9c-2.74-2.39-4.41-6.2-5.02-11.42
			l-0.14-1.25l0.94-0.11c0.29-0.54,0.79-1.26,1.5-2.16c1.26-1.59,2.88-3.46,4.86-5.61c1.98-2.15,4.15-4.45,6.51-6.89
			c2.36-2.44,4.65-4.75,6.87-6.93c2.21-2.18,4.16-4.09,5.83-5.73c1.68-1.64,2.84-2.79,3.48-3.47c1.5-1.62,3.04-3.33,4.64-5.14
			c1.6-1.81,3.01-3.66,4.23-5.54c1.23-1.88,2.18-3.8,2.86-5.74c0.68-1.94,0.92-3.8,0.71-5.58c-0.29-2.49-1.57-4.69-3.83-6.6
			c-2.27-1.9-5.16-3.55-8.69-4.95c-3.53-1.4-7.46-2.57-11.77-3.51c-4.32-0.95-8.65-1.68-12.97-2.2c-4.33-0.52-8.52-0.82-12.56-0.9
			c-4.04-0.08-7.48,0.05-10.33,0.38c-10.09,1.16-19.49,4.2-28.18,9.12c-8.7,4.91-17.23,12.3-25.59,22.17
			c0.16,1.42,0.67,2.96,1.52,4.61c0.85,1.65,1.43,3.24,1.72,4.76c1.66-0.19,3.05-0.65,4.17-1.38c1.12-0.73,1.77-1.83,1.97-3.29
			c1.56-0.06,2.42,0.68,2.6,2.23l0.04,0.36c0.1,0.83,0.56,1.2,1.39,1.1c0.36-0.04,0.65-0.13,0.87-0.28
			c1.86-1.66,4.21-3.43,7.05-5.32c2.85-1.89,5.98-3.7,9.39-5.41c3.41-1.71,7.09-3.22,11.03-4.52c3.94-1.29,7.87-2.17,11.79-2.62
			c2.73-0.31,5.4-0.38,8.01-0.2c2.61,0.18,5.16,0.67,7.66,1.46c0.32-0.4,0.82-0.75,1.5-1.08c1.03,0.6,2.04,1.27,3.03,2
			c0.99,0.73,2,1.46,3.05,2.17c0.14,1.19,0.25,2.2,0.35,3.03c0.1,0.83,0.24,1.54,0.42,2.12c-3.73,4.16-7.92,8.25-12.57,12.28
			c-4.65,4.03-8.95,8.19-12.91,12.5c-3.96,4.31-7.16,8.86-9.61,13.65c-2.46,4.79-3.36,9.98-2.72,15.56
			c0.14,1.19,0.36,2.57,0.66,4.16c0.3,1.59,0.81,3.1,1.51,4.52c0.71,1.42,1.66,2.67,2.87,3.73c1.21,1.07,2.84,1.72,4.92,1.96
			c6.1,0.74,12.01,2.22,17.75,4.45C724.13,319.71,729.91,321.57,735.74,323.07z"/>
		<path class="st1" d="M723.27,285.35c0.24-0.03,0.79-0.45,1.66-1.27l-1.55,0.18c-0.22,0.42-0.33,0.73-0.31,0.94
			C723.08,285.31,723.15,285.36,723.27,285.35z"/>
		<path class="st1" d="M769.28,363.59c-0.01-0.12-0.06-0.26-0.14-0.43c-0.08-0.17-0.43-0.34-1.05-0.51
			c-0.62-0.17-1.64-0.38-3.05-0.64c-1.41-0.26-3.41-0.6-5.98-1.02l-0.25-2.14c-1.78,0.21-3.06,0.08-3.83-0.37
			c-0.77-0.45-1.37-1.16-1.78-2.14c-0.41-0.97-0.77-2.2-1.05-3.67c-0.29-1.47-0.84-3.12-1.65-4.95l-1.96,0.23
			c-1.65-2.82-3.43-4.69-5.34-5.61c-1.91-0.92-3.88-1.27-5.89-1.03c-1.66,0.19-3.35,0.69-5.06,1.49c-1.71,0.8-3.39,1.68-5.02,2.65
			c-1.63,0.97-3.2,1.99-4.7,3.07c-1.5,1.08-2.81,1.98-3.93,2.71c-0.26,1.96-0.3,3.64-0.14,5.07c0.1,0.83,0.29,1.68,0.57,2.55
			c0.28,0.87,0.68,2,1.2,3.38l-1.78,0.21c1.93,2.18,4.07,4.04,6.42,5.58c2.34,1.53,5.1,2.48,8.27,2.84
			c0.06,0.47-0.24,0.84-0.87,1.09c-0.63,0.25-0.92,0.62-0.87,1.09c2.53,0.07,4.67,0.39,6.43,0.97c1.75,0.58,3.77,1.4,6.06,2.46
			c3.1-1.32,5.32-2.12,6.67-2.39c1.35-0.28,2.61-0.57,3.78-0.89c1.17-0.31,2.67-0.88,4.5-1.69c1.83-0.81,4.78-2.36,8.85-4.63
			l-0.35-3.03L769.28,363.59z"/>
	</g>
</g>
</svg>
